<?xml version="1.0" encoding="UTF-8" standalone="no"?>
<!-- Created with Inkscape (http://www.inkscape.org/) -->

<svg
   xmlns:dc="http://purl.org/dc/elements/1.1/"
   xmlns:cc="http://creativecommons.org/ns#"
   xmlns:rdf="http://www.w3.org/1999/02/22-rdf-syntax-ns#"
   xmlns:svg="http://www.w3.org/2000/svg"
   xmlns="http://www.w3.org/2000/svg"
   xmlns:sodipodi="http://sodipodi.sourceforge.net/DTD/sodipodi-0.dtd"
   xmlns:inkscape="http://www.inkscape.org/namespaces/inkscape"
   width="295.00003"
   height="295"
   viewBox="0 0 295.00003 295.00001"
   id="svg9107"
   version="1.1"
   inkscape:version="0.92.3 (2405546, 2018-03-11)"
   sodipodi:docname="Department_of_Transportation_(Philippines).svg">
  <defs
     id="defs9109" />
  <sodipodi:namedview
     id="base"
     pagecolor="#ffffff"
     bordercolor="#666666"
     borderopacity="1.0"
     inkscape:pageopacity="0.0"
     inkscape:pageshadow="2"
     inkscape:zoom="1.7220339"
     inkscape:cx="151.51913"
     inkscape:cy="301.9685"
     inkscape:document-units="px"
     inkscape:current-layer="layer1"
     showgrid="false"
     fit-margin-top="0"
     fit-margin-left="0"
     fit-margin-right="0"
     fit-margin-bottom="0"
     units="px"
     inkscape:window-width="1080"
     inkscape:window-height="1849"
     inkscape:window-x="-8"
     inkscape:window-y="-8"
     inkscape:window-maximized="1"
     inkscape:snap-bbox="false"
     inkscape:snap-object-midpoints="true"
     inkscape:snap-center="true"
     inkscape:bbox-paths="true"
     inkscape:bbox-nodes="true"
     inkscape:snap-bbox-edge-midpoints="true"
     inkscape:snap-bbox-midpoints="true"
     inkscape:object-paths="true"
     inkscape:snap-intersection-paths="true"
     inkscape:snap-smooth-nodes="true"
     inkscape:snap-midpoints="true"
     inkscape:snap-nodes="false"
     inkscape:showpageshadow="2"
     inkscape:pagecheckerboard="0"
     inkscape:deskcolor="#d1d1d1">
    <inkscape:grid
       type="xygrid"
       id="grid1355" />
  </sodipodi:namedview>
  <metadata
     id="metadata9112">
    <rdf:RDF>
      <cc:Work
         rdf:about="">
        <dc:format>image/svg+xml</dc:format>
        <dc:type
           rdf:resource="http://purl.org/dc/dcmitype/StillImage" />
        <dc:title />
      </cc:Work>
    </rdf:RDF>
  </metadata>
  <g
     inkscape:label="Layer 1"
     inkscape:groupmode="layer"
     id="layer1"
     transform="translate(-267.26598,-219.21515)">
    <g
       id="g4626">
      <ellipse
         ry="145.4303"
         rx="145.43031"
         cy="366.91968"
         cx="415.13464"
         id="path9791"
         style="fill:#ffffff;fill-opacity:1;stroke:#0038a8;stroke-width:4.13939571;stroke-linecap:round;stroke-linejoin:miter;stroke-miterlimit:4;stroke-dasharray:none;stroke-dashoffset:0;stroke-opacity:1" />
      <path
         id="path7373"
         d="m 304.37761,399.10699 a 116.37276,116.37276 0 0 1 44.7552,-126.25718 116.37276,116.37276 0 0 1 133.9539,-0.48295 116.37276,116.37276 0 0 1 45.6645,125.93119"
         style="fill:none;fill-opacity:1;stroke:none;stroke-width:2.25447798;stroke-linecap:round;stroke-linejoin:miter;stroke-miterlimit:4;stroke-dasharray:none;stroke-dashoffset:0;stroke-opacity:1"
         inkscape:connector-curvature="0" />
      <path
         id="path7375"
         d="m 313.65501,460.97492 a 137.73262,137.7326 0 0 0 102.5757,45.3829 137.73262,137.7326 0 0 0 102.317,-45.96311"
         style="fill:none;fill-opacity:1;stroke:none;stroke-width:2.66828012;stroke-linecap:round;stroke-linejoin:miter;stroke-miterlimit:4;stroke-dasharray:none;stroke-dashoffset:0;stroke-opacity:1"
         inkscape:connector-curvature="0" />
      <path
         sodipodi:nodetypes="cccccczzzcccsczcczccccccccccccc"
         inkscape:connector-curvature="0"
         id="path8764"
         d="m 411.08221,256.24801 c -2.6885,48.26929 16.5145,83.42833 50.1066,104.58817 l -6.1018,-12.05005 c 19.6783,9.77838 27.6412,8.03247 39.2703,4.36187 12.2436,0.81117 10.3656,11.51468 10.3656,11.51468 l 6.1563,0.0293 c 0,0 2.4516,0.18984 4.2672,1.10076 1.8155,0.91093 4.0311,3.12084 5.317,4.78128 1.2858,1.66044 2.7534,3.19169 2.7534,3.19169 0,0 -38.0048,-8.81588 -83.7222,15.71957 -53.0535,22.7606 -63.8291,81.92579 -63.8291,81.92579 0,0 -47.3002,-14.36241 -64.3706,-69.15594 0,0 13.1873,-3.21217 19.1595,-5.98849 7.336,-3.41035 20.1046,-12.96175 20.1046,-12.96175 0,0 -7.3778,3.93418 -24.6429,9.11612 -17.265,5.18194 -17.0778,3.84934 -17.0778,3.84934 -2.9192,-16.47144 -2.6338,-19.15605 -2.9438,-32.25117 0,0 13.6443,1.40719 20.7359,0.71428 7.0916,-0.69291 23.3226,-5 23.3226,-5 -14.109,-0.27194 -29.3288,2.4265 -42.9438,-3.34055 1.2538,-13.07522 1.3993,-17.2265 8.023,-32.18618 14.1647,7.13364 23.8261,10.81342 39.6033,11.7461 -14.4445,-3.50155 -23.6581,-7.54784 -37.0166,-18.82397 7.118,-14.55345 10.3485,-17.47821 17.2258,-25.25254 14.5032,14.63179 22.4605,20.35655 36.6811,26.80738 -15.9319,-13.08248 -22.0613,-17.68877 -31.1148,-33.02674 10.4314,-10.73629 18.0839,-13.89447 25.8443,-18.10968 6.8798,12.1445 10.3063,20.64076 24.7042,33.59309 -12.1264,-17.15787 -13.626,-23.03705 -18.2577,-36.04976 13.8998,-7.09046 20.82,-7.95856 38.3804,-8.84264 z"
         style="fill:#ce1126;fill-opacity:1;fill-rule:evenodd;stroke:none;stroke-width:0.30000001;stroke-linecap:butt;stroke-linejoin:miter;stroke-miterlimit:4;stroke-dasharray:none;stroke-opacity:1" />
      <path
         sodipodi:nodetypes="czcccccssc"
         inkscape:connector-curvature="0"
         id="path8768"
         d="m 414.18671,255.93069 c 0,0 -2.2035,32.00456 11.233,59.97707 13.4365,27.97251 29.835,37.2049 29.835,37.2049 l -2.7166,-8.80105 c 19.5757,11.0308 29.0817,9.92187 43.6838,5.64703 11.4315,2.75539 11.8746,11.53948 11.8746,11.53948 3.8368,0.52685 7.8347,-1.3156 16.7758,11.45314 0,0 2.5143,-12.78255 -1.9241,-30.40864 -4.4385,-17.6261 -15.198,-38.93819 -31.8547,-55.90394 -34.3716,-35.00927 -76.9068,-30.70799 -76.9068,-30.70799 z"
         style="fill:#0038a8;fill-opacity:1;fill-rule:evenodd;stroke:none;stroke-width:0.30000001;stroke-linecap:butt;stroke-linejoin:miter;stroke-miterlimit:4;stroke-dasharray:none;stroke-opacity:1" />
      <path
         sodipodi:nodetypes="czczc"
         inkscape:connector-curvature="0"
         id="path8772"
         d="m 524.77301,375.24673 c 0,0 -50.0818,-6.47256 -95.4124,23.53739 -45.3306,30.00995 -50.8991,72.91853 -50.8991,72.91853 0,0 55.99091,22.46323 101.38481,-16.23154 45.394,-38.69477 44.92669,-80.22438 44.92669,-80.22438 z"
         style="fill:#0038a8;fill-opacity:1;fill-rule:evenodd;stroke:none;stroke-width:1px;stroke-linecap:butt;stroke-linejoin:miter;stroke-opacity:1" />
      <path
         inkscape:connector-curvature="0"
         id="path8774"
         d="m 526.56141,385.78366 -78.6543,1.44141 0.02,1 78.6543,-1.44141 z"
         style="color:#000000;font-style:normal;font-variant:normal;font-weight:normal;font-stretch:normal;font-size:medium;line-height:normal;font-family:sans-serif;text-indent:0;text-align:start;text-decoration:none;text-decoration-line:none;text-decoration-style:solid;text-decoration-color:#000000;letter-spacing:normal;word-spacing:normal;text-transform:none;writing-mode:lr-tb;direction:ltr;baseline-shift:baseline;text-anchor:start;white-space:normal;clip-rule:nonzero;display:inline;overflow:visible;visibility:visible;opacity:1;isolation:auto;mix-blend-mode:normal;color-interpolation:sRGB;color-interpolation-filters:linearRGB;solid-color:#000000;solid-opacity:1;fill:#ffffff;fill-opacity:1;fill-rule:evenodd;stroke:none;stroke-width:1;stroke-linecap:butt;stroke-linejoin:miter;stroke-miterlimit:4;stroke-dasharray:none;stroke-dashoffset:0;stroke-opacity:1;color-rendering:auto;image-rendering:auto;shape-rendering:auto;text-rendering:auto;enable-background:accumulate" />
      <path
         inkscape:connector-curvature="0"
         id="path8776"
         d="m 524.68841,394.70163 -94.1621,1.51367 0.018,1.20118 94.164,-1.51563 -0.019,-1.19922 z"
         style="color:#000000;font-style:normal;font-variant:normal;font-weight:normal;font-stretch:normal;font-size:medium;line-height:normal;font-family:sans-serif;text-indent:0;text-align:start;text-decoration:none;text-decoration-line:none;text-decoration-style:solid;text-decoration-color:#000000;letter-spacing:normal;word-spacing:normal;text-transform:none;writing-mode:lr-tb;direction:ltr;baseline-shift:baseline;text-anchor:start;white-space:normal;clip-rule:nonzero;display:inline;overflow:visible;visibility:visible;opacity:1;isolation:auto;mix-blend-mode:normal;color-interpolation:sRGB;color-interpolation-filters:linearRGB;solid-color:#000000;solid-opacity:1;fill:#ffffff;fill-opacity:1;fill-rule:evenodd;stroke:none;stroke-width:1.20000005;stroke-linecap:butt;stroke-linejoin:miter;stroke-miterlimit:4;stroke-dasharray:none;stroke-dashoffset:0;stroke-opacity:1;color-rendering:auto;image-rendering:auto;shape-rendering:auto;text-rendering:auto;enable-background:accumulate" />
      <path
         inkscape:connector-curvature="0"
         id="path8778"
         d="m 521.57711,407.33054 -106.7481,0.65234 0.01,1.70117 106.7481,-0.65429 z"
         style="color:#000000;font-style:normal;font-variant:normal;font-weight:normal;font-stretch:normal;font-size:medium;line-height:normal;font-family:sans-serif;text-indent:0;text-align:start;text-decoration:none;text-decoration-line:none;text-decoration-style:solid;text-decoration-color:#000000;letter-spacing:normal;word-spacing:normal;text-transform:none;writing-mode:lr-tb;direction:ltr;baseline-shift:baseline;text-anchor:start;white-space:normal;clip-rule:nonzero;display:inline;overflow:visible;visibility:visible;opacity:1;isolation:auto;mix-blend-mode:normal;color-interpolation:sRGB;color-interpolation-filters:linearRGB;solid-color:#000000;solid-opacity:1;fill:#ffffff;fill-opacity:1;fill-rule:evenodd;stroke:none;stroke-width:1.70000005;stroke-linecap:butt;stroke-linejoin:miter;stroke-miterlimit:4;stroke-dasharray:none;stroke-dashoffset:0;stroke-opacity:1;color-rendering:auto;image-rendering:auto;shape-rendering:auto;text-rendering:auto;enable-background:accumulate" />
      <path
         inkscape:connector-curvature="0"
         id="path8780"
         d="m 509.92861,425.86765 -112.5566,0.75781 0.014,2 112.5547,-0.75781 -0.012,-2 z"
         style="color:#000000;font-style:normal;font-variant:normal;font-weight:normal;font-stretch:normal;font-size:medium;line-height:normal;font-family:sans-serif;text-indent:0;text-align:start;text-decoration:none;text-decoration-line:none;text-decoration-style:solid;text-decoration-color:#000000;letter-spacing:normal;word-spacing:normal;text-transform:none;writing-mode:lr-tb;direction:ltr;baseline-shift:baseline;text-anchor:start;white-space:normal;clip-rule:nonzero;display:inline;overflow:visible;visibility:visible;opacity:1;isolation:auto;mix-blend-mode:normal;color-interpolation:sRGB;color-interpolation-filters:linearRGB;solid-color:#000000;solid-opacity:1;fill:#ffffff;fill-opacity:1;fill-rule:evenodd;stroke:none;stroke-width:2;stroke-linecap:butt;stroke-linejoin:miter;stroke-miterlimit:4;stroke-dasharray:none;stroke-dashoffset:0;stroke-opacity:1;color-rendering:auto;image-rendering:auto;shape-rendering:auto;text-rendering:auto;enable-background:accumulate" />
      <path
         inkscape:connector-curvature="0"
         id="path8782"
         d="m 491.38371,447.3364 -106.416,1.00976 0.023,2.5 106.416,-1.00976 z"
         style="color:#000000;font-style:normal;font-variant:normal;font-weight:normal;font-stretch:normal;font-size:medium;line-height:normal;font-family:sans-serif;text-indent:0;text-align:start;text-decoration:none;text-decoration-line:none;text-decoration-style:solid;text-decoration-color:#000000;letter-spacing:normal;word-spacing:normal;text-transform:none;writing-mode:lr-tb;direction:ltr;baseline-shift:baseline;text-anchor:start;white-space:normal;clip-rule:nonzero;display:inline;overflow:visible;visibility:visible;opacity:1;isolation:auto;mix-blend-mode:normal;color-interpolation:sRGB;color-interpolation-filters:linearRGB;solid-color:#000000;solid-opacity:1;fill:#ffffff;fill-opacity:1;fill-rule:evenodd;stroke:none;stroke-width:2.5;stroke-linecap:butt;stroke-linejoin:miter;stroke-miterlimit:4;stroke-dasharray:none;stroke-dashoffset:0;stroke-opacity:1;color-rendering:auto;image-rendering:auto;shape-rendering:auto;text-rendering:auto;enable-background:accumulate" />
      <path
         id="path8792"
         d="m 357.26231,473.44016 a 119.91597,121.22279 0 0 1 -57.9135,-135.44204 119.91597,121.22279 0 0 1 114.3916,-91.65056 119.91597,121.22279 0 0 1 117.2144,87.93017 119.91597,121.22279 0 0 1 -53.6273,137.23377"
         style="fill:none;fill-opacity:1;stroke:none;stroke-width:1.04466271;stroke-linecap:round;stroke-linejoin:miter;stroke-miterlimit:4;stroke-dasharray:none;stroke-dashoffset:0;stroke-opacity:1"
         inkscape:connector-curvature="0" />
      <path
         id="path8792-9"
         d="m 374.24391,499.25568 a 138.80162,138.90623 0 0 0 98.4567,-5.54722"
         style="fill:none;fill-opacity:1;stroke:none;stroke-width:1.20310521;stroke-linecap:round;stroke-linejoin:miter;stroke-miterlimit:4;stroke-dasharray:none;stroke-dashoffset:0;stroke-opacity:1"
         inkscape:connector-curvature="0" />
      <path
         id="path8823"
         d="m 360.87262,478.7173 a 3.9521503,3.9521503 0 0 1 -3.9522,3.95215 3.9521503,3.9521503 0 0 1 -3.9521,-3.95215 3.9521503,3.9521503 0 0 1 3.9521,-3.95215 3.9521503,3.9521503 0 0 1 3.9522,3.95215 z"
         style="fill:#0038a8;fill-opacity:1;stroke:none;stroke-width:1.0957;stroke-linecap:round;stroke-linejoin:miter;stroke-miterlimit:4;stroke-dasharray:none;stroke-dashoffset:0;stroke-opacity:1"
         inkscape:connector-curvature="0" />
      <path
         id="path8823-2"
         d="m 476.94823,478.71682 a 3.9520003,3.9521503 0 0 1 -3.95205,3.95215 3.9520003,3.9521503 0 0 1 -3.95195,-3.95215 3.9520003,3.9521503 0 0 1 3.95195,-3.95215 3.9520003,3.9521503 0 0 1 3.95205,3.95215 z"
         style="fill:#0038a8;fill-opacity:1;stroke:none;stroke-width:1.09568;stroke-linecap:round;stroke-linejoin:miter;stroke-miterlimit:4;stroke-dasharray:none;stroke-dashoffset:0;stroke-opacity:1"
         inkscape:connector-curvature="0" />
      <ellipse
         transform="rotate(152.90729)"
         ry="116.80743"
         rx="116.80746"
         cy="-515.72333"
         cx="-202.47508"
         id="path4205"
         style="fill:none;fill-opacity:1;stroke:none;stroke-width:1.32973182;stroke-linecap:square;stroke-linejoin:bevel;stroke-miterlimit:4;stroke-dasharray:none;stroke-dashoffset:0;stroke-opacity:1" />
      <path
         sodipodi:open="true"
         d="m 325.33666,442.60787 a 117.44096,117.44096 0 0 1 13.52761,-164.99222 117.44096,117.44096 0 0 1 165.07668,12.4547 117.44096,117.44096 0 0 1 -11.38127,165.15416"
         sodipodi:end="0.85095184"
         sodipodi:start="2.4412514"
         sodipodi:ry="117.44096"
         sodipodi:rx="117.44096"
         sodipodi:cy="366.91968"
         sodipodi:cx="415.13464"
         sodipodi:type="arc"
         id="path921"
         style="fill:none;fill-opacity:1;stroke:none;stroke-width:0.11807005;stroke-linejoin:miter;stroke-miterlimit:4;stroke-dasharray:none;stroke-opacity:1" />
      <circle
         transform="rotate(127.41375)"
         r="117.0004"
         cy="-552.65649"
         cx="39.211254"
         id="path922"
         style="fill:none;fill-opacity:1;stroke:none;stroke-width:0.999184;stroke-miterlimit:4;stroke-dasharray:none;stroke-opacity:1" />
      <g
         style="font-size:26.6667px;line-height:1.25;letter-spacing:3.8px;word-spacing:0px;fill:#0038a8"
         id="text926"
         aria-label="DEPARTMENT OF TRANSPORTATION">
        <path
           id="path976"
           style="font-weight:bold;font-family:'Swis721 BT';-inkscape-font-specification:'Swis721 BT Bold'"
           d="m 337.12953,458.80179 -2.34741,-2.12156 q -2.03828,-1.84217 -3.90671,-1.60025 -1.88681,0.24286 -4.05202,2.63857 -2.15648,2.38604 -2.31915,4.27491 -0.16268,1.88888 1.64376,3.52152 l 2.70483,2.44459 z m 5.19141,0.0234 -12.8603,14.22933 -5.57388,-5.03761 q -3.27478,-2.9597 -3.28064,-6.17679 -0.0155,-3.22583 3.23229,-6.81939 1.7636,-1.95134 3.70706,-2.89769 1.93379,-0.95508 3.88471,-0.84164 1.46123,0.0921 2.81382,0.77046 1.34385,0.68804 3.29519,2.45164 z" />
        <path
           id="path978"
           style="font-weight:bold;font-family:'Swis721 BT';-inkscape-font-specification:'Swis721 BT Bold'"
           d="m 325.68047,442.67234 -15.31749,11.54277 -8.37694,-11.11637 2.66211,-2.00607 6.0339,8.00711 3.26523,-2.46058 -5.5167,-7.32079 2.6205,-1.97473 5.51671,7.32079 3.94117,-2.96993 -6.31601,-8.38147 2.82849,-2.13146 z" />
        <path
           id="path980"
           style="font-weight:bold;font-family:'Swis721 BT';-inkscape-font-specification:'Swis721 BT Bold'"
           d="m 302.51337,426.37816 -1.71202,-3.40941 q -0.69532,-1.3847 -1.59265,-1.72091 -0.90897,-0.33036 -2.21223,0.32406 -1.2218,0.61352 -1.54047,1.54577 -0.31868,0.93224 0.29484,2.15404 l 1.8055,3.59559 z m 3.11855,-1.53682 6.09737,-3.06175 1.77045,3.52577 -17.14014,8.6068 -3.82719,-7.62171 q -1.35559,-2.69961 -0.64293,-4.79132 0.69518,-2.09751 3.40642,-3.45894 2.65305,-1.33222 4.77958,-0.69532 2.11489,0.64275 3.38283,3.1678 z" />
        <path
           id="path982"
           style="font-weight:bold;font-family:'Swis721 BT';-inkscape-font-specification:'Swis721 BT Bold'"
           d="m 288.31563,404.77495 8.5818,0.2458 -1.50202,-5.10932 z m -3.03886,3.282 -1.28535,-4.37228 16.45099,-12.04286 1.16783,3.97253 -3.4179,2.36197 2.09696,7.13306 4.14137,0.099 1.1715,3.98502 z" />
        <path
           id="path984"
           style="font-weight:bold;font-family:'Swis721 BT';-inkscape-font-specification:'Swis721 BT Bold'"
           d="m 288.31046,383.04503 -0.45603,-4.61294 q -0.1486,-1.50309 -0.82678,-2.1426 -0.67946,-0.65246 -1.98819,-0.52308 -1.24394,0.12297 -1.81097,0.87249 -0.58,0.75081 -0.44549,2.11137 l 0.47396,4.79434 z m 11.13005,2.86425 -19.08667,1.88688 -0.91462,-9.25179 q -0.30871,-3.1228 0.87734,-4.75783 1.18604,-1.63504 3.93307,-1.9066 1.74929,-0.17294 2.9885,0.45036 1.23793,0.61035 1.80131,1.94159 0.31759,-1.28749 1.17339,-1.89547 0.85452,-0.62093 2.76457,-0.88826 l 2.24695,-0.30064 q 0.0259,-0.003 0.0777,-0.008 1.70657,-0.20797 2.00021,-0.94355 l 0.5831,-0.0576 0.42528,4.30195 q -0.38119,0.24703 -0.95276,0.42129 -0.5858,0.16259 -1.39958,0.26921 l -2.00331,0.25038 q -1.7688,0.24028 -2.33056,0.91078 -0.56305,0.65754 -0.40805,2.22542 l 0.41119,4.15942 7.42476,-0.734 z" />
        <path
           id="path986"
           style="font-weight:bold;font-family:'Swis721 BT';-inkscape-font-specification:'Swis721 BT Bold'"
           d="m 298.36228,359.16086 -15.7019,-1.29511 -0.46774,5.67085 -3.4129,-0.2815 1.25658,-15.23474 3.4129,0.2815 -0.46453,5.63192 15.70191,1.29511 z" />
        <path
           id="path988"
           style="font-weight:bold;font-family:'Swis721 BT';-inkscape-font-specification:'Swis721 BT Bold'"
           d="m 300.05942,343.53504 -18.41922,-5.34729 1.62633,-5.60205 15.08126,0.40562 -12.96849,-7.68327 1.63359,-5.62706 18.41923,5.34729 -1.03098,3.5513 -14.85542,-4.31268 13.76999,8.05154 -1.12536,3.87642 -15.95538,-0.5238 14.85543,4.31268 z" />
        <path
           id="path990"
           style="font-weight:bold;font-family:'Swis721 BT';-inkscape-font-specification:'Swis721 BT Bold'"
           d="m 308.66189,317.88993 -16.92211,-9.02794 6.55185,-12.28087 2.94098,1.56901 -4.71929,8.8459 3.60729,1.92449 4.31478,-8.08768 2.89502,1.54449 -4.31478,8.08769 4.35402,2.32287 4.93994,-9.25948 3.12479,1.66707 z" />
        <path
           id="path992"
           style="font-weight:bold;font-family:'Swis721 BT';-inkscape-font-specification:'Swis721 BT Bold'"
           d="m 319.20931,299.47003 -14.91447,-12.05902 2.59519,-3.2097 15.14239,2.23006 -10.24674,-8.28495 2.44782,-3.02744 14.91447,12.05901 -2.56243,3.1692 -15.17514,-2.18955 10.24674,8.28494 z" />
        <path
           id="path994"
           style="font-weight:bold;font-family:'Swis721 BT';-inkscape-font-specification:'Swis721 BT Bold'"
           d="m 337.72185,279.13875 -10.23161,-11.98088 -4.32697,3.69521 -2.2239,-2.6041 11.62443,-9.9272 2.22389,2.60411 -4.29728,3.66985 10.23161,11.98088 z" />
        <path
           id="path996"
           style="font-weight:bold;font-family:'Swis721 BT';-inkscape-font-specification:'Swis721 BT Bold'"
           d="m 358.79707,253.42302 q 1.28362,2.89199 3.28207,3.92816 1.99317,1.02427 4.302,-5.2e-4 2.33264,-1.03534 2.92204,-3.20589 0.58411,-2.18244 -0.69951,-5.07444 -1.28362,-2.89199 -3.28869,-3.91098 -2.01036,-1.03088 -4.34299,0.004 -2.30884,1.02478 -2.88633,3.19004 -0.5775,2.16526 0.71141,5.06916 z m -3.67748,1.63225 q -1.88581,-4.24873 -0.68099,-7.76087 1.21143,-3.52932 5.13884,-5.2725 3.9274,-1.74319 7.35744,-0.274 3.44193,1.46391 5.32246,5.70074 1.88053,4.23684 0.65719,7.77144 -1.21143,3.52932 -5.13884,5.2725 -3.9274,1.74319 -7.35744,0.274 -3.41813,-1.47447 -5.29866,-5.71131 z" />
        <path
           id="path998"
           style="font-weight:bold;font-family:'Swis721 BT';-inkscape-font-specification:'Swis721 BT Bold'"
           d="m 382.8446,254.29686 -4.32536,-18.68563 13.04061,-3.01865 0.75173,3.24747 -9.24768,2.14066 0.98077,4.23693 8.10599,-1.87638 0.75172,3.24747 -8.10598,1.87638 1.84114,7.95376 z" />
        <path
           id="path1000"
           style="font-weight:bold;font-family:'Swis721 BT';-inkscape-font-specification:'Swis721 BT Bold'"
           d="m 417.56049,249.92007 0.57904,-15.74459 -5.68626,-0.20912 0.12585,-3.42217 15.27615,0.56181 -0.12585,3.42217 -5.64724,-0.20769 -0.57904,15.74459 z" />
        <path
           id="path1002"
           style="font-weight:bold;font-family:'Swis721 BT';-inkscape-font-specification:'Swis721 BT Bold'"
           d="m 439.40359,241.37273 4.52519,1.00485 q 1.47451,0.32742 2.29358,-0.11758 0.83178,-0.44219 1.11686,-1.72602 0.27097,-1.22028 -0.26442,-1.99273 -0.53256,-0.78516 -1.86724,-1.08153 l -4.70316,-1.04437 z m -6.19145,9.68236 4.1577,-18.72364 9.07582,2.01534 q 3.06341,0.68025 4.24718,2.31693 1.18378,1.63668 0.58538,4.33146 -0.38105,1.71602 -1.35962,2.69914 -0.96587,0.98595 -2.40641,1.10622 1.12431,0.70315 1.43518,1.70584 0.32358,1.00552 -0.0179,2.90371 l -0.41487,2.22869 q -0.006,0.0254 -0.0169,0.0763 -0.33446,1.68635 0.27292,2.19469 l -0.12702,0.572 -4.22013,-0.93711 q -0.11588,-0.43921 -0.10326,-1.03661 0.0281,-0.6073 0.18055,-1.41375 l 0.38666,-1.98154 q 0.32314,-1.75555 -0.1388,-2.49835 -0.44923,-0.73998 -1.98729,-1.08152 l -4.0803,-0.90605 -1.61736,7.28353 z" />
        <path
           id="path1004"
           style="font-weight:bold;font-family:'Swis721 BT';-inkscape-font-specification:'Swis721 BT Bold'"
           d="m 468.00782,245.57219 -5.7021,6.41824 4.88028,2.13171 z m -0.56252,-4.43731 4.17627,1.8242 -1.34129,20.34371 -3.79444,-1.65742 0.38602,-4.13665 -6.81329,-2.97606 -2.73666,3.10989 -3.80638,-1.66263 z" />
        <path
           id="path1006"
           style="font-weight:bold;font-family:'Swis721 BT';-inkscape-font-specification:'Swis721 BT Bold'"
           d="m 475.30123,266.25624 10.93659,-15.75603 3.39081,2.35363 -1.11726,15.26489 7.5138,-10.82491 3.19827,2.21998 -10.93659,15.75603 -3.34802,-2.32393 1.07447,-15.29459 -7.5138,10.82492 z" />
        <path
           id="path1008"
           style="font-weight:bold;font-family:'Swis721 BT';-inkscape-font-specification:'Swis721 BT Bold'"
           d="m 497.8019,275.60105 2.71809,2.78733 q -0.97344,1.25845 -0.77802,2.55921 0.20475,1.29168 1.61379,2.73662 1.19997,1.23052 2.24718,1.42785 1.04722,0.19733 1.90486,-0.63901 1.24917,-1.21814 -1.43037,-5.60716 l -0.0632,-0.10208 q -0.0723,-0.1114 -0.21656,-0.35262 -1.45317,-2.32945 -1.7311,-3.65888 -0.24296,-1.18166 0.16739,-2.32748 0.41967,-1.15491 1.49172,-2.20033 2.00427,-1.95449 4.39423,-1.62978 2.39928,0.31562 4.90829,2.88854 2.34538,2.40512 2.52622,4.86589 0.18992,2.4701 -1.80687,4.56279 l -2.64538,-2.71275 q 0.92475,-1.04727 0.77409,-2.24619 -0.15067,-1.19892 -1.39608,-2.47606 -1.08179,-1.10934 -2.11082,-1.28802 -1.01062,-0.17845 -1.81233,0.60334 -1.09069,1.06361 0.65037,3.93073 0.46901,0.77936 0.73055,1.21542 1.08138,1.87359 1.47604,2.70726 0.40375,0.84299 0.59726,1.56364 0.35205,1.29352 -0.0126,2.46754 -0.35534,1.16493 -1.42739,2.21035 -2.1441,2.09085 -4.73707,1.80042 -2.58364,-0.29952 -5.1472,-2.92838 -2.52719,-2.59156 -2.76095,-5.23716 -0.23375,-2.64559 1.87584,-4.92103 z" />
        <path
           id="path1010"
           style="font-weight:bold;font-family:'Swis721 BT';-inkscape-font-specification:'Swis721 BT Bold'"
           d="m 519.50598,293.92292 2.11397,3.17588 q 0.85857,1.28986 1.79014,1.51442 0.9424,0.21736 2.15639,-0.59071 1.13811,-0.75757 1.34103,-1.72165 0.20293,-0.96408 -0.55464,-2.10219 l -2.22941,-3.3493 z m -2.90849,1.9047 -5.67972,3.78062 -2.18612,-3.28426 15.96609,-10.62758 4.72577,7.09965 q 1.67386,2.51469 1.22089,4.67756 -0.4349,2.16649 -2.96043,3.84756 -2.47133,1.645 -4.65953,1.27147 -2.17736,-0.38075 -3.743,-2.73285 z" />
        <path
           id="path1012"
           style="font-weight:bold;font-family:'Swis721 BT';-inkscape-font-specification:'Swis721 BT Bold'"
           d="m 530.25256,313.98143 q -2.92892,1.19697 -4.02411,3.1637 -1.08314,1.9618 -0.12753,4.30012 0.96546,2.36242 3.1175,3.01615 2.1641,0.64881 5.09301,-0.54816 2.92892,-1.19698 4.00713,-3.17083 1.09027,-1.97879 0.1248,-4.34121 -0.95561,-2.33831 -3.10272,-2.97999 -2.14711,-0.64168 -5.08808,0.56022 z m -1.52208,-3.72443 q 4.30298,-1.75852 7.7777,-0.4497 3.4917,1.31594 5.11722,5.29349 1.62552,3.97754 0.0549,7.36233 -1.5657,3.39684 -5.85663,5.15044 -4.29092,1.75359 -7.78755,0.42559 -3.4917,-1.31594 -5.11722,-5.29348 -1.62552,-3.97755 -0.0549,-7.36234 1.57556,-3.37274 5.86649,-5.12633 z" />
        <path
           id="path1014"
           style="font-weight:bold;font-family:'Swis721 BT';-inkscape-font-specification:'Swis721 BT Bold'"
           d="m 540.08722,339.8698 0.85175,4.5565 q 0.27753,1.4847 1.00829,2.06341 0.73315,0.5915 2.02586,0.34986 1.22872,-0.22969 1.72908,-1.02528 0.51315,-0.79798 0.26193,-2.14189 l -0.88524,-4.73569 z m -11.33543,-1.89473 18.85315,-3.5242 1.70827,9.13859 q 0.5766,3.0846 -0.46418,4.81573 -1.04077,1.73113 -3.75419,2.23835 -1.72789,0.32299 -3.01619,-0.19123 -1.2859,-0.50143 -1.96188,-1.77918 -0.20549,1.31006 -1.00573,1.98951 -0.79785,0.69224 -2.67777,1.12313 l -2.21269,0.4931 q -0.0256,0.005 -0.0768,0.0144 -1.68231,0.35421 -1.91149,1.11236 l -0.57596,0.10766 -0.79432,-4.24931 q 0.35849,-0.27896 0.91292,-0.50182 0.56962,-0.21245 1.37118,-0.38877 l 1.9743,-0.42204 q 1.74152,-0.39178 2.24343,-1.10818 0.5043,-0.7036 0.21481,-2.2523 l -0.76801,-4.10853 -7.33391,1.37093 z" />
        <path
           id="path1016"
           style="font-weight:bold;font-family:'Swis721 BT';-inkscape-font-specification:'Swis721 BT Bold'"
           d="m 532.12765,364.53107 15.75492,-0.0988 -0.0357,-5.69 3.42442,-0.0215 0.0959,15.28618 -3.42442,0.0215 -0.0354,-5.65094 -15.75491,0.0988 z" />
        <path
           id="path1018"
           style="font-weight:bold;font-family:'Swis721 BT';-inkscape-font-specification:'Swis721 BT Bold'"
           d="m 545.66986,388.83522 -7.61348,-3.9677 -0.87925,5.25245 z m 4.1668,-1.62604 -0.75242,4.49476 -20.05802,3.65259 0.68362,-4.08381 4.10615,-0.63284 1.22751,-7.33287 -3.68264,-1.89707 0.68577,-4.09665 z" />
        <path
           id="path1020"
           style="font-weight:bold;font-family:'Swis721 BT';-inkscape-font-specification:'Swis721 BT Bold'"
           d="m 526.24416,403.74504 14.85789,5.24121 1.8929,-5.36603 3.22945,1.1392 -5.08527,14.41584 -3.22945,-1.1392 1.87991,-5.3292 -14.85789,-5.24121 z" />
        <path
           id="path1022"
           style="font-weight:bold;font-family:'Swis721 BT';-inkscape-font-specification:'Swis721 BT Bold'"
           d="m 520.26214,418.36386 17.07221,8.74078 -1.79801,3.5118 -17.0722,-8.74078 z" />
        <path
           id="path1024"
           style="font-weight:bold;font-family:'Swis721 BT';-inkscape-font-specification:'Swis721 BT Bold'"
           d="m 520.599,437.10917 q -2.55713,-1.86344 -4.80595,-1.76219 -2.2383,0.10892 -3.72599,2.15041 -1.50302,2.06254 -0.92879,4.23714 0.58476,2.18227 3.14189,4.04572 2.55713,1.86344 4.80309,1.744 2.2565,-0.11178 3.75952,-2.17432 1.48769,-2.04149 0.90578,-4.20557 -0.5819,-2.16408 -3.14955,-4.03519 z m 2.36956,-3.25165 q 3.75677,2.73765 4.46842,6.38186 0.71451,3.66239 -1.8161,7.13503 -2.5306,3.47264 -6.23582,3.91427 -3.71289,0.45216 -7.45913,-2.27783 -3.74624,-2.72998 -4.45308,-6.4029 -0.7145,-3.6624 1.8161,-7.13504 2.5306,-3.47264 6.23582,-3.91427 3.69755,-0.43111 7.44379,2.29888 z" />
        <path
           id="path1026"
           style="font-weight:bold;font-family:'Swis721 BT';-inkscape-font-specification:'Swis721 BT Bold'"
           d="m 499.42321,448.46635 12.86947,14.22104 -3.06047,2.7696 -14.61513,-4.54565 8.84176,9.77032 -2.88669,2.61234 -12.86947,-14.22104 3.02185,-2.73465 14.65375,4.5107 -8.84176,-9.77033 z" />
      </g>
      <circle
         transform="matrix(-0.28780875,0.9576879,0.9576879,0.28780875,0,0)"
         r="137.05566"
         cy="502.42123"
         cx="232.44418"
         id="path1301"
         style="fill:none;fill-opacity:1;stroke:none;stroke-width:0.888684;stroke-miterlimit:4;stroke-dasharray:none;stroke-opacity:1" />
      <g
         style="font-size:40px;line-height:1.25;letter-spacing:7px;word-spacing:0px;fill:#0038a8"
         id="text4554"
         aria-label="1899">
        <path
           id="path1029"
           style="font-weight:bold;font-size:26.6667px;font-family:'Swis721 BT';-inkscape-font-specification:'Swis721 BT Bold'"
           d="m 381.14365,500.21071 3.00008,-12.38935 -4.32804,-1.04804 0.61595,-2.54368 0.27841,0.0674 q 2.36651,0.57305 3.61993,0.0995 1.26607,-0.47045 1.87267,-2.14558 l 2.89801,0.70176 -4.38827,18.12211 z" />
        <path
           id="path1031"
           style="font-weight:bold;font-size:26.6667px;font-family:'Swis721 BT';-inkscape-font-specification:'Swis721 BT Bold'"
           d="m 401.43093,498.28114 q -0.10431,1.3632 0.59207,2.16085 0.70937,0.79863 2.1245,0.90692 1.35022,0.10331 2.17383,-0.59108 0.83659,-0.69341 0.93892,-2.03065 0.0983,-1.2853 -0.63401,-2.12488 -0.73235,-0.83957 -2.04362,-0.9399 -1.31127,-0.10034 -2.1898,0.62903 -0.86553,0.73037 -0.96189,1.98971 z m 0.90856,-7.94865 q -0.0824,1.07758 0.54795,1.71347 0.6314,0.6229 1.89074,0.71926 1.25935,0.0964 1.97916,-0.43621 0.7328,-0.53158 0.81426,-1.59617 0.0795,-1.03864 -0.57591,-1.68949 -0.65538,-0.65086 -1.87577,-0.74424 -1.19443,-0.0914 -1.95518,0.46416 -0.74776,0.55655 -0.82525,1.56922 z m -1.61341,3.50692 q -1.11879,-0.73855 -1.57155,-1.64814 -0.45275,-0.90959 -0.34944,-2.25981 0.18279,-2.38886 1.92294,-3.62689 1.74016,-1.23803 4.62236,-1.0175 2.90817,0.22253 4.43971,1.7109 1.54551,1.47639 1.36173,3.87823 -0.0984,1.2853 -0.72913,2.19034 -0.62979,0.89205 -1.79003,1.37786 1.31452,0.74047 1.91619,1.92264 0.60266,1.16918 0.47948,2.77906 -0.20763,2.71342 -2.11748,4.1213 -1.89688,1.40886 -5.02576,1.16945 -3.16782,-0.24239 -4.80329,-1.90849 -1.63547,-1.66609 -1.42586,-4.40548 0.12219,-1.5969 0.85379,-2.62481 0.74557,-1.0399 2.21634,-1.65866 z" />
        <path
           id="path1033"
           style="font-weight:bold;font-size:26.6667px;font-family:'Swis721 BT';-inkscape-font-specification:'Swis721 BT Bold'"
           d="m 427.64402,491.4503 q -0.13785,-1.59562 -1.02172,-2.44718 -0.87201,-0.86566 -2.2471,-0.74686 -1.29725,0.11207 -1.94638,1.06994 -0.63616,0.95674 -0.49719,2.56533 0.13,1.50482 0.95526,2.28303 0.82525,0.77821 2.18737,0.66053 1.33617,-0.11543 2.01685,-1.01068 0.68068,-0.89524 0.55291,-2.37411 z m 0.4829,4.83315 q -0.59259,0.70466 -1.4467,1.10519 -0.85412,0.40052 -1.95678,0.49578 -2.7372,0.23648 -4.52705,-1.2687 -1.78984,-1.50518 -2.02856,-4.26833 -0.25329,-2.93179 1.38114,-4.88963 1.63443,-1.95784 4.56622,-2.21113 3.3988,-0.29363 5.36592,1.90197 1.97897,2.18152 2.36674,6.67001 0.41692,4.82578 -1.25517,7.55797 -1.67208,2.73219 -5.22655,3.03927 -2.45181,0.21182 -4.06646,-0.92948 -1.61576,-1.15428 -1.94899,-3.34728 l 3.75018,-0.31092 q 0.20706,0.8839 0.81596,1.27565 0.60889,0.39176 1.6467,0.3021 1.40103,-0.12104 2.03511,-1.40434 0.63409,-1.2833 0.52829,-3.71813 z" />
        <path
           id="path1035"
           style="font-weight:bold;font-size:26.6667px;font-family:'Swis721 BT';-inkscape-font-specification:'Swis721 BT Bold'"
           d="m 447.41634,487.67228 q -0.39338,-1.5525 -1.40302,-2.25037 -1.00021,-0.71368 -2.33814,-0.37467 -1.2622,0.31982 -1.74835,1.36984 -0.47353,1.04682 -0.0769,2.61194 0.37099,1.46415 1.31095,2.09908 0.93996,0.63493 2.26526,0.29911 1.30007,-0.32942 1.82745,-1.32272 0.52739,-0.9933 0.16279,-2.43221 z m 1.25605,4.692 q -0.47118,0.79101 -1.24952,1.32404 -0.77834,0.53303 -1.8512,0.80488 -2.66324,0.67483 -4.6724,-0.52198 -2.00917,-1.19682 -2.69039,-3.88529 -0.7228,-2.85257 0.57447,-5.04837 1.29728,-2.19581 4.14984,-2.91862 3.30695,-0.83793 5.60242,1.01168 2.30489,1.83379 3.41148,6.20099 1.18974,4.69537 -0.0198,7.66146 -1.20955,2.96609 -4.66797,3.84241 -2.38555,0.60446 -4.16313,-0.26149 -1.78077,-0.87858 -2.46331,-2.98913 l 3.65094,-0.91167 q 0.3469,0.83893 1.01101,1.12736 0.6641,0.28842 1.67386,0.0326 1.36317,-0.34541 1.78199,-1.71417 0.41882,-1.36877 -0.0783,-3.75466 z" />
      </g>
    </g>
  </g>
</svg>
