<?xml version="1.0" encoding="UTF-8"?>
<svg id="Layer_1" xmlns="http://www.w3.org/2000/svg" width="512" height="512" version="1.1" viewBox="0 0 512 512">
  <!-- Generator: Adobe Illustrator 30.1.0, SVG Export Plug-In . SVG Version: 2.1.1 Build 136)  -->
  <circle cx="256" cy="256" r="217.56" fill="#010066"/>
  <path d="M229.1730822,0l12.2117723,43.7294494c15.3564802,0,13.873811,0,29.2302911,0L282.8269178,0c28.7234342,5.7134463,17.6317663,3.5071764,46.3552005,9.2206227l-5.4523293,45.0739862c14.1875377,5.8766705,12.81773,5.3092776,27.0052677,11.1859481l28.0167422-35.7275003c24.3505517,16.2705185,14.9474897,9.9875933,39.2980415,26.2581118l-22.2863632,39.5564172c10.8586713,10.8586713,9.8102658,9.8102658,20.6689371,20.6689371l39.5564172-22.2863632c16.2705185,24.3505517,9.9875933,14.9474897,26.2581118,39.2980415l-35.7275003,28.0167422c5.8766705,14.1875377,5.3092776,12.81773,11.1859481,27.0052677l45.0739862-5.4523293c5.7134463,28.7234342,3.5071764,17.6317663,9.2206227,46.3552005l-43.7294494,12.2117723c0,15.3564802,0,13.873811,0,29.2302911l43.7294494,12.2117723c-5.7134463,28.7234342-3.5071764,17.6317663-9.2206227,46.3552005l-45.0739862-5.4523293-11.1859481,27.0052677,35.7275003,28.0167422c-16.2705185,24.3505517-9.9875933,14.9474897-26.2581118,39.2980415l-39.5564172-22.2863632-20.6689371,20.6689371,22.2863632,39.5564172-39.2980415,26.2581118-28.0167422-35.7275003-27.0052677,11.1859481,5.4523293,45.0739862c-28.7234342,5.7134463-17.6317663,3.5071764-46.3552005,9.2206227l-12.2117723-43.7294494c-15.3564802,0-13.873811,0-29.2302911,0l-12.2117723,43.7294494c-28.7234342-5.7134463-17.6317663-3.5071764-46.3552005-9.2206227l5.4523293-45.0739862c-14.1875377-5.8766705-12.81773-5.3092776-27.0052677-11.1859481l-28.0167422,35.7275003c-24.3505517-16.2705185-14.9474897-9.9875933-39.2980415-26.2581118l22.2863632-39.5564172c-10.8586713-10.8586713-9.8102658-9.8102658-20.6689371-20.6689371l-39.5564172,22.2863632c-16.2705185-24.3505517-9.9875933-14.9474897-26.2581118-39.2980415l35.7275003-28.0167422c-5.8766705-14.1875377-5.3092776-12.81773-11.1859481-27.0052677l-45.0739862,5.4523293C3.5071764,300.4586841,5.7134463,311.5503521,0,282.8269178l43.7294494-12.2117723v-29.2302911S0,229.1730822,0,229.1730822c5.7134463-28.7234342,3.5071764-17.6317663,9.2206227-46.3552005l45.0739862,5.4523293,11.1859481-27.0052677-35.7275003-28.0167422c16.2705185-24.3505517,9.9875933-14.9474897,26.2581118-39.2980415l39.5564172,22.2863632c10.8586713-10.8586713,9.8102658-9.8102658,20.6689371-20.6689371l-22.2863632-39.5564172c24.3505517-16.2705185,14.9474897-9.9875933,39.2980415-26.2581118l28.0167422,35.7275003c14.1875377-5.8766705,12.81773-5.3092776,27.0052677-11.1859481l-5.4523293-45.0739862C211.5413159,3.5071764,200.4496479,5.7134463,229.1730822,0Z" fill="#010066"/>
  <g id="Layer_2">
    <circle cx="256" cy="256" r="209.19985" fill="#fff"/>
    <circle cx="256" cy="256" r="198.7542125" fill="#010066"/>
    <path d="M161.0995999,421.1005921c-27.8143326-16.2478376-50.1067845-37.9365598-67.1460477-65.2753605,1.7524595-1.2434454,3.3932421-2.4221764,5.0466198-3.583293,18.2022543-12.763693,36.403663-25.5299243,54.6101199-38.2894381,13.3084599-9.3266228,26.6270035-18.6364261,39.9346177-27.9638694,4.9433289-3.4648123,9.9085038-6.9019081,14.7720599-10.4776374,1.6684904-1.227472,3.1698756-2.7372363,4.5469888-4.2932033,2.5527058-2.8859462,3.6963815-6.2810443,3.7534756-10.2020626.066345-4.5704703.5651239-9.134223.8497744-13.7030011.1872471-3.0086062.3064836-6.0222634.4929107-9.0317157.2846505-4.5679576.6155041-9.1333769.8993345-13.702155.1872471-3.0094523.3081749-6.0231095.495422-9.0317157.2838304-4.5687909.6138128-9.1342102.8959519-13.7021678.1897841-3.0682568.3090205-6.1407314.4996246-9.2073088.2804735-4.5099736.6121471-9.0165884.892595-13.527408.1906041-3.0674235.3106862-6.139052.5021359-9.2073088.2812935-4.5091403.6045875-9.0174345.892595-13.527408.0814385-1.2736874.0839755-2.5532463.1570344-3.8286131.035261-.6166717.1477835-1.2299975.2309133-1.8937179h22.8533732c.0302383.6595284.0780816,1.2257926.0780816,1.7937361.0025113,50.290275.0159648,100.58055-.0209875,150.870825-.0025113,4.3243041-1.1251996,8.4956935-2.5216218,12.5696266-1.774299,5.1829499-4.0935545,10.1256052-7.1064213,14.7002804-1.3326142,2.0239416-2.9498788,3.8689442-4.511715,5.73492-17.2021594,20.5402204-34.4211294,41.0695182-51.6291699,61.6055337-6.1449444,7.3329104-12.2705927,14.6834608-18.4079776,22.0239348-.2955542.3545705-.6255494.6797324-1.0596875,1.1485275Z" fill="#eb3505" fill-rule="evenodd"/>
    <path d="M266.6436255,150.623812h22.8987051c.1343556,1.5181741.2997696,2.9926455.3913047,4.4713346.2703769,4.3377393.5138981,8.6780041.7657989,13.0174357.2561034,4.398236.4895537,8.7964721.7700015,13.1930287.2737339,4.3360599.6079445,8.6670817.8909293,13.0023083.1889384,2.8926638.3291623,5.7886992.4945763,8.682209.199855,3.4706966.4038869,6.9422392.6079445,10.4129358.2628174,4.5133324.5138981,9.0266776.7960373,13.5383305.3123775,5.0308812.660836,10.0600703.9698565,15.0901054.2729139,4.3965566.5038272,8.795626.7716928,13.1930287.1830445,3.0069396.3501498,6.0146997.6155041,9.0149218.1763306,2.0189162,1.1638176,3.7613859,2.2764349,5.4022201,1.6768957,2.4751223,3.7895823,4.551138,6.2230516,6.2751472,6.0618146,4.2923828,12.1421054,8.5587157,18.2232418,12.8233564,16.0114605,11.2312632,32.0279693,22.459142,48.0453237,33.6836877,15.305267,10.7238035,30.6139166,21.4408639,45.9166723,32.1630008.3728286.2621396.7070392.5746612,1.1613062.9460257-8.3071912,13.5190111-18.0930887,25.7534251-29.390468,36.7905962-11.25707,11.0001988-23.6830058,20.4587376-37.4356618,28.4780467-.55841-.605762-1.1167944-1.166988-1.6248242-1.771904-11.9918105-14.3104297-23.9785728-28.6292692-35.967872-42.9413912-12.0631782-14.4011684-24.1456781-28.7863889-36.1777723-43.2110945-2.6223821-3.1413682-4.3908129-6.8305017-6.1096834-10.5104049-2.36797-5.0619565-4.146446-10.3238765-4.8811866-15.8932927-.1427609-1.0896845-.2216881-2.1953426-.2225337-3.2951035-.0092253-50.1650767-.0084052-100.3318584-.0084052-150.4986273.0000256-.6293121.0000256-1.2569063.0000256-2.0559014Z" fill="#eb3505" fill-rule="evenodd"/>
    <path d="M319.2292113,279.3253511c-.6297776-.3638008-.98413-.5335096-1.3032215-.7561385-2.9977476-2.0945275-6.025708-4.1486983-8.9663615-6.3188371-1.4409341-1.0636347-2.7642973-2.3045674-4.0624962-3.5463207-1.9984984-1.9138963-3.1724125-4.2217969-3.2639219-7.0623866-.0999147-3.1321123-.2871874-6.261712-.4803028-9.3887733-.2720682-4.3990693-.5987193-8.795626-.8749645-13.1946953-.1738192-2.7683372-.294747-5.5400075-.4475531-8.445286.657479-.0302548,1.2200916-.0789701,1.7818586-.0789701,25.6781216-.0033588,51.3537575-.0067176,77.0318791,0,5.4488475.0016922,8.9126244,3.4799396,8.9134444,8.9552583.0092253,28.654473.0050483,57.3106382.0025113,85.9659829,0,.504947-.0411549,1.0082018-.0780816,1.8542329-8.5708542-6.0004185-16.9082581-11.8386919-25.3120326-17.7223218v-2.0869638c0-20.5755005.0050483-41.1518471-.0126079-61.7282194,0-.8586458-.0864868-1.7424953-.3039723-2.5700402-.4156491-1.5803503-1.5080991-2.555759-3.064067-3.0380149-3.9272949-1.2173956-7.6757223,1.4173591-7.8293997,5.5156499-.0201418.5225871-.0058683,1.0459946-.0058683,1.5694278v54.4129234c-6.6302955-4.5284726-12.8298227-8.9636681-19.1150167-13.3434052v-2.1230901c0-12.9602977-.0084052-25.9222877.0134279-38.8834316.0016913-1.4358453-.3174001-2.7540559-.9681908-4.0109109-1.1403188-2.2045729-2.8994986-3.372407-5.4387509-3.3564335-2.4729329.0159735-4.1708161,1.1938584-5.3027296,3.3127436-.6700869,1.2551884-.9337499,2.5868598-.9303929,4.0210129.0277014,9.9399229.0167848,19.8781793.0167848,29.8181023.0000256.6326067.0000256,1.2660852.0000256,2.2289049Z" fill="#fff" fill-rule="evenodd"/>
    <path d="M125.4407612,327.2732659v-1.9399205c0-28.6528064-.0016785-57.3064333.0008456-85.9600858,0-4.0126031,2.0513899-7.2119426,5.4051684-8.2822948,1.0319989-.3293411,2.152163-.5360222,3.2320179-.5368683,25.8494295-.0294087,51.698859-.0235372,77.5491342-.0201528.4526014,0,.9043572.0386389,1.4879573.0646888-.1671053,3.0480912-.3216027,5.989496-.4912322,8.9292085-.2552706,4.4016077-.5155766,8.8031897-.7851207,13.2039512-.1948067,3.1842121-.4693991,6.3633731-.5861114,9.5500979-.0705348,1.9046404-.7212999,3.5648068-1.9262851,4.9225025-1.4568861,1.6425007-2.9977476,3.266541-4.7359272,4.5906231-3.2748385,2.4969416-6.7167823,4.7754592-10.0923939,7.138844-.13351.0932514-.3006153.1369413-.6348131.2864973-.0327497-.6906036-.0848083-1.2955195-.085654-1.9004355-.0050355-10.0541988-.012595-20.1100642.0050355-30.1634169.0025241-1.8172605-.5542074-3.4186096-1.5996341-4.867044-2.241174-3.105242-6.9695416-3.2203383-9.3307848-.210886-1.1436758,1.4576646-1.7096325,3.1161645-1.7012401,5.0048314.0302255,7.1489203.0117622,14.2978407.0117622,21.4459149v19.7613908c-6.2709076,4.3915056-12.5216607,8.7679095-19.1158495,13.3862747v-2.4011776c0-17.4937957.0008456-34.9884375-.003357-52.4830793,0-.6368373.0470232-1.2955195-.0915222-1.9071531-.8758101-3.8538168-3.574621-5.4601913-7.3767983-4.8216875-2.060628.3453146-3.4805746,1.9827644-3.7030955,4.078138-.0680107.6334785-.0403093,1.2778795-.0403093,1.916409-.0016785,20.5158627-.0176305,41.033392.031904,61.5501008.003357,1.4501266-.4492444,2.2869017-1.6374193,3.105242-7.4557255,5.13926-14.8509999,10.3684125-22.2672618,15.5664899-.4106137.2847282-.8405363.5493805-1.5190156.9929975Z" fill="#fff" fill-rule="evenodd"/>
    <path d="M402.8091017,150.6784244v17.8181114c-1.2368765.3663135-104.5724778.4629236-106.8018896.0814956-.3677803-5.9004367-.7338949-11.8353331-1.1092604-17.899607h107.91115Z" fill="#fff" fill-rule="evenodd"/>
    <path d="M110.0960178,150.6700274h107.9371857c-.3434359,5.8996034-.6801578,11.6807389-1.026105,17.4601949-.0100709.1646706-.1217478.3226235-.2199968.569623h-106.6305817c-.1226447-5.9483315-.0243957-11.9025345-.0605023-18.0298179Z" fill="#fff" fill-rule="evenodd"/>
    <path d="M216.3487483,178.5725668c-.3451272,5.5517761-.6751095,10.8615781-1.0118314,16.2705286-.6423855.0436899-1.1461871.1075455-1.6500143.1075455-28.2828989.0050382-56.5657849.0025255-84.8486709.013448-.9043572,0-1.5920745-.10502-2.1949836-.9804725-3.3227073-4.8292383-6.7319015-9.598826-10.1066675-14.391092-.1864143-.2638062-.333365-.5570211-.606266-1.0191114,33.5788633-.0008461,66.9243275-.0008461,100.4184338-.0008461Z" fill="#fff" fill-rule="evenodd"/>
    <path d="M397.1058421,178.5893736c-1.8011548,2.5708863-3.4209563,4.8972859-5.0550058,7.2152885-1.8372614,2.6103714-3.7265943,5.187142-5.5067872,7.8361651-.653302.96955-1.3586499,1.3476193-2.5476575,1.3425811-11.9061438-.0470487-23.8114675-.0285626-35.7176369-.0285626h-50.5870873c-.5189464-5.4383592-.6759552-10.8431048-1.0932956-16.3654722h100.5074703Z" fill="#fff" fill-rule="evenodd"/>
    <path d="M298.5867737,210.6523798c-.1763306-2.8036173-.3400789-5.4517943-.5138981-8.2344.5038272-.0520869.9446664-.1369413,1.38466-.1369413,26.193711-.0067176,52.3857308-.0092431,78.5794674.008397.7397888,0,1.5038965.1310698,2.2176495.3385842,2.9532358.8569664,3.394075,4.6208778,1.9691057,6.6154108-.6977883.9737421-1.7709421,1.2627649-2.8877364,1.3938219-.4593154.052933-.9278816.0159607-1.3930652.0159607h-77.3601958c-.6264207-.0008333-1.2528413-.0008333-1.9959871-.0008333Z" fill="#fff" fill-rule="evenodd"/>
    <path d="M214.8666593,202.2743082c-.1704623,2.8993942-.3241141,5.5013686-.4853511,8.2419637-.4559584.0470487-.8926078.1310698-1.3292444.1310698-26.2407342.0050382-52.4814684.0109225-78.7222027-.0016794-3.5804892-.0008461-5.4018115-2.8473073-3.9356873-6.0466339.7515382-1.6399881,2.2310902-2.078554,3.8223319-2.3095928.4551255-.0655349.9270359-.0142813,1.3913867-.0142813h76.9798205c.6843476-.0008461,1.3678751-.0008461,2.2789463-.0008461Z" fill="#fff" fill-rule="evenodd"/>
    <path d="M213.9681832,217.0182657c-.1041173,1.7122406-.2006878,3.3118975-.3123647,5.1459776h-79.7206062c-.3484713,0-.6994668.0252038-1.0437483-.0151274-1.4678026-.171401-2.3654459-1.1031197-2.4258969-2.4935828-.0629752-1.4349992.8632151-2.4969416,2.3847549-2.7086737.3434359-.0470487.6961098-.0201528,1.0445939-.0201528,26.1248547,0,52.2488766-.0008461,78.37204.0025127.5071586,0,1.0151884.0520741,1.7012273.0890465Z" fill="#fff" fill-rule="evenodd"/>
    <path d="M299.2131943,222.1642433v-5.1459776c.4853511-.0294087.9899983-.088226,1.4946712-.088226,26.0820342-.0042049,52.1632227-.0033588,78.2444112-.0025127.4064239,0,.8203817-.0294087,1.2175803.0302548,1.4652785.2192702,2.2915541,1.1787566,2.2865059,2.6044999-.0058683,1.4181796-.860691,2.3868963-2.3116959,2.5792961-.4013756.0529202-.8145134.0226911-1.219246.0226911-25.965309.0008461-51.9314637,0-77.8967727,0-.5189464-.0000256-1.0362015-.0000256-1.8154539-.0000256Z" fill="#fff" fill-rule="evenodd"/>
  </g>
</svg>