<?xml version="1.0" encoding="UTF-8"?>
<svg id="Layer_1" xmlns="http://www.w3.org/2000/svg" width="768" height="768" version="1.1" viewBox="0 0 768 768">
  <!-- Generator: Adobe Illustrator 30.1.0, SVG Export Plug-In . SVG Version: 2.1.1 Build 136)  -->
  <path d="M384.145369,764.3290218h0C174.4528257,764.3290218,3.8118282,593.8418959,3.6665436,384.2948729c0-101.91464,39.5043535-197.3590309,111.3077821-269.1710755C186.7863617,43.3203602,282.2307412,3.8162628,383.8545391,3.6709782c209.8378278,0,380.3249334,170.4871259,380.4702179,380.0341489,0,209.8461996-170.4871055,380.4786101-380.179388,380.6238946" fill="#fff"/>
  <path d="M383.9966937,653.6086246c-148.7523295,0-269.7521815-120.854582-269.7521815-269.6066684,0-71.9573292,28.0427857-139.649761,78.8545542-190.6068202,50.9573139-50.95732,118.6497377-79.0087165,190.8976273-79.0087165,148.7520686,0,269.7605282,120.8548428,269.7605282,269.6155367.1452845,148.4615173-120.8545675,269.4613838-269.7605282,269.6066684M384.1419782,663.3009566h0c-154.0342181,0-279.4445124-125.2647639-279.4445124-279.1537158,0-74.8888429,29.0769925-144.9402578,81.7949359-197.6582076s122.9057661-81.7949457,197.5042919-81.7949457c154.0425648,0,279.452859,125.2650247,279.452859,279.1539766,0,154.042844-125.2650097,279.3076079-279.3075745,279.4528925M383.8514091,97.7965922c-158.0085458,0-286.0600452,128.1967993-286.0600452,286.205364v.2905691c0,158.0085647,128.196784,286.0598186,286.3506143,285.9059265,158.0085458,0,286.0597844-128.1965384,286.0597844-286.1964957v-.2991766c-.1452845-157.9999572-128.3418077-286.0514719-286.3503535-285.9061874" fill="#0032a0"/>
  <path d="M451.8409424,384.4349365l158.888855.2991943,21.7350464-25.1110229-25.7010498-21-156.1730957,27.5422363c-.1397705-.6766357-.3069458-1.3429565-.4668579-2.012085l128.7382812-61.507019-135.3018799,44.5631714c-.3474731-.6280518-.7089233-1.2471924-1.0756226-1.862915l131.9741211-88.6636353,3.9659424-32.888855-33.0429688-3.0853882-114.2084961,110.3942871c-.5087891-.4899292-1.0134888-.9841919-1.5372925-1.458252l.0349121.0237427,72.2478638-123.2049561-87.3321533,112.866272c-.6883545-.3476562-1.381897-.6853027-2.083313-1.0100098l.1343384.0418091,59.7607422-147.2906494-15.119812-29.5128784-29.0767212,15.8547974-33.0427246,155.5126953.3735962.1162109c-.9070435-.1555176-1.8201294-.2911377-2.7388916-.4102173h.3088989l-9.1026001-142.43573-9.1025391,142.43573h.2767944c-.892334.1154175-1.77948.2454834-2.6605835.3950195l.3247681-.1010132-33.0429688-155.5126953-29.0767822-15.8547974-15.119751,29.5128784,59.7588501,147.2859497c-.6604614.3068237-1.3134155.6257935-1.9620972.953064l-87.3171387-112.8464355,72.2414551,123.1940308c-.5136719.4666138-1.0081787.9533691-1.5072021,1.4353638l-114.1983643-110.3842163-33.0426636,3.0853882,3.9656982,32.888855,131.9985962,88.6801147c-.362915.6140137-.7198486,1.2320557-1.0637207,1.8583374l-135.3382568-44.5750732,128.7862549,61.5299683.1173096-.293396c-.1833496.7637939-.3660889,1.5279541-.5233154,2.3016968l-156.2819214-27.5614014-25.7010498,21,21.7350464,25.1110229,158.888855-.2991943.0840454-.9468384c.0464478.9246826.1246948,1.8407593.2078857,2.7553711l-137.2960205,38.727417,141.2650757-21-.1209106-.5625c.2609863.7097168.5474854,1.4067383.8312988,2.1051636l-144.9174194,64.8309937-9.5470581,31.7178955,32.0170898,8.6665039,131.4272461-89.2819214-.4560547-.8285522c12.3919067,16.541748,32.1755371,27.255188,54.493042,27.255188,21.9156494,0,41.3743286-10.3423462,53.7741089-26.4076538l131.399231,89.2629395,32.0171509-8.6665039-9.5470581-31.7178955-144.7454834-64.7542114c.2157593-.5322266.4259033-1.0671387.628418-1.6060791l141.175354,20.9866333-137.1400757-38.6835327c.0554199-.6182251.0961304-1.2406006.1347656-1.8635864l.0009766.0111694Z" fill="#fdda25"/>
  <path d="M350.3710169,552.2837304h0c0-18.5040883,14.9742195-33.6238549,33.6238509-33.6238549,18.5043469,0,33.6324584,14.9744821,33.6324584,33.6238549,0,9.692332-4.1112656,18.5043491-10.7179301,24.6668141h139.5041989l-162.2648351-138.7691853-162.418988,138.7691853h139.5044598c-6.7522099-6.162465-10.8632147-14.9744821-10.8632147-24.6668141" fill="#c8102e"/>
  <path d="M427.9075769,631.2864477v-6.4613808h3.9657202v-5.4360422h-3.9657202v-20.555548h-5.1452116l-14.0941655,20.555548v5.4360422h13.2135899v6.4613808h6.0257872ZM414.5400949,619.3890248l7.4869793-11.0085005v11.0085005h-7.4869793ZM384.7366797,623.7994675c.4358536,2.6409446,1.4614529,4.700751,2.9315134,6.0169196,1.615345,1.3247761,3.6751511,2.0598064,6.1710717,2.0598064,3.5212591,0,6.3160955-1.3247761,8.5128395-3.9657207,2.2050907-2.6409446,3.23069-6.905842,3.23069-12.7777378s-1.0255993-9.9829011-3.0854055-12.4785612c-2.0514595-2.4959209-4.8462958-3.820697-8.0769858-3.820697-2.9317742,0-5.427434,1.0258603-7.4872401,3.0856667-1.9059141,2.0511989-2.9315134,4.700751-2.9315134,7.9314414,0,3.0770591.8803148,5.7266113,2.7862289,7.6325256s4.1110048,2.9401213,6.6069254,2.9401213c2.3503752,0,4.2562893-.8803149,5.8716343-2.6495521-.2905691,3.6754124-.8803148,6.1710725-1.7606295,7.3419565-.8803148,1.1794915-1.9059141,1.7692373-3.23069,1.7692373-1.0255993,0-1.7606295-.2991766-2.4956598-.8803149-.5897457-.5897458-1.0258601-1.4700606-1.1711447-2.7948367l-5.8716343.5897458M398.8305844,610.2866994c0,1.7606298-.4444611,3.2306904-1.1794914,4.1110053-.8803148.8803149-1.7606295,1.4700606-2.9315134,1.4700606-1.1794914,0-2.3503752-.4444612-3.0856663-1.4700606-.8803148-1.0255994-1.1708839-2.4956601-1.1708839-4.5471198,0-2.0598064.4358536-3.529867,1.1708839-4.4101819.7352911-.8803149,1.7608904-1.3161686,2.7864897-1.3161686,1.1794914,0,2.3503752.5811382,3.23069,1.6153452.7350302,1.0255994,1.1794914,2.6409446,1.1794914,4.5471198M362.7024662,629.8163871c1.615345,1.3247761,3.6751511,2.0598064,6.1708109,2.0598064,3.5215199,0,6.3163563-1.3247761,8.5128395-3.9657207,2.2050907-2.6409446,3.2309508-6.905842,3.2309508-12.7777378s-1.0258601-9.9829011-3.0770588-12.4785612c-2.0598061-2.4959209-4.846035-3.820697-8.0769858-3.820697-2.9401209,0-5.4357807,1.0258603-7.4955868,3.0856667-1.9061749,2.0511989-2.9317742,4.700751-2.9317742,7.9314414,0,3.0770591.8803148,5.7266113,2.7864897,7.6325256,1.9145216,1.9059143,4.1110048,2.9401213,6.6066645,2.9401213,2.3506361,0,4.2651577-.8803149,5.8805027-2.6495521-.2991766,3.6754124-.8803148,6.1710725-1.7606295,7.3419565-.8889223,1.1794915-2.060067,1.7692373-3.2309508,1.7692373-1.0342068,0-1.7692371-.2991766-2.5042673-.8803149-.5811382-.5897458-1.0255993-1.4700606-1.1708839-2.7948367l-6.0171797.7350303c.4358536,2.4956601,1.4617138,4.5554665,3.0770588,5.871635M373.719573,610.2866994c0,1.7606298-.4444611,3.2306904-1.1708839,4.1110053-.8889223.8803149-1.7692371,1.4700606-3.0856663,1.4700606-1.1794914,0-2.2050907-.4444612-3.0854055-1.4700606s-1.1794914-2.4956601-1.1794914-4.5471198c0-2.0598064.4444611-3.529867,1.1794914-4.4101819s1.7606295-1.3161686,2.7862289-1.3161686c1.1794914,0,2.2053515.5811382,3.2309508,1.6153452.8803148,1.0255994,1.3247759,2.6409446,1.3247759,4.5471198M350.2239066,631.2864477h-6.1710717v-23.3503847c-2.1964832,2.205091-4.9915804,3.6754124-7.9230938,4.7010119v-5.5813267c1.615345-.5897458,3.3759745-1.4700606,5.2821495-2.9315137,1.9145216-1.4700606,3.23069-3.2309512,3.9657202-5.1454731h4.9915804v32.3076864h-.1452845Z" fill="#fff"/>
  <path d="M209.6907175,655.5155823c1.9145216,1.1794915,5.2904961,1.7606298,8.3759016-2.9317746,3.0770588-4.700751,1.0255993-7.6408723-.8889223-8.8117563-1.9059141-1.1794915-5.2818886-1.7692373-8.3672941,2.9315137-2.9317742,4.7010119-.8805756,7.6411331.8803148,8.8120171M219.2377637,640.8316693c2.2050907,1.4703215,7.4869793,6.1710725,2.4956598,14.0941672-4.9915804,7.9317022-11.5982449,5.1452122-13.8035964,3.6751516-2.2050907-1.4700606-7.4869793-6.1708117-2.4956598-14.0939064,4.9915804-7.9317022,11.4529604-5.1454731,13.8035964-3.6754124" fill="#0a0a14"/>
  <polygon points="223.6427284 667.4111794 219.9673165 665.351373 229.6596473 647.8814917 242.1468145 654.7787261 240.386185 657.8643928 231.5741689 653.0180964 229.3690782 656.9840779 237.155495 661.2403677 235.3862579 664.3257736 227.6084487 660.0694837 223.6427284 667.4111794" fill="#0a0a14"/>
  <polygon points="239.3556298 675.6342332 235.5349333 673.8736035 244.2016648 655.8139764 256.9794011 661.9761806 255.5093406 665.2071318 246.4067555 660.8052966 244.4922339 664.9163018 252.4239352 668.7369988 250.8085902 671.9590817 242.8768889 668.147253 239.3556298 675.6342332" fill="#0a0a14"/>
  <polygon points="255.0674878 682.9769722 251.2467913 681.361627 259.1784926 663.0028233 262.9989283 664.6181685 255.0674878 682.9769722" fill="#0a0a14"/>
  <path d="M276.2138224,676.8092906c.1452845-1.170884.2905691-3.5212595-2.9403817-4.8460356-1.9059141-.7350303-5.1366041-.5897458-7.1880635,4.700751-1.3247759,3.3762358-1.1794914,6.8974953,2.196744,8.2222714,2.2050907.8803149,4.1110048.1452846,5.4357807-1.9059143l3.9659811,1.4614531c-2.3506361,3.820697-6.0257872,5.5813267-10.7179301,3.820697-5.0001879-1.9061751-7.1966711-6.6069262-4.8462958-13.0685678,2.4956598-6.6066653,7.4872401-8.3675559,12.3332751-6.6066653,5.5813261,2.205091,6.4616408,6.8972344,5.5813261,9.692332l-3.8204357-1.4703215Z" fill="#0a0a14"/>
  <polygon points="298.2402108 680.7744896 288.1117655 677.5437992 286.7869896 681.5097808 296.0348593 684.449902 295.00926 687.825877 285.7613903 684.8857557 284.1460453 689.8770758 294.7186909 693.2533116 293.6844841 696.6378941 279.1461182 692.0824276 285.1716446 672.9883328 299.2658101 677.3985147 298.2402108 680.7744896" fill="#0a0a14"/>
  <path d="M315.2698022,698.9812271c2.2050907.4444612,5.5813261-.1452846,6.7608174-5.7263505,1.1708839-5.5813267-1.615345-7.487241-3.8206965-7.9317022-2.2050907-.4358537-5.5810652.1538921-6.7519491,5.7263505-1.1794914,5.2907576,1.615345,7.3419565,3.8118282,7.9317022M318.9452142,681.8016541c2.6409443.5897458,9.1023243,3.0856667,7.1964102,12.3335374-1.9059141,9.2562175-9.1025851,8.8120171-11.5982449,8.2222714-2.6495518-.5813991-9.1111927-3.0770591-7.1966711-12.3335374,2.0514595-9.1025862,9.1025851-8.8117563,11.5985057-8.2222714" fill="#0a0a14"/>
  <polygon points="332.4556332 705.1504737 328.3443676 704.5609888 331.2844885 684.7404712 345.3786541 686.9455621 344.7889084 690.4668216 334.8060085 688.996761 334.0709782 693.4069429 342.7374489 694.7233723 342.1477032 698.2532393 333.4812325 696.9284632 332.4556332 705.1504737" fill="#0a0a14"/>
  <polygon points="362.8529675 708.5272312 358.7417019 708.2366621 359.9125857 691.7837727 353.8956669 691.347919 354.1862359 687.818052 370.4852313 688.9975435 370.1946622 692.518803 364.1777434 692.0829493 362.8529675 708.5272312" fill="#0a0a14"/>
  <polygon points="376.3623431 700.1573278 376.2167978 709.1146294 372.105793 709.1146294 372.3963621 689.1404805 376.5076277 689.1404805 376.3623431 696.7813528 384.148499 696.9266374 384.2937836 689.2941118 388.4050492 689.2941118 388.1058726 709.259914 383.994607 709.259914 384.148499 700.3028731 376.3623431 700.1573278" fill="#0a0a14"/>
  <polygon points="407.3470755 691.9342739 396.7741691 692.5240197 396.9197145 696.7805703 406.6117845 696.3361091 406.7573299 699.8659761 397.064999 700.3018298 397.3639148 705.4473029 408.5179594 704.8575571 408.6718515 708.3788166 393.5434791 709.1138469 392.5178798 689.1480447 407.2015302 688.4130144 407.3470755 691.9342739" fill="#0a0a14"/>
  <path d="M427.7589015,695.4563159c3.0854055-.4358537,2.7862289-2.6409446,2.6409443-3.5212595-.2905691-1.9059143-1.4700605-2.6409446-3.9657202-2.205091l-3.2309508.4444612.7350302,5.871635,3.8206965-.5897458ZM425.4085263,706.6187085l-4.1112656.5897458-2.6409443-19.8288643,9.1025851-1.170884c3.8204357-.5897458,6.46138,1.6153452,7.0511257,5.5810659.2905691,1.7606298-.1538921,6.4616416-5.4357807,7.1966719l-4.7010113.5811382.7352911,7.0511265Z" fill="#0a0a14"/>
  <path d="M446.8477774,691.7829902c2.2050907-.4358537,3.0854055-1.3161686,2.6409443-3.3759749-.1452845-1.0255994-1.0255993-2.4956601-3.3762354-2.0511989l-5.1366041,1.0255994,1.0255993,5.2904968,4.8462958-.8889224ZM436.2751318,684.8854949l9.9828999-1.9059143c5.2904961-1.034207,6.9058411,2.6412055,7.3416948,4.2565507.4444611,2.205091-.2905691,4.2562898-2.0511986,5.2818893,1.7606295.4444612,2.7862289.8889224,3.5212591,4.5557273.5897457,2.9401213.7350302,3.5212595,1.615345,3.6751516l.1455454.5811382-4.5471192.8803149c-.4444611-.8803149-.8803148-1.9059143-1.1794914-3.8118286-.5811382-2.6495521-.8803148-3.6754124-3.9657202-3.0856667l-4.2565501.8805757,1.4700605,7.6322648-3.9657202.7350303-4.1110048-19.6752331Z" fill="#0a0a14"/>
  <polygon points="470.930842 680.4802688 460.6487655 683.1214743 461.6829723 687.2324795 471.0761266 684.7368195 471.9564413 688.1127944 462.5632871 690.6087153 463.8794555 695.608643 474.6059932 692.8138063 475.4863079 696.1897812 460.8023967 700.0102174 455.6571851 680.6258142 469.9049819 676.8051172 470.930842 680.4802688" fill="#0a0a14"/>
  <path d="M480.4760625,688.4101452c.4442003,1.0258603,1.615345,2.9403821,4.9913195,1.7608906,1.9059141-.5897458,3.8204357-1.7608906,3.23069-3.820697-.4358536-1.4614531-2.0511986-1.4614531-4.2562893-1.170884l-2.2050907.1452846c-3.3762354.2991766-6.4616408.5897458-7.9317013-3.6665441-.7264227-2.0598064-.7264227-6.1710725,5.4357807-8.2222714,5.8718951-1.9145218,8.6667315,1.3161686,9.4017617,3.6665441l-3.8204357,1.3247761c-.4444611-.8803149-1.3247759-2.7948367-4.846035-1.6153452-1.4703213.4358537-3.0856663,1.6153452-2.4959206,3.3762358.4358536,1.4700606,1.7606295,1.4700606,2.6412051,1.3247761l4.9913195-.4444612c2.7948364-.1452846,5.5813261,0,6.6069254,3.5212595,1.9145216,5.7266113-3.812089,8.0769868-5.427434,8.6667326-6.9058411,2.3503755-9.4017617-1.3247761-10.2820765-3.6751516l3.9659811-1.1711448Z" fill="#0a0a14"/>
  <polygon points="501.6221362 687.5290478 497.6561551 688.9993693 490.6050294 670.2044511 494.5707497 668.7343905 501.6221362 687.5290478" fill="#0a0a14"/>
  <path d="M508.5245865,681.0694929l3.6668045-1.6153452c3.0854055-1.3247761,2.7948364-4.991581,1.4700605-7.9317022-2.3503752-5.4360422-5.1368649-4.700751-6.7522099-4.1112661l-3.6751511,1.615606,5.2904961,12.0427075ZM498.0974863,667.4111794l8.076725-3.5212595c6.1710717-2.6495521,9.6923308,2.0511989,11.3076758,5.5813267,1.7608904,3.9571132,2.6412051,10.2734702-3.5212591,12.9144149l-7.9317013,3.3845825-7.9314405-18.3590645Z" fill="#0a0a14"/>
  <polygon points="531.1375906 655.9571743 521.5905443 660.8034707 523.5050659 664.6239069 532.1631899 660.213725 533.7785349 663.4444153 525.1204109 667.8548581 527.4621787 672.5470016 537.3084015 667.5556814 538.9237465 670.7863718 525.41098 677.6924746 516.3083949 659.7778713 529.5219848 653.1709451 531.1375906 655.9571743" fill="#0a0a14"/>
  <polygon points="543.3255812 644.9434571 546.7015558 643.0375428 556.8383477 660.3624004 553.1629358 662.4222068 538.9237465 654.1913279 546.1118101 666.533212 542.7358355 668.4393872 532.6073903 651.1145296 536.4194793 648.9094386 550.3767069 656.9864254 543.3255812 644.9434571" fill="#0a0a14"/>
  <polygon points="567.9957832 652.7264839 564.4742633 655.0771203 555.3630706 641.4188067 550.3717511 644.7950425 548.465837 641.8632679 561.9786035 632.752335 563.8845176 635.6924563 558.893198 639.0684312 567.9957832 652.7264839" fill="#0a0a14"/>
  <path d="M251.2493996,710.1420547c2.0598061.8803149,5.5810652.7350303,7.6325247-4.4015744,2.0598061-5.1454731-.2905691-7.6411331-2.3420285-8.521448-2.0598061-.8803149-5.5810652-.7350303-7.6408714,4.4101819-2.2050907,5.1368655.1452845,7.6325256,2.3503752,8.5128405M257.7110405,693.8427965c2.4956598,1.0258603,8.5125786,4.7010119,4.9913195,13.3591369-3.5212591,8.6667326-10.4273611,7.1966719-12.9230208,6.1708117-2.4956598-1.0255994-8.5128395-4.700751-4.9915804-13.358876,3.675412-8.6667326,10.5726456-7.0513874,12.9232817-6.1710725" fill="#0a0a14"/>
  <polygon points="266.962301 719.2477709 262.9963199 717.9229949 269.4579608 698.9830529 282.9707273 703.5385194 281.7912359 706.9144943 272.2527971 703.6838039 270.7827367 707.9400938 279.1502916 710.7351913 277.9791469 714.1111662 269.6032453 711.3163295 266.962301 719.2477709" fill="#0a0a14"/>
  <polygon points="296.184578 728.058223 292.0733124 727.0326236 296.184578 711.0241954 290.3126829 709.5541348 291.1929976 706.177899 306.9025082 710.2891651 306.0219326 713.66514 300.1502983 712.1950794 296.184578 728.058223" fill="#0a0a14"/>
  <polygon points="311.1632317 722.3316118 309.4023413 731.1436289 305.2913365 730.263314 309.2570567 710.5880809 313.3683223 711.4683958 311.8982619 718.9556368 319.5305257 720.4256975 321.0005862 712.9301097 325.1118518 713.8190321 321.1461316 733.4942652 317.034866 732.6136895 318.7954955 723.8019332 311.1632317 722.3316118" fill="#0a0a14"/>
  <polygon points="343.0282788 719.9820188 332.4553724 718.5119581 331.8656267 722.6232242 341.5579575 723.9480003 341.1221039 727.4692598 331.4297731 726.1530912 330.6947429 731.2899568 341.7032421 732.905302 341.2673885 736.4265615 326.1392769 734.230078 328.9341133 714.4009529 343.4724791 716.4607593 343.0282788 719.9820188" fill="#0a0a14"/>
  <path d="M362.415288,727.4695206c3.0767979.1452846,3.23069-2.0514597,3.3759745-2.9317746.1452845-1.9145218-.8803148-2.7948367-3.5298666-2.9401213l-3.3759745-.1452846-.4361145,5.871635,3.9659811.1455454ZM357.8598221,737.8966221l-4.1112656-.2905691,1.3247759-19.9741489,9.1025851.5897458c3.812089.2905691,6.0171797,2.9315137,5.8718951,6.7519499-.1452845,1.7606298-1.4700605,6.316357-6.7522099,6.0171804l-4.8462958-.2905691-.5894849,7.1964111Z" fill="#0a0a14"/>
  <polygon points="376.8026309 729.8204178 376.6570856 738.7777195 372.5460808 738.7777195 372.8366499 718.8035706 376.9479155 718.8035706 376.8026309 726.4444429 384.5887868 726.5897274 384.7340714 718.9572018 388.845337 718.9572018 388.5461604 738.923004 384.4348948 738.923004 384.5887868 729.9659632 376.8026309 729.8204178" fill="#0a0a14"/>
  <polygon points="397.6547447 738.6308699 393.5434791 738.7764153 392.9537334 718.8106131 397.064999 718.656721 397.6547447 738.6308699" fill="#0a0a14"/>
  <polygon points="406.1717575 734.5196038 416.1546574 733.7845735 416.4535732 737.4599859 402.351061 738.3403008 401.0348926 718.3658911 405.1458974 718.0753219 406.1717575 734.5196038" fill="#0a0a14"/>
  <polygon points="423.6471142 736.7223473 419.5358486 737.1668085 417.4760425 717.1926596 421.5870473 716.7481984 423.6471142 736.7223473" fill="#0a0a14"/>
  <path d="M434.6623952,724.5317469c3.0767979-.4358537,2.7862289-2.6409446,2.6409443-3.5212595-.2905691-1.9059143-1.4700605-2.6409446-3.9657202-2.205091l-3.2309508.4444612.8803148,5.871635,3.675412-.5897458ZM432.4573045,735.6941395l-4.1112656.5897458-2.7862289-19.8288643,9.1025851-1.3164294c3.8118282-.5897458,6.46138,1.615606,7.0425182,5.4274346.2991766,1.7692373-.1452845,6.4616416-5.4271732,7.1966719l-4.7010113.7350303.8805756,7.1964111Z" fill="#0a0a14"/>
  <path d="M452.8691304,721.3026215c3.0854055-.5897458,2.6409443-2.7862292,2.4956598-3.6665441-.4358536-1.9145218-1.615345-2.5042676-4.1110048-2.0598064l-3.2309508.5897458,1.1708839,5.7263505,3.675412-.5897458ZM451.2537854,732.6102987l-4.1112656.8805757-3.9657202-19.6752331,8.9573006-1.7608906c3.8204357-.7350303,6.6066645,1.1711448,7.3416948,5.1368655.2905691,1.7606298.2905691,6.4616416-4.9913195,7.487241l-4.7010113.8803149,1.4703213,7.0511265Z" fill="#0a0a14"/>
  <polygon points="469.4623466 728.6453605 465.351081 729.6712207 460.6503305 710.1412722 464.7613353 709.1156728 469.4623466 728.6453605" fill="#0a0a14"/>
  <polygon points="480.4760625 704.8565138 484.2964982 703.8309143 489.7236713 723.0616862 485.7665586 724.2411777 474.0144216 712.788216 477.9801419 726.5918141 474.1597062 727.6174135 468.7322722 708.3780341 472.9888223 707.2071501 484.4417827 718.5148273 480.4760625 704.8565138" fill="#0a0a14"/>
  <polygon points="502.9435213 701.1855355 492.9603605 704.7070559 494.2767897 708.6727766 503.5330061 705.4420862 504.7041508 708.8180611 495.4562811 712.0490123 497.2169106 716.8950479 507.6442717 713.2285039 508.8151556 716.6044788 494.4306818 721.5957989 487.8151489 702.655857 501.7723766 697.8095606 502.9435213 701.1855355" fill="#0a0a14"/>
  <path d="M513.0761399,708.2343146c.4442003,1.0258603,1.7606295,2.78649,5.1366041,1.3250369,1.7606295-.7352912,3.6751511-2.0600672,2.9401209-3.9659815-.5897457-1.4700606-2.2050907-1.3247761-4.2562893-.8803149l-2.2050907.2905691c-3.2309508.5897458-6.4616408,1.0255994-8.0769858-3.0854058-.8803148-2.0511989-1.1708839-6.162465,4.846035-8.658125,5.7266106-2.3503755,8.6667315.7264228,9.6923308,3.0767983l-3.6751511,1.4703215c-.4358536-.7352912-1.615345-2.6412055-4.9913195-1.1711448-1.4703213.5813991-2.9317742,1.9061751-2.3506361,3.5215203.5897457,1.4700606,1.9145216,1.3247761,2.7948364,1.170884l4.9915804-.7264228c2.7862289-.4444612,5.5810652-.2991766,6.8974945,2.9315137,2.3503752,5.5813267-3.2309508,8.3761634-4.8462958,9.1025862-6.7519491,2.7948367-9.5384388-.5811382-10.4187535-2.9315137l3.5215199-1.4703215Z" fill="#0a0a14"/>
  <path d="M173.715448,597.8060516c2.6409443,2.4959209,4.5554659,5.4360422,5.8716343,8.6667326,1.3247759,3.2309512,2.0598061,6.7522107,2.0598061,10.4273623,0,3.6668049-.8803148,7.3419565-2.4956598,11.1537851-1.615345,3.820697-4.1110048,7.3419565-7.3419556,10.8718235-3.3845821,3.3762358-6.9058411,6.0171804-10.7265377,7.7778102-3.8118282,1.7606298-7.6322639,2.7948367-11.4529604,3.0854058-3.8118282.29083-7.4869793-.2905691-11.0084992-1.6153452-3.5298666-1.3247761-6.7605566-3.3759749-9.6923308-6.1708117-2.0598061-2.0511989-3.8204357-4.1112661-4.9913195-6.3077495-1.1794914-2.205091-2.2050907-4.5554665-2.7948364-7.0513874l-3.2309508.8805757-2.4956598-2.3506363,14.6836504-15.7092516,2.4959206,2.3503755c-1.1711447,1.7606298-2.196744,3.9657207-3.2309508,6.316357-1.0255993,2.341768-1.7606295,4.5468589-2.0511986,6.6066653-.2991766,2.3503755-.2991766,4.5471198.2905691,6.6069262.5897457,2.0511989,1.7606295,3.9657207,3.3762354,5.5810659,1.9145216,1.9061751,4.2648968,3.2309512,6.7605566,3.9659815,2.4956598.7264228,5.2821495.8803149,8.0769858.4358537,2.7862289-.4358537,5.7263498-1.7606298,8.8034085-3.5215203,3.0854055-1.9145218,6.1708109-4.4101819,9.2564772-7.4869802,2.6409443-2.7948367,4.846035-5.5813267,6.3160955-8.6667326,1.4614529-2.9401213,2.4956598-6.0257879,2.9317742-8.9573017.4442003-2.9401213.1452845-5.8718958-.7352911-8.521448-.8803148-2.6409446-2.3503752-5.1366047-4.5468584-7.1964111-1.615345-1.6153452-3.3759745-2.78649-5.290757-3.6668049-1.9059141-.8803149-3.6665436-1.3247761-5.5810652-1.4700606-1.9059141-.1452846-3.812089,0-5.5813261.4444612-1.9059141.4358537-3.6665436,1.0255994-5.4271732,1.9059143l-1.1794914-3.2306904c5.8802418-2.6409446,11.1623913-3.3759749,15.8631417-2.4956601,4.7010113,1.0255994,9.1025851,3.5212595,13.0685662,7.3416956" fill="#0a0a14"/>
  <path d="M122.4639133,554.0480118c-2.9315134.1452846-6.0169189,1.0255994-9.1025851,2.1964834-3.0854055,1.3247761-6.1708109,3.0854058-9.4017617,5.4357813-3.3759745,2.3506363-6.1622034,4.991581-8.5125786,7.6411331-2.3506361,2.6409446-3.9659811,5.2821501-5.1368649,7.9230947-1.0342068,2.6495521-1.4700605,5.2904968-1.1794914,8.0769868.2905691,2.6495521,1.3247759,5.2904968,3.0854055,7.6408723,1.9061749,2.78649,4.2565501,4.7010119,6.8974945,5.7266113,2.6495518,1.0255994,5.4357807,1.3161686,8.3761624,1.0255994,2.7862289-.2905691,5.8716343-1.170884,8.9573006-2.4956601,3.0854055-1.3247761,6.1622034-3.0856667,9.1023243-5.2907576,3.2309508-2.341768,6.0171797-4.8460356,8.3675549-7.3416956,2.2050907-2.4959209,3.9659811-5.1368655,5.1454724-7.9230947,1.1708839-2.6495521,1.615345-5.4360422,1.3161684-8.0769868-.2905691-2.6495521-1.3161684-5.2904968-3.0854055-7.9317022-1.7608904-2.4956601-3.9573735-4.2562898-6.4530333-5.4357813-2.6495518-1.0255994-5.4360415-1.4700606-8.3761624-1.170884M84.139312,573.7229841c.7350302-3.8204361,2.2050907-7.3416956,4.5554659-10.863216,2.3417677-3.529867,5.427434-6.6152729,9.2478697-9.401502,3.8204357-2.78649,7.7861559-4.7010119,11.8974215-5.7266113,4.1110048-1.0255994,7.9230938-1.170884,11.7435295-.5897458,3.6751511.5897458,7.1966711,1.7606298,10.4273611,3.8204361,3.23069,1.9061751,6.0171797,4.5557273,8.2222704,7.7864177,2.4956598,3.3759749,3.9657202,7.0427798,4.846035,10.7179314.7350302,3.8120895.7350302,7.487241,0,11.1623926-.7350302,3.6668049-2.3503752,7.1880644-4.5554659,10.7179314-2.3417677,3.5215203-5.2821495,6.4616416-8.9573006,9.1025862-3.9571127,2.7862292-7.9230938,4.700751-11.888814,5.7266113-3.9659811,1.0255994-7.9317013,1.170884-11.752137.5897458-3.812089-.5897458-7.3419556-1.7608906-10.5726456-3.820697s-6.0171797-4.5554665-8.2222704-7.6325256c-2.3503752-3.2306904-3.8204357-6.7605574-4.7007505-10.4271015-.8803148-3.820697-1.0258601-7.487241-.2905691-11.1626535" fill="#0a0a14"/>
  <path d="M93.3905725,470.9316808l10.5726456,24.3762449-2.7864897,1.170884c-.4444611-.8803149-1.0342068-1.9059143-1.7692371-3.2306904-.7350302-1.3164294-1.3161684-2.1967443-1.9059141-2.4959209-.8803148-.5811382-1.615345-.8803149-2.4956598-1.0255994-.7350302-.1452846-1.615345,0-2.6412051.4444612l-40.0938384,17.3248576.2991766.5897458,55.0683187-1.6153452.8803148,1.9059143-40.0940992,38.6240434.1452845.4358537,32.8974282-14.2394518c3.2309508-1.3247761,5.5813261-2.6495521,7.0513865-3.8204361,1.4614529-1.170884,2.3503752-2.205091,2.7862289-3.3759749.2905691-.7350303.2905691-2.205091,0-4.2565507-.2905691-2.0598064-.5897457-3.2306904-.7350302-3.8204361l2.7948364-1.1794915,9.6923308,22.1795007-2.7948364,1.170884c-.5897457-1.170884-1.3247759-2.205091-2.2050907-3.3759749s-1.7606295-1.9059143-2.4956598-2.3503755c-1.1711447-.5897458-2.4959206-.7350303-4.1112656-.4361145-1.615345.29083-4.2562893,1.1711448-7.7778092,2.78649l-28.1964169,12.1879921c-1.615345.7350303-2.9401209,1.4700606-3.8206965,2.3503755-.8803148.8803149-1.4700605,1.7606298-1.7606295,2.78649-.2905691,1.1794915-.4444611,2.3503755-.2905691,3.6751516.1452845,1.3247761.4358536,2.4956601.8803148,3.6665441l-2.7948364,1.1794915-8.0769858-18.7949182,34.3674886-33.6324624-40.3844075,1.4700606c-1.4700605,0-2.9401209.1452846-4.5557267.4444612-1.4614529.2905691-2.4956598.4361145-3.0767979.5813991l-7.6411322-17.7693188,2.7948364-1.170884c.2908299.7350303.8805756,1.6153452,1.6156058,2.6409446.7264227,1.034207,1.1708839,1.7606298,1.615345,2.205091.7264227.7350303,1.4614529,1.170884,2.3417677,1.170884.8889223,0,1.7692371-.1452846,2.6495518-.5811382l39.6496381-17.179573c.8803148-.4442004,1.615345-.8886616,2.0511986-1.4700606.4444611-.5897458.7350302-1.4700606.8803148-2.4956601,0-.5897458,0-1.4700606-.2905691-2.7948367-.2991766-1.3161686-.5897457-2.3503755-.8803148-2.9315137l2.6412051-1.3250369Z" fill="#0a0a14"/>
  <path d="M82.8179269,394.1306636l2.2050907,26.1368747-2.9403817.4444612c-.1452845-.8803149-.4358536-2.205091-.8803148-3.6751516s-.7350302-2.4959209-1.1708839-2.9317746c-.5897457-.7350303-1.3247759-1.3247761-2.0598061-1.6153452-.7350302-.2991766-1.615345-.4444612-2.6409443-.1538921l-43.1708972,6.4616416.1452845.5897458,53.5982582,12.6324533.2905691,2.0511989-48.7522232,27.0257971.1452845.5811382,35.3933488-5.2821501c3.3759745-.5897458,6.0169189-1.1794915,7.7775484-1.7606298,1.7692371-.7350303,2.9403817-1.6153452,3.5301274-2.5042676.4358536-.7264228.8803148-2.0511989,1.0255993-4.1110053.2905691-2.0514597.2905691-3.2309512.2905691-3.8120895l2.9401209-.4444612,3.6751511,23.9401304-2.9401209.4361145c-.2905691-1.1711448-.7350302-2.4959209-1.1794914-3.820697-.4358536-1.3161686-1.1708839-2.341768-1.9059141-2.9315137-.8803148-.8803149-2.2050907-1.3247761-3.9657202-1.4700606-1.6156058-.1452846-4.4018347.1452846-8.2222704.7350303l-30.3931609,4.5554665c-1.7608904.2905691-3.2309508.7264228-4.2651577,1.3161686-1.0255993.5897458-1.9059141,1.3247761-2.4956598,2.2053518-.5811382,1.0255994-1.0255993,2.0511989-1.1708839,3.3759749s-.1452845,2.6409446,0,3.8204361l-2.9401209.4358537-3.0854055-20.2649789,41.9997525-23.7862384-39.4954852-8.9573017c-1.4703213-.2905691-2.9403817-.5897458-4.5557267-.7350303s-2.6409443-.1452846-3.0854055-.1452846l-2.9315134-19.384664,2.9315134-.4444612c.1452845.7350303.4444611,1.7692373.8803148,2.9403821.4444611,1.1794915.7350302,2.0598064,1.0255993,2.4956601.4444611.8803149,1.1794914,1.4700606,1.9145216,1.6153452.8803148.1452846,1.7606295.2991766,2.6412051.1452846l42.7350435-6.4616416c1.0255993-.1452846,2.9315134-.7350303,3.6665436-1.0255994.5897457-.4358537,1.1794914-1.0255994,1.615345-2.0511989.2991766-.5897458.4444611-1.4700606.5897457-2.7948367.1452845-1.3161686.1452845-2.3503755.1452845-3.0854058l3.0856663-.29083Z" fill="#0a0a14"/>
  <path d="M83.5521746,363.5872587l-.7352911,27.0171896h-2.9401209c0-.7350303-.1452845-1.9059143-.1452845-3.3759749-.1452845-1.4700606-.2905691-2.4956601-.4358536-3.0854058-.2991766-.8805757-.8803148-1.615606-1.4700605-2.0514597-.5897457-.4444612-1.4700605-.7350303-2.6409443-.7350303l-43.4700738-1.0255994c-1.0258601,0-1.7608904.1452846-2.4959206.4358537-.7350302.2991766-1.1708839,1.0255994-1.7606295,2.205091-.2991766.8803149-.7350302,1.9061751-1.0255993,3.2309512-.2991766,1.3247761-.5897457,2.3503755-.5897457,3.0854058h-2.9401209l.5897457-27.0257971,2.9401209.1538921c0,.8803149.1452845,1.9061751.2905691,3.0770591.1452845,1.1794915.2905691,2.3503755.5897457,3.2306904.2905691,1.034207.8803148,1.7692373,1.615345,2.205091.7350302.4444612,1.615345.5897458,2.4956598.5897458l43.4617271,1.0255994c.8803148,0,1.7606295-.1452846,2.4956598-.5897458.7350302-.4358537,1.3247759-1.0255994,1.7692371-2.0511989.2905691-.5897458.4358536-1.6153452.8803148-2.9401213.2905691-1.3161686.4358536-2.4956601.5811382-3.3762358h2.9403817Z" fill="#0a0a14"/>
  <path d="M61.3786758,320.2674201c1.615345-1.0255994,3.23069-1.7606298,4.9913195-2.0598064,1.7606295-.2905691,3.6751511-.4358537,5.8718951,0,5.2904961.7350303,9.2562164,3.3848433,12.1879906,7.6411331,2.7948364,4.4018352,3.8204357,9.3931553,3.0854055,15.1281133-.4358536,2.6412055-1.1708839,5.2821501-2.3503752,7.7778102-1.1708839,2.4956601-2.4956598,4.7010119-3.9659811,6.4616416l2.7950972,2.205091-.4444611,3.3759749-20.410261-2.3503755.4444611-3.3759749c2.6409443-.2905691,4.9913195-.8803149,7.1964102-1.4700606,2.196744-.5897458,4.2565501-1.6153452,6.1624642-2.9401213,1.9145216-1.1711448,3.3759745-2.78649,4.7007505-4.5471198s2.060067-3.9657207,2.4959206-6.6069262c.2905691-1.9145218.2905691-3.6751516,0-5.1452122-.2905691-1.4614531-.8803148-2.7862292-1.615345-3.8120895-.7352911-1.034207-1.7608904-1.9145218-2.9403817-2.4956601-1.1708839-.5897458-2.6409443-1.034207-4.2562893-1.3247761-2.3503752-.2905691-4.7010113,0-6.8974945,1.0255994-2.2050907,1.0255994-4.1110048,2.7948367-5.5810652,5.2907576-1.0258601,1.7606298-2.0598061,3.6665441-3.2309508,5.871635-1.1794914,2.205091-2.3503752,4.1112661-3.3759745,5.7266113-2.0598061,3.0854058-4.4101814,5.4357813-7.0513865,6.905842-2.6409443,1.4617139-6.0169189,1.9061751-9.9828999,1.4617139-2.2050907-.2905691-4.2648968-1.0255994-6.1708109-2.3503755-1.7606295-1.1711448-3.3762354-2.78649-4.7010113-4.6924043-1.1708839-1.7692373-2.0511986-3.9657207-2.6409443-6.1710725-.4444611-2.3503755-.5897457-4.700751-.2905691-7.0511265.4358536-2.78649,1.1708839-5.1368655,2.3503752-7.1966719,1.1708839-2.0511989,2.3420285-3.8118286,3.812089-5.4274346l-2.6412051-2.0598064.4444611-3.3759749,19.8205153,2.4956601-.4444611,3.3762358c-2.3417677.2989158-4.5468584.7350303-6.7519491,1.1794915-2.2050907.4358537-4.2565501,1.170884-6.0171797,2.205091-1.7606295,1.0255994-3.23069,2.1964834-4.5554659,3.8118286s-2.0514595,3.6754124-2.3506361,6.1710725c-.4358536,2.6409446.1455454,4.9913201,1.6156058,7.1964111,1.4700605,2.0514597,3.3759745,3.3762358,5.8716343,3.6668049,2.4956598.4444612,4.8462958.1452846,6.6155329-.8803149,1.9059141-1.0255994,3.5212591-2.4956601,4.9913195-4.7010119,1.3161684-1.9059143,2.3503752-3.8118286,3.3762354-5.5810659,1.0255993-1.9059143,2.0511986-3.6668049,3.0854055-5.4274346,1.0255993-1.6153452,2.0511986-3.0854058,3.23069-4.5554665.8803148-1.170884,2.0511986-2.3503755,3.5215199-3.3762358" fill="#0a0a14"/>
  <path d="M74.0069542,274.1579615c1.7606295-.8803149,3.5212591-1.3247761,5.2818886-1.3247761,1.7692371,0,3.6751511.1538921,5.8805027.7352912,5.1366041,1.4700606,8.6578632,4.700751,10.8632147,9.401502,2.2050907,4.7010119,2.4956598,9.8376165.7350302,15.4189433-.7350302,2.4956601-1.9061749,4.9913201-3.5215199,7.3416956-1.615345,2.3506363-3.23069,4.2565507-4.846035,5.7266113l2.4956598,2.6409446-1.0255993,3.2309512-19.8291228-5.2821501,1.0255993-3.2306904c2.6495518,0,5.0001879-.1452846,7.3419556-.4444612,2.2050907-.2905691,4.4101814-1.0255994,6.6152721-1.9059143,2.0514595-.8805757,3.812089-2.2053518,5.2821495-3.820697s2.6409443-3.6665441,3.3759745-6.1622041c.5897457-1.9147827.7350302-3.5301279.7350302-5.1454731,0-1.4700606-.4358536-2.9315137-1.0255993-3.9657207-.5897457-1.0255994-1.4700605-2.0511989-2.6409443-2.9317746-1.0342068-.7350303-2.3503752-1.4700606-3.9657202-1.9145218-2.3506361-.7350303-4.7010113-.7350303-7.0513865,0s-4.4015739,2.2053518-6.3160955,4.4104427c-1.1711447,1.6153452-2.6412051,3.3759749-4.1112656,5.2818893-1.4700605,1.9145218-2.9315134,3.6754124-4.1110048,5.1454731-2.4959206,2.7862292-5.1368649,4.6921435-7.9317013,5.871635-2.9315134,1.0255994-6.3077488,1.0255994-10.1281845,0-2.2050907-.5897458-4.1110048-1.7606298-5.7266106-3.2306904-1.615345-1.4700606-2.9401209-3.2306904-3.9657202-5.2904968-.8803148-2.0514597-1.4700605-4.1112661-1.615345-6.6069262-.1452845-2.3503755.1452845-4.7010119.7350302-7.0513874.7350302-2.6409446,1.9059141-4.8374281,3.3759745-6.7519499,1.4700605-1.9061751,2.9401209-3.5215203,4.5557267-4.8462964l-2.2053515-2.4956601,1.0258601-3.2306904,19.2391163,5.4357813-1.0255993,3.2306904c-2.3503752,0-4.7007505,0-6.9058411.1452846s-4.2565501.5897458-6.3163563,1.3247761c-1.9059141.7350303-3.5212591,1.7608906-4.9913195,3.0770591-1.4700605,1.4700606-2.4959206,3.3845825-3.2309508,5.7263505-.7350302,2.5042676-.5897457,5.0001885.5897457,7.350564,1.1711447,2.341768,2.7864897,3.8118286,5.2821495,4.5468589,2.4956598.7352912,4.7007505.7352912,6.7605566.1455454,1.9061749-.7352912,3.812089-1.9061751,5.5813261-3.8120895,1.4614529-1.7692373,2.9315134-3.3845825,4.2562893-5.1452122,1.3247759-1.7608906,2.4959206-3.3762358,3.8206965-4.8462964,1.1708839-1.4614531,2.4956598-2.7862292,3.8118282-3.9657207.8803148-1.0255994,2.3503752-2.0511989,3.8206965-2.78649" fill="#0a0a14"/>
  <path d="M112.9213012,253.1589957l-10.718191,24.8207061-2.7948364-1.1794915c.2991766-.7350303.5897457-1.7606298,1.0342068-3.0854058.4358536-1.3164294.7350302-2.3506363.7350302-2.9317746,0-1.034207-.1538921-1.7606298-.5897457-2.4956601-.4444611-.7350303-1.1794914-1.1794915-2.2050907-1.6153452l-39.9402072-17.1881806c-.8803148-.4358537-1.7606295-.5811382-2.4956598-.5811382s-1.4700605.4358537-2.3503752,1.3161686c-.5897457.5897458-1.3247759,1.4700606-2.2050907,2.4959209-.7350302,1.0339461-1.3164292,1.9145218-1.7608904,2.6495521l-2.7862289-1.1794915,10.7179301-24.8120986,2.7864897,1.170884c-.2908299.8803149-.5897457,1.7608906-.8805756,2.9403821-.2905691,1.170884-.5897457,2.1964834-.5897457,3.2306904-.1452845,1.170884.1538921,2.0511989.5897457,2.6409446.5897457.5897458,1.3247759,1.170884,2.060067,1.4700606l39.9399463,17.179573c.8803148.4444612,1.7608904.4444612,2.4959206.4444612s1.615345-.4444612,2.3503752-1.1794915c.4358536-.4358537,1.0255993-1.170884,1.7606295-2.3503755.7350302-1.1711448,1.3247759-2.0514597,1.7606295-2.9317746l3.0856663,1.170884Z" fill="#0a0a14"/>
  <path d="M123.7871242,213.0734992c-1.3247759-2.6495521-3.2309508-5.1452122-5.7266106-7.4958486-2.3503752-2.341768-5.2818886-4.4015744-8.8120161-6.4613808-3.5212591-2.0511989-7.0511257-3.6668049-10.2820765-4.8462964-3.3759745-1.0255994-6.4527725-1.6153452-9.3931542-1.4614531-2.7948364.1452846-5.4357807.8803149-7.7861559,2.1964834-2.3503752,1.3250369-4.2565501,3.2309512-5.8718951,5.8805034-1.7606295,2.9315137-2.4956598,5.7263505-2.4956598,8.658125,0,2.9401213.8803148,5.5810659,2.3503752,8.2222714,1.4700605,2.5042676,3.3759745,4.8460356,5.8718951,7.1964111,2.4956598,2.3506363,5.2904961,4.4104427,8.5211861,6.316357,3.5215199,2.0598064,6.7522099,3.6751516,9.9828999,4.700751,3.2309508,1.0255994,6.3163563,1.6153452,9.2478697,1.4700606,2.9403817,0,5.5813261-.7350303,7.9317013-1.9145218,2.3503752-1.3161686,4.4101814-3.2306904,6.0257872-6.0169196,1.615345-2.6412055,2.3417677-5.2907576,2.3417677-8.0769868s-.4358536-5.8718958-1.9059141-8.3675559M90.4538424,185.7571329c3.6751511-.8803149,7.6322639-.8803149,11.7435295-.1452846,4.1196123.7350303,8.2306171,2.3506363,12.3418827,4.7010119,4.1110048,2.4956601,7.4869793,5.2818893,9.9828999,8.658125,2.4956598,3.3759749,4.2562893,6.7605574,5.2818886,10.5726469,1.0342068,3.6751516,1.1794914,7.3419565.7350302,11.0171081-.5811382,3.6665441-1.7606295,7.3419565-3.8118282,10.5726469-2.2050907,3.5212595-4.8462958,6.4613808-7.9317013,8.6667326-3.23069,2.1964834-6.6066645,3.6665441-10.2820765,4.4015744-3.6665436.7350303-7.4869793.7350303-11.5982449,0-4.1110048-.7350303-8.0769858-2.3503755-11.8974215-4.5554665-4.2562893-2.4959209-7.4872401-5.4274346-9.9828999-8.658125-2.4956598-3.2309512-4.2562893-6.7608182-5.2904961-10.4273623-1.0258601-3.6751516-1.1711447-7.487241-.7266835-11.1623926.581399-3.820697,1.7608904-7.3419565,3.812089-10.5726469,2.0598061-3.3762358,4.5554659-6.316357,7.6408714-8.5128405,3.0856663-2.205091,6.4616408-3.6751516,9.9831607-4.5557273" fill="#0a0a14"/>
  <path d="M137.0033225,123.4939616c-.4444611.5897458-1.1711447,1.615606-1.9061749,3.2309512-.7350302,1.4700606-1.1794914,2.6409446-1.3247759,3.5212595-.1452845,1.1794915.4444611,2.6495521,1.615345,4.2648973,1.3247759,1.615606,3.0856663,3.3762358,5.290757,5.4274346l32.8888207,29.076996-2.4956598,2.7948367-60.9402138-5.2904968,23.1964898,20.555548c2.6495518,2.3503755,4.7010113,3.9657207,6.4616408,4.8460356,1.7692371.8803149,3.0854055,1.3247761,4.2648968,1.1794915.8803148-.1452846,2.1964832-.7350303,3.9657202-1.9145218,1.7608904-1.170884,2.7864897-2.0511989,3.2309508-2.4956601l2.1964832,2.0598064-16.2989954,18.5043491-2.2053515-2.0598064c.4444611-.5897458,1.1794914-1.7608906,1.9145216-3.3762358.8805756-1.6153452,1.1711447-2.7862292,1.1711447-3.3759749,0-1.3247761-.4361145-2.4956601-1.3164292-3.9659815-.8803148-1.4700606-2.9401209-3.3759749-5.8802418-5.871635l-22.1708905-19.5299485c-1.0255993-.8803149-2.0514595-1.6153452-3.3762354-2.0598064-1.3247759-.5897458-2.3503752-.7350303-3.5212591-.5897458-1.3247759.1538921-2.9401209.5897458-4.5554659,1.4700606s-2.7864897,1.6153452-3.5215199,2.4956601l-2.2050907-2.0511989,11.3076758-12.9230224,56.6839245,4.9913201-21.4444678-18.9402028c-2.6412051-2.3503755-4.8462958-3.9657207-6.4616408-4.8460356s-3.0767979-1.1794915-4.1110048-1.034207c-.8803148.2991766-2.196744.8803149-3.6668045,1.9145218-1.615345,1.0255994-2.6495518,1.9059143-3.3759745,2.4956601l-2.2050907-2.0598064,16.1537108-18.350457,2.6412051,1.9059143Z" fill="#0a0a14"/>
  <path d="M228.0503015,114.681162c0-3.0767983-.5897457-6.0169196-1.7606295-9.2478708-1.1794914-3.0854058-2.7948364-6.3160962-4.9999271-9.692332-2.196744-3.5212595-4.5471192-6.4613808-7.1880635-8.9570408-2.6495518-2.4959209-5.1454724-4.2565507-7.7864167-5.4360422-2.6409443-1.170884-5.2904961-1.7606298-7.9317013-1.6153452-2.6409443.1452846-5.2818886,1.034207-7.7775484,2.6495521-2.7950972,1.7606298-4.8462958,3.957374-6.0257872,6.6069262-1.1708839,2.6409446-1.615345,5.4271738-1.4700605,8.3675559.1538921,2.7862292.8803148,5.871635,2.0598061,9.1023254,1.1708839,3.2309512,2.7862289,6.316357,4.8462958,9.4017629,2.2050907,3.3762358,4.4015739,6.316357,6.8972336,8.658125,2.4959206,2.3503755,5.0001879,4.1196128,7.6411322,5.4360422,2.6409443,1.3247761,5.2821495,1.9145218,7.9317013,1.7606298,2.6409443,0,5.4271732-1.0255994,8.0683783-2.6409446,2.5042673-1.615606,4.4101814-3.6668049,5.7349573-6.1710725,1.3161684-2.4956601,1.9059141-5.2818893,1.7606295-8.2222714M210.4265302,75.4759803c3.6751511.8805757,7.1964102,2.6412055,10.5726456,5.1368655,3.3759745,2.4956601,6.3160955,5.7266113,8.8117552,9.692332,2.6412051,3.9657207,4.2565501,8.0769868,5.1368649,12.1879921.8803148,4.1112661.8803148,8.0769868,0,11.7521384-.7350302,3.6668049-2.1964832,7.0427798-4.2565501,10.1281857-2.0598061,3.0854058-4.846035,5.7266113-8.076725,7.7864177-3.5215199,2.205091-7.1966711,3.6665441-11.0171067,4.2562898-3.812089.5897458-7.4872401.4444612-11.1540446-.5897458-3.6751511-.8803149-7.0511257-2.6409446-10.4271002-5.1366047-3.3762354-2.4956601-6.1710717-5.5813267-8.6667315-9.4017629-2.6412051-4.1110053-4.4018347-8.2222714-5.1368649-12.1879921-.7350302-4.1112661-.7350302-7.9230947,0-11.7435309.7350302-3.820697,2.2050907-7.1966719,4.4018347-10.2820777,2.2050907-3.0856667,4.846035-5.7266113,8.076725-7.7778102,3.3762354-2.205091,6.906102-3.529867,10.718191-4.1112661,3.6751511-.7350303,7.4955868-.5897458,11.0171067.2905691" fill="#0a0a14"/>
  <path d="M281.7941051,39.792319c-.7352911.29083-1.7608904,1.0258603-3.0856663,1.9061751-1.3161684,1.034207-2.3503752,1.9145218-2.7862289,2.4956601-.7350302,1.034207-.8803148,2.4956601-.4444611,4.5554665.4444611,2.0598064,1.1794914,4.4018352,2.3503752,7.3419565l16.2992562,40.8205268-3.3762354,1.4700606-51.9829132-32.1537943,11.4532212,28.7778193c1.3247759,3.2306904,2.4956598,5.5810659,3.5212591,7.1964111,1.0342068,1.615606,2.2050907,2.4959209,3.3845821,2.9403821.8803148.2905691,2.3417677.4358537,4.4018347.1452846,2.0598061-.2991766,3.3759745-.4444612,4.1110048-.7350303l1.1794914,2.7862292-22.9145283,9.1025862-1.1708839-2.7862292c.7350302-.29083,1.7606295-1.0258603,3.23069-2.2053518,1.4700605-1.170884,2.3503752-1.9059143,2.6409443-2.4956601.5897457-1.0255994.8803148-2.4956601.5897457-4.1110053-.2991766-1.6153452-1.1794914-4.2565507-2.4956598-7.9317022l-10.8718222-27.4530433c-.4358536-1.1794915-1.1708839-2.3503755-2.0511986-3.3845825-.8803148-1.0255994-1.7606295-1.7606298-2.7948364-2.0511989-1.3164292-.4444612-2.7864897-.7350303-4.6924038-.7350303-1.9145216,0-3.23069.1452846-4.2648968.5897458l-1.1708839-2.7948367,16.0084263-6.316357,48.017193,29.9573108-10.5726456-26.5727284c-1.3247759-3.2306904-2.4959206-5.7263505-3.675412-7.1964111-1.1708839-1.615606-2.1964832-2.4959209-3.23069-2.7950975-.8803148-.1452846-2.3503752-.1452846-4.1110048,0s-3.2309508.4444612-4.1112656.7350303l-1.1708839-2.7862292,22.6153517-8.9573017,1.1711447,2.6409446Z" fill="#0a0a14"/>
  <path d="M387.6692365,82.5239769l-24.8207032,1.3250369v-2.9403821c.7350302-.1452846,1.615345-.2905691,2.9401209-.4444612,1.3247759-.2905691,2.2053515-.4358537,2.6412051-.7264228.8803148-.4444612,1.3247759-1.034207,1.7606295-1.7692373.2991766-.7264228.4444611-1.6153452.2991766-2.7862292l-2.0598061-20.8547246-28.0427857,2.4956601,1.9059141,20.8547246c.1452845,1.0255994.2905691,1.7606298.7350302,2.4956601.4444611.5897458,1.0255993,1.1794915,2.0598061,1.6153452.4358536.1455454,1.3164292.4444612,2.6412051.5897458,1.1708839.1452846,2.2050907.1452846,2.9315134.1452846l.2991766,2.9403821-24.2306967,3.9657207-.5897457-3.2306904c.7350302-.1538921,4.7007505-1.3247761,5.1452116-1.6153452,2.4956598-1.1794915,2.3417677-3.3848433,2.1964832-5.4360422l-3.8118282-43.1709023c-.1538921-.8803149-.2991766-1.7692373-.7350302-2.3503755-.4444611-.7350303-1.1794914-1.1794915-2.0598061-1.6153452-.7350302-.2991766-1.7606295-.5897458-2.7864897-.7350303-1.1794914-.1452846-2.0598061-.29083-2.7948364-.29083l-.2905691-2.9401213,24.9657269-2.7948367.2908299,2.9401213c-.7352911.1452846-1.7608904.2905691-2.7864897.5897458-1.1794914.2905691-1.9145216.5897458-2.5042673.8803149-.8803148.4361145-1.4614529,1.0258603-1.7606295,1.9061751-.2905691.8803149-.2905691,1.6153452-.2905691,2.6409446l1.615345,19.2393794,28.0427857-2.4956601-1.7606295-18.9402028c-.1452845-.8803149-.2908299-1.7608906-.7350302-2.3506363-.4361145-.7350303-1.1711447-1.1794915-2.0514595-1.6153452-.7350302-.2905691-1.7606295-.5897458-2.7948364-.7350303-1.1708839-.1452846-2.0511986-.2905691-2.7862289-.2905691l-.2905691-2.9401213,24.9571194-1.3247761.2991766,2.9401213c-.7350302.1452846-1.7606295.2905691-2.7948364.5897458-1.1708839.2905691-1.9059141.5811382-2.4956598.8803149-.8803148.4358537-1.4700605,1.0255994-1.7608904,1.9059143-.2905691.8805757-.2905691,1.615606-.2905691,2.6412055l3.812089,43.3247944c.1538921,1.0255994.2991766,1.7606298.7350302,2.4956601.4444611.5897458,1.0342068,1.170884,2.0598061,1.6153452.4358536.1452846,1.3161684.4358537,2.6409443.5897458,1.1794914.1452846,2.2050907.1452846,2.9401209.1452846l-.5894849,2.6409446Z" fill="#0a0a14"/>
  <path d="M419.0950392,83.1118968l-27.1624709-.5894849-.1538921-3.2309512c.7350302,0,1.9145216-.1452846,3.23069-.2905691,1.4700605-.1452846,2.4959206-.2905691,3.0856663-.5897458,1.3247759-.5811382,2.6409443-1.4700606,2.7948364-3.9657207l1.1708839-43.7606481c0-1.0258603-.1452845-1.7608906-.4444611-2.4959209-.2905691-.7350303-1.0255993-1.170884-2.1964832-1.7606298-.8805756-.2905691-1.9145216-.7350303-3.2309508-1.0255994-1.3247759-.2905691-2.3503752-.5897458-3.0854055-.5897458l.1452845-2.9315137,27.0171863.7264228-.1452845,2.9401213c-.8803148,0-1.9061749.1452846-3.0856663.2905691-1.1708839.1538921-2.3417677.2991766-3.23069.5897458-1.0255993.2991766-1.7606295.8803149-2.1964832,1.6153452-.4444611.7350303-.5897457,1.6153452-.5897457,2.4959209l-1.1708839,43.470079c0,1.9059143,1.3161684,4.2562898,2.9315134,4.700751.5897457.1452846,1.615345.4358537,2.9401209.7264228,1.3161684.2991766,2.4956598.4444612,3.3762354.4444612v3.2306904Z" fill="#0a0a14"/>
  <path d="M479.5949652,70.6299448c-.7352911,0-1.6156058-.1452846-2.7864897-.1452846-1.1794914,0-2.0598061,0-2.9401209.29083-.8803148.2989158-1.615345.7350303-2.0598061,1.4700606-.4358536.7350303-.8803148,1.6153452-1.0255993,2.6409446l-.8803148,4.4101819c-.7350302,3.3762358-1.0258601,5.5813267-1.3247759,6.7522107-.1455454,1.170884-.2908299,2.205091-.4361145,2.9401213-3.9657202.8803149-7.9314405,1.4614531-11.752137,1.6153452-3.8118282.1452846-7.4869793-.1538921-11.0084992-.8803149-3.8204357-.7350303-7.1964102-2.205091-10.4273611-4.2648973-3.23069-2.0511989-5.8716343-4.700751-7.9314405-7.7778102-2.0514595-3.0854058-3.5215199-6.7605574-4.4018347-10.8718235-.8803148-4.1110053-.7350302-8.3675559.1452845-13.0683069.8803148-4.5471198,2.4956598-8.5128405,4.7007505-12.0427075,2.196744-3.5215203,4.9915804-6.4616416,8.2222704-8.658125,3.2309508-2.205091,6.7522099-3.8204361,10.7179301-4.5557273,3.9659811-.7350303,7.9317013-.7350303,12.1882514,0,3.3759745.7352912,6.1708109,1.615606,8.3672941,2.9403821,2.3506361,1.3161686,4.2651577,2.6409446,5.8805027,4.2562898l2.1964832-2.4956601,3.3845821.7350303-3.3845821,20.4102634-3.3759745-.7350303c-.1452845-2.3503755-.4358536-4.7010119-.8803148-7.1966719-.4358536-2.4956601-1.1711447-4.5468589-2.2050907-6.6066653-1.0258601-2.0600672-2.3420285-3.6754124-4.1112656-5.1368655-1.7606295-1.4700606-3.9657202-2.3503755-6.7522099-2.9401213-2.9401209-.5897458-5.7263498-.5897458-8.2220095.1452846-2.4959206.7350303-4.9915804,2.0598064-7.1966711,4.1110053-2.2050907,1.9145218-3.9657202,4.5557273-5.5813261,7.7864177-1.615345,3.2306904-2.7862289,7.0513874-3.6665436,11.1623926-.7350302,3.6665441-1.0342068,7.3419565-.7350302,10.863216.2905691,3.5212595,1.0255993,6.6069262,2.1964832,9.4017629,1.1794914,2.7862292,2.9401209,5.1366047,5.290757,7.0427798,2.3503752,1.9145218,5.1366041,3.2306904,8.3675549,3.8204361,2.4956598.4444612,4.7007505.5897458,6.9058411.1452846,2.1964832-.4358537,3.6668045-.8803149,4.7010113-1.4700606.4358536-1.3161686.8803148-2.7862292,1.1708839-4.2565507.2905691-1.4700606.5897457-2.6409446.7350302-3.6665441l.5897457-3.2306904c.2905691-1.1794915.2905691-2.205091.1452845-3.2309512-.1452845-1.034207-.7350302-1.7692373-1.615345-2.3503755-.8803148-.5897458-2.0598061-1.1794915-3.5301274-1.6153452-1.4614529-.5897458-2.7862289-.8803149-3.5212591-1.1794915l.5897457-3.0767983,25.8460417,5.4271738-.5894849,3.0854058Z" fill="#0a0a14"/>
  <path d="M527.4666128,118.941886l-22.3164359-9.9829011,1.1708839-2.7948367c.5897457.1452846,1.6156058.4444612,2.7864897.8803149,1.1794914.4444612,2.0598061.5897458,2.6495518.5897458.8803148,0,1.615345-.2905691,2.3503752-.7350303.5811382-.4358537,1.1708839-1.170884,1.615345-2.205091l8.2222704-19.6752331-26.1452183-11.0085005-8.0683783,19.2307719c-.4444611.8803149-.5897457,1.7606298-.4444611,2.4956601,0,.7350303.4444611,1.615606,1.0255993,2.3506363.2991766.4444612,1.0255993,1.034207,2.0598061,1.6153452,1.0255993.5897458,1.9059141,1.1794915,2.4956598,1.4700606l-1.1794914,2.7948367-23.0512053-9.5470474,1.1708839-2.7948367c.5897457.1538921,1.615345.4444612,2.7948364.8803149,1.1711447.4444612,2.0514595.5897458,2.6412051.5897458.8803148,0,1.615345-.2905691,2.3503752-.7350303.5897457-.4358537,1.1708839-1.170884,1.615345-2.1964834l16.5898253-39.7949274c.2991766-.8889224.4444611-1.6153452.4444611-2.5042676,0-.8803149-.4444611-1.6153452-1.0255993-2.3420288-.5897457-.5897458-1.3247759-1.3247761-2.2053515-1.9145218-.8803148-.7350303-1.7606295-1.170884-2.3503752-1.6153452l1.1794914-2.7862292,23.0512053,9.5470474-1.1708839,2.7862292c-.7350302-.2905691-1.615345-.5897458-2.7948364-.7350303-1.1708839-.2905691-2.0511986-.2905691-2.6409443-.4358537-1.0255993,0-1.7606295.1452846-2.4956598.8803149-.7350302.7264228-1.0342068,1.3161686-1.4703213,2.1964834l-7.0511257,17.179573,25.9913262,10.8718235,7.0513865-16.7437194c.2905691-.8803149.4444611-1.6153452.4444611-2.4956601s-.4444611-1.6153452-1.0342068-2.3503755c-.5811382-.5811382-1.3161684-1.3161686-2.1964832-1.9059143-.8889223-.7350303-1.7692371-1.1794915-2.3506361-1.6153452l1.1711447-2.7950975,23.0598128,9.5470474-1.1794914,2.7948367c-.7350302-.2991766-1.615345-.5897458-2.7864897-.7350303-1.1794914-.2991766-2.0598061-.2991766-2.6495518-.4444612-1.0255993,0-1.7606295.1452846-2.4956598.8803149-.5811382.5897458-1.0255993,1.3250369-1.4700605,2.2053518l-16.5898253,39.9399511c-.4444611.8805757-.5897457,1.9147827-.5897457,2.649813,0,.7264228.2991766,1.6067377.8803148,2.4956601.2991766.4358537,1.0342068,1.0255994,1.9145216,1.7606298,1.0258601.7350303,1.7608904,1.3161686,2.3506361,1.6153452l-1.3247759,2.6409446Z" fill="#0a0a14"/>
  <path d="M581.6530517,133.1862936l-10.718191,14.0941672-41.4102676-27.4530433,1.6156058-2.6495521c.7350302.4444612,1.7606295.8803149,3.0854055,1.6153452,1.3161684.5897458,2.1964832,1.034207,2.6409443,1.034207,1.0255993.1452846,1.7606295,0,2.4956598-.2991766.7350302-.2905691,1.3247759-1.0255994,1.9061749-1.9059143l23.794843-35.9828379c.5811382-.7266836.8803148-1.6069985,1.0255993-2.3420288s-.1452845-1.6153452-.5897457-2.4956601c-.4358536-.7350303-1.1708839-1.6153452-2.0511986-2.5042676-.8889223-.8803149-1.615345-1.6153452-2.3506361-2.0511989l1.6156058-2.4959209,38.6151704,25.701021-7.9314405,12.0341-2.6412051-1.7606298c.7350302-2.0511989.8805756-4.700751.7350302-7.7778102-.2905691-3.0854058-1.0255993-5.1452122-2.3503752-6.316357-.7350302-.5897458-1.4700605-1.1794915-2.4956598-1.9145218-1.0255993-.7264228-2.0511986-1.4614531-3.3759745-2.341768l-7.9317013-5.1452122-13.2135899,19.8288643,5.5810652,3.6668049c1.7606295,1.1794915,3.23069,1.9145218,4.2565501,2.0598064,1.0255993.1452846,2.2050907.1452846,3.3759745-.2991766,1.0255993-.2905691,2.0598061-1.0255994,3.0854055-1.9059143,1.1708839-.8803149,2.0598061-1.7606298,2.7864897-2.78649l2.6495518,1.7608906-12.9232817,19.6752331-2.6409443-1.7608906c.5811382-1.1794915,1.1708839-2.4956601,1.615345-4.1110053.4358536-1.6153452.5811382-2.7948367.5811382-3.529867-.1452845-1.4614531-.5811382-2.4956601-1.3161684-3.3762358-.7350302-.8803149-1.9145216-1.9059143-3.3845821-2.9315137l-5.5727185-3.6751516-9.9912466,14.9828288c-1.0258601,1.4614531-1.6156058,2.7862292-2.0514595,3.8120895-.2991766,1.034207-.4444611,1.9145218,0,2.7948367.2905691.8803149,1.0255993,1.7606298,1.9061749,2.4956601,1.0255993.8803149,2.4956598,1.9059143,4.4101814,3.2306904.7264227.4361145,1.7606295,1.1711448,3.0767979,2.0514597,1.3247759.8803149,2.3503752,1.4700606,3.3762354,2.0598064l3.0854055,1.3161686c1.1794914.4444612,2.0598061.4444612,2.6495518.2991766,1.7606295-.4444612,4.1110048-1.3247761,6.7522099-2.9401213,2.6409443-1.4700606,4.5468584-2.6412055,5.5810652-3.5215203l2.6412051,1.7606298Z" fill="#0a0a14"/>
  <path d="M629.5239169,140.9674946c2.4956598-2.6409446,3.6751511-5.4357813,3.6751511-8.3675559,0-2.9401213-1.4700605-5.7263505-4.2648968-8.3675559l-5.1368649-4.9999277-17.7690558,18.6496337,3.9657202,3.8204361c2.7862289,2.6409446,6.0171797,3.9657207,9.6923308,3.9657207,3.5212591,0,6.8974945-1.6153452,9.8376154-4.700751M614.8402665,188.6938634l-11.7437903-11.1623926c1.3164292-6.4613808,2.3420285-12.3332766,2.9317742-17.1793122.5897457-4.8462964,1.3247759-10.1281857,1.9059141-15.7095124l-4.4018347-4.2648973-13.0683054,13.8033372c-.7350302.7350303-1.1794914,1.4700606-1.4700605,2.205091-.2905691.7352912-.1452845,1.615606.2905691,2.6412055.2991766.4444612.7350302,1.1794915,1.615345,2.205091.7350302,1.0255994,1.4700605,1.7606298,2.0598061,2.4956601l-2.0598061,2.205091-18.3504548-17.3245968,2.0514595-2.3506363c.5897457.4361145,1.3247759,1.0258603,2.3503752,1.7608906,1.0342068.7350303,1.7606295,1.3247761,2.3503752,1.4700606.8803148.2905691,1.615345.2905691,2.4956598.1452846.7350302-.2905691,1.4703213-.7350303,2.3506361-1.6153452l29.9570464-31.4273715c.7352911-.7350303,1.1794914-1.4700606,1.4703213-2.2053518.2905691-.7264228.2905691-1.6153452-.2908299-2.6409446-.2989158-.7350303-.8886615-1.4700606-1.4700605-2.3503755-.7350302-.8803149-1.3247759-1.7606298-1.7606295-2.1964834l2.0511986-2.2053518,20.1196919,19.0854873c1.9061749,1.7692373,3.3762354,3.5301279,4.7010113,5.4360422,1.3161684,1.9059143,2.1964832,3.9657207,2.6409443,6.0171804.4358536,2.0598064.4358536,4.1196128,0,6.0255271-.4444611,2.0511989-1.615345,3.9657207-3.3759745,5.8718958-1.615345,1.6153452-3.2309508,2.9401213-4.9915804,3.6751516-1.7692371.7350303-3.5298666,1.170884-5.4357807,1.170884-1.7606295,0-3.5215199-.2905691-5.4360415-.8803149-1.9059141-.5897458-3.8118282-1.3247761-5.8716343-2.3503755-.5897457,4.8460356-1.0258601,8.9573017-1.4700605,12.1879921-.4361145,3.2306904-.8805756,7.3419565-1.4703213,12.0427075-.2905691,2.0598064-.2905691,3.8204361-.1452845,4.991581.1452845,1.3247761.4444611,2.4956601.7350302,3.5212595.2908299.7350303.7352911,1.6153452,1.4703213,2.5042676.7350302.8803149,1.1708839,1.6153452,1.7606295,2.1964834l-2.4956598,2.205091Z" fill="#0a0a14"/>
  <path d="M669.0256621,239.6496184l-15.7095105,8.3675559-26.1452183-42.435872,2.5042673-1.6153452c.4358536.7350303,1.1708839,1.6153452,2.0511986,2.6409446.8803148,1.1794915,1.4700605,1.7608906,1.9059141,2.0598064.8803148.5897458,1.615345.7352912,2.3503752.7352912s1.6156058-.2991766,2.4959206-.8805757l36.7178639-22.6153544c.7350302-.4444612,1.4614529-1.034207,1.9059141-1.7606298.4358536-.5897458.5897457-1.4700606.4358536-2.6495521-.1452845-.8803149-.2905691-1.9059143-.7264227-3.0767983-.4444611-1.1794915-.8889223-2.2053518-1.1794914-2.9403821l2.4956598-1.6153452,24.376242,39.5043583-12.3332751,7.6325256-1.6156058-2.6412055c1.4700605-1.6153452,2.7950972-3.8204361,3.8206965-6.7605574,1.0255993-2.9317746,1.1708839-5.1368655.5897457-6.6069262-.2991766-.7350303-.8889223-1.7606298-1.4700605-2.7862292-.5897457-1.0255994-1.3247759-2.205091-2.060067-3.5215203l-4.9913195-8.076726-20.2649764,12.4785612,3.5212591,5.7266113c1.1794914,1.9059143,2.2053515,3.0854058,3.0856663,3.6751516.8803148.5811382,1.9145216,1.0255994,3.0854055,1.170884,1.0255993.1452846,2.2050907,0,3.6665436-.4444612,1.3247759-.2905691,2.6498127-.7264228,3.8206965-1.3161686l1.615345,2.6409446-19.9657998,12.3332766-1.615345-2.6409446c1.0255993-.8803149,2.1964832-1.7606298,3.23069-3.0854058,1.0255993-1.3161686,1.615345-2.205091,1.9059141-3.0854058.4358536-1.3164294.5897457-2.4959209.2905691-3.6668049-.2905691-1.1794915-.8803148-2.4956601-1.9059141-3.9657207l-3.5212591-5.7266113-15.2736569,9.3931553c-1.4700605.8889224-2.6409443,1.7692373-3.3759745,2.5042676-.7350302.7264228-1.1794914,1.6153452-1.1794914,2.4956601,0,.8805757.1452845,1.9061751.7350302,3.0770591.5897457,1.1794915,1.4700605,2.7948367,2.6409443,4.700751.4444611.7350303,1.1794914,1.7608906,1.9145216,3.0856667s1.4700605,2.3503755,2.196744,3.2306904c.5897457.8803149,1.4700605,1.6153452,2.2050907,2.4956601.8803148.8803149,1.615345,1.3247761,2.3503752,1.4700606,1.7606295.4358537,4.2562893.4358537,7.3419556.2905691,3.0854055-.2905691,5.2904961-.5811382,6.6066645-.8803149l1.4703213,3.0854058Z" fill="#0a0a14"/>
  <path d="M699.4185621,283.5547685c3.8206965-1.4700606,6.906102-3.2309512,9.6923308-5.4274346,2.6495518-2.205091,4.7010113-4.700751,6.3163563-7.4958486,1.4700605-2.6409446,2.3503752-5.5810659,2.4956598-8.658125.1452845-3.0854058-.2905691-6.3160962-1.4700605-9.5467866-.4358536-1.0258603-.8803148-2.3506363-1.4614529-3.6754124-.5897457-1.3161686-1.0342068-2.3503755-1.3247759-2.9315137l-43.0258735,16.5898273c-2.3503752.8803149-3.8204357,2.205091-4.1110048,3.9657207s0,4.1110053,1.0255993,6.9061028c1.3247759,3.3759749,2.9401209,6.0169196,5.1452116,8.076726,2.196744,2.0514597,4.5471192,3.3762358,7.3419556,4.1112661,2.7864897.7264228,5.8718951,1.0255994,9.1025851.5811382,2.9317742-.1452846,6.4616408-1.0255994,10.273469-2.4956601M703.0939741,293.1015551c-4.7010113,1.7608906-9.2478697,2.4959209-13.3591353,2.0600672-4.2648968-.4444612-7.9317013-1.615606-11.3076758-3.6754124-3.3845821-2.0598064-6.3160955-4.700751-8.8120161-7.7861568-2.4956598-3.2309512-4.4101814-6.7522107-6.0255264-10.5726469l-9.2478697-22.6070077,2.6409443-1.3247761c.2991766.7350303.8803148,1.6153452,1.615345,2.78649.7350302,1.1794915,1.1794914,1.7606298,1.615345,2.0598064.7350302.5897458,1.4703213.8803149,2.2053515.8803149.8803148,0,1.615345,0,2.4956598-.2905691l40.3846683-15.5728354c.8803148-.2905691,1.615345-.7350303,2.1964832-1.3161686.5897457-.5897458.8803148-1.3247761,1.0342068-2.4956601.1452845-1.034207,0-1.9145218-.1538921-2.9401213-.1452845-1.0255994-.4358536-1.9061751-.5811382-2.6412055l2.7862289-1.0255994,9.4017617,24.5215295c1.3161684,3.3759749,2.0511986,6.8972344,2.2050907,10.5726469.1452845,3.6665441-.1538921,7.042519-.8889223,10.1281857-1.0255993,4.2648973-3.0767979,7.9314414-6.1622034,11.3076772-3.0856663,3.3759749-6.906102,6.0255271-12.0427061,7.9314414" fill="#0a0a14"/>
  <path d="M741.714622,349.3425902c-.1455454-.7350303-.5897457-1.9059143-1.1711447-3.3759749-.5897457-1.4700606-1.3247759-2.6409446-2.0598061-3.3759749-.8803148-.8803149-2.2050907-1.1794915-4.2562893-1.1794915-2.0598061,0-4.5557267.2991766-7.4872401.8803149l-25.7007571,4.8460356c-3.2309508.5897458-6.1710717.4444612-8.9573006-.4358537-2.6412051-.8803149-4.9915804-2.3503755-6.906102-4.2648973-1.9059141-1.9059143-3.3759745-3.957374-4.5468584-6.3077495-1.1794914-2.3503755-1.9145216-4.5554665-2.3506361-6.7605574-.7350302-3.5215203-.7350302-6.7522107-.4444611-9.692332.4444611-2.9317746,1.1794914-5.5727192,2.4959206-7.6325256,1.1794914-2.205091,2.7948364-3.9657207,4.7007505-5.2821501,1.9059141-1.3247761,3.9657202-2.205091,6.1710717-2.6495521l34.9486268-6.6066653c1.0255993-.1452846,1.7606295-.4361145,2.3503752-.8805757.5811382-.4442004,1.0255993-1.170884,1.4700605-2.205091.2905691-.7350303.4358536-1.7606298.4358536-2.7862292v-2.7948367l2.9403817-.5811382,4.6921429,24.5212687-2.9315134.5897458c-.1452845-.7350303-.4444611-1.7606298-.8803148-2.7948367-.4444611-1.170884-.8803148-1.9059143-1.1794914-2.4956601-.4358536-.8805757-1.1708839-1.4703215-2.0514595-1.615606-.8803148-.1452846-1.7606295-.1452846-2.6409443,0l-32.6068591,6.1710725c-1.615345.2905691-3.23069.7350303-4.846035,1.4700606-1.615345.7264228-3.0770588,1.6153452-4.4018347,2.9315137-1.3247759,1.3247761-2.3503752,3.0856667-2.9401209,5.1454731-.5811382,2.0511989-.5811382,4.6921435,0,7.9230947.5897457,3.0854058,1.615345,5.5810659,2.9401209,7.3416956,1.3247759,1.7692373,2.9401209,3.2309512,4.7010113,4.1112661,1.7606295.8803149,3.3759745,1.3247761,5.1366041,1.4700606s3.3762354.1452846,5.1368649-.2905691l24.2306967-4.5557273c3.0854055-.5811382,5.5813261-1.3161686,7.3419556-2.0511989,1.9145216-.8803149,3.0854055-1.7606298,3.5298666-2.6495521.4358536-1.170884.7350302-2.4956601.8803148-4.2562898v-3.9659815l2.9315134-.5811382,4.5557267,24.0770683-3.23069.5894849Z" fill="#0a0a14"/>
  <path d="M683.5632454,380.7683967c-.1455454-3.5212595.5894849-7.0511265,1.9059141-10.2818169,1.3247759-3.3762358,3.3845821-6.3077495,5.8802418-8.8120171,2.6409443-2.4956601,5.7266106-4.6924043,9.5384388-6.162465,3.8206965-1.6153452,8.0769858-2.3503755,12.9230208-2.4956601,4.8462958-.1452846,9.1025851.5897458,13.0685662,1.9059143,3.9657202,1.3247761,7.3416948,3.3759749,10.2820765,5.8718958,2.7948364,2.4956601,5.1366041,5.4357813,6.6066645,8.9573017,1.615345,3.529867,2.4959206,7.1964111,2.4959206,11.1623926,0,2.9401213-.2908299,5.5810659-.8805756,8.076726-.7350302,2.3506363-1.615345,4.7010119-2.9315134,6.9061028l2.9315134,1.6153452v3.3759749l-21.4358603.8803149-.1452845-3.5212595c2.0514595-.4444612,4.2565501-1.1794915,6.7522099-2.205091,2.3503752-.8803149,4.4015739-2.0598064,6.1708109-3.2306904,1.9061749-1.3247761,3.3762354-3.0856667,4.4018347-4.8462964,1.0255993-1.9145218,1.615345-3.9657207,1.4700605-6.4613808,0-2.7950975-.7350302-5.2907576-2.0598061-7.6411331-1.3161684-2.341768-3.0854055-4.2565507-5.427434-6.0171804-2.3503752-1.6153452-5.2904961-2.7862292-8.8117552-3.6665441-3.5301274-.8889224-7.4958477-1.1794915-11.8976824-1.1794915-3.8204357.1452846-7.3416948.5897458-10.5726456,1.6153452-3.23069,1.0255994-6.0169189,2.4956601-8.3672941,4.4101819-2.3506361,1.9061751-4.2651577,3.957374-5.4360415,6.4530341-1.3247759,2.5042676-1.9059141,5.2904968-1.9059141,8.3761634,0,2.3503755.4358536,4.4015744,1.1708839,6.3160962.7350302,1.9061751,1.7606295,3.5215203,2.9401209,4.991581,1.3164292,1.3161686,2.6412051,2.6409446,4.2565501,3.6665441,1.615345,1.034207,3.3759745,1.9145218,5.2818886,2.4959209l-1.4614529,3.2306904c-6.0255264-2.3503755-10.2820765-5.4274346-12.9230208-9.3931553-2.6495518-3.9659815-3.8204357-8.8120171-3.8204357-14.3933438" fill="#0a0a14"/>
  <path d="M704.5655996,441.7122695l24.376242-5.4360422-21.5897523-12.4785612-2.7864897,17.9146033ZM675.6341525,460.6522114l4.7007505-23.4956692,2.9315134.4444612c-.1452845,2.1967443-.1452845,4.1112661,0,5.5727192.1538921,1.4700606.5897457,2.3503755,1.1794914,2.3503755h.8803148c.4361145,0,.7350302,0,1.0258601-.1452846l14.1025122-2.7862292,3.23069-20.8547246c-1.7692371-1.0255994-3.3845821-2.0514597-4.846035-2.6412055-1.3247759-.7350303-2.6495518-1.3247761-3.8206965-1.9145218-1.1794914-.5811382-2.0598061-.8803149-2.7948364-1.170884-.7264227-.2905691-1.3161684-.4444612-1.7606295-.4444612-1.1708839-.1452846-2.0511986.5897458-2.9315134,2.205091-.8805756,1.615606-1.6156058,3.5301279-2.060067,5.7266113l-2.9401209-.4358537,3.5298666-22.3247852,2.9317742.4444612v2.7862292c.1538921,1.1794915.2991766,2.0598064.5897457,2.7948367.5897457,1.170884,1.1794914,2.1967443,1.9145216,2.9317746.7264227.7350303,1.7606295,1.4700606,3.0767979,2.3503755,7.0513865,4.1110053,14.8378033,8.6667326,23.4959273,13.8033372,8.6664707,4.991581,16.4528874,9.5470474,23.3503819,13.5127681l-.5897457,3.3762358-54.1796572,11.7435309c-1.1794914.2991766-2.2050907.5897458-2.9401209,1.034207-.7350302.2905691-1.615345.8803149-2.4956598,1.6153452-.5897457.4358537-1.1794914,1.170884-1.7606295,2.1964834-.5897457.8805757-1.0342068,1.7692373-1.1794914,2.3506363l-2.6409443-1.0258603Z" fill="#0a0a14"/>
  <path d="M703.5342619,516.7469186l.8803148-2.7862292c1.0255993.1452846,2.3503752,0,3.8204357-.1538921,1.4700605-.1452846,3.0854055-.4358537,4.4015739-.8803149,1.4703213-.4358537,2.9403817-.8803149,4.1112656-1.6153452,1.1794914-.5811382,2.0598061-1.4614531,2.4956598-2.1964834.4444611-.7350303.7350302-1.7692373,1.3247759-3.0856667.4444611-1.1794915.8803148-2.3503755,1.1708839-3.529867l.7350302-2.341768-45.5212724-14.9828288c-.8803148-.29083-1.7606295-.4361145-2.6409443-.29083s-1.615345.5813991-2.3503752,1.4700606c-.2908299.4361145-.8805756,1.3164294-1.7608904,2.78649s-1.3247759,2.6409446-1.7606295,3.3759749l-2.7948364-.8803149,8.8120161-26.8716442,2.7948364.8803149c-.1538921.7350303-.4444611,1.9059143-.7350302,3.5212595-.2991766,1.6153452-.4444611,2.7948367-.4444611,3.3845825,0,1.0255994.2991766,1.7606298.8803148,2.4956601.5897457.7350303,1.3247759,1.1711448,2.4956598,1.4617139l45.9659944,15.1281133.7350302-2.3503755c.2905691-.8803149.5897457-1.9059143.8803148-3.0854058.2905691-1.1711448.7350302-2.4959209.8803148-3.6668049.1452845-.8803149,0-2.0598064-.7350302-3.2306904-.5897457-1.3247761-1.4700605-2.4956601-2.3503752-3.6751516-.8805756-1.1711448-2.0514595-2.3506363-3.0856663-3.3762358-1.0255993-1.0255994-2.1964832-1.9059143-2.9315134-2.3503755l.8803148-2.7862292,15.4186806,4.9913201-16.2989954,49.7778285-15.2733961-5.1368655Z" fill="#0a0a14"/>
  <path d="M649.4957159,526.8795385l11.7435295-24.3759841,2.6495518,1.3247761c-.2991766.7264228-.7350302,1.7606298-1.1794914,3.0770591-.5811382,1.3247761-.8803148,2.3503755-.8803148,2.9401213,0,1.0255994.1452845,1.7606298.4444611,2.4956601.2905691.7350303,1.0255993,1.1794915,2.0511986,1.7606298l39.2137845,18.7949182c2.0511986,1.034207,4.2562893.5897458,5.7263498-.7264228.7350302-.5897458,1.4614529-1.3247761,2.3503752-2.3503755.8803148-1.034207,1.4617138-1.9145218,1.9061749-2.4959209l2.6409443,1.3164294-12.6238442,24.2306996-2.6498127-1.3247761c.2991766-.7350303.7352911-1.7606298,1.0342068-2.9315137.2908299-1.1794915.581399-2.2053518.7266835-3.2309512.1538921-1.1794915,0-2.0598064-.581399-2.6409446-.5897457-.5897458-1.1794914-1.1794915-2.0598061-1.6153452l-39.2049161-18.8035257c-.8805756-.4358537-1.6156058-.5811382-2.4959206-.5811382s-1.615345.4358537-2.4956598,1.170884c-.4444611.4444612-1.1794914,1.1794915-1.9145216,2.3503755-.7264227,1.1711448-1.4614529,2.0598064-1.9059141,2.9403821l-2.4956598-1.3250369Z" fill="#0a0a14"/>
  <path d="M636.4232372,567.2660375c1.3247759,2.7862292,3.0854055,5.2818893,5.4357807,7.6322648,2.3503752,2.3506363,5.1368649,4.7010119,8.521447,6.8974953,3.3759745,2.205091,6.7519491,3.9659815,10.1281845,5.2907576,3.3759745,1.170884,6.46138,1.9059143,9.2478697,1.9059143,2.7948364,0,5.4357807-.5811382,7.9314405-1.7606298,2.4959206-1.1711448,4.4104422-3.0856667,6.1710717-5.5813267,1.9059141-2.7862292,2.7862289-5.7263505,2.7862289-8.5128405,0-2.7948367-.7350302-5.5810659-2.0511986-8.2222714-1.3247759-2.4956601-3.0854055-4.9999277-5.5813261-7.4955877-2.3503752-2.3420288-5.1366041-4.5471198-8.2220095-6.6069262-3.3762354-2.1964834-6.6069254-3.9657207-9.8376154-5.1366047-3.2309508-1.1794915-6.1710717-1.7608906-9.2564772-1.9061751-2.9315134-.1536312-5.5813261.4361145-8.0769858,1.615606-2.4956598,1.170884-4.5468584,3.0767983-6.3160955,5.7263505-1.6156058,2.4956601-2.4959206,5.1368655-2.7864897,7.9230947.1452845,2.9401213.5897457,5.5813267,1.9061749,8.2308789M668.5856351,596.043596c-3.8206965.7352912-7.6325247.5897458-11.7437903-.2905691-4.1196123-.8803149-8.076725-2.6495521-12.0427061-5.2904968-3.9657202-2.6409446-7.1964102-5.5813267-9.5470463-9.1025862-2.3503752-3.3759749-3.9657202-7.0513874-4.846035-10.7179314-.8803148-3.6751516-.8803148-7.3419565-.1452845-11.0171081.7350302-3.6665441,2.0511986-7.1966719,4.2562893-10.4273623,2.3503752-3.5212595,5.1368649-6.3160962,8.3675549-8.3675559,3.23069-2.0598064,6.7608174-3.3759749,10.4273611-3.9657207,3.6751511-.5897458,7.4872401-.4358537,11.5982449.4444612,4.1196123.8803149,7.9317013,2.6409446,11.752137,5.1366047,4.1112656,2.6412055,7.3419556,5.7266113,9.6923308,9.1025862,2.3503752,3.3762358,3.9659811,6.9061028,4.8462958,10.7179314.8803148,3.6754124.8803148,7.4958486.1452845,11.1623926-.7350302,3.6754124-2.0514595,7.1966719-4.2565501,10.4273623-2.2050907,3.3762358-4.846035,6.0171804-8.0769858,8.2222714-3.3759745,1.9059143-6.7519491,3.2306904-10.4271002,3.9657207" fill="#0a0a14"/>
  <path d="M619.3923416,656.2503518c.5894849-.5894849,1.1708839-1.6153452,2.0598061-3.0854058.8803148-1.4700606,1.3161684-2.6409446,1.4614529-3.3759749.1538921-1.170884-.2905691-2.6409446-1.4614529-4.2565507-1.1794914-1.6153452-2.9403817-3.529867-5.1454724-5.7263505l-31.7179368-30.5470566,2.4956598-2.6409446,60.6496447,7.7778102-22.3247826-21.4361237c-2.4956598-2.3503755-4.5468584-4.1110053-6.1624642-5.1366047-1.615345-1.034207-3.0854055-1.4700606-4.2562893-1.3247761-.8889223,0-2.2050907.5897458-3.9657202,1.7606298-1.7608904,1.1794915-2.9403817,1.9145218-3.3762354,2.3503755l-2.2050907-2.0511989,17.0342864-17.7693188,2.1964832,2.0514597c-.4358536.5897458-1.1708839,1.7606298-2.0511986,3.3759749s-1.3247759,2.7948367-1.3247759,3.3845825c-.1452845,1.3161686.2991766,2.6409446,1.1794914,3.957374.8803148,1.3247761,2.7862289,3.3845825,5.5810652,6.1708117l21.2905757,20.555548c.8803148.8803149,2.0514595,1.6153452,3.2309508,2.205091,1.1708839.5897458,2.3503752.8803149,3.3759745.7350303,1.3247759-.1452846,2.9401209-.5897458,4.5554659-1.3247761,1.6156058-.7350303,2.9317742-1.6153452,3.6668045-2.3503755l2.2050907,2.0598064-11.8974215,12.3332766-56.3847479-7.4869802,20.5555455,19.8205177c2.4959206,2.4956601,4.5557267,4.1110053,6.3163563,5.1452122,1.615345,1.0255994,3.0854055,1.3161686,4.1110048,1.170884.8805756-.1452846,2.2053515-.7350303,3.8206965-1.7606298,1.615345-.8803149,2.7862289-1.7606298,3.3759745-2.3503755l2.2050907,2.0598064-16.8887411,17.6154267-2.2050907-1.9061751Z" fill="#0a0a14"/>
  <path d="M384,7.5c50.8304443,0,100.1365662,9.9535561,146.5484619,29.5841103,44.8323975,18.9625549,85.0977783,46.1106682,119.6771851,80.6902199,34.5795898,34.5794449,61.7276611,74.84478,80.6902466,119.6772232,19.6305542,46.4118805,29.5841064,95.7180023,29.5841064,146.5484467s-9.9535522,100.1365662-29.5841064,146.5484619c-18.9625854,44.8323975-46.1106567,85.0977783-80.6902466,119.6771851-34.5794067,34.5795898-74.8447876,61.7276611-119.6771851,80.6902466-46.4118958,19.6305542-95.7180176,29.5841064-146.5484619,29.5841064s-100.1365662-9.9535522-146.5484467-29.5841064c-44.8324432-18.9625854-85.0977783-46.1106567-119.6772232-80.6902466-34.5795517-34.5794067-61.7276649-74.8447876-80.6902199-119.6771851-19.6305542-46.4118958-29.5841103-95.7180176-29.5841103-146.5484619s9.9535561-100.1365662,29.5841103-146.5484467c18.9625549-44.8324432,46.1106682-85.0977783,80.6902199-119.6772232,34.5794449-34.5795517,74.84478-61.7276649,119.6772232-80.6902199,46.4118805-19.6305542,95.7180023-29.5841103,146.5484467-29.5841103M384,0C171.9226685,0,0,171.9226685,0,384s171.9226685,384,384,384,384-171.9226685,384-384S596.0773315,0,384,0h0Z" fill="#0a0a14"/>
</svg>