<?xml version="1.0" encoding="UTF-8"?>
<svg id="Layer_1" xmlns="http://www.w3.org/2000/svg" width="100" height="100" version="1.1" viewBox="0 0 100 100">
  <!-- Generator: Adobe Illustrator 30.1.0, SVG Export Plug-In . SVG Version: 2.1.1 Build 136)  -->
  <g>
    <rect x="25.0465219" y="31.4115025" width="49.9534781" height="24.4108811" fill="#ce1126"/>
    <rect x="25.0465172" y="25" width="49.9534828" height="6.4115025" fill="#fff"/>
    <rect x="25.1363221" y="51.7773222" width="49.647762" height="23.2226778"/>
    <rect x="25.0582596" y="50.1463033" width="49.5697026" height="1.9375709" fill="#fff"/>
    <path d="M74.6861469,52.1417849H25v-2.0534047h49.6861469v2.0534047ZM25.116569,52.0259325h49.4530089v-1.8216999H25.116569v1.8216999Z"/>
    <path d="M53.6916163,50.1655398v.0878812l-9.8928255,7.6457572c-.0441937.0130619-.0520812.0159446-.0883281.0439406-.0327601.0253489-.0658726.0531528-.0883281.0878812-.0086267.0133471-.0370547.0293475-.0441625.0439406-.1226445.2507491.0194802.6840115.309153,1.0545868.2897228.3705752.6529967.5399213.9274529.4833528.0159621-.0032298.0290705.0050586.0441625,0,.0393158-.0132045.0555555-.0185669.0883281-.0439406.03625-.0280518.0646999-.0924253.0883281-.1318218l9.4953444-7.3381668h20.0948071v-1.933408l-20.9339319-.0000031Z" fill="#fff"/>
    <path d="M44.7095455,59.683301c-.286133,0-.6152808-.1924261-.8692775-.5177651-.3170717-.4054834-.4440202-.8542132-.3156745-1.1164681.0094812-.019441.02525-.0323355.0392223-.0438414.0352302-.0476106.073155-.0799461.1100819-.1087108.0394219-.0303517.054991-.0378901.0971076-.0507846l9.8610603-7.6211646v-.1180346h21.0528837v2.0515201h-20.1339047l-9.4697357,7.3183415-.0116769.0208296c-.0228547.0418576-.0487035.0892698-.0859297.1182329-.0405197.0311453-.0646719.0394771-.1046926.0529668-.0225553.0075383-.0413181.0051578-.0522964.0033724-.0380247.0077367-.0772469.0115059-.1171678.0115059ZM53.7510298,50.2245663v.057827l-.0229545.0176556-9.9016798,7.652409-.0106788.003174c-.0392223.0117043-.0400207.0119026-.0689633.0341209-.0265474.0206313-.0564881.0450317-.0746521.0732013-.0089822.013688-.0214575.0240037-.0325355.033129-.0041917.0035708-.008583.0067448-.0116769.0101172-.1037943.2136525.0207589.6219132.3061933.9869277.2619809.3354562.6035042.5159797.8683793.462021.0179644-.0041659.0328349-.001587.0417173-.0001984.0332341-.0107124.0420167-.013688.0665681-.0325339.0174654-.013688.0388231-.0527684.054492-.0813347.0066868-.0122994.0130741-.0240037.019162-.0341209l.0145711-.0164653,9.5113533-7.350677h20.0556597v-1.8152526h-20.8149552Z"/>
    <ellipse cx="46.27175" cy="56.0490545" rx=".9172356" ry="1.08735" fill="#ce1126"/>
    <path d="M46.27175,57.1569645c-.517275,0-.9381411-.4969354-.9381411-1.1079379s.4208661-1.1079379.9381411-1.1079379.9381411.4969354.9381411,1.1079379-.4208661,1.1079379-.9381411,1.1079379ZM46.27175,54.9823512c-.4943205,0-.8964237.4784863-.8964237,1.0666754s.4021032,1.0666754.8964237,1.0666754.8964237-.4784863.8964237-1.0666754-.4021032-1.0666754-.8964237-1.0666754Z"/>
    <rect x="47.9217306" y="50.1464304" width=".5361501" height="1.8990981" fill="#ce1126"/>
    <path d="M48.4579181,52.0664015h-.5361376c-.0114773,0-.0208587-.0093237-.0208587-.0208296v-1.8991662c0-.0114067.0093814-.0207304.0208587-.0207304h.5361376c.0114773,0,.0208587.0093237.0208587.0207304v1.8991662c0,.0115059-.0093814.0208296-.0208587.0208296ZM47.9426392,52.0247423h.4944203v-1.8576062h-.4944203v1.8576062Z"/>
  </g>
  <path d="M50.1875054,25.0000054h-25.1875v25.1874783c13.9106763,0,25.1875-11.2768237,25.1875-25.1874783Z"/>
  <path d="M75.0000161,50.1874837v-25.1874783h-25.1875c0,13.9106546,11.2768237,25.1874783,25.1875,25.1874783Z"/>
  <path d="M49.8125161,74.9999946h25.1875v-25.1875c-13.9106763,0-25.1875,11.2768454-25.1875,25.1875Z"/>
  <path d="M50.1875054,74.9999946c0-13.9106546-11.2768237-25.1875-25.1875-25.1875v25.1875h25.1875Z"/>
  <path d="M50.0000108,25.0000054h-25.0000054v24.9999839c13.8071259,0,25.0000054-11.1928795,25.0000054-24.9999839Z" fill="#fff"/>
  <path d="M75.0000161,49.9999892v-24.9999839h-25.0000054c0,13.8071043,11.1928795,24.9999839,25.0000054,24.9999839Z" fill="#fff"/>
  <path d="M50.0000108,74.9999946h25.0000054v-25.0000054c-13.8071259,0-25.0000054,11.192901-25.0000054,25.0000054Z" fill="#fff"/>
  <path d="M50.0000108,74.9999946c0-13.8071043-11.1928795-25.0000054-25.0000054-25.0000054v25.0000054h25.0000054Z" fill="#fff"/>
  <path d="M0,25.0000054c0,13.8071043,11.1928795,24.9999839,25.0000054,24.9999839v-24.9999839H0Z" fill="#00aeef"/>
  <path d="M75.0000161,0c-13.8071259,0-25.0000054,11.1928795-25.0000054,25.0000054h25.0000054V0Z" fill="#00aeef"/>
  <path d="M75.0000161,49.9999892v25.0000054h24.9999839c0-13.8071043-11.1928795-25.0000054-24.9999839-25.0000054Z" fill="#00aeef"/>
  <path d="M25.0000054,74.9999946v25.0000054c13.8071259,0,25.0000054-11.192858,25.0000054-24.9999839v-.0000215h-25.0000054Z" fill="#00aeef"/>
  <path d="M50.0000108,25.0000054C50.0000108,11.1928795,38.8071313,0,25.0000054,0S0,11.1928795,0,25.0000054h50.0000108Z"/>
  <path d="M75.0000161,49.9999892c13.8071043,0,24.9999839-11.1928795,24.9999839-24.9999839,0-13.8071259-11.1928795-25.0000054-24.9999839-25.0000054v49.9999892Z"/>
  <path d="M50.0000108,74.9999946v.0000215c0,13.8071259,11.1928795,24.9999839,25.0000054,24.9999839,13.8071043,0,24.9999839-11.1928795,24.9999839-25.0000054h-49.9999892Z"/>
  <path d="M25.0000054,74.9999946v-25.0000054c-13.8071259,0-25.0000054,11.192901-25.0000054,25.0000054,0,13.8071259,11.1928795,25.0000054,25.0000054,25.0000054v-25.0000054Z"/>
</svg>