<?xml version="1.0" encoding="UTF-8" standalone="no"?>
<!-- Created with Inkscape (http://www.inkscape.org/) -->

<svg
   xmlns:dc="http://purl.org/dc/elements/1.1/"
   xmlns:cc="http://creativecommons.org/ns#"
   xmlns:rdf="http://www.w3.org/1999/02/22-rdf-syntax-ns#"
   xmlns:svg="http://www.w3.org/2000/svg"
   xmlns="http://www.w3.org/2000/svg"
   xmlns:sodipodi="http://sodipodi.sourceforge.net/DTD/sodipodi-0.dtd"
   xmlns:inkscape="http://www.inkscape.org/namespaces/inkscape"
   width="490"
   height="489.99997"
   id="svg2"
   version="1.1"
   inkscape:version="0.48.5 r10040"
   sodipodi:docname="New document 1">
  <title
     id="title4167">Energy Regulatory Commission (ERC) Philippines</title>
  <defs
     id="defs4" />
  <sodipodi:namedview
     id="base"
     pagecolor="#ffffff"
     bordercolor="#666666"
     borderopacity="1.0"
     inkscape:pageopacity="0.0"
     inkscape:pageshadow="2"
     inkscape:zoom="0.98994949"
     inkscape:cx="229.10694"
     inkscape:cy="66.992607"
     inkscape:document-units="px"
     inkscape:current-layer="layer1"
     showgrid="false"
     inkscape:snap-object-midpoints="true"
     inkscape:snap-center="true"
     fit-margin-top="0"
     fit-margin-left="0"
     fit-margin-right="0"
     fit-margin-bottom="0"
     inkscape:window-width="1366"
     inkscape:window-height="705"
     inkscape:window-x="-8"
     inkscape:window-y="-8"
     inkscape:window-maximized="1" />
  <metadata
     id="metadata7">
    <rdf:RDF>
      <cc:Work
         rdf:about="">
        <dc:format>image/svg+xml</dc:format>
        <dc:type
           rdf:resource="http://purl.org/dc/dcmitype/StillImage" />
        <dc:title>Energy Regulatory Commission (ERC) Philippines</dc:title>
      </cc:Work>
    </rdf:RDF>
  </metadata>
  <g
     inkscape:label="Layer 1"
     inkscape:groupmode="layer"
     id="layer1"
     transform="translate(-212.70875,-46.428049)">
    <g
       id="g4116"
       transform="matrix(1.8529701,0,0,1.8367554,-181.43418,-448.85906)">
      <g
         id="text2985"
         style="font-size:100px;font-style:normal;font-weight:bold;line-height:125%;letter-spacing:0px;word-spacing:0px;fill:#0038a8;fill-opacity:1;stroke:none;font-family:Sans;-inkscape-font-specification:ErasEF Bold">
        <path
           id="path4057"
           style="font-variant:normal;font-stretch:normal;fill:#0038a8;font-family:ErasEF;-inkscape-font-specification:ErasEF Bold"
           d="m 305.58088,368.52019 c -7.09996,0.11673 -14.19986,0.1834 -21.29972,0.2 l -12.99983,0 c -3.35415,-0.002 -6.72077,-0.0229 -10.09987,-0.0625 -3.37914,-0.0395 -6.74576,-0.0854 -10.09987,-0.1375 -0.004,3.09585 -0.0459,6.17914 -0.125,9.24988 -0.0792,3.07085 -0.17084,6.15414 -0.275,9.24988 -0.0979,2.84584 -0.20209,5.67914 -0.3125,8.49989 -0.11042,2.82084 -0.23958,5.65413 -0.38749,8.49989 -0.25626,5.19996 -0.59375,10.39989 -1.01249,15.5998 -0.41875,5.19994 -0.88124,10.39987 -1.38748,15.5998 5.04576,-0.0917 10.07902,-0.13334 15.09981,-0.125 5.02074,0.008 10.054,0.0167 15.0998,0.025 4.05408,-0.008 8.12069,-0.0167 12.19984,-0.025 4.07907,-0.008 8.14568,0.0333 12.19985,0.125 0.0937,-2.4583 0.20618,-4.9416 0.33749,-7.44991 0.13119,-2.50829 0.31869,-4.99159 0.5625,-7.4499 -4.7,0.20835 -9.39993,0.39168 -14.09982,0.54999 -4.69998,0.15835 -9.39992,0.24168 -14.09982,0.25 -0.89585,-0.004 -1.77918,-0.0208 -2.64997,-0.05 -0.87085,-0.0291 -1.75417,-0.0458 -2.64996,-0.05 l 0.59999,-11.79985 c 2.64993,-0.10413 5.2999,-0.1958 7.9499,-0.27499 2.64992,-0.0791 5.29989,-0.12081 7.9499,-0.125 2.00409,0.004 4.02073,0.0209 6.04992,0.05 2.02908,0.0292 4.04572,0.0459 6.04992,0.05 0.17911,-2.50202 0.32077,-4.99782 0.42499,-7.48741 0.10411,-2.48951 0.29578,-4.96031 0.575,-7.4124 -2.89585,0.10421 -5.77915,0.19587 -8.64989,0.275 -2.87085,0.0792 -5.75414,0.12087 -8.64989,0.125 -1.79585,-0.004 -3.57916,-0.0208 -5.34993,-0.05 -1.77085,-0.0291 -3.55415,-0.0458 -5.34993,-0.05 L 271.78132,383.02 c 2.3041,-0.052 4.62074,-0.0979 6.94991,-0.1375 2.3291,-0.0395 4.64573,-0.0604 6.94991,-0.0625 3.19575,-0.002 6.37904,0.0271 9.54988,0.0875 3.17073,0.0605 6.35402,0.16464 9.54987,0.3125 -0.0376,-1.24993 -0.0126,-2.49992 0.075,-3.74995 0.0874,-1.24993 0.16244,-2.49991 0.225,-3.74995 0.0458,-1.19993 0.1041,-2.39991 0.175,-3.59996 0.0708,-1.19992 0.1791,-2.3999 0.32499,-3.59995 z"
           inkscape:connector-curvature="0" />
        <path
           id="path4059"
           style="font-variant:normal;font-stretch:normal;fill:#0038a8;font-family:ErasEF;-inkscape-font-specification:ErasEF Bold"
           d="m 376.00114,386.41996 c -0.14019,-6.01592 -1.87103,-10.30598 -5.19253,-12.87021 -3.32162,-2.5641 -7.39317,-4.10605 -12.21466,-4.62587 -4.82159,-0.51967 -9.55238,-0.72091 -14.19241,-0.60369 -2.89999,0.0167 -5.79995,0.0834 -8.69988,0.2 -2.89999,0.11673 -5.79995,0.1834 -8.69989,0.2 -1.74583,-0.002 -3.47914,-0.0229 -5.19993,-0.0625 -1.72083,-0.0395 -3.45414,-0.0854 -5.19994,-0.1375 -0.17917,7.29996 -0.34583,14.59986 -0.49999,21.89972 -0.15417,7.29994 -0.42084,14.59984 -0.79999,21.89971 -0.20417,3.84789 -0.47083,7.677 -0.79999,11.48736 -0.32917,3.81037 -0.69583,7.61448 -1.09999,11.41235 3.34162,-0.15 6.80824,-0.225 10.39987,-0.225 3.5916,0 7.05822,0.075 10.39987,0.225 0.0125,-5.85408 0.11247,-11.72067 0.29999,-17.59977 0.18747,-5.87907 0.38747,-11.74566 0.59999,-17.59978 0.1,-2.90409 0.22497,-5.82072 0.375,-8.74989 0.14997,-2.92908 0.32497,-5.8457 0.52499,-8.74988 1.25412,0.0355 2.52077,0.0146 3.79995,-0.0625 1.27912,-0.077 2.54577,-0.12286 3.79995,-0.1375 2.69993,-0.12494 5.37489,0.20005 8.0249,0.97499 2.64992,0.77504 4.0749,2.75001 4.27495,5.92492 -0.1688,3.39792 -1.55628,5.77705 -4.16245,7.13741 -2.60626,1.36043 -5.41872,2.01459 -8.43739,1.96247 -0.84586,-0.002 -1.67918,-0.0479 -2.49997,-0.13749 -0.82085,-0.0895 -1.65418,-0.21038 -2.49997,-0.3625 1.7062,4.39998 3.36868,8.82492 4.98744,13.27483 1.61869,4.44996 3.15617,8.9249 4.61244,13.42483 0.58953,1.75207 1.13536,3.52288 1.63748,5.31243 0.50203,1.78956 1.02286,3.58537 1.56248,5.38743 1.90409,-0.0479 3.82073,-0.0771 5.74992,-0.0875 1.9291,-0.0104 3.84574,-0.0146 5.74993,-0.0125 3.5999,-0.0167 7.19985,0.0167 10.79986,0.1 -1.0563,-2.4458 -2.14378,-4.8791 -3.26246,-7.29991 -1.11879,-2.42079 -2.23128,-4.85409 -3.33745,-7.2999 -2.20003,-4.88325 -4.3,-9.81652 -6.29992,-14.79981 2.40616,-0.89579 4.61863,-1.92911 6.63741,-3.09996 2.01866,-1.17079 3.80614,-2.8041 5.36243,-4.89994 1.19576,-1.66244 2.07908,-3.46241 2.64997,-5.39993 0.57075,-1.93743 0.85408,-3.9374 0.84999,-5.99992 z"
           inkscape:connector-curvature="0" />
        <path
           id="path4061"
           style="font-variant:normal;font-stretch:normal;fill:#0038a8;font-family:ErasEF;-inkscape-font-specification:ErasEF Bold"
           d="m 442.41837,384.71998 c -0.10423,-2.59991 -0.22089,-5.19988 -0.34999,-7.7999 -0.12923,-2.59991 -0.2459,-5.19987 -0.35,-7.7999 -3.00419,-0.51243 -6.02081,-0.93742 -9.04988,-1.27498 -3.02918,-0.33743 -6.04581,-0.51243 -9.04989,-0.525 -11.65196,0.0126 -21.37266,3.08753 -29.16212,9.22489 -7.78949,6.13747 -11.83527,15.26234 -12.13734,27.37464 0.28332,11.24571 4.0166,19.50393 11.19985,24.77468 7.18322,5.27077 16.11643,7.87907 26.79966,7.8249 3.09783,-0.0104 6.17695,-0.16458 9.23738,-0.46249 3.06032,-0.29792 6.11445,-0.67708 9.16238,-1.13749 0.38952,-2.65412 0.78535,-5.32075 1.18749,-7.99989 0.40201,-2.67913 0.87284,-5.34576 1.41248,-7.9999 -2.95003,0.77292 -5.92499,1.42708 -8.92489,1.96247 -3.00001,0.53543 -6.02497,0.81459 -9.07488,0.83749 -5.68122,-0.008 -10.36866,-1.51663 -14.06232,-4.52494 -3.69373,-3.00827 -5.6062,-7.46654 -5.73743,-13.37483 0.16456,-6.79779 2.43536,-12.05188 6.81242,-15.7623 4.37699,-3.71031 9.87274,-5.58945 16.48728,-5.63742 2.64992,0.0209 5.27488,0.25422 7.8749,0.69999 2.59991,0.44588 5.17488,0.97921 7.7249,1.59998 z"
           inkscape:connector-curvature="0" />
      </g>
      <path
         sodipodi:open="true"
         sodipodi:end="10.078929"
         sodipodi:start="5.9063655"
         transform="matrix(-0.77934271,0,0,-1.0597605,604.40054,852.4195)"
         d="m 469.51048,385.28545 c 29.86894,55.50624 -7.1046,118.30947 -82.5827,140.27495 -75.47811,21.96547 -160.87876,-5.22469 -190.7477,-60.73092 -19.00863,-35.32423 -11.40434,-75.39379 20.02927,-105.541"
         sodipodi:ry="108.08632"
         sodipodi:rx="146.97719"
         sodipodi:cy="425.05746"
         sodipodi:cx="332.84528"
         id="path3211"
         style="color:#000000;fill:none;stroke:none;stroke-width:1;marker:none;visibility:visible;display:inline;overflow:visible;enable-background:accumulate"
         sodipodi:type="arc" />
      <g
         id="text3981"
         style="font-size:20px;font-style:normal;font-weight:normal;line-height:125%;letter-spacing:5px;word-spacing:0px;fill:#000000;fill-opacity:1;stroke:none;font-family:Sans"
         transform="translate(-7.6522213e-7,4.9206094e-6)">
        <path
           id="path4064"
           style="font-size:28px;font-variant:normal;font-weight:bold;font-stretch:normal;letter-spacing:2px;word-spacing:8px;font-family:Eras-Medium;-inkscape-font-specification:Eras-Medium Bold"
           d="m 221.61053,449.60513 -3.61585,-10.71198 2.21429,-0.74744 2.73095,8.09045 4.7338,-1.5979 -2.46722,-7.30918 2.1819,-0.7365 2.46723,7.30918 5.31105,-1.79276 -2.73094,-8.09045 2.1819,-0.73651 3.61585,10.71198 z"
           inkscape:connector-curvature="0" />
        <path
           id="path4066"
           style="font-size:28px;font-variant:normal;font-weight:bold;font-stretch:normal;letter-spacing:2px;word-spacing:8px;font-family:Eras-Medium;-inkscape-font-specification:Eras-Medium Bold"
           d="m 216.50714,433.8773 -0.62272,-3.34164 12.46887,-11.93522 -14.19988,2.64615 -0.50813,-2.72674 17.24751,-3.21408 0.62475,3.35257 -12.05679,11.87494 13.79079,-2.56992 0.50312,2.69986 z"
           inkscape:connector-curvature="0" />
        <path
           id="path4068"
           style="font-size:28px;font-variant:normal;font-weight:bold;font-stretch:normal;letter-spacing:2px;word-spacing:8px;font-family:Eras-Medium;-inkscape-font-specification:Eras-Medium Bold"
           d="m 213.17984,413.22544 -0.4711,-11.29597 2.33501,-0.0974 0.35581,8.53153 4.99187,-0.20819 -0.32145,-7.70765 2.30086,-0.096 0.32145,7.70765 5.6006,-0.23357 -0.35581,-8.53152 2.30086,-0.096 0.4711,11.29597 z"
           inkscape:connector-curvature="0" />
        <path
           id="path4070"
           style="font-size:28px;font-variant:normal;font-weight:bold;font-stretch:normal;letter-spacing:2px;word-spacing:8px;font-family:Eras-Medium;-inkscape-font-specification:Eras-Medium Bold"
           d="m 212.76782,397.06901 0.59423,-6.96187 c 0.17479,-1.06965 0.51769,-1.94715 1.0287,-2.6325 0.51104,-0.68533 1.11728,-1.17673 1.81873,-1.4742 0.70148,-0.29744 1.4237,-0.41447 2.16667,-0.35106 0.77989,0.0666 1.52986,0.34285 2.24992,0.82881 0.72008,0.48598 1.28448,1.1462 1.69322,1.98065 0.40875,0.83446 0.56906,1.76792 0.48093,2.80037 -0.006,0.0664 -0.0205,0.12118 -0.0445,0.16429 -0.024,0.0431 -0.0263,-0.0485 -0.007,-0.27502 l 8.54579,-4.84068 -0.27906,3.26936 -10.29192,5.00209 c 0.30158,-1.1686 0.46387,-1.88771 0.48688,-2.15733 0.0671,-0.78555 -0.0224,-1.45439 -0.26826,-2.00652 -0.24587,-0.55212 -0.59124,-0.97695 -1.03611,-1.2745 -0.44484,-0.29753 -0.9295,-0.46868 -1.45397,-0.51345 -0.44101,-0.0376 -0.87277,0.0256 -1.29529,0.1896 -0.42249,0.16405 -0.76902,0.41262 -1.0396,0.7457 -0.27054,0.33311 -0.42578,0.73351 -0.46572,1.2012 l -0.31983,3.74699 15.15231,1.29333 -0.23531,2.75683 z"
           inkscape:connector-curvature="0" />
        <path
           id="path4072"
           style="font-size:28px;font-variant:normal;font-weight:bold;font-stretch:normal;letter-spacing:2px;word-spacing:8px;font-family:Eras-Medium;-inkscape-font-specification:Eras-Medium Bold"
           d="m 218.47948,364.78466 2.66422,0.19096 c -1.10362,1.95678 -1.83779,3.7019 -2.20252,5.23536 -0.20916,0.87954 -0.30666,1.72955 -0.29248,2.55005 0.0142,0.82052 0.17146,1.60391 0.47177,2.35018 0.30033,0.74628 0.77948,1.42573 1.43743,2.03835 0.65798,0.61264 1.51007,1.12242 2.55627,1.52933 0.0754,0.0179 0.18304,0.0497 0.32297,0.0953 0.13995,0.0456 0.24087,0.0749 0.30278,0.0878 1.60109,0.3808 2.97022,0.38158 4.10737,0.002 1.13716,-0.37921 2.03448,-1.00504 2.69197,-1.87748 0.65749,-0.87244 1.12536,-1.89362 1.4036,-3.06355 0.33005,-1.38771 0.39663,-2.75465 0.19975,-4.10083 l -5.14328,-1.22324 -0.87606,3.68351 -2.05166,-0.48795 1.51783,-6.38192 9.12523,2.17027 c 0.0294,2.58226 -0.19128,4.8629 -0.66196,6.84195 -0.41809,1.75794 -1.06818,3.26337 -1.95025,4.51628 -0.88207,1.25293 -2.06352,2.13909 -3.54436,2.65849 -1.48084,0.5194 -3.25872,0.53236 -5.33366,0.0389 -0.15185,-0.0361 -0.39958,-0.11348 -0.7432,-0.23209 -0.34361,-0.11861 -0.61018,-0.20046 -0.79973,-0.24554 -0.97578,-0.41008 -1.84366,-0.93532 -2.60365,-1.57573 -0.75996,-0.6404 -1.38162,-1.42972 -1.86495,-2.36796 -0.48331,-0.93823 -0.77317,-2.03934 -0.86957,-3.30335 -0.0964,-1.26399 0.04,-2.67187 0.40902,-4.22365 0.37013,-1.55619 0.94583,-3.19143 1.72712,-4.90575 z"
           inkscape:connector-curvature="0" />
        <path
           id="path4074"
           style="font-size:28px;font-variant:normal;font-weight:bold;font-stretch:normal;letter-spacing:2px;word-spacing:8px;font-family:Eras-Medium;-inkscape-font-specification:Eras-Medium Bold"
           d="m 219.93994,358.59672 1.23389,-2.98871 8.83442,-0.67267 -5.6545,-7.02974 1.169,-2.83153 7.01392,9.30582 6.9418,2.86592 -1.15302,2.79283 -6.9339,-2.86265 z"
           inkscape:connector-curvature="0" />
        <path
           id="path4076"
           style="font-size:28px;font-variant:normal;font-weight:bold;font-stretch:normal;letter-spacing:2px;word-spacing:8px;font-family:Eras-Medium;-inkscape-font-specification:Eras-Medium Bold"
           d="m 234.18262,329.68688 4.08618,-5.6678 c 0.69945,-0.82793 1.44442,-1.40465 2.23491,-1.73015 0.79052,-0.32547 1.56309,-0.43564 2.31772,-0.33052 0.75464,0.10515 1.4344,0.37576 2.03928,0.81183 0.63491,0.45775 1.13645,1.08005 1.50459,1.86688 0.36815,0.78687 0.51324,1.64325 0.43526,2.56914 -0.078,0.92593 -0.41996,1.80915 -1.02595,2.64969 -0.039,0.0541 -0.0798,0.0935 -0.12255,0.11811 -0.0427,0.0247 0.002,-0.0552 0.13531,-0.23954 l 9.81868,0.23687 -1.91891,2.66165 -11.39972,-0.99538 c 0.85906,-0.8477 1.36771,-1.3813 1.52595,-1.60081 0.46107,-0.63952 0.72794,-1.2593 0.80061,-1.85933 0.0727,-0.60001 -0.005,-1.14192 -0.23423,-1.62573 -0.22882,-0.48379 -0.55672,-0.8796 -0.9837,-1.18744 -0.35904,-0.25884 -0.76195,-0.42641 -1.20872,-0.50273 -0.44676,-0.0763 -0.87176,-0.041 -1.27501,0.10575 -0.40324,0.14681 -0.74212,0.41059 -1.01663,0.79134 l -2.19925,3.05051 12.33578,8.89344 -1.61808,2.24438 z"
           inkscape:connector-curvature="0" />
        <path
           id="path4078"
           style="font-size:28px;font-variant:normal;font-weight:bold;font-stretch:normal;letter-spacing:2px;word-spacing:8px;font-family:Eras-Medium;-inkscape-font-specification:Eras-Medium Bold"
           d="m 244.49514,315.9357 7.71434,-8.26497 1.70846,1.59464 -5.82642,6.2423 3.65243,3.40909 5.26378,-5.63949 1.68348,1.57132 -5.26378,5.63949 4.09782,3.82481 5.82642,-6.2423 1.68348,1.57132 -7.71434,8.26498 z"
           inkscape:connector-curvature="0" />
        <path
           id="path4080"
           style="font-size:28px;font-variant:normal;font-weight:bold;font-stretch:normal;letter-spacing:2px;word-spacing:8px;font-family:Eras-Medium;-inkscape-font-specification:Eras-Medium Bold"
           d="m 268.10647,294.80122 1.98378,1.78862 c -2.07346,0.86472 -3.72541,1.78965 -4.95586,2.77481 -0.70572,0.56506 -1.30521,1.17549 -1.79849,1.83131 -0.49328,0.65585 -0.8509,1.37037 -1.07287,2.14356 -0.22197,0.77322 -0.26183,1.60367 -0.11957,2.49135 0.14226,0.8877 0.50085,1.81362 1.07578,2.77778 0.0484,0.0605 0.11381,0.15171 0.19615,0.27369 0.0823,0.12199 0.14394,0.20713 0.1848,0.25541 1.02861,1.28471 2.1079,2.1271 3.23789,2.52716 1.12999,0.40008 2.22245,0.4582 3.27738,0.17437 1.05494,-0.28382 2.05177,-0.80154 2.99051,-1.55315 1.11349,-0.89153 2.00643,-1.92865 2.67881,-3.11138 l -3.30426,-4.12692 -2.95562,2.36644 -1.31807,-1.64623 5.1208,-4.10002 5.86244,7.322 c -1.56446,2.0546 -3.14067,3.71761 -4.72864,4.98904 -1.41056,1.12937 -2.84882,1.91697 -4.3148,2.36278 -1.46598,0.44583 -2.94259,0.41833 -4.42981,-0.0825 -1.48723,-0.50081 -2.89735,-1.58367 -4.23038,-3.24859 -0.0976,-0.12183 -0.24537,-0.33516 -0.44345,-0.63997 -0.19806,-0.3048 -0.35798,-0.53325 -0.47976,-0.68534 -0.51743,-0.92334 -0.87897,-1.87117 -1.08461,-2.8435 -0.20563,-0.97231 -0.21062,-1.97702 -0.015,-3.01415 0.19567,-1.03709 0.64406,-2.08372 1.34517,-3.13987 0.70112,-1.05611 1.67424,-2.08264 2.91936,-3.07958 1.24869,-0.99975 2.70811,-1.93546 4.37828,-2.80713 z"
           inkscape:connector-curvature="0" />
        <path
           id="path4082"
           style="font-size:28px;font-variant:normal;font-weight:bold;font-stretch:normal;letter-spacing:2px;word-spacing:8px;font-family:Eras-Medium;-inkscape-font-specification:Eras-Medium Bold"
           d="m 275.81794,289.24898 5.71067,10.13392 0.0193,0.14214 c 0.35518,0.63029 0.87806,1.08678 1.56865,1.36948 0.69059,0.28271 1.44751,0.3765 2.27077,0.28136 0.82325,-0.0951 1.59294,-0.34447 2.30909,-0.74803 0.71117,-0.40076 1.29758,-0.91299 1.75922,-1.5367 0.46163,-0.62369 0.72872,-1.31791 0.80128,-2.08265 0.0725,-0.76473 -0.11841,-1.55032 -0.57287,-2.3568 l -5.5672,-9.87933 2.3926,-1.34827 5.99803,10.64385 c 0.44858,0.79606 0.67145,1.61451 0.66862,2.45536 -0.003,0.84087 -0.19391,1.64361 -0.57318,2.40823 -0.37929,0.76464 -0.89115,1.46863 -1.53558,2.11197 -0.64445,0.64335 -1.3781,1.19687 -2.20093,1.66055 -1.15288,0.64967 -2.36821,1.0568 -3.646,1.22139 -1.2778,0.16459 -2.48003,0.0125 -3.60671,-0.4564 -1.12668,-0.46884 -2.02213,-1.29261 -2.68634,-2.47129 l -5.68886,-10.09521 z"
           inkscape:connector-curvature="0" />
        <path
           id="path4084"
           style="font-size:28px;font-variant:normal;font-weight:bold;font-stretch:normal;letter-spacing:2px;word-spacing:8px;font-family:Eras-Medium;-inkscape-font-specification:Eras-Medium Bold"
           d="m 291.11488,281.16813 2.75971,-1.09132 5.6049,14.17359 7.34862,-2.90598 0.84685,2.14149 -10.10833,3.99731 z"
           inkscape:connector-curvature="0" />
        <path
           id="path4086"
           style="font-size:28px;font-variant:normal;font-weight:bold;font-stretch:normal;letter-spacing:2px;word-spacing:8px;font-family:Eras-Medium;-inkscape-font-specification:Eras-Medium Bold"
           d="m 313.91171,273.50341 3.0773,-0.71406 10.82033,15.49978 -2.79262,0.64801 -4.51903,-6.25141 -5.78585,1.34257 -1.46826,7.64072 -2.97574,0.69051 z m 1.87505,1.96404 -1.07684,6.39024 4.8128,-1.11678 z"
           inkscape:connector-curvature="0" />
        <path
           id="path4088"
           style="font-size:28px;font-variant:normal;font-weight:bold;font-stretch:normal;letter-spacing:2px;word-spacing:8px;font-family:Eras-Medium;-inkscape-font-specification:Eras-Medium Bold"
           d="m 329.37371,270.53486 13.19984,-0.88159 0.15574,2.33185 -5.09595,0.34034 1.01341,15.1736 -2.82038,0.18836 -1.0134,-15.17359 -5.28352,0.35287 z"
           inkscape:connector-curvature="0" />
        <path
           id="path4090"
           style="font-size:28px;font-variant:normal;font-weight:bold;font-stretch:normal;letter-spacing:2px;word-spacing:8px;font-family:Eras-Medium;-inkscape-font-specification:Eras-Medium Bold"
           d="m 357.0688,270.34044 c 1.58772,0.15852 3.06329,0.49433 4.42671,1.00741 1.36339,0.51311 2.52758,1.45759 3.49258,2.83343 0.96496,1.37587 1.42742,3.2938 1.38738,5.7538 l -0.0435,0.43619 c -0.18212,1.82411 -0.71902,3.34844 -1.61068,4.573 -0.8917,1.22457 -2.07807,2.09798 -3.55914,2.62022 -1.48109,0.52225 -3.16826,0.68887 -5.0615,0.49986 l -0.92679,-0.0925 c -1.41259,-0.14102 -2.70898,-0.57129 -3.88918,-1.2908 -1.18022,-0.71951 -2.11118,-1.74804 -2.79287,-3.0856 -0.6817,-1.33756 -0.98303,-2.92983 -0.90398,-4.77682 0.16297,-1.6325 0.55662,-3.00511 1.18095,-4.11784 0.62432,-1.1127 1.39362,-1.98595 2.30791,-2.61975 0.91428,-0.63378 1.87714,-1.07895 2.88859,-1.33551 1.01144,-0.25653 2.04596,-0.39155 3.10356,-0.40507 z m 0.57973,2.18412 c -1.41269,-0.0941 -2.63887,0.13717 -3.67854,0.69374 -1.03969,0.55659 -1.84642,1.32878 -2.42019,2.31657 -0.57379,0.98782 -0.91976,2.0735 -1.03792,3.25706 -0.005,0.0471 -0.004,0.12613 0.002,0.23722 0.006,0.11111 0.004,0.22768 -0.007,0.34971 -0.0558,1.0066 0.10754,2.00946 0.49012,3.00858 0.38258,0.99912 0.97287,1.82434 1.77089,2.47563 0.79801,0.65131 1.75706,1.03287 2.87715,1.14468 0.0861,0.009 0.25331,0.007 0.50148,-0.004 0.24814,-0.0113 0.42919,-0.0112 0.54314,1.2e-4 0.0521,0.005 0.12968,0.0227 0.23263,0.0524 0.10294,0.0297 0.17042,0.0448 0.20246,0.0451 1.1059,0.1104 2.12232,-0.11287 3.04927,-0.66983 0.92692,-0.55696 1.6781,-1.34185 2.25354,-2.35468 0.5754,-1.01283 0.92132,-2.10224 1.03774,-3.26824 0.11367,-1.13879 -0.0159,-2.22986 -0.38856,-3.27324 -0.37274,-1.04335 -1.01477,-1.92525 -1.92609,-2.6457 -0.91135,-0.72042 -2.07889,-1.17547 -3.50263,-1.36513 z"
           inkscape:connector-curvature="0" />
        <path
           id="path4092"
           style="font-size:28px;font-variant:normal;font-weight:bold;font-stretch:normal;letter-spacing:2px;word-spacing:8px;font-family:Eras-Medium;-inkscape-font-specification:Eras-Medium Bold"
           d="m 372.77344,272.6034 6.75288,1.79423 c 1.02304,0.3579 1.82766,0.84798 2.41385,1.47024 0.58617,0.62229 0.96482,1.30466 1.13595,2.04711 0.17111,0.74248 0.16093,1.47405 -0.0305,2.19472 -0.20101,0.75648 -0.60333,1.44708 -1.20695,2.0718 -0.60365,0.62473 -1.35185,1.06591 -2.2446,1.32352 -0.89278,0.25762 -1.83989,0.25339 -2.84135,-0.0127 -0.0644,-0.0171 -0.11578,-0.0412 -0.15407,-0.0723 -0.0383,-0.0311 0.0524,-0.0175 0.27206,0.0409 l 3.28302,9.2566 -3.17122,-0.84259 -3.13874,-11.00422 c 1.09847,0.49994 1.77847,0.78465 2.03999,0.85412 0.76197,0.20247 1.43617,0.23056 2.02262,0.0843 0.58643,-0.14626 1.06479,-0.4126 1.43507,-0.79903 0.37026,-0.38641 0.62298,-0.83398 0.75816,-1.34271 0.11365,-0.42777 0.12639,-0.86395 0.0382,-1.30854 -0.0882,-0.44456 -0.2728,-0.82899 -0.55383,-1.1533 -0.28106,-0.32428 -0.64841,-0.5467 -1.10206,-0.66725 l -3.63452,-0.96569 -3.9051,14.69746 -2.67407,-0.7105 z"
           inkscape:connector-curvature="0" />
        <path
           id="path4094"
           style="font-size:28px;font-variant:normal;font-weight:bold;font-stretch:normal;letter-spacing:2px;word-spacing:8px;font-family:Eras-Medium;-inkscape-font-specification:Eras-Medium Bold"
           d="m 389.43706,277.27815 2.97804,1.2594 0.5971,8.83985 7.07783,-5.59416 2.82144,1.19317 -9.36547,6.93407 -2.92518,6.91704 -2.78287,-1.17686 2.92185,-6.90917 z"
           inkscape:connector-curvature="0" />
        <path
           id="path4096"
           style="font-size:28px;font-variant:normal;font-weight:bold;font-stretch:normal;letter-spacing:2px;word-spacing:8px;font-family:Eras-Medium;-inkscape-font-specification:Eras-Medium Bold"
           d="m 429.35541,300.32665 -1.25562,2.39363 c -0.5621,-0.73196 -1.10377,-1.38689 -1.625,-1.96479 -0.52126,-0.57789 -1.08989,-1.09751 -1.70589,-1.55885 -1.39847,-1.0473 -2.89626,-1.54857 -4.49338,-1.50382 -1.59714,0.0448 -3.18339,0.93694 -4.75875,2.67653 -0.67784,0.90511 -1.16014,1.80594 -1.4469,2.7025 -0.28677,0.89656 -0.38417,1.76004 -0.29221,2.59042 0.0919,0.83039 0.36765,1.61832 0.8271,2.3638 0.45944,0.74548 1.10021,1.42606 1.92233,2.04174 0.98306,0.73622 2.46019,1.46561 4.4314,2.18815 l -1.62226,1.81267 c -0.4525,-0.0876 -1.00004,-0.29949 -1.64261,-0.63553 -0.6426,-0.33606 -1.31795,-0.76924 -2.02606,-1.29954 -0.90875,-0.68057 -1.73799,-1.45781 -2.4877,-2.3317 -0.74972,-0.87391 -1.33238,-1.85614 -1.74797,-2.94669 -0.41559,-1.09055 -0.54132,-2.26382 -0.37716,-3.51982 0.16414,-1.25598 0.71607,-2.53418 1.65579,-3.83458 0.0451,-0.0602 0.12599,-0.1832 0.24275,-0.36906 0.11676,-0.18584 0.20844,-0.32322 0.27503,-0.41214 1.10297,-1.47277 2.38487,-2.49858 3.84571,-3.07742 1.46082,-0.57883 2.98976,-0.70525 4.58682,-0.37929 1.59703,0.32599 3.14357,1.04917 4.63962,2.16955 0.9908,0.74203 2.00912,1.70678 3.05496,2.89424 z"
           inkscape:connector-curvature="0" />
        <path
           id="path4098"
           style="font-size:28px;font-variant:normal;font-weight:bold;font-stretch:normal;letter-spacing:2px;word-spacing:8px;font-family:Eras-Medium;-inkscape-font-specification:Eras-Medium Bold"
           d="m 440.37008,310.44265 c 1.09649,1.15917 1.99216,2.37894 2.687,3.65932 0.6948,1.28038 0.95664,2.75646 0.78551,4.42825 -0.17117,1.67179 -1.07705,3.42442 -2.71765,5.2579 l -0.31845,0.30124 c -1.33175,1.25975 -2.73546,2.06065 -4.21114,2.4027 -1.47571,0.34202 -2.94431,0.22568 -4.40582,-0.34903 -1.46152,-0.57473 -2.84604,-1.5532 -4.15356,-2.93541 l -0.64005,-0.67663 c -0.97556,-1.03129 -1.67394,-2.20518 -2.09515,-3.52168 -0.42121,-1.31651 -0.4517,-2.70346 -0.0915,-4.16086 0.36023,-1.4574 1.17474,-2.85836 2.44355,-4.20288 1.19185,-1.12744 2.38796,-1.90741 3.58833,-2.33991 1.20035,-0.43248 2.35355,-0.58905 3.45962,-0.46968 1.10603,0.11937 2.12534,0.41313 3.05791,0.88128 0.93255,0.46816 1.803,1.04329 2.61137,1.72539 z m -0.99148,2.03062 c -1.00637,-0.99587 -2.0847,-1.62372 -3.23499,-1.88355 -1.15032,-0.25981 -2.26567,-0.20415 -3.34604,0.16699 -1.0804,0.37116 -2.05264,0.96543 -2.91672,1.78282 -0.0344,0.0325 -0.0856,0.0927 -0.15372,0.1807 -0.0681,0.088 -0.1461,0.17466 -0.23389,0.26006 -0.70114,0.72441 -1.23411,1.58949 -1.59891,2.59523 -0.36482,1.00575 -0.45876,2.016 -0.28183,3.03075 0.17693,1.01474 0.65217,1.93099 1.42573,2.74874 0.0595,0.0629 0.18674,0.1713 0.38174,0.32521 0.19498,0.15391 0.33182,0.27245 0.41052,0.35564 0.036,0.0381 0.0832,0.10204 0.14155,0.19191 0.0583,0.0899 0.0995,0.14541 0.12352,0.16664 0.76375,0.80739 1.6783,1.30396 2.74363,1.4897 1.06531,0.18573 2.14697,0.0841 3.24499,-0.30489 1.098,-0.389 2.07263,-0.98613 2.92392,-1.79139 0.83138,-0.78647 1.44769,-1.69608 1.84893,-2.72882 0.40121,-1.03274 0.49315,-2.11971 0.27583,-3.2609 -0.21736,-1.14119 -0.80211,-2.24947 -1.75426,-3.32484 z"
           inkscape:connector-curvature="0" />
        <path
           id="path4100"
           style="font-size:28px;font-variant:normal;font-weight:bold;font-stretch:normal;letter-spacing:2px;word-spacing:8px;font-family:Eras-Medium;-inkscape-font-specification:Eras-Medium Bold"
           d="m 451.14155,322.66141 2.19673,3.41706 -9.47706,11.96912 14.82286,-3.6536 2.10847,3.27977 -14.75791,9.48743 -1.51424,-2.35543 11.98631,-7.70565 -14.60491,3.63234 -1.40473,-2.18507 9.69362,-11.97832 -12.3076,7.9122 -1.49945,-2.33243 z"
           inkscape:connector-curvature="0" />
        <path
           id="path4102"
           style="font-size:28px;font-variant:normal;font-weight:bold;font-stretch:normal;letter-spacing:2px;word-spacing:8px;font-family:Eras-Medium;-inkscape-font-specification:Eras-Medium Bold"
           d="m 463.60898,342.97497 1.55087,3.75456 -11.46303,10.08332 15.23713,-0.94649 1.48856,3.60371 -16.21552,6.69806 -1.06904,-2.58808 13.17018,-5.44012 -15.0189,0.96451 -0.99172,-2.4009 11.67775,-10.05367 -13.52321,5.58595 -1.0586,-2.5628 z"
           inkscape:connector-curvature="0" />
        <path
           id="path4104"
           style="font-size:28px;font-variant:normal;font-weight:bold;font-stretch:normal;letter-spacing:2px;word-spacing:8px;font-family:Eras-Medium;-inkscape-font-specification:Eras-Medium Bold"
           d="m 471.62679,364.13883 0.81545,2.85342 -16.8691,4.82086 -0.81545,-2.85342 z"
           inkscape:connector-curvature="0" />
        <path
           id="path4106"
           style="font-size:28px;font-variant:normal;font-weight:bold;font-stretch:normal;letter-spacing:2px;word-spacing:8px;font-family:Eras-Medium;-inkscape-font-specification:Eras-Medium Bold"
           d="m 475.06261,379.7927 -2.47715,1.16034 c 0.0889,-0.77735 0.16069,-1.52472 0.21536,-2.24211 0.0546,-0.7174 0.0237,-1.36943 -0.0928,-1.95611 -0.12312,-0.61964 -0.34481,-1.11864 -0.66505,-1.497 -0.32028,-0.37836 -0.73875,-0.58155 -1.2554,-0.60958 -0.36075,-0.006 -0.61459,0.005 -0.76153,0.0346 -0.52355,0.10401 -0.93501,0.35999 -1.23437,0.76795 -0.29938,0.40795 -0.73346,1.20784 -1.30223,2.39967 -0.56879,1.19182 -1.13172,2.23917 -1.68878,3.14206 -0.42869,0.79489 -0.94358,1.43282 -1.54468,1.91379 -0.60112,0.48096 -1.22742,0.78616 -1.87891,0.9156 -0.76548,0.15207 -1.52368,0.0557 -2.27461,-0.28905 -0.75093,-0.34478 -1.40503,-0.90816 -1.96229,-1.69012 -0.55727,-0.78197 -0.94346,-1.71438 -1.15859,-2.79721 -0.28251,-1.422 -0.26388,-2.97846 0.0559,-4.66938 l 2.54059,-0.71818 c -0.21865,0.96632 -0.36305,1.86271 -0.4332,2.68919 -0.0702,0.82646 -0.0349,1.59394 0.1059,2.30243 0.15896,0.80011 0.44639,1.42979 0.8623,1.88905 0.4159,0.45925 0.91381,0.65305 1.49373,0.5814 l 0.22461,-0.0446 c 0.65708,-0.13055 1.21012,-0.5465 1.65913,-1.24786 0.449,-0.70136 1.04878,-1.82631 1.79935,-3.37485 0.75055,-1.54854 1.39122,-2.58462 1.92201,-3.10824 0.91249,-0.94678 1.82748,-1.5113 2.74494,-1.69357 0.60455,-0.12011 1.18118,-0.0702 1.7299,0.14985 0.5487,0.22 1.04141,0.56817 1.47815,1.04448 0.4367,0.47632 0.80435,1.0362 1.10296,1.67964 0.29856,0.64344 0.51912,1.32387 0.66167,2.0413 0.20656,1.03981 0.25094,2.11534 0.13313,3.22658 z"
           inkscape:connector-curvature="0" />
        <path
           id="path4108"
           style="font-size:28px;font-variant:normal;font-weight:bold;font-stretch:normal;letter-spacing:2px;word-spacing:8px;font-family:Eras-Medium;-inkscape-font-specification:Eras-Medium Bold"
           d="m 476.75884,395.0983 -2.59557,0.86348 c 0.17896,-0.76167 0.33743,-1.49557 0.47541,-2.20168 0.13794,-0.70613 0.18326,-1.35733 0.13594,-1.95359 -0.05,-0.62978 -0.21197,-1.15123 -0.4859,-1.56436 -0.27396,-0.41313 -0.66587,-0.66375 -1.17572,-0.75185 -0.35757,-0.0482 -0.61103,-0.0664 -0.76036,-0.0545 -0.53212,0.0422 -0.97062,0.24847 -1.31552,0.61872 -0.34493,0.37025 -0.86934,1.11405 -1.57325,2.2314 -0.70392,1.11734 -1.38517,2.09188 -2.04374,2.92363 -0.51848,0.73946 -1.10427,1.31298 -1.75737,1.72056 -0.65312,0.40756 -1.31074,0.63762 -1.97288,0.69019 -0.77799,0.0617 -1.51978,-0.12239 -2.22537,-0.55239 -0.70559,-0.43003 -1.28951,-1.06585 -1.75176,-1.90747 -0.46225,-0.84164 -0.73705,-1.81273 -0.82441,-2.91326 -0.11471,-1.44525 0.0853,-2.98891 0.60017,-4.63098 l 2.60702,-0.41695 c -0.32986,0.93423 -0.57783,1.80766 -0.74391,2.62031 -0.16608,0.81264 -0.22054,1.57899 -0.16338,2.29906 0.0645,0.81319 0.27657,1.47211 0.63607,1.97675 0.35949,0.50462 0.8314,0.75517 1.41572,0.75166 l 0.22829,-0.0181 c 0.66781,-0.053 1.2656,-0.40162 1.79335,-1.04582 0.52774,-0.6442 1.25464,-1.69152 2.18071,-3.14193 0.92605,-1.45043 1.6832,-2.40471 2.27144,-2.86284 1.01671,-0.83388 1.99129,-1.28783 2.92375,-1.36184 0.61443,-0.0488 1.1813,0.0681 1.70062,0.35061 0.51928,0.2825 0.96802,0.68576 1.34622,1.20977 0.37816,0.524 0.678,1.12294 0.89951,1.79682 0.22148,0.67388 0.36117,1.37539 0.41906,2.10454 0.0839,1.05682 0.002,2.13018 -0.24414,3.22009 z"
           inkscape:connector-curvature="0" />
        <path
           id="path4110"
           style="font-size:28px;font-variant:normal;font-weight:bold;font-stretch:normal;letter-spacing:2px;word-spacing:8px;font-family:Eras-Medium;-inkscape-font-specification:Eras-Medium Bold"
           d="m 477.14906,400.75125 -0.009,2.96764 -17.54435,-0.0521 0.009,-2.96764 z"
           inkscape:connector-curvature="0" />
        <path
           id="path4112"
           style="font-size:28px;font-variant:normal;font-weight:bold;font-stretch:normal;letter-spacing:2px;word-spacing:8px;font-family:Eras-Medium;-inkscape-font-specification:Eras-Medium Bold"
           d="m 476.28771,417.01045 c -0.19349,1.58384 -0.56174,3.05164 -1.10475,4.40342 -0.54304,1.35175 -1.51295,2.49484 -2.90974,3.42927 -1.3968,0.9344 -3.32446,1.35447 -5.78299,1.26021 l -0.43512,-0.0531 c -1.81965,-0.22229 -3.33177,-0.79266 -4.53638,-1.7111 -1.20462,-0.91848 -2.05166,-2.12382 -2.54113,-3.61604 -0.48946,-1.49224 -0.61885,-3.18267 -0.38815,-5.07129 l 0.11293,-0.92453 c 0.17212,-1.40913 0.63086,-2.69572 1.37622,-3.85978 0.74535,-1.16406 1.79416,-2.07212 3.14642,-2.72417 1.35226,-0.65204 2.95079,-0.9182 4.79559,-0.79845 1.62851,0.19892 2.99211,0.62274 4.0908,1.27144 1.09867,0.6487 1.95475,1.43707 2.56824,2.3651 0.61347,0.92803 1.0373,1.90047 1.2715,2.91733 0.23418,1.01685 0.34636,2.05409 0.33656,3.11174 z m -2.19637,0.53144 c 0.12519,-1.41028 -0.079,-2.64125 -0.61248,-3.69294 -0.53353,-1.05171 -1.28775,-1.87526 -2.26265,-2.47068 -0.97493,-0.59542 -2.05273,-0.96524 -3.23339,-1.10946 -0.0469,-0.006 -0.12601,-0.007 -0.23721,-0.003 -0.11122,0.004 -0.22771,-10e-4 -0.34948,-0.0143 -1.00513,-0.078 -2.01134,0.0632 -3.01865,0.42368 -1.00732,0.36046 -1.84534,0.93242 -2.51407,1.71589 -0.66874,0.78345 -1.07135,1.73385 -1.20783,2.85121 -0.0105,0.0859 -0.0128,0.25309 -0.007,0.50144 0.006,0.24834 0.002,0.42934 -0.0121,0.54301 -0.006,0.052 -0.0255,0.12915 -0.0575,0.23142 -0.032,0.10226 -0.0485,0.16939 -0.0496,0.20141 -0.13476,1.1032 0.0661,2.1243 0.60244,3.0633 0.53639,0.93898 1.30453,1.70727 2.30443,2.3049 0.9999,0.59759 2.08142,0.96744 3.24457,1.10953 1.136,0.13875 2.22967,0.0333 3.28101,-0.3163 1.05132,-0.34965 1.94716,-0.97209 2.68752,-1.8673 0.74034,-0.89525 1.22101,-2.05247 1.44201,-3.47168 z"
           inkscape:connector-curvature="0" />
        <path
           id="path4114"
           style="font-size:28px;font-variant:normal;font-weight:bold;font-stretch:normal;letter-spacing:2px;word-spacing:8px;font-family:Eras-Medium;-inkscape-font-specification:Eras-Medium Bold"
           d="m 473.67981,433.05657 -0.99529,3.25019 -16.57796,4.80554 13.81129,4.22932 -0.81214,2.65212 -16.77551,-5.13703 0.99853,-3.26082 16.18481,-4.94291 -13.41339,-4.10747 0.80414,-2.62598 z"
           inkscape:connector-curvature="0" />
      </g>
      <path
         sodipodi:end="2.3403739"
         sodipodi:start="0.92661181"
         transform="matrix(-0.91488057,0,0,1.2440667,649.51368,-126.83945)"
         d="m 421.11192,511.48218 c -57.80995,31.93029 -138.61221,28.19988 -190.53806,-8.79662 l 102.27142,-77.6281 z"
         sodipodi:ry="108.08632"
         sodipodi:rx="146.97719"
         sodipodi:cy="425.05746"
         sodipodi:cx="332.84528"
         id="path3211-4"
         style="color:#000000;fill:none;stroke:none;stroke-width:1;marker:none;visibility:visible;display:inline;overflow:visible;enable-background:accumulate"
         sodipodi:type="arc" />
      <g
         id="text4006"
         style="font-size:20px;font-style:normal;font-weight:bold;line-height:125%;letter-spacing:5px;word-spacing:0px;fill:#000000;fill-opacity:1;stroke:none;font-family:Sans;-inkscape-font-specification:Eras-Medium Bold">
        <path
           id="path4034"
           style="font-size:28px;font-variant:normal;font-stretch:normal;letter-spacing:6px;font-family:Eras-Medium;-inkscape-font-specification:Eras-Medium Bold"
           d="m 274.16827,495.11581 6.62418,4.51704 c 0.5603,0.61515 0.93635,1.27527 1.12815,1.98039 0.19176,0.70514 0.22452,1.40129 0.0983,2.08847 -0.12627,0.68718 -0.38004,1.31034 -0.76129,1.86947 -0.49138,0.72057 -1.16364,1.28606 -2.0168,1.69646 -0.85319,0.41041 -1.80513,0.56524 -2.85582,0.46449 -1.05071,-0.10075 -2.09095,-0.50223 -3.12073,-1.20445 -0.47537,-0.32414 -1.1016,-0.89114 -1.87871,-1.701 l 0.92101,-2.10445 c 0.77725,0.88649 1.36614,1.4663 1.76668,1.73941 0.6076,0.41433 1.21562,0.64606 1.82406,0.69516 0.60843,0.0491 1.16828,-0.0492 1.67956,-0.2949 0.51125,-0.24571 0.90794,-0.57541 1.19006,-0.98912 0.319,-0.46782 0.45201,-0.98974 0.39904,-1.56575 -0.053,-0.576 -0.3467,-1.09449 -0.88113,-1.55546 l -3.16419,-2.15767 -8.5676,12.56428 -2.26901,-1.54724 z"
           inkscape:connector-curvature="0" />
        <path
           id="path4036"
           style="font-size:28px;font-variant:normal;font-stretch:normal;letter-spacing:6px;font-family:Eras-Medium;-inkscape-font-specification:Eras-Medium Bold"
           d="m 287.33777,503.91728 2.67295,1.2893 -3.10131,6.42954 8.21125,3.96073 3.10131,-6.42955 2.66679,1.28634 -7.62223,15.80217 -2.66679,-1.28633 3.60174,-7.46701 -8.21126,-3.96073 -3.60173,7.46702 -2.67295,-1.28931 z"
           inkscape:connector-curvature="0" />
        <path
           id="path4038"
           style="font-size:28px;font-variant:normal;font-stretch:normal;letter-spacing:6px;font-family:Eras-Medium;-inkscape-font-specification:Eras-Medium Bold"
           d="m 305.27774,511.90325 2.80455,0.97028 -5.73617,16.58021 -2.80455,-0.97027 z"
           inkscape:connector-curvature="0" />
        <path
           id="path4040"
           style="font-size:28px;font-variant:normal;font-stretch:normal;letter-spacing:6px;font-family:Eras-Medium;-inkscape-font-specification:Eras-Medium Bold"
           d="m 312.53714,514.39314 2.88818,0.68217 -3.50355,14.83343 7.69073,1.8165 -0.52935,2.24119 -10.57892,-2.49866 z"
           inkscape:connector-curvature="0" />
        <path
           id="path4042"
           style="font-size:28px;font-variant:normal;font-stretch:normal;letter-spacing:6px;font-family:Eras-Medium;-inkscape-font-specification:Eras-Medium Bold"
           d="m 328.07384,517.61726 2.94218,0.38792 -2.29332,17.3939 -2.94219,-0.38792 z"
           inkscape:connector-curvature="0" />
        <path
           id="path4044"
           style="font-size:28px;font-variant:normal;font-stretch:normal;letter-spacing:6px;font-family:Eras-Medium;-inkscape-font-specification:Eras-Medium Bold"
           d="m 335.61875,518.6157 8.01462,0.2222 c 0.80383,0.21492 1.47692,0.56725 2.01927,1.05698 0.54233,0.48976 0.94601,1.05787 1.21104,1.70432 0.26502,0.64648 0.38815,1.30797 0.36941,1.98445 -0.0242,0.87183 -0.28438,1.71089 -0.78058,2.51718 -0.49622,0.80631 -1.21361,1.4509 -2.15219,1.93377 -0.9386,0.48289 -2.03086,0.70706 -3.2768,0.67251 -0.57514,-0.0159 -1.40844,-0.15473 -2.49991,-0.41637 l -0.36196,-2.26847 c 1.133,0.32605 1.9418,0.49579 2.4264,0.50921 0.73514,0.0204 1.37198,-0.11311 1.91051,-0.40051 0.53852,-0.28738 0.95652,-0.67257 1.25401,-1.15557 0.29746,-0.48298 0.45314,-0.97474 0.46702,-1.4753 0.0157,-0.56601 -0.15436,-1.07706 -0.51013,-1.53316 -0.35579,-0.45606 -0.88307,-0.73368 -1.58184,-0.83285 l -3.82836,-0.10614 -0.42145,15.20156 -2.74529,-0.0761 z"
           inkscape:connector-curvature="0" />
        <path
           id="path4046"
           style="font-size:28px;font-variant:normal;font-stretch:normal;letter-spacing:6px;font-family:Eras-Medium;-inkscape-font-specification:Eras-Medium Bold"
           d="m 351.64017,518.79856 7.97038,-0.86986 c 0.82559,0.1036 1.54034,0.36111 2.14426,0.77253 0.6039,0.41146 1.08109,0.91939 1.43158,1.52379 0.35047,0.60443 0.56242,1.24302 0.63585,1.91577 0.0946,0.86702 -0.0491,1.73367 -0.43098,2.59995 -0.38195,0.8663 -1.00502,1.60247 -1.8692,2.2085 -0.86421,0.60606 -1.91583,0.97669 -3.15489,1.11191 -0.57197,0.0624 -1.4164,0.0383 -2.53332,-0.0725 l -0.6671,-2.19817 c 1.16681,0.16894 1.99118,0.2271 2.4731,0.17449 0.73109,-0.0798 1.34385,-0.29865 1.8383,-0.65662 0.49443,-0.35795 0.85616,-0.79641 1.08519,-1.31538 0.22902,-0.51895 0.31637,-1.02731 0.26205,-1.5251 -0.0614,-0.56289 -0.29941,-1.04607 -0.71391,-1.44954 -0.41451,-0.40344 -0.97464,-0.60677 -1.6804,-0.60999 l -3.80723,0.41551 1.64988,15.11763 -2.73013,0.29796 z"
           inkscape:connector-curvature="0" />
        <path
           id="path4048"
           style="font-size:28px;font-variant:normal;font-stretch:normal;letter-spacing:6px;font-family:Eras-Medium;-inkscape-font-specification:Eras-Medium Bold"
           d="m 368.10221,516.5383 2.90122,-0.62438 3.6913,17.15172 -2.90123,0.62438 z"
           inkscape:connector-curvature="0" />
        <path
           id="path4050"
           style="font-size:28px;font-variant:normal;font-stretch:normal;letter-spacing:6px;font-family:Eras-Medium;-inkscape-font-specification:Eras-Medium Bold"
           d="m 375.50339,515.06796 3.21485,-1.10413 13.62846,10.59184 -4.69186,-13.66109 2.62328,-0.90095 5.69885,16.59308 -3.22536,1.10773 -13.50864,-10.19298 4.55669,13.26751 -2.59742,0.89207 z"
           inkscape:connector-curvature="0" />
        <path
           id="path4052"
           style="font-size:28px;font-variant:normal;font-stretch:normal;letter-spacing:6px;font-family:Eras-Medium;-inkscape-font-specification:Eras-Medium Bold"
           d="m 394.03582,508.2224 10.01906,-5.23825 1.08281,2.07105 -7.56711,3.95631 2.31487,4.42759 6.83637,-3.57426 1.06697,2.04077 -6.83637,3.57425 2.59715,4.9675 7.56711,-3.9563 1.06697,2.04077 -10.01906,5.23825 z"
           inkscape:connector-curvature="0" />
        <path
           id="path4054"
           style="font-size:28px;font-variant:normal;font-stretch:normal;letter-spacing:6px;font-family:Eras-Medium;-inkscape-font-specification:Eras-Medium Bold"
           d="m 415.31067,495.71466 2.065,1.79398 c -0.74664,0.2339 -1.45893,0.47128 -2.13688,0.71216 -0.67794,0.24091 -1.26144,0.53355 -1.75049,0.87794 -0.51651,0.36377 -0.88279,0.76873 -1.09881,1.21487 -0.21602,0.44618 -0.23211,0.91109 -0.0483,1.39474 0.14063,0.33227 0.25408,0.55964 0.34034,0.68212 0.30734,0.43643 0.70816,0.70877 1.20245,0.81702 0.4943,0.10828 1.40148,0.18078 2.72156,0.21751 1.32008,0.0367 2.50572,0.1267 3.55692,0.26987 0.90044,0.0696 1.69234,0.28165 2.37572,0.63613 0.68336,0.3545 1.21628,0.80328 1.59873,1.34634 0.44936,0.6381 0.66868,1.37025 0.65797,2.19647 -0.0107,0.82624 -0.26053,1.65257 -0.74941,2.47901 -0.4889,0.82645 -1.18466,1.55751 -2.08728,2.19317 -1.18535,0.83478 -2.61571,1.44877 -4.29107,1.842 l -1.68654,-2.03125 c 0.97199,-0.1919 1.84995,-0.42333 2.63389,-0.69428 0.78394,-0.27094 1.4712,-0.61436 2.06178,-1.03028 0.66695,-0.46969 1.12603,-0.98774 1.37723,-1.55413 0.25119,-0.56637 0.22648,-1.1001 -0.0741,-1.60117 l -0.13186,-0.18724 c -0.38573,-0.54772 -0.99018,-0.88463 -1.81335,-1.01073 -0.82318,-0.12609 -2.09469,-0.21827 -3.81455,-0.27656 -1.71986,-0.0583 -2.92671,-0.22387 -3.62057,-0.49679 -1.23543,-0.45029 -2.12243,-1.05782 -2.66102,-1.8226 -0.35489,-0.50394 -0.54302,-1.0513 -0.56437,-1.6421 -0.0213,-0.59078 0.0972,-1.18234 0.35551,-1.77468 0.25836,-0.59231 0.6211,-1.15538 1.08823,-1.68922 0.46713,-0.5338 0.99971,-1.01128 1.59774,-1.43246 0.86677,-0.61039 1.83195,-1.08701 2.89553,-1.42984 z"
           inkscape:connector-curvature="0" />
      </g>
      <path
         transform="matrix(0.76149958,0,0,0.70710678,61.538465,139.65832)"
         d="m 247.48738,477.58539 c 0,3.90524 -2.9397,7.07107 -6.56599,7.07107 -3.6263,0 -6.56599,-3.16583 -6.56599,-7.07107 0,-3.90524 2.93969,-7.07107 6.56599,-7.07107 3.62629,0 6.56599,3.16583 6.56599,7.07107 z"
         sodipodi:ry="7.0710678"
         sodipodi:rx="6.5659914"
         sodipodi:cy="477.58539"
         sodipodi:cx="240.92139"
         id="path4013"
         style="color:#000000;fill:#000000;fill-opacity:1;stroke:none;stroke-width:1;marker:none;visibility:visible;display:inline;overflow:visible;enable-background:accumulate"
         sodipodi:type="arc" />
      <path
         transform="matrix(0.76149958,0,0,0.70710678,261.53846,139.65832)"
         d="m 247.48738,477.58539 c 0,3.90524 -2.9397,7.07107 -6.56599,7.07107 -3.6263,0 -6.56599,-3.16583 -6.56599,-7.07107 0,-3.90524 2.93969,-7.07107 6.56599,-7.07107 3.62629,0 6.56599,3.16583 6.56599,7.07107 z"
         sodipodi:ry="7.0710678"
         sodipodi:rx="6.5659914"
         sodipodi:cy="477.58539"
         sodipodi:cx="240.92139"
         id="path4013-6"
         style="color:#000000;fill:#000000;fill-opacity:1;stroke:none;stroke-width:1;marker:none;visibility:visible;display:inline;overflow:visible;enable-background:accumulate"
         sodipodi:type="arc" />
    </g>
  </g>
</svg>
