<?xml version="1.0" encoding="UTF-8" standalone="no"?>
<!-- Created with Inkscape (http://www.inkscape.org/) -->

<svg
   width="157.42708mm"
   height="157.42708mm"
   viewBox="0 0 157.42708 157.42708"
   version="1.1"
   id="svg5"
   xml:space="preserve"
   inkscape:version="1.2.2 (732a01da63, 2022-12-09)"
   sodipodi:docname="National Food Authority (NFA).svg"
   xmlns:inkscape="http://www.inkscape.org/namespaces/inkscape"
   xmlns:sodipodi="http://sodipodi.sourceforge.net/DTD/sodipodi-0.dtd"
   xmlns="http://www.w3.org/2000/svg"
   xmlns:svg="http://www.w3.org/2000/svg"
   xmlns:rdf="http://www.w3.org/1999/02/22-rdf-syntax-ns#"
   xmlns:cc="http://creativecommons.org/ns#"
   xmlns:dc="http://purl.org/dc/elements/1.1/"><title
     id="title8797">National Food Authority of the Philippines (NFA)</title><sodipodi:namedview
     id="namedview7"
     pagecolor="#ffffff"
     bordercolor="#000000"
     borderopacity="0.25"
     inkscape:showpageshadow="2"
     inkscape:pageopacity="0.0"
     inkscape:pagecheckerboard="0"
     inkscape:deskcolor="#d1d1d1"
     inkscape:document-units="mm"
     showgrid="false"
     inkscape:zoom="1"
     inkscape:cx="358"
     inkscape:cy="279"
     inkscape:window-width="1195"
     inkscape:window-height="1201"
     inkscape:window-x="65"
     inkscape:window-y="525"
     inkscape:window-maximized="0"
     inkscape:current-layer="layer1"
     showguides="true"><inkscape:grid
       type="xygrid"
       id="grid2384"
       originx="-26.154169"
       originy="-69.936135" /></sodipodi:namedview><defs
     id="defs2" /><g
     inkscape:label="Layer 1"
     inkscape:groupmode="layer"
     id="layer1"
     transform="translate(-26.154169,-69.936137)"><g
       id="g1033"><circle
         style="fill:#ffffff;fill-opacity:1;stroke:#0038a8;stroke-width:2.3614;stroke-dasharray:none;stroke-opacity:1"
         id="path1656-8"
         cx="104.86771"
         cy="148.64967"
         r="77.532837" /><circle
         style="fill:#ffffff;fill-opacity:1;stroke:#0038a8;stroke-width:2.38125;stroke-dasharray:none;stroke-opacity:1"
         id="path1656"
         cx="104.86771"
         cy="148.64967"
         r="55.5625" /><path
         style="vector-effect:non-scaling-stroke;fill:none;fill-opacity:1;stroke:none;stroke-width:0.264583;stroke-dasharray:none;stroke-opacity:1;-inkscape-stroke:hairline"
         id="path1656-9"
         transform="scale(-1)"
         sodipodi:type="arc"
         sodipodi:cx="-105"
         sodipodi:cy="-148.52966"
         sodipodi:rx="59.66354"
         sodipodi:ry="59.66354"
         sodipodi:start="5.4280002"
         sodipodi:end="4.05018"
         sodipodi:arc-type="slice"
         d="m -65.856015,-193.55728 a 59.66354,59.66354 0 0 1 16.456983,66.66717 59.66354,59.66354 0 0 1 -57.193858,38.00272 59.66354,59.66354 0 0 1 -55.08387,-41.00137 59.66354,59.66354 0 0 1 19.99201,-65.69372 L -105,-148.52966 Z" /><path
         style="vector-effect:non-scaling-stroke;fill:none;fill-opacity:1;stroke:none;stroke-width:0.328528;stroke-dasharray:none;stroke-opacity:1;-inkscape-stroke:hairline"
         id="path1656-9-1"
         transform="matrix(0,1,1,0,0,0)"
         sodipodi:type="arc"
         sodipodi:cx="147.94647"
         sodipodi:cy="104.86771"
         sodipodi:rx="74.083336"
         sodipodi:ry="74.083336"
         sodipodi:start="5.9202524"
         sodipodi:end="0.57396809"
         sodipodi:open="true"
         sodipodi:arc-type="arc"
         d="m 217.20399,78.566817 a 74.083336,74.083336 0 0 1 -7.04581,66.525813" /><g
         inkscape:label="Layer 1"
         id="layer1-0"
         transform="matrix(0.26458333,0,0,0.26458333,6.0322208,43.262306)"><g
           id="g4290" /><g
           id="g4372" /><g
           id="g4366"
           transform="matrix(0.99837684,0,0,1.001401,0.28575927,-0.8347448)"><g
             id="g4360"><path
               style="fill:#ce1126;fill-opacity:1;fill-rule:evenodd;stroke:none;stroke-width:0.3;stroke-linecap:butt;stroke-linejoin:miter;stroke-miterlimit:4;stroke-dasharray:none;stroke-opacity:1"
               d="m 418.21276,206.49124 c 0,0 -23.66613,19.38107 -33.37102,31.08097 -24.57644,29.62858 -29.75907,69.28281 -24.23483,104.74607 7.70337,49.45227 41.34407,87.61614 47.5965,136.27891 3.0395,19.70945 1.48286,59.80894 1.48286,59.80894 l 22.73729,-14.33437 c -23.13233,-65.4411 -21.64028,-126.92092 20.01869,-173.49535 17.09009,-22.14694 52.64175,-42.01454 52.64175,-42.01454 25.50211,32.92062 27.83537,55.45127 26.6916,93.42057 -1.9545,64.88234 -48.02608,142.86053 -124.34077,155.34663 l -20.32014,38.47167 c 0,0 46.59093,1.83636 102.70206,-36.96306 40.54571,-29.18749 80.65855,-85.9975 81.85909,-153.80665 0.61231,-52.39444 -14.59556,-91.53831 -42.59169,-128.40649 -29.00521,-38.19703 -64.59398,-58.70527 -110.87139,-70.1333 z"
               id="path4145"
               inkscape:connector-curvature="0"
               sodipodi:nodetypes="csscccccsccccsc" /></g><g
             id="g4363"><path
               style="fill:#0038a8;fill-opacity:1;fill-rule:evenodd;stroke:none;stroke-width:0.3;stroke-linecap:butt;stroke-linejoin:miter;stroke-miterlimit:4;stroke-dasharray:none;stroke-opacity:1"
               d="m 326.37298,590.64904 c 0,0 26.82682,-19.33978 36.53171,-31.03968 24.57644,-29.62858 29.75907,-69.28281 24.23483,-104.74607 -7.70337,-49.45227 -41.34407,-87.61614 -47.5965,-136.27891 -3.0395,-19.70945 -1.48286,-59.80894 -1.48286,-59.80894 l -22.73729,14.33437 c 23.13233,65.4411 21.64028,126.92092 -20.01869,173.49535 -17.09009,22.14694 -52.64175,42.01454 -52.64175,42.01454 -25.50211,-32.92062 -27.83537,-55.45127 -26.6916,-93.42057 1.9545,-64.88234 48.02608,-142.86053 124.34077,-155.34663 l 20.32014,-38.47167 c 0,0 -46.59093,-1.83636 -102.70206,36.96306 -40.54571,29.18749 -80.65855,85.9975 -81.85909,153.80665 -0.61231,52.39444 13.47953,90.77864 40.06631,125.88111 26.5669,35.07623 61.8155,60.53098 110.23608,72.61739 z"
               id="path4145-7"
               inkscape:connector-curvature="0"
               sodipodi:nodetypes="csscccccsccccac" /></g></g></g><g
         id="g987"><g
           aria-label="NATIONAL FOOD AUTHORITY"
           id="text5005"
           style="font-weight:600;font-size:19.05px;font-family:'Bembo Std';-inkscape-font-specification:'Bembo Std Semi-Bold';letter-spacing:0.714375px;word-spacing:0.79375px;vector-effect:non-scaling-stroke;fill:#0038a8;stroke-width:0.264583;-inkscape-stroke:hairline"><path
             d="m 64.607718,192.80307 -10.14476,9.20948 -1.981947,-2.18322 3.230975,-10.44573 -6.969788,6.32722 -1.869407,-2.05926 10.14476,-9.20948 1.956938,2.15567 -3.205966,10.47329 6.969788,-6.32723 z"
             style="font-weight:bold;font-family:'Swis721 BT';-inkscape-font-specification:'Swis721 BT Bold'"
             id="path7600" /><path
             d="m 42.946564,182.25119 6.02831,-1.12906 -1.82295,-3.33923 z m -1.624043,2.75178 -1.559982,-2.85754 9.659412,-10.90057 1.417354,2.59627 -2.028097,2.16693 2.544999,4.66186 2.906143,-0.55855 1.421812,2.60444 z"
             style="font-weight:bold;font-family:'Swis721 BT';-inkscape-font-specification:'Swis721 BT Bold'"
             id="path7597" /><path
             d="m 48.264491,167.05934 -10.787976,3.20896 1.158939,3.89615 -2.344824,0.69749 -3.11349,-10.46701 2.344824,-0.69749 1.150984,3.86941 10.787976,-3.20896 z"
             style="font-weight:bold;font-family:'Swis721 BT';-inkscape-font-specification:'Swis721 BT Bold'"
             id="path7594" /><path
             d="m 46.081098,158.03563 -13.574234,1.86305 -0.383235,-2.79226 13.574235,-1.86305 z"
             style="font-weight:bold;font-family:'Swis721 BT';-inkscape-font-specification:'Swis721 BT Bold'"
             id="path7591" /><path
             d="m 38.388323,148.97303 q 2.257426,0.11448 3.562431,-0.82522 1.295715,-0.94017 1.387109,-2.7424 0.09234,-1.8208 -1.101149,-2.89652 -1.202775,-1.07619 -3.460202,-1.19067 -2.257426,-0.11447 -3.553612,0.83499 -1.305476,0.94899 -1.397812,2.76979 -0.09139,1.80223 1.102562,2.86866 1.193957,1.06643 3.460673,1.18137 z m -0.145571,2.87056 q -3.316466,-0.16818 -5.166644,-2.06887 -1.858997,-1.91045 -1.703533,-4.97609 0.155464,-3.06564 2.198192,-4.77822 2.043198,-1.72187 5.350374,-1.55416 3.307176,0.16771 5.165702,2.08745 1.858997,1.91044 1.703533,4.97609 -0.155465,3.06564 -2.198192,4.77822 -2.042256,1.70329 -5.349432,1.53558 z"
             style="font-weight:bold;font-family:'Swis721 BT';-inkscape-font-specification:'Swis721 BT Bold'"
             id="path7588" /><path
             d="m 46.418598,135.87862 -13.059947,-4.1435 0.89171,-2.81059 10.654771,-2.45528 -8.972618,-2.84672 0.841076,-2.651 13.059948,4.1435 -0.880458,2.77512 -10.666023,2.49075 8.972618,2.84672 z"
             style="font-weight:bold;font-family:'Swis721 BT';-inkscape-font-specification:'Swis721 BT Bold'"
             id="path7585" /><path
             d="m 44.662549,111.82623 3.995885,4.65277 1.977638,-3.25001 z m -3.19515,-0.0279 1.692355,-2.78118 14.27234,2.90295 -1.537625,2.5269 -2.891238,-0.67047 -2.760957,4.53729 1.938683,2.23588 -1.542461,2.53485 z"
             style="font-weight:bold;font-family:'Swis721 BT';-inkscape-font-specification:'Swis721 BT Bold'"
             id="path7582" /><path
             d="m 58.955287,110.3598 -9.920141,-9.45101 1.944098,-2.040598 8.088316,7.705818 4.613222,-4.84222 1.831825,1.7452 z"
             style="font-weight:bold;font-family:'Swis721 BT';-inkscape-font-specification:'Swis721 BT Bold'"
             id="path7579" /><path
             d="m 72.951358,98.022738 -6.495749,-12.063832 8.419294,-4.533354 1.128928,2.096634 -5.970491,3.2148 1.472899,2.735451 5.233394,-2.817911 1.128928,2.096633 -5.233393,2.817912 2.764992,5.135113 z"
             style="font-weight:bold;font-family:'Swis721 BT';-inkscape-font-specification:'Swis721 BT Bold'"
             id="path7576" /><path
             d="m 84.187283,85.250886 q 0.581902,2.18414 1.87591,3.138928 1.291613,0.9458 3.03533,0.481237 1.761693,-0.469353 2.420526,-1.934794 0.656439,-1.474429 0.07454,-3.658569 -0.581902,-2.18414 -1.882503,-3.127546 -1.302996,-0.952393 -3.064689,-0.48304 -1.743717,0.464563 -2.393562,1.927609 -0.649845,1.463046 -0.06555,3.656175 z m -2.777363,0.739949 q -0.854893,-3.208799 0.388341,-5.551903 1.249827,-2.354487 4.215943,-3.144724 2.966117,-0.790237 5.2217,0.630334 2.264571,1.418176 3.117069,4.617986 0.852498,3.199811 -0.406317,5.556692 -1.249827,2.354487 -4.215944,3.144724 -2.966116,0.790237 -5.221699,-0.630334 -2.246595,-1.422965 -3.099093,-4.622775 z"
             style="font-weight:bold;font-family:'Swis721 BT';-inkscape-font-specification:'Swis721 BT Bold'"
             id="path7573" /><path
             d="m 101.41486,82.015733 q -0.008,2.260312 0.99179,3.519695 1.00005,1.25008 2.80458,1.256643 1.82313,0.0066 2.84155,-1.23611 1.01845,-1.252041 1.02667,-3.512354 0.008,-2.260312 -1.00113,-3.510426 -1.00932,-1.259416 -2.83245,-1.266047 -1.80453,-0.0066 -2.81364,1.236212 -1.00912,1.242774 -1.01737,3.512387 z m -2.874228,-0.01045 q 0.01208,-3.320706 1.823678,-5.258198 1.82093,-1.946759 4.89049,-1.935596 3.06956,0.01116 4.87629,1.971115 1.81603,1.959987 1.80398,5.271391 -0.012,3.311403 -1.84227,5.258129 -1.82094,1.94676 -4.8905,1.935597 -3.06956,-0.01116 -4.87629,-1.971116 -1.79742,-1.959919 -1.785378,-5.271322 z"
             style="font-weight:bold;font-family:'Swis721 BT';-inkscape-font-specification:'Swis721 BT Bold'"
             id="path7570" /><path
             d="m 118.17171,87.738354 2.18581,0.575595 q 1.89797,0.499797 3.00406,-0.267007 1.11746,-0.77343 1.7049,-3.004216 0.58507,-2.221792 0.0683,-3.47367 -0.5168,-1.251878 -2.19888,-1.694825 l -2.51863,-0.663237 z m -3.30162,1.689194 3.4891,-13.249792 5.19017,1.366742 q 3.04934,0.80299 4.10906,2.8423 1.06871,2.041677 0.18755,5.387857 -0.47848,1.817011 -1.40095,3.055398 -0.91349,1.240756 -2.18857,1.809157 -0.95738,0.421212 -2.03826,0.434765 -1.07851,0.0046 -2.89553,-0.473919 z"
             style="font-weight:bold;font-family:'Swis721 BT';-inkscape-font-specification:'Swis721 BT Bold'"
             id="path7567" /><path
             d="m 145.4918,90.669893 -4.89568,3.694265 3.11871,2.178815 z m 0.22948,-3.187021 2.66883,1.864512 -3.79795,14.060666 -2.42482,-1.69404 0.85162,-2.843155 -4.354,-3.041818 -2.35378,1.793703 -2.43244,-1.69937 z"
             style="font-weight:bold;font-family:'Swis721 BT';-inkscape-font-specification:'Swis721 BT Bold'"
             id="path7564" /><path
             d="m 156.08397,95.523662 1.89423,2.12451 -6.41519,5.719828 q -1.18722,1.05854 -1.31477,2.01968 -0.1206,0.95496 0.79556,1.9825 0.92855,1.04142 1.89103,1.03069 0.96867,-0.004 2.16284,-1.06851 l 6.41518,-5.71983 1.87566,2.10369 -6.6443,5.9241 q -1.88151,1.67757 -3.82915,1.51985 -1.94144,-0.15078 -3.70567,-2.12949 -1.77661,-1.9926 -1.72396,-3.94625 0.0658,-1.95291 1.95424,-3.63666 z"
             style="font-weight:bold;font-family:'Swis721 BT';-inkscape-font-specification:'Swis721 BT Bold'"
             id="path7561" /><path
             d="m 156.44451,118.27076 9.83449,-5.47363 -1.97683,-3.5518 2.13758,-1.18972 5.31077,9.5419 -2.13758,1.18973 -1.96327,-3.52742 -9.83449,5.47362 z"
             style="font-weight:bold;font-family:'Swis721 BT';-inkscape-font-specification:'Swis721 BT Bold'"
             id="path7558" /><path
             d="m 160.71713,126.45283 13.15763,-3.82199 0.79138,2.72442 -4.90396,1.42449 1.57758,5.43099 4.90396,-1.42449 0.79138,2.72442 -13.15762,3.82199 -0.79139,-2.72442 5.83295,-1.69434 -1.57758,-5.43098 -5.83294,1.69433 z"
             style="font-weight:bold;font-family:'Swis721 BT';-inkscape-font-specification:'Swis721 BT Bold'"
             id="path7555" /><path
             d="m 171.38219,142.97832 q -2.25957,0.0587 -3.4888,1.09553 -1.21993,1.03662 -1.17308,2.84055 0.0473,1.82253 1.31967,2.80372 1.28163,0.98095 3.5412,0.92226 2.25957,-0.0587 3.47926,-1.10459 1.22899,-1.04615 1.18166,-2.86868 -0.0469,-1.80393 -1.31895,-2.77583 -1.2721,-0.97189 -3.54096,-0.91296 z m -0.0746,-2.87328 q 3.3196,-0.0862 5.30987,1.66725 1.9998,1.76252 2.07949,4.83106 0.0797,3.06855 -1.82592,4.93249 -1.90538,1.87325 -5.21569,1.95922 -3.31031,0.086 -5.31035,-1.68584 -1.99981,-1.76252 -2.0795,-4.83107 -0.0797,-3.06854 1.82593,-4.93249 1.90586,-1.85464 5.21617,-1.94062 z"
             style="font-weight:bold;font-family:'Swis721 BT';-inkscape-font-specification:'Swis721 BT Bold'"
             id="path7552" /><path
             d="m 171.23853,161.11858 -0.74208,3.2272 q -0.2418,1.05157 0.0717,1.63906 0.31142,0.59655 1.22701,0.80708 0.87025,0.20011 1.42493,-0.1782 0.56373,-0.37623 0.7826,-1.32808 l 0.77126,-3.35412 z m -6.88345,-4.47479 13.35302,3.07044 -1.48831,6.47254 q -0.50236,2.18471 -1.67788,3.02157 -1.17551,0.83686 -3.09733,0.39496 -1.2238,-0.28141 -1.92085,-0.98573 -0.69914,-0.69525 -0.77734,-1.72495 -0.50832,0.79939 -1.22626,1.01608 -0.72003,0.22576 -2.07419,-0.0284 l -1.58985,-0.30831 q -0.0181,-0.004 -0.0544,-0.0125 -1.20285,-0.24795 -1.56924,0.1832 l -0.40794,-0.0938 0.69205,-3.00964 q 0.31437,-0.0804 0.74107,-0.0682 0.43367,0.0234 1.00895,0.13656 l 1.41344,0.28683 q 1.25235,0.24025 1.78545,-0.0858 0.53102,-0.31695 0.78324,-1.41383 l 0.66912,-2.90993 -5.19436,-1.1944 z"
             style="font-weight:bold;font-family:'Swis721 BT';-inkscape-font-specification:'Swis721 BT Bold'"
             id="path7549" /><path
             d="m 160.48776,170.50485 12.61643,5.34381 -1.09923,2.59523 -12.61644,-5.34381 z"
             style="font-weight:bold;font-family:'Swis721 BT';-inkscape-font-specification:'Swis721 BT Bold'"
             id="path7546" /><path
             d="m 156.40083,178.86136 9.55659,5.94554 2.14728,-3.45143 2.07717,1.29229 -5.76865,9.27227 -2.07717,-1.2923 2.13253,-3.42774 -9.55659,-5.94553 z"
             style="font-weight:bold;font-family:'Swis721 BT';-inkscape-font-specification:'Swis721 BT Bold'"
             id="path7543" /><path
             d="m 147.01149,190.92819 1.94808,-2.0368 3.69044,3.52968 9.65092,2.34432 -2.38527,2.49391 -6.29377,-1.96513 2.39762,6.03874 -2.22453,2.32585 -3.09304,-9.20089 z"
             style="font-weight:bold;font-family:'Swis721 BT';-inkscape-font-specification:'Swis721 BT Bold'"
             id="path7540" /></g><g
           aria-label="1972"
           id="text6041"
           style="font-weight:bold;font-size:19.05px;font-family:'Swis721 BT';-inkscape-font-specification:'Swis721 BT Bold';letter-spacing:3.175px;vector-effect:non-scaling-stroke;fill:#0038a8;stroke-width:0.264583;-inkscape-stroke:hairline"><path
             d="m 82.998266,218.7322 2.605041,-8.72586 -3.048258,-0.91003 0.534845,-1.79152 0.196086,0.0585 q 1.666738,0.49759 2.578679,0.20681 0.920855,-0.28812 1.416435,-1.46038 l 2.041086,0.60936 -3.810439,12.76346 z"
             id="path7629" /><path
             d="m 100.14821,213.20013 q 0.11578,-1.13824 -0.391136,-1.85363 -0.496719,-0.72371 -1.477644,-0.82349 -0.9254,-0.0941 -1.508575,0.49168 -0.573922,0.58675 -0.690645,1.73425 -0.109193,1.07346 0.366354,1.72957 0.475547,0.65611 1.447217,0.75495 0.953163,0.0969 1.550139,-0.44071 0.59698,-0.53766 0.70429,-1.59262 z m -0.304844,3.45646 q -0.509766,0.41563 -1.162571,0.58297 -0.652806,0.16734 -1.439396,0.0873 -1.952595,-0.19862 -3.008307,-1.49343 -1.055711,-1.2948 -0.855211,-3.2659 0.212738,-2.09141 1.620634,-3.24781 1.407896,-1.15641 3.499301,-0.94367 2.424554,0.24662 3.512714,2.04962 1.09836,1.79468 0.77267,4.99656 -0.35017,3.44249 -1.88764,5.13736 -1.537463,1.69486 -4.073061,1.43694 -1.749007,-0.17791 -2.730222,-1.194 -0.980275,-1.02534 -0.922045,-2.60887 l 2.673466,0.28129 q 0.02759,0.64794 0.402761,1.00399 0.375171,0.35606 1.115492,0.43136 0.999432,0.10167 1.615395,-0.71455 0.615962,-0.81623 0.86602,-2.53919 z"
             id="path7626" /><path
             d="m 111.21411,221.75756 -2.77065,0.24229 q -0.0892,-2.72802 0.83576,-5.49803 0.93418,-2.77082 2.86798,-5.53569 l -6.52354,0.57048 -0.19772,-2.261 9.40539,-0.8225 0.17422,1.99228 q -1.97618,2.6005 -2.91802,5.39067 -0.93256,2.78935 -0.87342,5.9215 z"
             id="path7623" /><path
             d="m 120.27025,220.58101 q -0.46842,-1.72351 -0.0893,-3.11653 0.37661,-1.40197 1.85546,-3.14486 0.22426,-0.26648 0.65861,-0.74708 1.97838,-2.23228 1.57312,-3.66432 -0.24063,-0.85027 -0.8901,-1.19816 -0.64948,-0.34789 -1.53555,-0.0971 -0.96663,0.27355 -1.32246,1.03161 -0.34941,0.74657 -0.0328,1.86536 l 0.0304,0.1074 -2.36287,0.66868 q -0.62309,-2.20176 0.22146,-3.72649 0.84456,-1.52472 3.02843,-2.14275 1.978,-0.55977 3.46592,0.18887 1.48538,0.73969 1.99196,2.52974 0.3622,1.27989 0.0106,2.39443 -0.35161,1.11455 -1.78436,2.8154 -0.30245,0.36594 -0.84573,0.97403 -1.37616,1.55917 -1.4314,2.18383 l 5.81767,-1.64639 0.61803,2.18387 z"
             id="path7620" /></g><circle
           style="vector-effect:non-scaling-stroke;fill:#0038a8;fill-opacity:1;stroke:none;stroke-width:0.535205;stroke-dasharray:none;stroke-opacity:1;-inkscape-stroke:hairline"
           id="path6046"
           cx="71.108704"
           cy="206.46112"
           r="2.3812499" /><circle
           style="vector-effect:non-scaling-stroke;fill:#0038a8;fill-opacity:1;stroke:none;stroke-width:0.535205;stroke-dasharray:none;stroke-opacity:1;-inkscape-stroke:hairline"
           id="path6046-6"
           cx="140.49367"
           cy="206.46114"
           r="2.3812499" /></g></g></g><metadata
     id="metadata8795"><rdf:RDF><cc:Work
         rdf:about=""><dc:title>National Food Authority of the Philippines (NFA)</dc:title></cc:Work></rdf:RDF></metadata></svg>
