<?xml version="1.0" encoding="UTF-8" standalone="no"?>
<svg
   xmlns:dc="http://purl.org/dc/elements/1.1/"
   xmlns:cc="http://creativecommons.org/ns#"
   xmlns:rdf="http://www.w3.org/1999/02/22-rdf-syntax-ns#"
   xmlns:svg="http://www.w3.org/2000/svg"
   xmlns="http://www.w3.org/2000/svg"
   xmlns:sodipodi="http://sodipodi.sourceforge.net/DTD/sodipodi-0.dtd"
   xmlns:inkscape="http://www.inkscape.org/namespaces/inkscape"
   width="1375.0001"
   height="1375"
   id="svg2"
   version="1.1"
   inkscape:version="0.48.5 r10040"
   sodipodi:docname="Seal of the Anti-Money Laundering Council Philippines.svg">
  <metadata
     id="metadata259">
    <rdf:RDF>
      <cc:Work
         rdf:about="">
        <dc:format>image/svg+xml</dc:format>
        <dc:type
           rdf:resource="http://purl.org/dc/dcmitype/StillImage" />
        <dc:title />
      </cc:Work>
    </rdf:RDF>
  </metadata>
  <defs
     id="defs257">
    <inkscape:path-effect
       effect="spiro"
       id="path-effect4385"
       is_visible="true" />
  </defs>
  <sodipodi:namedview
     pagecolor="#ffffff"
     bordercolor="#666666"
     borderopacity="1"
     objecttolerance="10"
     gridtolerance="10"
     guidetolerance="10"
     inkscape:pageopacity="0"
     inkscape:pageshadow="2"
     inkscape:window-width="1366"
     inkscape:window-height="706"
     id="namedview255"
     showgrid="false"
     fit-margin-top="0"
     fit-margin-left="0"
     fit-margin-right="0"
     fit-margin-bottom="0"
     inkscape:zoom="0.34459007"
     inkscape:cx="938.31918"
     inkscape:cy="718.96952"
     inkscape:window-x="-8"
     inkscape:window-y="-8"
     inkscape:window-maximized="1"
     inkscape:current-layer="svg2" />
  <path
     style="fill:#ffffff;fill-opacity:1;stroke:#000000;stroke-width:13.80380917;stroke-linecap:square;stroke-linejoin:miter;stroke-miterlimit:4;stroke-opacity:1"
     d="M 605.86103,1363.1327 C 232.72896,1318.0442 -33.20331,979.00556 11.884663,605.86871 56.972638,232.73187 396.00697,-33.203823 769.13902,11.884726 1142.2711,56.973281 1408.2034,396.01195 1363.1155,769.1488 c -44.5231,368.4616 -376.05962,633.3027 -745.24878,595.3266"
     id="path4307-1"
     inkscape:connector-curvature="0" />
  <path
     style="fill:#ffffff;fill-opacity:1;stroke:#000000;stroke-width:10.54109097;stroke-linecap:square;stroke-linejoin:miter;stroke-miterlimit:4;stroke-opacity:1"
     d="M 627.60232,1199.4806 C 342.66511,1165.0494 139.58956,906.14715 174.02038,621.20629 208.45119,336.26545 467.35013,133.18729 752.28732,167.61855 1037.2246,202.04981 1240.3001,460.95205 1205.8694,745.89291 1171.8699,1027.2635 918.69656,1229.5058 636.7703,1200.506"
     id="path4307"
     inkscape:connector-curvature="0" />
  <path
     style="fill:#ffffff;fill-rule:evenodd;stroke:#000000;stroke-width:5.03099012;stroke-miterlimit:4;stroke-dasharray:none"
     inkscape:connector-curvature="0"
     id="path12"
     d="m 684.43002,1003.7004 c 0,0 5.63587,-38.63794 153.25822,-55.95263 88.52749,-10.38379 122.11695,-104.79257 119.44712,-149.68213 0.27705,-72.53479 0.74453,-165.51961 1.46991,-245.80229 C 957.5172,463.99159 957.59981,417.40372 1013.773,367.65036 912.01728,344.46696 896.96549,293.16604 866.28764,247.83431 782.02182,288.54945 722.33857,252.39763 684.09453,200.65454 m 0.13299,803.04786 c 0,0 -5.63585,-38.63793 -153.25822,-55.95262 -88.52748,-10.38379 -122.11694,-104.79257 -119.4471,-149.68213 -0.27706,-72.53479 -0.74454,-165.51961 -1.46992,-245.80229 1.08807,-88.27176 1.00547,-134.85963 -55.16772,-184.61299 101.75572,-23.1834 116.47503,-73.48946 147.15287,-118.82119 85.59672,39.39268 143.61661,4.89394 183.19052,-48.50726" />
  <path
     d="m 714.61814,347.14092 -30.743,-16.22 -30.653,16.389 5.967,-34.17 -25.1,-24.01 34.431,-4.9 15.14,-31.23 15.312,31.14 34.457,4.71 -24.967,24.15 6.156,34.14 z"
     id="path14"
     inkscape:connector-curvature="0"
     style="fill:#fcd116;fill-rule:evenodd;stroke:#000000;stroke-width:2" />
  <g
     style="fill:none;stroke:#000000;stroke-width:1.39999998"
     id="g16"
     transform="translate(152.81814,69.120923)">
    <path
       inkscape:connector-curvature="0"
       id="path18"
       d="m 530.87,185.11 v 77.33" />
    <path
       inkscape:connector-curvature="0"
       id="path20"
       d="M 530.87,231 516.16,215.88" />
    <path
       inkscape:connector-curvature="0"
       id="path22"
       d="m 530.96,231 14.71,-15.12" />
    <path
       inkscape:connector-curvature="0"
       id="path24"
       d="M 531,230.73 483.375,220.294" />
    <path
       inkscape:connector-curvature="0"
       id="path26"
       d="m 530.58,230.73 47.625,-10.436" />
    <path
       inkscape:connector-curvature="0"
       id="path28"
       d="m 531,231 -25.15,12.978" />
    <path
       inkscape:connector-curvature="0"
       id="path30"
       d="m 531.16,231 25.15,12.978" />
    <path
       inkscape:connector-curvature="0"
       id="path32"
       d="m 531,231 -30.1,45.09" />
    <path
       inkscape:connector-curvature="0"
       id="path34"
       d="m 530.91,231 30.1,45.09" />
  </g>
  <path
     style="fill:#fcd116;fill-rule:evenodd;stroke:#000000;stroke-width:2"
     inkscape:connector-curvature="0"
     id="path36"
     d="m 517.66814,488.43092 -30.743,-16.22 -30.653,16.389 5.967,-34.17 -25.1,-24.01 34.431,-4.9 15.14,-31.23 15.312,31.14 34.457,4.71 -24.967,24.15 6.156,34.14 z" />
  <g
     style="fill:none;stroke:#000000;stroke-width:1.39999998"
     id="g38"
     transform="translate(152.81814,69.120923)">
    <path
       inkscape:connector-curvature="0"
       id="path40"
       d="m 333.92,326.4 v 77.33" />
    <path
       inkscape:connector-curvature="0"
       id="path42"
       d="M 333.92,372.29 319.21,357.17" />
    <path
       inkscape:connector-curvature="0"
       id="path44"
       d="m 334.01,372.29 14.71,-15.12" />
    <path
       inkscape:connector-curvature="0"
       id="path46"
       d="M 334.05,372.02 286.425,361.584" />
    <path
       inkscape:connector-curvature="0"
       id="path48"
       d="m 333.63,372.02 47.625,-10.436" />
    <path
       inkscape:connector-curvature="0"
       id="path50"
       d="M 334.05,372.29 308.9,385.268" />
    <path
       inkscape:connector-curvature="0"
       id="path52"
       d="m 334.21,372.29 25.15,12.978" />
    <path
       inkscape:connector-curvature="0"
       id="path54"
       d="m 334.05,372.29 -30.1,45.09" />
    <path
       inkscape:connector-curvature="0"
       id="path56"
       d="m 333.96,372.29 30.1,45.09" />
  </g>
  <path
     style="fill:#fcd116;fill-rule:evenodd;stroke:#000000;stroke-width:2"
     inkscape:connector-curvature="0"
     id="path58"
     d="m 914.85814,488.43092 -30.743,-16.22 -30.653,16.389 5.967,-34.17 -25.1,-24.01 34.431,-4.9 15.14,-31.23 15.312,31.14 34.457,4.71 -24.967,24.15 6.156,34.14 z" />
  <g
     style="fill:none;stroke:#000000;stroke-width:1.39999998"
     id="g60"
     transform="translate(152.81814,69.120923)">
    <path
       inkscape:connector-curvature="0"
       id="path62"
       d="m 731.11,326.4 v 77.33" />
    <path
       inkscape:connector-curvature="0"
       id="path64"
       d="M 731.1,372.29 716.39,357.17" />
    <path
       inkscape:connector-curvature="0"
       id="path66"
       d="M 731.19,372.29 745.9,357.17" />
    <path
       inkscape:connector-curvature="0"
       id="path68"
       d="M 731.24,372.02 683.615,361.584" />
    <path
       inkscape:connector-curvature="0"
       id="path70"
       d="m 730.81,372.02 47.625,-10.436" />
    <path
       inkscape:connector-curvature="0"
       id="path72"
       d="m 731.24,372.29 -25.15,12.978" />
    <path
       inkscape:connector-curvature="0"
       id="path74"
       d="m 731.39,372.29 25.15,12.978" />
    <path
       inkscape:connector-curvature="0"
       id="path76"
       d="m 731.24,372.29 -30.1,45.09" />
    <path
       inkscape:connector-curvature="0"
       id="path78"
       d="m 731.14,372.29 30.1,45.09" />
  </g>
  <path
     inkscape:connector-curvature="0"
     style="fill:#0038a8;fill-rule:evenodd;stroke:#0038a8;stroke-width:3;stroke-miterlimit:4;stroke-dasharray:none"
     id="path82"
     d="m 414.23814,546.99092 271.89,-0.171 v 453.15 c -0.357,-2.38 -13.168,-18.479 -36.36,-27.98 -22.33,-9.147 -52.755,-17.14 -88.29,-22.18 -120.53,-7.8 -137.57,-100.12 -137.57,-100.12 -16.06,-33.06 -7.459,-100.73 -10.434,-152.01 l 0.768,-150.69 z" />
  <path
     sodipodi:nodetypes="ccccccccc"
     inkscape:connector-curvature="0"
     style="fill:#ce1126;fill-rule:evenodd;stroke:#ce1126;stroke-width:3;stroke-miterlimit:4;stroke-dasharray:none"
     id="path84"
     d="m 955.45814,546.99092 -269.43,2.288 -0.431,448.66 c 0.357,-2.38 16.881,-17.767 37.586,-26.407 22.503,-9.39 54.04871,-17.48374 89.02871,-22.52274 118.13677,-10.99097 134.24217,-99.55591 134.24217,-99.55591 16.06,-33.06 4.40489,-90.92344 7.37989,-146.19215 l 1.62523,-156.2742 z" />
  <path
     inkscape:connector-curvature="0"
     style="fill:#ffffff;fill-rule:evenodd;stroke:#000000;stroke-width:5;stroke-miterlimit:4;stroke-dasharray:none"
     id="path86"
     d="m 821.52814,552.22092 c 0.013,93.44 -60.817,169.19 -135.86,169.19 -75.04,0 -135.87,-75.75 -135.86,-169.19 -0.013,-93.44 60.817,-169.19 135.86,-169.19 75.04,0 135.87,75.75 135.86,169.19 z" />
  <g
     style="fill:#fcd116;stroke:#000000;stroke-width:3;stroke-miterlimit:4;stroke-dasharray:none"
     id="g90"
     transform="translate(152.81814,69.120923)">
    <g
       style="stroke-width:3;stroke-miterlimit:4;stroke-dasharray:none"
       id="g92">
      <path
         inkscape:connector-curvature="0"
         id="path94"
         d="m 501.95,430.32 -18.622,-31.976 -10.709,-1.213 25.498,36.21 3.833,-3.02 z m -14.454,14.651 -39.15,-30.13 -1.403,-17.539 15.833,-0.535 32.368,39.587 -7.646,8.613 z m -5.946,6.889 -32.22,-18.19 -1.357,-10.692 36.55,25.01 -2.969,3.873 z"
         style="stroke-width:3;stroke-miterlimit:4;stroke-dasharray:none" />
      <path
         inkscape:connector-curvature="0"
         id="path96"
         d="m 548.04,423.49 9.719,-51.702 -6.649,-12.282 -7.912,63.1 4.842,0.885 z m -20.581,-0.03 -6,-71.01 11.513,-19.267 11.49,15.794 -5.498,73.62 -11.502,0.862 z m -9.08,0.864 -9.648,-51.73 6.666,-12.263 7.825,63.12 -4.843,0.871 z"
         style="stroke-width:3;stroke-miterlimit:4;stroke-dasharray:none" />
      <path
         inkscape:connector-curvature="0"
         id="path98"
         d="m 591.15,497.28 35.699,9.738 8.485,-6.645 -43.57,-7.935 -0.614,4.841 z m 0.031,-20.581 49.04,-5.978 13.299,11.52 -10.913,11.484 -50.836,-5.524 -0.589,-11.502 z m -0.592,-9.08 35.728,-9.63 8.465,6.671 -43.594,7.802 -0.599,-4.843 z"
         style="stroke-width:3;stroke-miterlimit:4;stroke-dasharray:none" />
      <path
         inkscape:connector-curvature="0"
         id="path100"
         d="m 563.97,533.66 18.763,31.893 10.714,1.165 -25.658,-36.1 -3.819,3.038 z m 14.39,-14.714 39.29,29.953 1.48,17.533 -15.831,0.605 -32.543,-39.444 7.607,-8.647 z m 5.915,-6.915 32.3,18.05 1.404,10.685 -36.66,-24.846 2.952,-3.886 z"
         style="stroke-width:3;stroke-miterlimit:4;stroke-dasharray:none" />
      <path
         inkscape:connector-curvature="0"
         id="path102"
         d="m 480.8,512.42 -32.16,18.296 -1.322,10.696 36.467,-25.13 -2.982,-3.863 z m 14.503,14.603 -30.522,38.845 -17.552,1.224 -0.374,-15.838 39.914,-31.964 8.535,7.733 z m 6.828,6.02 -18.515,32.04 -10.705,1.248 25.378,-36.29 3.843,3.01 z"
         style="stroke-width:3;stroke-miterlimit:4;stroke-dasharray:none" />
      <path
         inkscape:connector-curvature="0"
         id="path104"
         d="m 474.44,467.25 -35.767,-9.485 -8.438,6.705 43.625,7.625 0.58,-4.846 z m 0.115,20.58 -48.995,6.326 -13.38,-11.426 10.831,-11.562 50.874,5.164 0.671,11.497 z m 0.656,9.08 -35.659,9.883 -8.512,-6.61 43.537,-8.111 0.634,4.839 z"
         style="stroke-width:3;stroke-miterlimit:4;stroke-dasharray:none" />
      <path
         inkscape:connector-curvature="0"
         id="path106"
         d="m 518.45,538.72 -9.719,51.702 6.649,12.282 7.912,-63.1 -4.842,-0.885 z m 20.581,0.03 6,71.01 -11.513,19.267 -11.49,-15.794 5.498,-73.62 11.502,-0.862 z m 9.08,-0.864 9.648,51.73 -6.666,12.263 -7.825,-63.12 4.843,-0.871 z"
         style="stroke-width:3;stroke-miterlimit:4;stroke-dasharray:none" />
      <path
         inkscape:connector-curvature="0"
         id="path108"
         d="m 585.38,452.53 32.453,-17.777 1.493,-10.673 -36.866,24.539 m -11.347,-10.923 31.14,-38.35 17.57,-0.942 0.12,15.842 -40.42,31.32 m -15.14,-13.993 19.03,-31.736 10.723,-1.076 -25.958,35.882"
         style="stroke-width:3;stroke-miterlimit:4;stroke-dasharray:none" />
    </g>
    <path
       transform="matrix(2.0096,0,0,2.0096,366.99,181)"
       style="stroke-width:1.49283445"
       d="m 113.446,149.81 c 0,17.07443 -13.841566,30.916 -30.916001,30.916 -17.074436,0 -30.916001,-13.84157 -30.916001,-30.916 0,-17.07444 13.841565,-30.916 30.916001,-30.916 17.074435,0 30.916001,13.84156 30.916001,30.916 z"
       id="circle110"
       inkscape:connector-curvature="0" />
  </g>
  <path
     inkscape:connector-curvature="0"
     id="path3907"
     style="fill:#ffffff;stroke:#000000;stroke-width:4;stroke-miterlimit:4;stroke-opacity:1;stroke-dasharray:none"
     d="m 324.12741,891.39882 c 7.7011,2.4943 12.0312,10.3822 15.6767,19.3654 l 34.4274,-29.8165 c 0,0 3.9929,-4.3017 8.2995,-3.3813 8.4879,1.8141 6.5396,14.1961 11.9881,17.8284 1.6137,1.0759 6.3782,1.8444 9.2216,-2.459 2.8433,-4.3035 3.7654,-6.6857 2.1517,-14.7546 -3.4986,-17.4929 -24.0174,-42.0135 -41.1899,-43.6489 -4.8414,-0.4611 -15.062,3.6886 -15.062,3.6886 l -10.1437,8.9142 -15.3694,44.2637 z" />
  <path
     inkscape:connector-curvature="0"
     id="path3909"
     style="fill:#b3b3b3;stroke:#000000;stroke-width:4;stroke-miterlimit:4;stroke-opacity:1;stroke-dasharray:none"
     d="m 333.34901,828.69192 24.591,-13.525 c 5.1147,0 2.1745,-23.0688 -11.066,-20.9023 -19.674,3.2191 -16.0984,34.6846 -13.525,34.4273 z" />
  <path
     inkscape:connector-curvature="0"
     id="path3911"
     style="fill:#b3b3b3;stroke:#000000;stroke-width:4;stroke-miterlimit:4;stroke-opacity:1;stroke-dasharray:none"
     d="m 338.26721,848.36472 11.3733,-10.1438 c 0,0 -2.8433,4.1497 0.3074,6.7625 4.6656,3.8691 12.9103,0.8453 16.5989,4.9182 3.6886,4.0729 -2.4591,11.3733 -2.4591,11.3733 l -24.2836,-3.3812 -1.5369,-9.529 z" />
  <path
     inkscape:connector-curvature="0"
     id="path3915"
     style="fill:#b3b3b3;stroke:#000000;stroke-width:4;stroke-miterlimit:4;stroke-opacity:1;stroke-dasharray:none"
     d="m 375.15361,879.71812 c -0.2379,14.3513 -0.5007,28.7461 2.4592,37.5012 13.2746,-6.0074 26.0008,-15.4837 28.8943,-29.5091 0,0 -6.3308,11.0904 -11.4942,8.0672 -5.1635,-3.0231 -4.2413,-17.0861 -13.4041,-18.8258 -3.8474,-0.7305 -6.4552,2.7665 -6.4552,2.7665 z" />
  <path
     inkscape:connector-curvature="0"
     id="path3913"
     style="fill:#ffffff;fill-opacity:1;stroke:#000000;stroke-width:4;stroke-miterlimit:4;stroke-opacity:1;stroke-dasharray:none"
     d="m 289.83541,842.28772 c 0,0 -14.8096,18.5414 -12.4308,32.8728 2.1159,12.7478 14.366,24.7513 28.2717,23.0365 21.4164,-2.6409 58.7049,-37.2729 58.7049,-37.2729 -20.3076,0.2362 -32.4343,-13.7377 -30.4525,-58.0804 z"
     sodipodi:nodetypes="cssccc" />
  <path
     style="fill:#ffffff;stroke:#000000;stroke-width:4;stroke-miterlimit:4;stroke-opacity:1;stroke-dasharray:none"
     d="m 374.81401,881.14068 -60.0938,50.1875 c -0.9378,0.5411 1.9927,112.96542 130.4063,127.28122 100.6604,11.1579 98.4454,6.0122 148.9688,19.1563 49.6572,12.9187 89.5406,22.3221 90.8437,23.5625 1.3032,-1.2404 41.1866,-10.6438 90.8438,-23.5625 50.5233,-13.1441 48.3083,-7.9984 148.9687,-19.1563 128.41359,-14.3158 131.34419,-126.74012 130.40629,-127.28122 l -60.09377,-50.1875 c 0,0 9.57687,66.45055 -48.78122,94.28125 -24.3744,11.62411 -44.0174,13.88351 -79.0938,15.68751 -25.926,1.3557 -48.8879,3.15315 -61.5,6.15625 -62.9933,14.99931 -117.1641,32.52381 -120.75,33.68751 -3.5859,-1.1637 -57.7566,-18.6882 -120.75,-33.68751 -12.6121,-3.0031 -35.5739,-4.80055 -61.5,-6.15625 -35.0763,-1.804 -54.7193,-4.0634 -79.0937,-15.68751 -58.3581,-27.8307 -48.7813,-94.28125 -48.7813,-94.28125 z"
     id="path3871"
     inkscape:connector-curvature="0" />
  <path
     d="m 1045.7649,891.39882 c -7.7012,2.4943 -12.0312,10.3822 -15.6768,19.3654 l -34.42734,-29.8165 c 0,0 -3.99289,-4.3017 -8.29947,-3.3813 -8.4879,1.8141 -6.53964,14.1961 -11.98809,17.8284 -1.61378,1.0759 -6.37827,1.8444 -9.2216,-2.459 -2.84333,-4.3035 -3.76549,-6.6857 -2.15171,-14.7546 3.49858,-17.4929 24.01738,-42.0135 41.18991,-43.6489 4.8413,-0.4611 15.0619,3.6886 15.0619,3.6886 l 10.1438,8.9142 15.3694,44.2637 z"
     style="fill:#ffffff;stroke:#000000;stroke-width:4;stroke-miterlimit:4;stroke-opacity:1;stroke-dasharray:none"
     id="path4689"
     inkscape:connector-curvature="0" />
  <path
     d="m 1036.5433,828.69192 -24.591,-13.525 c -5.1148,0 -2.1745,-23.0688 11.0659,-20.9023 19.674,3.2191 16.0984,34.6846 13.5251,34.4273 z"
     style="fill:#b3b3b3;stroke:#000000;stroke-width:4;stroke-miterlimit:4;stroke-opacity:1;stroke-dasharray:none"
     id="path4691"
     inkscape:connector-curvature="0" />
  <path
     d="m 1031.6251,848.36472 -11.3734,-10.1438 c 0,0 2.8434,4.1497 -0.3073,6.7625 -4.6657,3.8691 -12.9103,0.8453 -16.5989,4.9182 -3.68871,4.0729 2.4591,11.3733 2.4591,11.3733 l 24.2835,-3.3812 1.537,-9.529 z"
     style="fill:#b3b3b3;stroke:#000000;stroke-width:4;stroke-miterlimit:4;stroke-opacity:1;stroke-dasharray:none"
     id="path4693"
     inkscape:connector-curvature="0" />
  <path
     d="m 994.7386,879.71812 c 0.23795,14.3513 0.50078,28.7461 -2.45912,37.5012 -13.27463,-6.0074 -26.00079,-15.4837 -28.89436,-29.5091 0,0 6.33085,11.0904 11.49428,8.0672 5.16344,-3.0231 4.24128,-17.0861 13.40405,-18.8258 3.84743,-0.7305 6.45515,2.7665 6.45515,2.7665 z"
     style="fill:#b3b3b3;stroke:#000000;stroke-width:4;stroke-miterlimit:4;stroke-opacity:1;stroke-dasharray:none"
     id="path4695"
     inkscape:connector-curvature="0" />
  <path
     d="m 1080.0569,842.28772 c 0,0 14.8095,18.5414 12.4308,32.8728 -2.116,12.7478 -14.366,24.7513 -28.2718,23.0365 -21.4164,-2.6409 -58.7048,-37.2729 -58.7048,-37.2729 20.3076,0.2362 32.4343,-13.7377 30.4524,-58.0804 z"
     style="fill:#ffffff;fill-opacity:1;stroke:#000000;stroke-width:4;stroke-miterlimit:4;stroke-opacity:1;stroke-dasharray:none"
     id="path4697"
     inkscape:connector-curvature="0"
     sodipodi:nodetypes="cssccc" />
  <path
     style="fill:#000000;stroke:#000000;stroke-width:2.0999999;stroke-miterlimit:4;stroke-dasharray:none"
     inkscape:connector-curvature="0"
     d="m 343.92871,977.82975 -2.084,-4.458 6.932,-6.812 c 1.227,-1.212 2.023,-2.645 2.389,-4.299 0.365,-1.654 0.177,-3.274 -0.564,-4.859 l -3.563,-7.622 -13.312,6.224 -1.926,-4.118 31.125,-14.553 6.442,13.78 c 1.125,2.405 1.811,4.482 2.059,6.229 0.248,1.747 -0.154,3.452 -1.204,5.116 -1.05,1.664 -2.517,2.937 -4.399,3.816 -2.151,1.006 -4.24,1.224 -6.266,0.653 -2.026,-0.571 -3.765,-1.837 -5.216,-3.797 l -0.085,0.039 c 0.319,2.49 -0.786,5.016 -3.313,7.578 l -7.015,7.083 z m 6.803,-29.776 4.298,9.193 c 1.198,2.562 2.47,4.23 3.816,5.007 1.346,0.776 3.01,0.702 4.992,-0.225 3.538,-1.654 4.269,-4.704 2.191,-9.148 l -4.596,-9.83 -10.701,5.003 z"
     id="path7" />
  <path
     style="fill:#000000;stroke:#000000;stroke-width:2.0999999;stroke-miterlimit:4;stroke-dasharray:none"
     inkscape:connector-curvature="0"
     d="m 370.64671,1009.8197 -17.685,-18.53294 24.858,-23.72101 17.135,17.95701 -2.951,2.815 -13.996,-14.66701 -7.596,7.24801 13.089,13.719 -2.95,2.814 -13.09,-13.718 -8.411,8.025 14.546,15.24394 -2.949,2.817 z"
     id="path9" />
  <path
     style="fill:#000000;stroke:#000000;stroke-width:2.0999999;stroke-miterlimit:4;stroke-dasharray:none"
     inkscape:connector-curvature="0"
     d="m 400.07271,989.14276 11.226,6.192 c 2.463,1.358 4.399,2.726 5.808,4.101 1.41,1.37604 2.179,3.09394 2.309,5.15494 0.13,2.061 -0.326,4.036 -1.368,5.924 -1.675,3.037 -3.912,4.811 -6.708,5.319 -2.797,0.51 -6.022,-0.243 -9.675,-2.259 l -7.573,-4.177 -6.634,12.025 -3.981,-2.196 16.596,-30.08394 z m -4.011,16.68394 7.614,4.2 c 2.558,1.411 4.646,1.938 6.262,1.58 1.616,-0.357 2.922,-1.439 3.918,-3.245 0.664,-1.204 0.952,-2.437 0.863,-3.699 -0.089,-1.263 -0.527,-2.271 -1.314,-3.0269 -0.787,-0.756 -2.051,-1.613 -3.788,-2.57104 l -7.531,-4.155 -6.024,10.91694 z"
     id="path11" />
  <path
     style="fill:#000000;stroke:#000000;stroke-width:2.0999999;stroke-miterlimit:4;stroke-dasharray:none"
     inkscape:connector-curvature="0"
     d="m 431.37971,1040.7377 c -3.835,-1.08 -6.495,-2.633 -7.978,-4.657 -1.483,-2.024 -2.193,-4.115 -2.129,-6.272 0.064,-2.157 0.47,-4.567 1.22,-7.229 l 5.387,-19.131 4.377,1.232 -5.368,19.063 c -1.224,4.347 -1.299,7.409 -0.226,9.188 1.073,1.78 3.016,3.065 5.829,3.857 2.812,0.792 5.141,0.709 6.985,-0.249 1.844,-0.957 3.378,-3.609 4.603,-7.956 l 5.368,-19.063 4.399,1.238 -5.387,19.132 c -1.127,4 -2.435,6.813 -3.923,8.439 -1.489,1.626 -3.328,2.639 -5.518,3.036 -2.19,0.397 -4.737,0.19 -7.639,-0.628 z"
     id="path13" />
  <path
     style="fill:#000000;stroke:#000000;stroke-width:2.0999999;stroke-miterlimit:4;stroke-dasharray:none"
     inkscape:connector-curvature="0"
     d="m 483.95971,1038.5157 c -0.333,3.201 -1.678,5.543 -4.031,7.025 -2.354,1.483 -5.606,2.008 -9.755,1.575 l -12.798,-1.334 3.563,-34.174 12.168,1.269 c 3.636,0.379 6.415,1.454 8.335,3.226 1.92,1.771 2.74,4.009 2.458,6.713 -0.343,3.294 -2.237,5.563 -5.682,6.807 2.148,0.789 3.692,1.991 4.632,3.604 0.939,1.614 1.309,3.377 1.11,5.289 z m -21.639,3.681 8.229,0.858 c 5.408,0.563 8.316,-1.112 8.725,-5.029 0.212,-2.035 -0.258,-3.589 -1.411,-4.659 -1.153,-1.07 -3.377,-1.778 -6.671,-2.121 l -7.646,-0.797 -1.226,11.748 z m 1.648,-15.804 7.599,0.792 c 2.502,0.261 4.385,0.053 5.65,-0.624 1.265,-0.678 1.994,-1.948 2.188,-3.813 0.175,-1.679 -0.269,-3.001 -1.33,-3.968 -1.062,-0.967 -3.015,-1.599 -5.858,-1.896 l -7.18,-0.748 -1.069,10.257 z"
     id="path15" />
  <path
     style="fill:#000000;stroke:#000000;stroke-width:2.0999999;stroke-miterlimit:4;stroke-dasharray:none"
     inkscape:connector-curvature="0"
     d="m 511.93071,1049.8367 -21.224,-1.205 1.947,-34.304 4.54,0.257 -1.716,30.233 16.684,0.946 -0.231,4.073 z"
     id="path17" />
  <path
     style="fill:#000000;stroke:#000000;stroke-width:2.0999999;stroke-miterlimit:4;stroke-dasharray:none"
     inkscape:connector-curvature="0"
     d="m 522.12371,1050.5387 -4.558,-0.339 2.55,-34.265 4.558,0.339 -2.55,34.265 z"
     id="path19" />
  <path
     style="fill:#000000;stroke:#000000;stroke-width:2.0999999;stroke-miterlimit:4;stroke-dasharray:none"
     inkscape:connector-curvature="0"
     d="m 543.54971,1053.2387 c -4.812,-0.684 -8.427,-2.811 -10.847,-6.383 -2.42,-3.571 -3.247,-8.056 -2.479,-13.455 0.767,-5.398 2.811,-9.476 6.13,-12.231 3.319,-2.756 7.384,-3.792 12.195,-3.108 3.697,0.525 6.703,1.971 9.019,4.335 2.315,2.365 3.403,5.203 3.265,8.513 l -4.641,-0.659 c 0.12,-2.177 -0.569,-4.019 -2.067,-5.525 -1.499,-1.507 -3.523,-2.442 -6.076,-2.805 -3.45,-0.49 -6.349,0.31 -8.698,2.397 -2.349,2.09 -3.836,5.338 -4.462,9.747 -0.624,4.394 -0.108,7.923 1.549,10.589 1.657,2.666 4.195,4.241 7.614,4.728 2.66,0.378 4.903,0.034 6.728,-1.032 1.825,-1.066 3.016,-2.791 3.576,-5.174 l 4.641,0.659 c -0.839,3.574 -2.661,6.172 -5.463,7.794 -2.802,1.622 -6.132,2.158 -9.984,1.61 z"
     id="path21" />
  <path
     style="fill:#000000;stroke:#000000;stroke-width:2.0999999;stroke-miterlimit:4;stroke-dasharray:none"
     inkscape:connector-curvature="0"
     d="m 596.72271,1029.3437 c 4.652,1.231 8.042,3.811 10.171,7.736 2.128,3.926 2.508,8.472 1.141,13.637 -1.368,5.166 -3.949,8.928 -7.741,11.285 -3.792,2.358 -8.015,2.921 -12.667,1.688 -4.667,-1.236 -8.072,-3.822 -10.213,-7.76 -2.141,-3.938 -2.53,-8.48 -1.166,-13.632 1.368,-5.166 3.956,-8.925 7.763,-11.279 3.808,-2.353 8.045,-2.912 12.712,-1.675 z m -8.145,30.574 c 3.323,0.88 6.357,0.423 9.104,-1.372 2.746,-1.794 4.679,-4.806 5.799,-9.035 1.12,-4.229 0.935,-7.802 -0.556,-10.718 -1.491,-2.916 -3.875,-4.809 -7.152,-5.677 -3.338,-0.884 -6.388,-0.431 -9.149,1.359 -2.762,1.79 -4.702,4.801 -5.822,9.029 -1.116,4.214 -0.922,7.785 0.582,10.713 1.503,2.929 3.901,4.829 7.194,5.701 z"
     id="path23" />
  <path
     style="fill:#000000;stroke:#000000;stroke-width:2.0999999;stroke-miterlimit:4;stroke-dasharray:none"
     inkscape:connector-curvature="0"
     d="m 639.12571,1045.9507 -17.921,-5.101 -2.913,10.233 15.532,4.421 -1.117,3.923 -15.531,-4.421 -4.26,14.968 -4.374,-1.245 9.406,-33.046 22.294,6.345 -1.116,3.923 z"
     id="path25" />
  <path
     style="fill:#000000;stroke:#000000;stroke-width:2.0999999;stroke-miterlimit:4;stroke-dasharray:none"
     inkscape:connector-curvature="0"
     d="m 679.21571,1054.9697 -11.219,-1.832 -4.88,29.886 -4.511,-0.736 4.88,-29.886 -11.126,-1.817 0.657,-4.024 26.855,4.386 -0.656,4.023 z"
     id="path27" />
  <path
     style="fill:#000000;stroke:#000000;stroke-width:2.0999999;stroke-miterlimit:4;stroke-dasharray:none"
     inkscape:connector-curvature="0"
     d="m 707.53471,1083.7237 -4.563,0.255 -0.902,-16.146 -17.832,0.996 0.902,16.146 -4.54,0.253 -1.917,-34.306 4.54,-0.253 0.787,14.087 17.832,-0.996 -0.787,-14.087 4.563,-0.255 1.917,34.306 z"
     id="path29" />
  <path
     style="fill:#000000;stroke:#000000;stroke-width:2.0999999;stroke-miterlimit:4;stroke-dasharray:none"
     inkscape:connector-curvature="0"
     d="m 742.09771,1074.4257 -24.782,6.486 -8.7,-33.239 24.012,-6.285 1.032,3.945 -19.612,5.134 2.658,10.158 18.343,-4.802 1.033,3.945 -18.344,4.801 2.944,11.247 20.383,-5.336 1.033,3.946 z"
     id="path31" />
  <path
     style="fill:#000000;stroke:#000000;stroke-width:2.0999999;stroke-miterlimit:4;stroke-dasharray:none"
     inkscape:connector-curvature="0"
     d="m 751.24271,1035.6767 12.375,-3.353 c 2.714,-0.735 5.057,-1.099 7.025,-1.09 1.97,0.01 3.717,0.709 5.243,2.101 1.526,1.392 2.571,3.127 3.136,5.209 0.907,3.348 0.532,6.177 -1.124,8.487 -1.657,2.311 -4.499,4.012 -8.525,5.103 l -8.348,2.262 3.592,13.256 -4.389,1.189 -8.985,-33.164 z m 8.716,14.782 8.393,-2.274 c 2.82,-0.764 4.688,-1.836 5.601,-3.217 0.912,-1.38 1.1,-3.065 0.56,-5.057 -0.359,-1.327 -1.01,-2.413 -1.951,-3.259 -0.941,-0.846 -1.958,-1.267 -3.05,-1.263 -1.091,0 -2.595,0.267 -4.51,0.785 l -8.303,2.249 3.26,12.036 z"
     id="path33" />
  <path
     style="fill:#000000;stroke:#000000;stroke-width:2.0999999;stroke-miterlimit:4;stroke-dasharray:none"
     inkscape:connector-curvature="0"
     d="m 816.32271,1054.2557 -4.435,1.105 -3.912,-15.691 -17.329,4.321 3.913,15.692 -4.412,1.101 -8.313,-33.339 4.412,-1.1 3.414,13.689 17.328,-4.32 -3.413,-13.69 4.435,-1.106 8.312,33.338 z"
     id="path35" />
  <path
     style="fill:#000000;stroke:#000000;stroke-width:2.0999999;stroke-miterlimit:4;stroke-dasharray:none"
     inkscape:connector-curvature="0"
     d="m 827.45771,1052.3617 -4.52,0.684 -5.135,-33.974 4.519,-0.684 5.136,33.974 z"
     id="path37" />
  <path
     style="fill:#000000;stroke:#000000;stroke-width:2.0999999;stroke-miterlimit:4;stroke-dasharray:none"
     inkscape:connector-curvature="0"
     d="m 855.78671,1049.8137 -21.188,1.731 -2.797,-34.246 4.531,-0.37 2.466,30.181 16.655,-1.36 0.333,4.064 z"
     id="path39" />
  <path
     style="fill:#000000;stroke:#000000;stroke-width:2.0999999;stroke-miterlimit:4;stroke-dasharray:none"
     inkscape:connector-curvature="0"
     d="m 865.83771,1049.3377 -4.563,0.266 -1.997,-34.302 4.563,-0.266 1.997,34.302 z"
     id="path41" />
  <path
     style="fill:#000000;stroke:#000000;stroke-width:2.0999999;stroke-miterlimit:4;stroke-dasharray:none"
     inkscape:connector-curvature="0"
     d="m 871.96571,1014.7577 12.787,-0.926 c 2.805,-0.203 5.173,-0.112 7.104,0.272 1.932,0.386 3.513,1.406 4.745,3.063 1.232,1.658 1.927,3.562 2.082,5.713 0.251,3.459 -0.658,6.165 -2.726,8.116 -2.068,1.951 -5.182,3.077 -9.343,3.379 l -8.626,0.624 0.992,13.699 -4.535,0.328 -2.48,-34.268 z m 5.729,16.175 8.673,-0.628 c 2.914,-0.211 4.951,-0.906 6.111,-2.087 1.16,-1.181 1.666,-2.8 1.517,-4.856 -0.099,-1.371 -0.53,-2.563 -1.292,-3.572 -0.763,-1.01 -1.68,-1.617 -2.752,-1.822 -1.072,-0.204 -2.599,-0.234 -4.577,-0.091 l -8.579,0.621 0.899,12.435 z"
     id="path43" />
  <path
     style="fill:#000000;stroke:#000000;stroke-width:2.0999999;stroke-miterlimit:4;stroke-dasharray:none"
     inkscape:connector-curvature="0"
     d="m 903.49771,1012.4707 12.583,-2.457 c 2.76,-0.538 5.122,-0.732 7.086,-0.583 1.963,0.15 3.656,0.974 5.079,2.471 1.423,1.498 2.341,3.305 2.754,5.421 0.664,3.404 0.088,6.2 -1.73,8.386 -1.818,2.186 -4.774,3.678 -8.869,4.478 l -8.488,1.656 2.632,13.48 -4.463,0.871 -6.584,-33.723 z m 7.633,15.369 8.534,-1.666 c 2.867,-0.56 4.807,-1.496 5.816,-2.808 1.01,-1.311 1.316,-2.979 0.922,-5.003 -0.264,-1.35 -0.835,-2.479 -1.713,-3.392 -0.879,-0.91 -1.862,-1.403 -2.951,-1.478 -1.089,-0.073 -2.607,0.079 -4.555,0.46 l -8.442,1.647 2.389,12.24 z"
     id="path45" />
  <path
     style="fill:#000000;stroke:#000000;stroke-width:2.0999999;stroke-miterlimit:4;stroke-dasharray:none"
     inkscape:connector-curvature="0"
     d="m 950.26371,1036.1687 -4.319,1.492 -11.224,-32.475 4.319,-1.493 11.224,32.476 z"
     id="path47" />
  <path
     style="fill:#000000;stroke:#000000;stroke-width:2.0999999;stroke-miterlimit:4;stroke-dasharray:none"
     inkscape:connector-curvature="0"
     d="m 986.64569,1018.7717 -4.089,2.243 -28.82398,-15.116 13.04298,23.774 -3.78,2.074 -16.52698,-30.1239 4.068,-2.23104 28.82498,15.11594 -13.044,-23.77394 3.802,-2.086 16.526,30.12394 z"
     id="path49" />
  <path
     style="fill:#000000;stroke:#000000;stroke-width:2.0999999;stroke-miterlimit:4;stroke-dasharray:none"
     inkscape:connector-curvature="0"
     d="m 1018.0207,989.23376 -17.484,18.72294 -25.11101,-23.45094 16.94,-18.14001 2.98,2.783 -13.837,14.81701 7.674,7.166 12.94101,-13.85701 2.98,2.783 -12.94101,13.85701 8.49601,7.93504 14.381,-15.39904 2.981,2.783 z"
     id="path51" />
  <path
     style="fill:#000000;stroke:#000000;stroke-width:2.0999999;stroke-miterlimit:4;stroke-dasharray:none"
     inkscape:connector-curvature="0"
     d="m 1032.2577,963.67775 c -2.061,4.384 -4.583,7.199 -7.569,8.446 -2.985,1.247 -6.046,1.203 -9.183,-0.133 l 1.864,-3.967 c 2.419,0.878 4.588,0.719 6.505,-0.479 1.918,-1.196 3.448,-3.011 4.591,-5.442 1.083,-2.305 1.481,-4.384 1.195,-6.236 -0.286,-1.852 -1.242,-3.16 -2.868,-3.925 -1.711,-0.804 -3.298,-0.66 -4.761,0.431 -1.462,1.091 -3.407,3.237 -5.835,6.438 -2.428,3.201 -4.677,5.261 -6.748,6.178 -2.071,0.917 -4.224,0.851 -6.459,-0.199 -2.517,-1.184 -4.10801,-3.161 -4.77301,-5.934 -0.665,-2.773 -0.213,-5.828 1.355,-9.165 1.64701,-3.507 3.79001,-5.953 6.42701,-7.339 2.636,-1.385 5.469,-1.443 8.499,-0.176 l -1.885,4.01 c -3.954,-1.357 -7.044,0.332 -9.271,5.069 -1.077,2.291 -1.479,4.269 -1.208,5.933 0.271,1.664 1.121,2.831 2.549,3.502 1.302,0.612 2.515,0.565 3.64,-0.141 1.126,-0.705 2.643,-2.297 4.55,-4.776 1.907,-2.479 3.54,-4.392 4.898,-5.739 1.358,-1.347 2.936,-2.306 4.731,-2.878 1.797,-0.571 3.749,-0.361 5.855,0.629 2.673,1.256 4.393,3.363 5.16,6.322 0.767,2.959 0.35,6.149 -1.259,9.571 z"
     id="path53" />
  <path
     style="fill:none;stroke:none"
     d="M 195.58765,924.4856 C 62.71375,651.39453 175.82124,322.76079 448.22021,190.46166 720.61919,58.162525 1049.1578,172.29695 1182.0316,445.38806 1314.9055,718.47916 1201.798,1047.1128 929.39904,1179.412 660.41306,1310.0535 335.8991,1200.5332 199.93601,933.22531"
     id="path4327"
     inkscape:connector-curvature="0" />
  <g
     transform="matrix(0.99901981,-0.04426532,0.04426532,0.99901981,130.14364,93.579884)"
     style="font-size:72px;font-style:normal;font-variant:normal;font-weight:bold;font-stretch:normal;line-height:125%;letter-spacing:0px;word-spacing:0px;fill:#000000;fill-opacity:1;stroke:none;font-family:Swis721 Md BT;-inkscape-font-specification:Swis721 Md BT Bold"
     id="text4329">
    <path
       d="m -38.695815,845.13753 36.0944871,-2.3372 -8.4181111,-20.96063 z m -12.118015,14.35001 -6.605651,-16.44771 68.984314,-61.58906 6.447334,16.05351 -17.48641749,15.19189 11.56125449,28.78689 23.073926,-1.2793 6.312218,15.71708 z"
       style="font-size:120px;letter-spacing:3px;word-spacing:20px"
       id="path4401"
       inkscape:connector-curvature="0" />
    <path
       d="m -76.122501,790.14654 -3.781544,-16.53601 53.382717,-50.55947 -61.717297,14.11385 -3.610101,-15.78632 84.7791747,-19.38776 3.7619501,16.45033 -53.3378148,50.75581 61.7172974,-14.11384 3.5847922,15.67565 z"
       style="font-size:120px;letter-spacing:3px;word-spacing:20px"
       id="path4403"
       inkscape:connector-curvature="0" />
    <path
       d="m -95.552774,696.08306 -5.140016,-68.51229 14.713295,-1.10384 1.942744,25.89524 72.010763,-5.40247 1.241647,16.55017 -72.010764,5.40247 1.955621,26.06688 z"
       style="font-size:120px;letter-spacing:3px;word-spacing:20px"
       id="path4405"
       inkscape:connector-curvature="0" />
    <path
       d="m -99.859992,606.14658 0.425128,-16.70846 86.939636,2.21208 -0.425128,16.70846 z"
       style="font-size:120px;letter-spacing:3px;word-spacing:20px"
       id="path4407"
       inkscape:connector-curvature="0" />
    <path
       d="m -51.267738,573.17738 3.167307,-32.52682 14.397236,1.40193 -3.167307,32.52682 z"
       style="font-size:120px;letter-spacing:3px;word-spacing:20px"
       id="path4409"
       inkscape:connector-curvature="0" />
    <path
       d="m -92.620763,510.20098 5.187363,-22.11962 70.308,-3.39487 -61.405702,-34.56572 5.190707,-22.13387 84.670624,19.85646 -3.6446996,15.54149 -68.0702184,-15.96343 63.8017646,34.16469 -3.60205663,15.35965 -72.26927297,1.9419 68.0702181,15.96344 -3.5661029,15.20634 z"
       style="font-size:120px;letter-spacing:3px;word-spacing:20px"
       id="path4411"
       inkscape:connector-curvature="0" />
    <path
       d="m -34.677551,363.37974 c -3.132848,7.14623 -3.103073,13.83223 0.08933,20.05804 3.192497,6.22591 9.337798,11.33317 18.435919,15.32179 9.073587,3.97792 16.98675651,5.03594 23.7395321,3.17407 6.7527899,-1.8618 11.6971009,-6.36915 14.8329469,-13.52206 3.116226,-7.10809 3.069106,-13.78037 -0.141361,-20.01687 -3.210482,-6.23636 -9.345789,-11.34057 -18.4059401,-15.31265 -9.0847254,-3.98269 -16.9989749,-5.04585 -23.7427709,-3.18948 -6.743727,1.85655 -11.679607,6.35226 -14.807653,13.48716 z m -13.355447,-5.85507 c 5.204241,-11.87068 13.060626,-19.58043 23.569177,-23.12928 10.508629,-3.54865 22.2215159,-2.49156 35.138696,3.17128 12.926133,5.66696 21.642829,13.56293 26.150116,23.68795 4.507243,10.12516 4.156335,21.12868 -1.052723,33.01057 -5.228707,11.92669 -13.079801,19.66542 -23.553306,23.21621 -10.473501,3.55082 -22.1979124,2.48201 -35.17327,-3.20644 -12.964102,-5.6835 -21.69086,-13.58388 -26.180301,-23.70118 -4.489313,-10.1172 -4.12211,-21.13356 1.101611,-33.04911 z"
       style="font-size:120px;letter-spacing:3px;word-spacing:20px"
       id="path4413"
       inkscape:connector-curvature="0" />
    <path
       d="m -13.558078,292.53846 9.3526059,-14.15162 73.4313481,3.71631 -52.818059,-34.9067 8.928589,-13.51004 72.554562,47.95028 -9.304147,14.0783 -73.5424,-3.54827 52.818059,34.9067 -8.865996,13.41532 z"
       style="font-size:120px;letter-spacing:3px;word-spacing:20px"
       id="path4415"
       inkscape:connector-curvature="0" />
    <path
       d="m 46.675781,207.0527 42.70427,-46.65006 10.883209,9.96268 -31.614013,34.53509 14.583885,13.35034 29.170948,-31.86629 10.45912,9.57446 -29.170945,31.86629 17.128435,15.67966 32.66246,-35.68041 11.09391,10.15556 -43.75271,47.79538 z"
       style="font-size:120px;letter-spacing:3px;word-spacing:20px"
       id="path4417"
       inkscape:connector-curvature="0" />
    <path
       d="m 103.4981,146.59203 15.14138,-12.36431 39.73459,17.24893 -9.4745,-41.959 14.22235,-11.613828 10.77321,59.153218 21.71744,26.59528 -12.94307,10.56919 -21.28893,-26.07053 z"
       style="font-size:120px;letter-spacing:3px;word-spacing:20px"
       id="path4419"
       inkscape:connector-curvature="0" />
    <path
       d="m 237.5324,52.668633 15.00864,-7.220735 31.13426,64.714012 37.63708,-18.107406 6.56979,13.655616 -52.64572,25.32814 z"
       style="font-size:120px;letter-spacing:3px;word-spacing:20px"
       id="path4421"
       inkscape:connector-curvature="0" />
    <path
       d="m 346.54991,25.196553 -0.2418,36.169269 21.50741,-6.902484 z m -13.44966,-13.110147 16.87676,-5.4163466 56.51472,73.1992776 -16.47227,5.286533 -13.90669,-18.524906 -29.53782,9.479725 -0.36881,23.10642 -16.12707,5.175741 z"
       style="font-size:120px;letter-spacing:3px;word-spacing:20px"
       id="path4423"
       inkscape:connector-curvature="0" />
    <path
       d="m 403.57629,-8.0398851 16.51371,-2.5550259 8.22558,53.163813 c 1.07844,6.970316 3.30038,11.826837 6.66585,14.569577 3.36541,2.742785 8.10984,3.640454 14.2333,2.69301 6.14992,-0.951512 10.4253,-3.257091 12.82615,-6.916744 2.40073,-3.659601 3.06564,-8.950427 1.99471,-15.872494 l -8.22559,-53.163813 16.51372,-2.555026 8.34877,53.960003 c 1.68648,10.900605 -6.3e-4,19.807606 -5.06134,26.721028 -5.06084,6.913456 -13.08131,11.21961 -24.06145,12.918476 -11.25527,1.741429 -20.23791,0.156194 -26.94796,-4.755711 -6.71008,-4.911886 -10.93564,-12.994241 -12.67668,-24.24709 z"
       style="font-size:120px;letter-spacing:3px;word-spacing:20px"
       id="path4425"
       inkscape:connector-curvature="0" />
    <path
       d="m 506.44215,-21.082279 16.96177,0.195208 36.65542,63.736596 0.72858,-63.306355 16.19277,0.186358 -1.00082,86.962015 -16.87388,-0.194197 -36.85683,-63.7389133 -0.72857,63.3063543 -16.07926,-0.185051 z"
       style="font-size:120px;letter-spacing:3px;word-spacing:20px"
       id="path4427"
       inkscape:connector-curvature="0" />
    <path
       d="m 625.22756,0.10970052 -10.10727,56.91592648 15.7569,2.798147 c 7.8219,1.389047 13.99756,0.07184 18.52698,-3.951616 4.5293,-4.023436 7.69254,-11.09515 9.48974,-21.215162 1.62973,-9.177659 0.99994,-16.417728 -1.88935,-21.72023 -2.88943,-5.302394 -7.90855,-8.5883762 -15.05739,-9.8579566 z m -13.66219,-17.00250852 33.45366,5.940779 c 12.60785,2.2390201 21.4528,7.5123899 26.53486,15.8201252 5.08191,8.3078598 6.37835,19.4700248 3.88935,33.4865278 -2.4388,13.732913 -7.7948,23.727358 -16.06801,29.983366 -8.27336,6.256005 -18.90025,8.231454 -31.8807,5.926354 l -31.1352,-5.529061 z"
       style="font-size:120px;letter-spacing:3px;word-spacing:20px"
       id="path4429"
       inkscape:connector-curvature="0" />
    <path
       d="m 712.05587,3.9809789 59.84084,20.4684451 -4.77518,13.960552 -44.30024,-15.152812 -6.39891,18.707625 40.8768,13.981832 -4.5891,13.416545 -40.8768,-13.981833 -7.51537,21.971671 45.7694,15.655338 -4.86762,14.230828 -61.31001,-20.970976 z"
       style="font-size:120px;letter-spacing:3px;word-spacing:20px"
       id="path4431"
       inkscape:connector-curvature="0" />
    <path
       d="m 807.8903,56.741778 -10.92965,21.005887 16.74364,8.71194 c 4.94657,2.573824 8.86625,3.569551 11.75906,2.987187 2.89266,-0.582325 5.32787,-2.773966 7.30563,-6.574931 1.92126,-3.692622 2.30461,-6.863804 1.15006,-9.513557 -1.15472,-2.64968 -4.14796,-5.231576 -8.97973,-7.745695 z m -7.99829,-20.211932 33.50676,17.434021 c 0.83591,0.435033 1.92611,1.05319 3.27059,1.854475 0.34046,0.213018 0.53191,0.326393 0.57436,0.340126 6.94122,3.611713 11.37965,8.414497 13.31529,14.408365 1.93543,5.993946 1.14921,12.361931 -2.35868,19.103973 -2.30007,4.42037 -5.2781,7.720074 -8.93411,9.899122 -3.65619,2.179072 -7.27242,2.799162 -10.8487,1.860282 2.57063,1.95131 3.98402,4.4515 4.24015,7.50059 0.25598,3.04908 -0.78452,7.12092 -3.12149,12.21553 l -4.94096,11.13053 c -0.0184,0.051 -0.0957,0.20755 -0.23197,0.46963 -1.93755,4.15209 -2.22644,7.23825 -0.86667,9.25851 l -1.98276,3.81069 -15.83075,-8.23696 c -0.0456,-1.84838 0.14679,-3.55503 0.57719,-5.11996 0.4303,-1.56498 1.35545,-3.88388 2.77546,-6.95671 l 4.24921,-9.16631 c 2.11308,-4.68544 2.76462,-8.13403 1.9546,-10.34578 -0.81014,-2.21173 -3.13839,-4.31828 -6.98475,-6.31963 l -2.39427,-1.24577 -15.36945,-7.996932 -16.06993,30.885082 -14.67098,-7.63351 z"
       style="font-size:120px;letter-spacing:3px;word-spacing:20px"
       id="path4433"
       inkscape:connector-curvature="0" />
    <path
       d="m 883.08809,83.286738 13.88265,9.307276 -48.42883,72.236016 -13.88265,-9.30728 z"
       style="font-size:120px;letter-spacing:3px;word-spacing:20px"
       id="path4435"
       inkscape:connector-curvature="0" />
    <path
       d="m 921.65436,109.42036 12.89875,11.01645 -12.68763,72.42236 41.11665,-48.14194 12.31396,10.517 -56.4807,66.13111 -12.83191,-10.95937 12.53447,-72.55316 -41.11666,48.14193 -12.22763,-10.44326 z"
       style="font-size:120px;letter-spacing:3px;word-spacing:20px"
       id="path4437"
       inkscape:connector-curvature="0" />
    <path
       d="m 1026.7287,256.3498 -10.4332,-12.54739 c 3.3887,-4.31009 4.9667,-8.67191 4.7339,-13.08546 -0.2328,-4.41355 -2.0569,-8.67401 -5.4721,-12.7814 -5.1402,-6.18169 -11.1916,-9.27428 -18.15436,-9.27776 -6.96285,-0.003 -14.26064,3.16818 -21.89339,9.51488 -7.49769,6.23432 -11.91617,12.82863 -13.25544,19.78295 -1.33934,6.95429 0.46429,13.40591 5.41089,19.35487 4.18635,5.03469 9.1425,7.82194 14.86846,8.36175 5.72585,0.53975 11.01713,-1.04124 15.87385,-4.74296 l -14.80223,-17.80176 10.7706,-8.95579 24.75072,29.76627 -36.92128,30.70022 -7.45497,-8.96564 6.97101,-8.33019 c -4.4799,0.98165 -9.08474,0.40588 -13.81454,-1.7273 -4.72988,-2.13327 -8.96634,-5.45067 -12.7094,-9.95223 -7.73595,-9.30357 -10.75523,-19.52453 -9.05784,-30.66293 1.69734,-11.13841 7.76378,-21.04619 18.19932,-29.72337 10.6382,-8.84571 21.57329,-13.0319 32.8053,-12.55857 11.2319,0.4734 20.8813,5.56084 28.9482,15.26232 6.7072,8.06646 10.2116,16.29723 10.5134,24.69232 0.3015,8.39508 -2.9908,16.28746 -9.8769,23.67717 z"
       style="font-size:120px;letter-spacing:3px;word-spacing:20px"
       id="path4439"
       inkscape:connector-curvature="0" />
    <path
       d="m 1105.2519,402.8656 -6.7154,-14.88861 c 4.6389,-2.99229 7.4404,-6.62014 8.4047,-10.88356 0.964,-4.26346 0.2692,-9.00458 -2.0846,-14.22337 -3.145,-6.9725 -7.9587,-11.30613 -14.4411,-13.0009 -6.4826,-1.69476 -14.1648,-0.53907 -23.0467,3.46708 -8.9688,4.04529 -15.0866,9.14612 -18.3532,15.30249 -3.2668,6.15633 -3.3834,12.59723 -0.3499,19.32273 2.4091,5.34116 5.9595,9.03536 10.6512,11.0826 4.6916,2.04715 10.0821,1.96801 16.1714,-0.23744 l 6.6943,14.84187 c -9.9028,4.06475 -19.1864,4.18779 -27.8508,0.36913 -8.6645,-3.81879 -15.202,-10.61757 -19.6127,-20.39637 -5.1374,-11.39015 -5.4554,-22.03072 -0.9539,-31.92176 4.5015,-9.89105 13.2062,-17.74758 26.1141,-23.56961 13.028,-5.87621 24.7321,-7.16463 35.1121,-3.86526 10.3799,3.2994 18.2355,10.85891 23.5667,22.67854 4.3173,9.57186 5.3911,18.39979 3.2216,26.48382 -2.1697,8.08396 -7.6789,14.56349 -16.5278,19.43862 z"
       style="font-size:120px;letter-spacing:3px;word-spacing:20px"
       id="path4441"
       inkscape:connector-curvature="0" />
    <path
       d="m 1139.4975,460.66484 c -1.965,-7.55131 -6.1284,-12.78292 -12.4902,-15.69485 -6.362,-2.91196 -14.3499,-3.11712 -23.9638,-0.61551 -9.588,2.49484 -16.4567,6.56393 -20.6063,12.20727 -4.1497,5.64331 -5.2411,12.24415 -3.2744,19.80256 1.9544,7.51106 6.123,12.72116 12.5056,15.6303 6.3825,2.90902 14.3607,3.11798 23.9345,0.62688 9.5997,-2.49797 16.4725,-6.56369 20.6185,-12.19717 4.1458,-5.63356 5.2378,-12.22005 3.2761,-19.75948 z m 14.1126,-3.67219 c 3.2638,12.54369 1.8687,23.46233 -4.1855,32.75594 -6.0543,9.29351 -15.9062,15.71612 -29.5556,19.26788 -13.659,3.55407 -25.3928,2.75134 -35.2015,-2.40818 -9.8088,-5.15967 -16.3467,-14.01724 -19.6137,-26.57272 -3.2793,-12.60283 -1.9063,-23.54095 4.1191,-32.81438 6.0254,-9.27345 15.8936,-15.69401 29.6046,-19.26168 13.699,-3.56459 25.4435,-2.76463 35.2334,2.39988 9.7898,5.16452 16.3228,14.04227 19.5992,26.63326 z"
       style="font-size:120px;letter-spacing:3px;word-spacing:20px"
       id="path4443"
       inkscape:connector-curvature="0" />
    <path
       d="m 1166.6444,528.75458 1.4186,16.64988 -53.6022,4.56684 c -7.0278,0.59873 -12.0251,2.483 -14.9918,5.6528 -2.9667,3.16976 -4.1871,7.84161 -3.661,14.01556 0.5282,6.20064 2.5357,10.62382 6.0224,13.26956 3.4867,2.64563 8.7196,3.67117 15.6988,3.07662 l 53.6021,-4.56683 1.4186,16.64988 -54.405,4.63523 c -10.9904,0.93629 -19.7611,-1.35661 -26.3118,-6.87872 -6.5508,-5.52224 -10.2978,-13.81869 -11.241,-24.88937 -0.9668,-11.34808 1.2296,-20.20113 6.5893,-26.55917 5.3598,-6.35809 13.7124,-10.02043 25.0581,-10.98706 z"
       style="font-size:120px;letter-spacing:3px;word-spacing:20px"
       id="path4445"
       inkscape:connector-curvature="0" />
    <path
       d="m 1172.6327,632.17925 -1.3382,16.91002 -66.0625,32.27569 63.1133,4.99428 -1.2775,16.14338 -86.6967,-6.86049 1.3312,-16.82241 66.0784,-32.47647 -63.1133,-4.99429 1.2685,-16.03021 z"
       style="font-size:120px;letter-spacing:3px;word-spacing:20px"
       id="path4447"
       inkscape:connector-curvature="0" />
    <path
       d="m 1115.587,801.67482 3.9392,-15.85086 c 5.4956,0.52042 9.9414,-0.59544 13.3373,-3.34759 3.3958,-2.75229 5.7841,-6.90645 7.1649,-12.46247 1.8447,-7.42319 0.7456,-13.80628 -3.2975,-19.14927 -4.0432,-5.34309 -10.7927,-9.18959 -20.2487,-11.53953 -9.5485,-2.37297 -17.5106,-2.15237 -23.8866,0.66178 -6.3759,2.81408 -10.4536,7.8012 -12.233,14.96138 -1.4132,5.68635 -0.9106,10.78535 1.5077,15.29701 2.4184,4.51154 6.7015,7.78535 12.8495,9.82145 l -3.9268,15.80111 c -10.2941,-2.93569 -17.6625,-8.58436 -22.1051,-16.94603 -4.4425,-8.36182 -5.3702,-17.74812 -2.783,-28.15893 3.0136,-12.1263 9.349,-20.68119 19.0061,-25.66469 9.6572,-4.98354 21.3568,-5.76773 35.099,-2.35258 13.8701,3.44692 23.8609,9.67813 29.9725,18.69366 6.1114,9.01545 7.6036,19.81497 4.4764,32.39857 -2.5325,10.19044 -7.1524,17.78931 -13.8594,22.79663 -6.7073,5.00714 -15.0447,6.68726 -25.0125,5.04036 z"
       style="font-size:120px;letter-spacing:3px;word-spacing:20px"
       id="path4449"
       inkscape:connector-curvature="0" />
    <path
       d="m 1133.8623,833.71224 -5.869,15.64955 -81.4298,-30.53826 5.869,-15.64955 z"
       style="font-size:120px;letter-spacing:3px;word-spacing:20px"
       id="path4451"
       inkscape:connector-curvature="0" />
    <path
       d="m 1117.5407,875.47178 -7.3263,14.95735 -64.4929,-31.58972 -18.3723,37.50849 -13.609,-6.6659 25.6987,-52.46585 z"
       style="font-size:120px;letter-spacing:3px;word-spacing:20px"
       id="path4453"
       inkscape:connector-curvature="0" />
  </g>
  <path
     style="fill:none;stroke:none"
     d="M 501.43445,1295.2059 C 839.75316,1404.2247 1201.7485,1218.7773 1309.9735,880.99785 1418.1985,543.21833 1231.6707,181.01683 893.35191,71.998152 555.03318,-37.020534 193.03797,148.42677 84.81287,486.20625 -22.056104,819.75358 158.46131,1178.0491 490.5914,1291.6057"
     id="path4327-3"
     inkscape:connector-curvature="0" />
  <g
     style="font-size:72px;font-style:normal;font-variant:normal;font-weight:bold;font-stretch:normal;line-height:125%;letter-spacing:0px;word-spacing:0px;fill:#000000;fill-opacity:1;stroke:none;font-family:Swis721 BdCnOul BT;-inkscape-font-specification:Sans Bold"
     id="text4354"
     transform="translate(152.81814,69.120923)">
    <path
       d="m 372.6344,1218.647 39.85808,10.6252 -3.66657,13.7543 -57.28184,-15.27 0.39052,-1.4649 c 1.98091,-7.431 5.31246,-13.308 9.99467,-17.6311 4.68217,-4.3231 11.62,-7.8618 20.81349,-10.616 1.21182,-0.3566 2.9803,-0.8629 5.30544,-1.5191 11.97916,-3.29 18.77213,-7.9487 20.37893,-13.976 0.94135,-3.5315 0.54599,-6.7187 -1.18607,-9.5619 -1.73217,-2.8431 -4.4477,-4.7577 -8.1466,-5.7438 -4.05049,-1.0797 -7.59142,-0.6207 -10.6228,1.377 -3.03147,1.9978 -5.18359,5.384 -6.45637,10.1586 l -0.62729,2.3532 -14.75923,-3.9345 0.44995,-1.6879 c 2.41229,-9.0491 6.82998,-15.4913 13.25309,-19.3264 6.42304,-3.835 14.09195,-4.5643 23.00675,-2.1879 8.2235,2.1923 14.25297,6.2884 18.08845,12.2883 3.83533,6 4.74528,12.7803 2.72985,20.3409 -1.47161,5.5202 -4.29496,10.0098 -8.47005,13.4687 -4.17524,3.459 -10.09747,6.247 -17.76673,8.3639 l -1.64257,-0.2218 c -13.56786,4.1122 -21.44889,7.5826 -23.6431,10.4112 z"
       style="font-size:120px;letter-spacing:40px;font-family:Swis721 Md BT;-inkscape-font-specification:Swis721 Md BT Bold"
       id="path4391"
       inkscape:connector-curvature="0" />
    <path
       d="m 493.13925,1183.987 c -4.5572,-0.4324 -8.18143,1.5663 -10.87272,5.996 -2.69134,4.4299 -4.53466,11.8886 -5.52996,22.3761 -0.98774,10.4074 -0.57458,18.0116 1.23948,22.8126 1.814,4.801 5.00081,7.4179 9.56043,7.8506 4.6276,0.4392 8.2853,-1.5244 10.97309,-5.8909 2.6877,-4.3664 4.52612,-11.7605 5.51527,-22.1825 0.99297,-10.4632 0.58265,-18.1296 -1.23094,-22.9993 -1.8137,-4.8696 -5.03191,-7.5238 -9.65465,-7.9626 z m 1.30165,-13.7152 c 9.9941,0.9486 17.16077,5.352 21.50002,13.2104 4.33913,7.8585 5.8369,18.8665 4.49334,33.0241 -1.33747,14.0919 -4.86282,24.5772 -10.57606,31.4559 -5.71335,6.8787 -13.59138,9.8414 -23.6341,8.8883 -9.96987,-0.9462 -17.10262,-5.3323 -21.39827,-13.1584 -4.29567,-7.8261 -5.77088,-18.8265 -4.42563,-33.0011 1.34501,-14.1721 4.86224,-24.6882 10.55172,-31.5484 5.68945,-6.86 13.5191,-9.8169 23.48898,-8.8708 z"
       style="font-size:120px;letter-spacing:40px;font-family:Swis721 Md BT;-inkscape-font-specification:Swis721 Md BT Bold"
       id="path4393"
       inkscape:connector-curvature="0" />
    <path
       d="m 588.19018,1184.9469 c -4.56551,0.3334 -7.80584,2.9082 -9.72099,7.7247 -1.91519,4.8166 -2.48931,12.4782 -1.72236,22.9848 0.76106,10.4264 2.4361,17.8553 5.02512,22.2867 2.58898,4.4315 6.16744,6.4805 10.7354,6.147 4.63606,-0.3384 7.91523,-2.8843 9.8375,-7.6377 1.92218,-4.7533 2.50223,-12.3505 1.74014,-22.7915 -0.76521,-10.4823 -2.44782,-17.9731 -5.04785,-22.4723 -2.60011,-4.4991 -6.21576,-6.5796 -10.84696,-6.2417 z m -1.00297,-13.7403 c 10.01239,-0.7307 17.81285,2.4164 23.40142,9.4414 5.58847,7.0252 8.90039,17.6295 9.93577,31.8129 1.03046,14.1177 -0.69759,25.044 -5.18417,32.7788 -4.48669,7.7349 -11.76057,11.9695 -21.82164,12.7039 -9.9881,0.7291 -17.75224,-2.4066 -23.29244,-9.4071 -5.54022,-7.0005 -8.82861,-17.6009 -9.86517,-31.8015 -1.03639,-14.198 0.67853,-25.1533 5.14477,-32.8659 4.46622,-7.7125 11.69337,-11.9333 21.68146,-12.6625 z"
       style="font-size:120px;letter-spacing:40px;font-family:Swis721 Md BT;-inkscape-font-specification:Swis721 Md BT Bold"
       id="path4395"
       inkscape:connector-curvature="0" />
    <path
       d="m 677.59774,1156.9694 12.30438,-3.0102 20.10699,82.1892 -15.28176,3.7386 -13.63847,-55.7485 -18.75003,4.587 -2.82308,-11.5396 c 7.66222,-1.8744 12.7526,-4.2369 15.27114,-7.0875 2.51852,-2.8505 3.45546,-7.2269 2.81083,-13.129 z"
       style="font-size:120px;letter-spacing:40px;font-family:Swis721 Md BT;-inkscape-font-specification:Swis721 Md BT Bold"
       id="path4397"
       inkscape:connector-curvature="0" />
  </g>
  <path
     style="fill:#000000;stroke:none"
     inkscape:transform-center-x="2.3224129"
     inkscape:transform-center-y="1.8402173"
     d="m 250.60476,1135.3421 -4.86433,-29.9402 -31.0416,-5.5701 28.1725,-13.691 -4.07151,-30.049 22.27589,21.4787 28.52527,-13.0012 -14.40524,26.9656 21.7011,22.0138 -31.17883,-4.813 z"
     id="path4363"
     inkscape:connector-curvature="0" />
  <path
     style="fill:#000000;stroke:none"
     inkscape:transform-center-x="-2.3224147"
     inkscape:transform-center-y="1.8402173"
     d="m 1126.4477,1145.59 4.8643,-29.9402 31.0416,-5.5701 -28.1725,-13.6911 4.0715,-30.0489 -22.2758,21.4786 -28.5253,-13.0011 14.4052,26.9656 -21.7011,22.0137 31.1789,-4.813 z"
     id="path4363-2"
     inkscape:connector-curvature="0" />
  <path
     style="fill:none;stroke:none"
     d="m 259.52334,1095.1325 861.11146,7.0664"
     id="path4383"
     inkscape:connector-curvature="0" />
</svg>
