<?xml version="1.0" encoding="UTF-8" standalone="no"?>
<!-- Created with Inkscape (http://www.inkscape.org/) -->

<svg
   width="700.00006"
   height="263.98438"
   viewBox="0 0 185.20835 69.845866"
   version="1.1"
   id="svg5"
   inkscape:version="1.3 (0e150ed6c4, 2023-07-21)"
   sodipodi:docname="philsa trial.svg"
   xml:space="preserve"
   xmlns:inkscape="http://www.inkscape.org/namespaces/inkscape"
   xmlns:sodipodi="http://sodipodi.sourceforge.net/DTD/sodipodi-0.dtd"
   xmlns="http://www.w3.org/2000/svg"
   xmlns:svg="http://www.w3.org/2000/svg"><sodipodi:namedview
     id="namedview7"
     pagecolor="#ffffff"
     bordercolor="#666666"
     borderopacity="1.0"
     inkscape:pageshadow="2"
     inkscape:pageopacity="0.0"
     inkscape:pagecheckerboard="0"
     inkscape:document-units="mm"
     showgrid="false"
     inkscape:zoom="0.66012084"
     inkscape:cx="881.65676"
     inkscape:cy="-821.81923"
     inkscape:window-width="1920"
     inkscape:window-height="974"
     inkscape:window-x="-11"
     inkscape:window-y="-11"
     inkscape:window-maximized="1"
     inkscape:current-layer="layer1"
     inkscape:showpageshadow="2"
     inkscape:deskcolor="#d1d1d1" /><defs
     id="defs2" /><g
     inkscape:label="Layer 1"
     inkscape:groupmode="layer"
     id="layer1"
     transform="translate(-121.89536,270.88617)"><g
       id="g10"
       transform="matrix(0.8799479,0,0,0.8799479,14.633793,-32.520453)"><path
         id="path47"
         style="font-weight:bold;font-size:49.3433px;line-height:1;font-family:Arial;-inkscape-font-specification:'Arial Bold';letter-spacing:-0.862542px;word-spacing:0px;fill:#262626;fill-opacity:1;stroke-width:0.685982;paint-order:stroke fill markers"
         d="m 220.63187,-270.67529 v 17.45914 h 3.52528 v -6.58594 h 2.29844 c 1.59585,0 2.81448,-0.0833 3.65606,-0.25007 0.6193,-0.13498 1.22682,-0.40888 1.8223,-0.82174 0.6034,-0.4208 1.09964,-0.99632 1.48868,-1.72676 0.38904,-0.73044 0.58342,-1.6317 0.58342,-2.70355 0,-1.38944 -0.33743,-2.5209 -1.0123,-3.39425 -0.67487,-0.88129 -1.51235,-1.45275 -2.51273,-1.71477 -0.65105,-0.17466 -2.04855,-0.26206 -4.19223,-0.26206 z m 15.8062,0 v 17.45914 h 3.34649 v -6.33588 c 0,-1.06389 0.0994,-1.8658 0.29783,-2.4057 0.20644,-0.54783 0.52786,-0.95666 0.96454,-1.22661 0.43668,-0.26994 0.93291,-0.40487 1.48868,-0.40487 0.48432,0 0.88528,0.10728 1.20286,0.3216 0.32552,0.20642 0.55191,0.48822 0.67896,0.8455 0.12702,0.35728 0.19056,1.19883 0.19056,2.52474 v 6.68122 h 3.34647 v -7.41943 c 0,-1.13537 -0.0595,-1.97311 -0.17855,-2.513 -0.11112,-0.53989 -0.3256,-1.03206 -0.64318,-1.47669 -0.30965,-0.44461 -0.77412,-0.81 -1.39342,-1.09581 -0.61928,-0.28583 -1.31398,-0.42863 -2.08411,-0.42863 -1.50059,0 -2.79085,0.63116 -3.87064,1.89356 v -6.41914 z m 14.48432,0 v 3.0964 h 3.34648 v -3.0964 z m 6.34992,0 v 17.45914 h 3.34648 v -17.45914 z m 6.35017,0 v 3.0964 h 3.34649 v -3.0964 z m 36.34106,0 v 3.0964 h 3.34649 v -3.0964 z m -75.80639,2.95362 h 1.703 c 1.27034,0 2.11596,0.0396 2.53675,0.11904 0.57165,0.1032 1.04401,0.36112 1.41717,0.77398 0.37316,0.41286 0.55966,0.93705 0.55966,1.57221 0,0.51608 -0.13492,0.96861 -0.40487,1.35765 -0.26199,0.38904 -0.62713,0.6749 -1.09557,0.85751 -0.46842,0.18261 -1.39739,0.27383 -2.78682,0.27383 h -1.92932 z m 53.04386,1.57196 c -0.8416,0 -1.60768,0.19844 -2.29842,0.59543 -0.69075,0.39698 -1.23857,0.91303 -1.64348,1.5482 v -1.85779 h -3.12016 v 17.45914 h 3.34647 v -6.37163 c 0.62723,0.67485 1.22256,1.15129 1.78627,1.42917 0.57166,0.27788 1.20689,0.41687 1.90557,0.41687 1.46882,0 2.71946,-0.58364 3.75161,-1.75076 1.03215,-1.17507 1.5482,-2.81853 1.5482,-4.93045 0,-2.05636 -0.51224,-3.66018 -1.53646,-4.81142 -1.0242,-1.15125 -2.27077,-1.72676 -3.7396,-1.72676 z m 14.95638,0 c -0.84161,0 -1.6077,0.19844 -2.29843,0.59543 -0.69076,0.39698 -1.23857,0.91303 -1.64349,1.5482 v -1.85779 h -3.12017 v 17.45914 h 3.34648 v -6.37163 c 0.62723,0.67485 1.22257,1.15129 1.78628,1.42917 0.57165,0.27788 1.20688,0.41687 1.90557,0.41687 1.46882,0 2.71946,-0.58364 3.75161,-1.75076 1.03214,-1.17507 1.5482,-2.81853 1.5482,-4.93045 0,-2.05636 -0.51224,-3.66018 -1.53646,-4.81142 -1.02421,-1.15125 -2.27077,-1.72676 -3.73959,-1.72676 z m 21.40896,0 c -1.67526,0 -3.06462,0.7145 -4.16823,2.14363 v -1.85779 h -3.10842 v 12.64772 h 3.34649 v -5.72844 c 0,-1.41324 0.0833,-2.38184 0.25007,-2.90586 0.17468,-0.52401 0.49229,-0.94478 0.95279,-1.26236 0.4605,-0.31759 0.98061,-0.4764 1.5602,-0.4764 0.45256,0 0.83777,0.111 1.15535,0.33335 0.32552,0.22231 0.55955,0.53611 0.70246,0.94103 0.1429,0.39698 0.21457,1.27816 0.21457,2.64378 v 6.4549 h 3.34647 v -7.86006 c 0,-0.97657 -0.0635,-1.7269 -0.19056,-2.25092 -0.11904,-0.52402 -0.3376,-0.99256 -0.65518,-1.40542 -0.30965,-0.41286 -0.77007,-0.7503 -1.38142,-1.01229 -0.61135,-0.26995 -1.28621,-0.40487 -2.02459,-0.40487 z m 12.78822,0 c -1.67526,0 -3.06057,0.59533 -4.15623,1.78627 -1.09566,1.18301 -1.64348,2.82265 -1.64348,4.91869 0,1.75467 0.4167,3.20756 1.25036,4.3588 1.05597,1.43707 2.68367,2.15563 4.88295,2.15563 1.38942,0 2.54453,-0.31761 3.46551,-0.95279 0.92895,-0.64309 1.60786,-1.57586 2.03661,-2.79856 l -3.33474,-0.55992 c -0.18261,0.63517 -0.45246,1.09584 -0.80974,1.38166 -0.35727,0.28583 -0.79788,0.42863 -1.32188,0.42863 -0.77015,0 -1.41324,-0.27391 -1.92931,-0.82175 -0.51608,-0.55576 -0.78617,-1.32998 -0.80999,-2.32243 h 8.38421 c 0.0476,-2.56449 -0.47224,-4.46585 -1.55996,-5.70443 -1.08772,-1.24652 -2.57263,-1.8698 -4.45431,-1.8698 z m -75.43218,0.28584 v 12.64772 h 3.34648 v -12.64772 z m 12.70009,0 v 12.64772 h 3.34649 v -12.64772 z m 36.34106,0 v 12.64772 h 3.34649 v -12.64772 z m 26.59359,2.27466 c 0.6828,0 1.26239,0.2541 1.73875,0.76223 0.47638,0.50019 0.72641,1.23452 0.75023,2.20315 h -5.00197 c -0.008,-0.91306 0.22633,-1.63543 0.7027,-2.16739 0.47638,-0.53195 1.07985,-0.79799 1.81029,-0.79799 z m -50.26113,0.0833 c 0.78603,0 1.44513,0.32167 1.97709,0.96479 0.53196,0.64309 0.79773,1.62745 0.79773,2.95335 0,1.4212 -0.25791,2.44544 -0.77397,3.07265 -0.51608,0.6193 -1.16325,0.92903 -1.94134,0.92903 -0.80983,0 -1.49664,-0.33743 -2.06035,-1.0123 -0.56371,-0.6828 -0.8455,-1.73474 -0.8455,-3.15591 0,-1.23858 0.26985,-2.17161 0.80974,-2.79883 0.53989,-0.63518 1.21883,-0.95278 2.0366,-0.95278 z m 14.95636,0 c 0.78602,0 1.44515,0.32167 1.9771,0.96479 0.53194,0.64309 0.79772,1.62745 0.79772,2.95335 0,1.4212 -0.25789,2.44544 -0.77396,3.07265 -0.51609,0.6193 -1.16326,0.92903 -1.94134,0.92903 -0.80983,0 -1.49664,-0.33743 -2.06035,-1.0123 -0.56371,-0.6828 -0.8455,-1.73474 -0.8455,-3.15591 0,-1.23858 0.26985,-2.17161 0.80974,-2.79883 0.53989,-0.63518 1.21883,-0.95278 2.03659,-0.95278 z m -64.51095,20.17596 c -1.34179,0 -2.48901,0.20251 -3.44176,0.60744 -0.94481,0.40492 -1.67126,0.99643 -2.17938,1.77451 -0.50021,0.77015 -0.75048,1.59976 -0.75048,2.48898 0,1.3815 0.53612,2.55261 1.60797,3.51329 0.76221,0.6828 2.08805,1.25858 3.97767,1.72702 1.46883,0.36522 2.40973,0.61932 2.82258,0.76222 0.60342,0.21437 1.0242,0.46846 1.26238,0.76222 0.24612,0.28584 0.3691,0.63521 0.3691,1.04807 0,0.6431 -0.28966,1.20667 -0.86924,1.69099 -0.57166,0.47639 -1.42541,0.71472 -2.56077,0.71472 -1.07184,0 -1.92534,-0.27011 -2.56051,-0.81 -0.62722,-0.53988 -1.04393,-1.38551 -1.25036,-2.53674 l -3.43001,0.3336 c 0.23024,1.95313 0.93687,3.44185 2.11987,4.46606 1.183,1.01627 2.8783,1.5242 5.0855,1.5242 1.51647,0 2.78286,-0.21039 3.79913,-0.63118 1.01626,-0.42875 1.80216,-1.07972 2.35794,-1.95308 0.55577,-0.87335 0.83374,-1.81019 0.83374,-2.81057 0,-1.10362 -0.23427,-2.02851 -0.7027,-2.77482 -0.46051,-0.75426 -1.10361,-1.34579 -1.92932,-1.77453 -0.81778,-0.43668 -2.08417,-0.85744 -3.79912,-1.26236 -1.71495,-0.40493 -2.79483,-0.7942 -3.23946,-1.16736 -0.34934,-0.29376 -0.52389,-0.64696 -0.52389,-1.0598 0,-0.45256 0.18649,-0.81388 0.55965,-1.08382 0.57959,-0.42082 1.3815,-0.6312 2.40571,-0.6312 0.99245,0 1.73492,0.19844 2.22716,0.59544 0.50019,0.38904 0.82568,1.03213 0.97654,1.9293 l 3.52503,-0.15479 c -0.0556,-1.6038 -0.63895,-2.88594 -1.75051,-3.84662 -1.1036,-0.9607 -2.75112,-1.44119 -4.94246,-1.44119 z m 16.4139,4.82344 c -0.8416,0 -1.60768,0.19844 -2.29843,0.59541 -0.69074,0.39699 -1.23855,0.91305 -1.64349,1.54821 v -1.8578 h -3.12016 v 17.45914 h 3.34648 v -6.37163 c 0.62724,0.67487 1.22257,1.15128 1.78628,1.42918 0.57166,0.27788 1.20688,0.41688 1.90556,0.41688 1.46883,0 2.71946,-0.58366 3.75161,-1.75078 1.03215,-1.17505 1.54821,-2.81851 1.54821,-4.93045 0,-2.05636 -0.51225,-3.66018 -1.53646,-4.81141 -1.02421,-1.15125 -2.27078,-1.72675 -3.7396,-1.72675 z m 13.23242,0 c -1.6435,0 -2.88194,0.29372 -3.7156,0.88124 -0.83365,0.58753 -1.42112,1.49261 -1.76252,2.7153 l 3.03666,0.54792 c 0.20641,-0.58753 0.47652,-0.99636 0.80998,-1.22662 0.33346,-0.23818 0.79793,-0.35734 1.39341,-0.35734 0.88129,0 1.48069,0.13898 1.79828,0.41686 0.31758,0.26996 0.47639,0.72656 0.47639,1.36966 v 0.33335 c -0.60341,0.25406 -1.6871,0.52797 -3.25121,0.82173 -1.15917,0.22233 -2.04849,0.48429 -2.66779,0.78598 -0.61134,0.29377 -1.08776,0.72269 -1.42916,1.2864 -0.3414,0.55577 -0.51216,1.19074 -0.51216,1.9053 0,1.07978 0.37326,1.97316 1.11958,2.67979 0.75426,0.70662 1.78257,1.05982 3.08466,1.05982 0.73839,0 1.43307,-0.139 2.08412,-0.41688 0.65104,-0.2779 1.26238,-0.69461 1.83403,-1.25037 0.0238,0.0635 0.0634,0.19438 0.11904,0.39286 0.12703,0.43668 0.23426,0.76624 0.32159,0.98855 h 3.31074 c -0.29378,-0.60341 -0.49629,-1.16699 -0.60744,-1.69099 -0.1032,-0.53196 -0.1548,-1.35369 -0.1548,-2.46524 l 0.0358,-3.90639 c 0,-1.45295 -0.15094,-2.44949 -0.45263,-2.98939 -0.29377,-0.54784 -0.80577,-0.99629 -1.53621,-1.34565 -0.73045,-0.35727 -1.84209,-0.53589 -3.33474,-0.53589 z m 14.50398,0 c -1.88168,0 -3.37446,0.58364 -4.47807,1.75076 -1.10361,1.15918 -1.65523,2.78282 -1.65523,4.87093 0,2.06429 0.54781,3.6798 1.64348,4.84692 1.1036,1.16712 2.58038,1.75078 4.43031,1.75078 1.62761,0 2.92577,-0.38495 3.89439,-1.1551 0.96863,-0.77013 1.62368,-1.90947 1.96508,-3.41801 l -3.28722,-0.55992 c -0.16674,0.88131 -0.45258,1.50459 -0.8575,1.86982 -0.40492,0.35728 -0.92479,0.5359 -1.55996,0.5359 -0.84954,0 -1.52847,-0.30948 -2.0366,-0.92878 -0.50019,-0.61928 -0.75022,-1.67934 -0.75022,-3.17994 0,-1.34972 0.24622,-2.31043 0.73848,-2.8821 0.50019,-0.57959 1.16692,-0.86924 2.00058,-0.86924 0.62722,0 1.13541,0.16668 1.52444,0.50014 0.39698,0.33346 0.65107,0.82971 0.76223,1.48869 l 3.29897,-0.59543 c -0.39698,-1.35767 -1.05202,-2.36616 -1.96508,-3.02514 -0.90511,-0.66692 -2.1278,-1.00028 -3.66808,-1.00028 z m 13.5558,0 c -1.67525,0 -3.06081,0.59558 -4.15647,1.78652 -1.09567,1.183 -1.64348,2.8224 -1.64348,4.91844 0,1.75465 0.4167,3.20754 1.25036,4.35878 1.05597,1.43706 2.68367,2.15565 4.88295,2.15565 1.38942,0 2.54478,-0.31763 3.46577,-0.95279 0.92893,-0.6431 1.6076,-1.57588 2.03635,-2.79858 l -3.33449,-0.55992 c -0.18262,0.63517 -0.45271,1.09584 -0.80999,1.38167 -0.35729,0.28583 -0.79788,0.42863 -1.32188,0.42863 -0.77015,0 -1.41324,-0.27392 -1.92933,-0.82174 -0.51606,-0.55578 -0.78591,-1.32973 -0.80973,-2.32218 h 8.38422 c 0.0476,-2.5645 -0.4725,-4.46611 -1.56022,-5.70469 -1.08771,-1.24651 -2.57237,-1.86979 -4.45406,-1.86979 z m 0.20232,2.5605 c 0.6828,0 1.26237,0.25408 1.73875,0.76221 0.47638,0.50021 0.72665,1.23453 0.75048,2.20315 h -5.00197 c -0.008,-0.91304 0.22633,-1.63543 0.7027,-2.16739 0.47638,-0.53195 1.0796,-0.79797 1.81004,-0.79797 z m -42.39954,0.0833 c 0.78602,0 1.44488,0.32167 1.97683,0.96478 0.53195,0.64311 0.79799,1.6277 0.79799,2.95362 0,1.42118 -0.25791,2.44517 -0.77398,3.0724 -0.51608,0.61928 -1.16324,0.92902 -1.94132,0.92902 -0.80984,0 -1.49664,-0.33743 -2.06036,-1.01229 -0.56371,-0.68281 -0.8455,-1.73474 -0.8455,-3.15593 0,-1.23858 0.26985,-2.1716 0.80974,-2.79883 0.5399,-0.63516 1.21882,-0.95277 2.0366,-0.95277 z m 16.17404,4.21598 v 0.66695 c 0,0.8019 -0.0437,1.34591 -0.13104,1.63173 -0.12703,0.43668 -0.39307,0.80588 -0.79799,1.10758 -0.54783,0.39698 -1.12334,0.59542 -1.72676,0.59542 -0.53989,0 -0.98455,-0.17074 -1.33389,-0.51215 -0.34934,-0.3414 -0.5239,-0.74641 -0.5239,-1.21486 0,-0.47637 0.21826,-0.86919 0.65494,-1.17884 0.28583,-0.19055 0.8931,-0.38518 1.82204,-0.58368 0.92893,-0.19849 1.60786,-0.36923 2.0366,-0.51215 z m -32.76674,16.1628 -6.80025,17.45914 h 3.7396 l 1.44092,-3.96592 h 6.97906 l 1.52445,3.96592 h 3.83463 l -6.99081,-17.45914 z m 1.82229,4.07296 2.40571,6.47864 h -4.76391 z m 14.90094,0.45264 c -1.51646,0 -2.78666,0.55975 -3.81087,1.67923 -1.01627,1.11948 -1.52445,2.73905 -1.52445,4.85893 0,1.69114 0.38901,3.10439 1.16709,4.23976 0.99246,1.43706 2.33811,2.15562 4.03719,2.15562 1.5244,0 2.78698,-0.68274 3.78737,-2.04834 v 1.84604 c 0,0.74632 -0.0518,1.25831 -0.15505,1.53621 -0.15085,0.38904 -0.37293,0.67081 -0.66669,0.84548 -0.43668,0.26201 -1.09173,0.39312 -1.96509,0.39312 -0.6828,0 -1.18311,-0.11916 -1.50069,-0.35735 -0.23024,-0.16674 -0.37711,-0.4724 -0.44062,-0.91703 l -3.82288,-0.46437 c -0.008,0.15878 -0.012,0.2937 -0.012,0.40487 0,1.12741 0.44872,2.05638 1.3459,2.78682 0.89718,0.73837 2.4174,1.10756 4.56109,1.10756 1.13537,0 2.07245,-0.11916 2.81083,-0.35735 0.74632,-0.23819 1.34166,-0.56774 1.78627,-0.98855 0.44463,-0.42079 0.78993,-1.00036 1.03606,-1.73875 0.24612,-0.73838 0.36936,-1.85384 0.36936,-3.34649 v -11.34958 h -3.13217 v 1.77451 c -1.01627,-1.37355 -2.30654,-2.06034 -3.87064,-2.06034 z m 14.71065,0 c -1.67526,0 -3.06083,0.59532 -4.15649,1.78626 -1.09566,1.18299 -1.64349,2.82265 -1.64349,4.9187 0,1.75465 0.41672,3.20754 1.25037,4.35879 1.05597,1.43707 2.68367,2.15563 4.88294,2.15563 1.38943,0 2.54453,-0.31762 3.46552,-0.95279 0.92893,-0.64309 1.60787,-1.57586 2.0366,-2.79857 l -3.33447,-0.55991 c -0.18262,0.63516 -0.45272,1.09583 -0.81,1.38165 -0.35728,0.28584 -0.79788,0.42864 -1.32189,0.42864 -0.77013,0 -1.41325,-0.27391 -1.92932,-0.82175 -0.51606,-0.55577 -0.78616,-1.32998 -0.80999,-2.32243 h 8.38422 c 0.0476,-2.56449 -0.47222,-4.46586 -1.55995,-5.70444 -1.08773,-1.2465 -2.57238,-1.86978 -4.45405,-1.86978 z m 15.93748,0 c -1.67524,0 -3.06462,0.71449 -4.16822,2.14362 v -1.85779 h -3.10842 v 12.64771 h 3.34649 v -5.72843 c 0,-1.41325 0.0833,-2.38184 0.25007,-2.90586 0.17467,-0.524 0.4923,-0.94478 0.95278,-1.26236 0.4605,-0.31758 0.98063,-0.47639 1.56021,-0.47639 0.45257,0 0.8375,0.111 1.15509,0.33333 0.32552,0.22233 0.55979,0.53613 0.70271,0.94103 0.14291,0.39699 0.21431,1.27817 0.21431,2.64378 v 6.4549 h 3.34649 v -7.86006 c 0,-0.97656 -0.0635,-1.7269 -0.19056,-2.25091 -0.11904,-0.52401 -0.33736,-0.99256 -0.65494,-1.40542 -0.30965,-0.41286 -0.77006,-0.75029 -1.38141,-1.0123 -0.61134,-0.26994 -1.28621,-0.40485 -2.0246,-0.40485 z m 13.20356,0 c -1.88169,0 -3.37421,0.58363 -4.47782,1.75075 -1.1036,1.15919 -1.65549,2.78282 -1.65549,4.87094 0,2.06429 0.54782,3.6798 1.64349,4.84692 1.1036,1.16712 2.58038,1.75077 4.4303,1.75077 1.62762,0 2.92578,-0.38495 3.89441,-1.15509 0.96862,-0.77013 1.62367,-1.90948 1.96507,-3.418 l -3.28697,-0.55991 c -0.16673,0.88128 -0.45258,1.50457 -0.8575,1.86978 -0.40491,0.3573 -0.92504,0.53592 -1.56021,0.53592 -0.84954,0 -1.52821,-0.30948 -2.03634,-0.92878 -0.5002,-0.61928 -0.75048,-1.67935 -0.75048,-3.17994 0,-1.34972 0.24621,-2.31044 0.73848,-2.88209 0.50018,-0.5796 1.16718,-0.86925 2.00082,-0.86925 0.62724,0 1.13541,0.16668 1.52445,0.50015 0.39699,0.33345 0.65109,0.82969 0.76223,1.48867 l 3.29872,-0.59542 c -0.39697,-1.35767 -1.05203,-2.36616 -1.96507,-3.02514 -0.90512,-0.66692 -2.12781,-1.00028 -3.66809,-1.00028 z m 6.57905,0.28583 4.81141,12.68347 c -0.19849,0.70663 -0.48433,1.28622 -0.8575,1.73877 -0.37316,0.46049 -0.94892,0.6907 -1.72701,0.6907 -0.4208,0 -0.89315,-0.0516 -1.41717,-0.1548 l 0.29784,2.62002 c 0.61929,0.13499 1.25045,0.20256 1.89357,0.20256 0.63516,0 1.20279,-0.0676 1.70299,-0.20256 0.50814,-0.13496 0.93297,-0.32554 1.27437,-0.57167 0.34935,-0.23817 0.65502,-0.55172 0.91702,-0.94076 0.26995,-0.38904 0.55175,-0.95262 0.84551,-1.69101 l 0.79799,-2.2034 4.46605,-12.17132 h -3.46577 l -2.95362,8.97963 -3.02489,-8.97963 z m -49.57324,2.27467 c 0.82572,0 1.50846,0.3176 2.04835,0.95277 0.53989,0.63516 0.81,1.60784 0.81,2.91786 0,1.25445 -0.28205,2.20323 -0.84576,2.84634 -0.56371,0.63518 -1.25432,0.95278 -2.07211,0.95278 -0.76219,0 -1.4053,-0.30973 -1.92931,-0.92902 -0.51608,-0.62722 -0.77423,-1.61184 -0.77423,-2.95363 0,-1.27826 0.25815,-2.22704 0.77423,-2.84633 0.52401,-0.62722 1.18693,-0.94077 1.98883,-0.94077 z m 14.05544,0 c 0.68281,0 1.26239,0.25409 1.73877,0.76221 0.47636,0.5002 0.72638,1.23453 0.75021,2.20316 h -5.00172 c -0.008,-0.91306 0.22608,-1.63545 0.70245,-2.1674 0.47638,-0.53194 1.07985,-0.79797 1.81029,-0.79797 z"
         inkscape:export-filename="..\..\PhilSA.svg"
         inkscape:export-xdpi="96"
         inkscape:export-ydpi="96" /><g
         id="g34"
         transform="matrix(0.42999675,0,0,0.42999675,119.96664,-281.80809)"
         style="opacity:1"><circle
           style="opacity:1;fill:#262626;fill-opacity:1;stroke-width:0.570291;paint-order:stroke fill markers"
           id="circle27"
           cx="96.772095"
           cy="117.68667"
           r="92.286667" /><path
           id="path28"
           style="color:#000000;fill:#f5cc67;fill-opacity:1;-inkscape-stroke:none;paint-order:stroke fill markers"
           d="m 96.576017,70.357463 -0.259415,0.283186 -3.166215,3.466972 c -1.741479,1.906759 -4.146704,4.535533 -5.34386,5.839437 l -2.308387,2.514059 2.079977,8.224304 c 0.559103,2.209879 1.067127,4.240832 1.435571,5.732466 0.184222,0.745818 0.334768,1.356772 0.4377,1.786971 0.05147,0.2151 0.09018,0.38465 0.116788,0.502295 1.84e-4,8.14e-4 -1.82e-4,0.0012 0,0.0021 -0.026,0.01584 -0.03648,0.02642 -0.07183,0.04496 -0.158064,0.08293 -0.395593,0.181515 -0.656291,0.267167 -0.589268,0.193604 -1.760801,0.674928 -2.660302,1.0883 -0.439993,0.20219 -0.846686,0.38062 -1.142566,0.50178 -0.0936,0.0383 -0.150717,0.058 -0.218592,0.0837 -0.03629,-0.0598 -0.06731,-0.10807 -0.117305,-0.19121 -0.160891,-0.26755 -0.390665,-0.65091 -0.668176,-1.117238 -0.555025,-0.932655 -1.305388,-2.199895 -2.107365,-3.556372 -1.603955,-2.712952 -3.411407,-5.783574 -4.256071,-7.236767 L 76.331775,86.290857 71.199272,86.158049 C 68.48768,86.088229 64.900345,85.977091 63.23645,85.910002 l -3.422013,-0.138493 0.128674,2.76934 c 0.06134,1.309308 0.196189,4.134146 0.299207,6.277653 0.102823,2.139459 0.187585,4.630017 0.187585,5.495788 v 1.81643 l 7.322034,4.36355 c 1.965697,1.17092 3.769747,2.25031 5.091679,3.04478 0.660965,0.39724 1.202593,0.7226 1.582332,0.95343 0.186692,0.11348 0.332238,0.20314 0.435632,0.26717 -0.01475,0.0603 -0.02872,0.11748 -0.05891,0.20929 -0.08636,0.26262 -0.230113,0.62598 -0.406176,1.00769 -0.368543,0.79901 -0.835817,1.95132 -1.056784,2.60759 -0.102621,0.30479 -0.216033,0.58854 -0.308508,0.79065 -0.0273,0.0597 -0.04593,0.0923 -0.06821,0.13488 -0.107593,-0.0223 -0.245403,-0.0529 -0.431498,-0.0956 -0.41089,-0.0943 -0.999327,-0.23423 -1.717208,-0.41031 -1.43576,-0.35218 -3.394194,-0.84653 -5.529378,-1.39629 -2.136478,-0.55009 -4.115306,-1.05706 -5.581571,-1.43144 -0.733134,-0.18719 -1.338262,-0.3422 -1.771469,-0.45165 -0.433207,-0.10945 -0.648244,-0.16415 -0.753959,-0.18552 -0.152741,-0.0309 -0.271429,0.0103 -0.377238,0.0589 -0.105808,0.0488 -0.210836,0.11652 -0.341581,0.21084 -0.261488,0.18864 -0.620683,0.48963 -1.160136,0.96893 -1.078904,0.95862 -2.868563,2.62996 -5.889046,5.4746 -1.548818,1.45867 -2.65729,2.50953 -3.372921,3.20498 -0.357814,0.34773 -0.615712,0.60648 -0.787032,0.78496 -0.08566,0.0892 -0.149074,0.15675 -0.197404,0.21497 -0.02416,0.0291 -0.04475,0.0536 -0.07028,0.0956 -0.01277,0.021 -0.02767,0.041 -0.04496,0.10335 -0.0043,0.0156 -0.0086,0.035 -0.01137,0.0589 -0.0027,0.0239 -8.3e-5,0.0893 0,0.0899 8.3e-5,6.2e-4 0.04056,0.12457 0.04082,0.12505 2.52e-4,4.6e-4 0.101382,0.11647 0.101803,0.11679 -0.05986,-0.0444 -0.0047,-0.004 0.01912,0.0176 0.02387,0.0212 0.05827,0.0528 0.101803,0.092 0.08707,0.0784 0.211563,0.19032 0.361218,0.32608 0.29931,0.27153 0.704927,0.63993 1.144633,1.04128 l 1.765784,1.61333 1.198893,-0.48472 c 0.514643,-0.20737 2.574963,-0.94976 4.525305,-1.62884 10.946506,-3.81139 21.39695,-5.94937 34.074406,-6.96857 4.05835,-0.32627 14.502834,-0.2754 18.883084,0.0935 12.27076,1.03357 23.15245,3.36015 34.25734,7.32411 l 3.72898,1.33015 1.74201,-1.63866 c 0.43861,-0.41261 0.83635,-0.80203 1.12861,-1.10329 0.14613,-0.15064 0.26593,-0.27939 0.35399,-0.38086 0.044,-0.0507 0.0792,-0.093 0.1111,-0.13694 0.016,-0.022 0.0315,-0.0427 0.0486,-0.0739 0.0172,-0.0312 0.0512,-0.0547 0.0512,-0.19534 0,-3.1e-4 -0.006,-0.0683 -0.006,-0.0687 -7e-5,-3.7e-4 -0.008,-0.0327 -0.0119,-0.045 -0.008,-0.0243 -0.0148,-0.0402 -0.0212,-0.0527 -0.0128,-0.0252 -0.023,-0.0389 -0.031,-0.0507 -0.0162,-0.0233 -0.0281,-0.037 -0.0414,-0.0527 -0.0266,-0.0314 -0.0556,-0.0636 -0.0935,-0.10335 -0.0758,-0.0795 -0.18284,-0.18545 -0.31833,-0.31833 -0.27099,-0.26576 -0.65973,-0.63733 -1.13895,-1.08985 -0.95842,-0.90504 -2.27803,-2.13242 -3.73052,-3.46491 -2.90281,-2.66301 -5.49689,-5.04313 -5.75779,-5.2834 l -0.62115,-0.57412 -8.39225,2.127 c -2.25493,0.57107 -4.31351,1.07444 -5.8105,1.42782 -0.74849,0.17669 -1.35743,0.31657 -1.77767,0.40618 -0.1613,0.0344 -0.2657,0.0554 -0.3669,0.0744 -0.0209,-0.0579 -0.0407,-0.10766 -0.0667,-0.1819 -0.086,-0.24574 -0.19434,-0.57101 -0.30644,-0.91209 -0.23545,-0.7164 -0.71222,-1.85378 -1.08211,-2.58795 l -0.49971,-0.99426 2.23397,-1.32602 c 1.38585,-0.82128 4.65689,-2.74353 7.26571,-4.27157 l 4.92011,-2.88251 0.008,-4.005959 c 0.003,-2.081906 0.0907,-5.066248 0.19326,-6.599597 0.10375,-1.550959 0.22657,-3.428545 0.27182,-4.17804 l 0.10542,-1.759582 -1.39268,0.0801 c -0.52472,0.03039 -3.3146,0.146608 -6.16396,0.255799 -2.85176,0.109281 -5.9699,0.248518 -6.95307,0.310575 l -1.94923,0.12299 -4.23643,7.101892 c -1.13839,1.90849 -2.1944,3.674657 -2.97657,4.982125 -0.39109,0.653734 -0.71405,1.193292 -0.94516,1.578198 -0.21413,0.356639 -0.33711,0.560939 -0.35967,0.597899 -0.0108,-4.9e-4 -0.008,7.4e-4 -0.0703,-0.014 -0.18674,-0.0452 -0.56876,-0.19773 -1.18907,-0.47852 -0.84039,-0.380418 -1.98568,-0.836632 -2.59778,-1.033011 -0.28804,-0.09241 -0.56434,-0.185726 -0.77359,-0.257865 -0.067,-0.02309 -0.11246,-0.03846 -0.16382,-0.05684 0.002,-0.01882 6.2e-4,-0.02379 0.004,-0.04496 0.0238,-0.174857 0.0753,-0.426632 0.14469,-0.693497 0.14604,-0.559782 0.87669,-3.387592 1.62523,-6.290573 0.74851,-2.902832 1.57749,-6.120867 1.8433,-7.1484 l 0.53123,-2.053105 -0.84956,-0.958598 c -0.40615,-0.458979 -1.3436,-1.473631 -2.09755,-2.268079 -0.74944,-0.789699 -2.5764,-2.733193 -4.0566,-4.316015 -1.480909,-1.583568 -2.989352,-3.192645 -3.357417,-3.58221 z" /><path
           id="path29"
           style="opacity:1;fill:#5a84aa;fill-opacity:1;stroke-width:0.503385;paint-order:stroke fill markers"
           d="M 97.154793,116.36396 A 131.10104,131.10104 0 0 0 10.170439,149.51697 92.604164,92.604164 0 0 0 96.771871,209.99442 92.604164,92.604164 0 0 0 183.58931,148.9382 131.10104,131.10104 0 0 0 97.154793,116.36396 Z" /><g
           id="g32"
           transform="translate(0.06128973)"><path
             d="M 29.138062,105.67458 35.406842,86.36 41.675626,105.67458 25.24125,93.730054 h 20.331186"
             id="path30"
             style="opacity:1;fill:#f5cc67;fill-opacity:1;stroke-width:0.0847131" /><path
             d="m 151.74598,105.67458 6.26878,-19.31458 6.26879,19.31458 -16.43438,-11.944526 h 20.33119"
             id="path31"
             style="opacity:1;fill:#f5cc67;fill-opacity:1;stroke-width:0.0847131" /><path
             d="m 90.503311,58.816872 6.26878,-19.31458 6.268789,19.31458 -16.434379,-11.944526 h 20.331189"
             id="path32"
             style="opacity:1;fill:#f5cc67;fill-opacity:1;stroke-width:0.0847131" /></g><path
           id="path33"
           style="opacity:1;fill:#386b97;fill-opacity:1;stroke-width:0.475773;paint-order:stroke fill markers"
           d="m 88.961495,121.7228 c -28.749472,0.0791 -56.495662,10.11193 -78.774986,27.86534 13.347525,36.38033 47.833925,60.30149 86.585362,60.40628 34.833049,-0.0819 66.673599,-19.70385 82.404789,-50.78243 -23.61634,-23.94346 -56.18165,-37.47607 -90.215165,-37.48919 z"
           sodipodi:nodetypes="ccccc" /><path
           id="path34"
           style="opacity:1;fill:#1d5285;fill-opacity:1;stroke-width:0.326205;paint-order:stroke fill markers"
           d="M 74.888452,129.98225 A 114.67979,112.04204 0 0 0 10.240719,149.70507 92.604164,92.604164 0 0 0 96.771871,209.99442 92.604164,92.604164 0 0 0 167.89208,176.51791 114.67979,112.04204 0 0 0 74.888452,129.98225 Z" /></g></g></g></svg>
