<?xml version="1.0" encoding="utf-8"?>
<!-- Generator: Adobe Illustrator 14.0.0, SVG Export Plug-In . SVG Version: 6.00 Build 43363)  -->
<!DOCTYPE svg PUBLIC "-//W3C//DTD SVG 1.1//EN" "http://www.w3.org/Graphics/SVG/1.1/DTD/svg11.dtd">
<svg version="1.1" id="Layer_1" xmlns="http://www.w3.org/2000/svg" xmlns:xlink="http://www.w3.org/1999/xlink" x="0px" y="0px"
	 width="100px" height="66px" viewBox="0 0 100 66" enable-background="new 0 0 100 66" xml:space="preserve">
<g>
	<g>
		<g>
			<rect x="1.032" y="0.895" fill="#23268B" width="97.935" height="64.21"/>
		</g>
		<g>
			<path fill="#FFFFFF" d="M100,66.104H0v-66.21h100V66.104L100,66.104z M2.065,64.104h95.869V1.895H2.065V64.104L2.065,64.104z"/>
		</g>
	</g>
	<g>
		<path fill="#FFFFFF" d="M19.378,60.454H8.881V6.573h10.497c3.91,0,7.255,1.346,10.034,4.036c2.779,2.69,4.168,5.929,4.168,9.715
			v26.38c0,3.787-1.39,7.025-4.168,9.715C26.633,59.11,23.288,60.454,19.378,60.454z M14.438,55.224h4.94
			c2.366,0,4.399-0.822,6.098-2.467s2.547-3.611,2.547-5.902v-26.68c0-2.291-0.849-4.26-2.547-5.904
			c-1.698-1.644-3.731-2.465-6.098-2.465h-4.94V55.224z"/>
		<path fill="#FFFFFF" d="M49.402,60.454H38.906V6.573h10.497c3.911,0,7.256,1.346,10.034,4.036c2.779,2.69,4.169,5.929,4.169,9.715
			v26.38c0,3.787-1.39,7.025-4.169,9.715C56.658,59.11,53.313,60.454,49.402,60.454z M44.462,55.224h4.94
			c2.367,0,4.4-0.822,6.099-2.467c1.697-1.645,2.547-3.611,2.547-5.902v-26.68c0-2.291-0.85-4.26-2.547-5.904
			c-1.698-1.644-3.731-2.465-6.099-2.465h-4.94V55.224z"/>
		<path fill="#FFFFFF" d="M68.235,44.761h5.634v3.961c0,1.943,0.657,3.563,1.969,4.857c1.313,1.297,2.918,1.943,4.822,1.943
			c1.854,0,3.436-0.697,4.749-2.092c1.312-1.395,1.967-3.09,1.967-5.082c0-2.691-1.569-5.68-4.708-8.969l-9.029-9.49
			c-3.551-3.785-5.326-7.646-5.326-11.583c0-3.587,1.196-6.539,3.589-8.855c2.393-2.317,5.313-3.476,8.759-3.476
			c3.345,0,6.228,1.172,8.646,3.513c2.419,2.343,3.627,5.156,3.627,8.444v4.26h-5.635v-3.886c0-1.992-0.644-3.636-1.93-4.933
			c-1.285-1.295-2.854-1.943-4.709-1.943c-1.954,0-3.563,0.703-4.822,2.105c-1.262,1.404-1.891,3.084-1.891,5.039
			c0,2.658,1.583,5.664,4.75,9.021l8.62,8.842c3.795,3.896,5.692,7.916,5.692,12.059c0,3.539-1.208,6.502-3.627,8.895
			c-2.418,2.391-5.325,3.586-8.723,3.586c-3.446,0-6.379-1.17-8.797-3.512c-2.42-2.342-3.628-5.156-3.628-8.445V44.761z"/>
	</g>
</g>
</svg>
