<?xml version="1.0" encoding="UTF-8" standalone="no"?>
<!-- Created with Inkscape (http://www.inkscape.org/) -->

<svg
   width="137.58333mm"
   height="137.58333mm"
   viewBox="0 0 137.58333 137.58333"
   version="1.1"
   id="svg2726"
   inkscape:version="1.2.2 (732a01da63, 2022-12-09)"
   sodipodi:docname="Seal_of_the_Department_of_Energy_(Philippines).svg"
   xmlns:inkscape="http://www.inkscape.org/namespaces/inkscape"
   xmlns:sodipodi="http://sodipodi.sourceforge.net/DTD/sodipodi-0.dtd"
   xmlns="http://www.w3.org/2000/svg"
   xmlns:svg="http://www.w3.org/2000/svg"
   xmlns:rdf="http://www.w3.org/1999/02/22-rdf-syntax-ns#"
   xmlns:cc="http://creativecommons.org/ns#"
   xmlns:dc="http://purl.org/dc/elements/1.1/">
  <title
     id="title4014">Department of Energy (DOE) Philippines</title>
  <defs
     id="defs2720">
    <circle
       r="199.89008"
       cy="541.22137"
       cx="387.19965"
       style="color:#000000;display:inline;overflow:visible;visibility:visible;fill:#ffff18;fill-opacity:1;stroke:none;stroke-width:4.08909655;marker:none;enable-background:accumulate"
       id="path3946-1-1"
       transform="matrix(-0.70198414,0.40529073,-0.40529073,-0.70198414,863.20726,749.1815)" />
    <circle
       r="199.89008"
       cy="541.22137"
       cx="387.19965"
       style="color:#000000;display:inline;overflow:visible;visibility:visible;fill:#ffff18;fill-opacity:1;stroke:none;stroke-width:4.08909655;marker:none;enable-background:accumulate"
       id="path3946-1-1-2"
       transform="matrix(-0.70198414,0.40529073,-0.40529073,-0.70198414,863.20726,749.1815)" />
    <circle
       r="199.89008"
       cy="541.22137"
       cx="387.19965"
       style="color:#000000;display:inline;overflow:visible;visibility:visible;fill:#ffff18;fill-opacity:1;stroke:none;stroke-width:4.08909655;marker:none;enable-background:accumulate"
       id="path3946-1-1-0"
       transform="matrix(-0.70198414,0.40529073,-0.40529073,-0.70198414,863.20726,749.1815)" />
    <circle
       r="199.89008"
       cy="541.22137"
       cx="387.19965"
       style="color:#000000;display:inline;overflow:visible;visibility:visible;fill:#ffff18;fill-opacity:1;stroke:none;stroke-width:4.08909655;marker:none;enable-background:accumulate"
       id="path3946-1-1-2-1"
       transform="matrix(-0.70198414,0.40529073,-0.40529073,-0.70198414,863.20726,749.1815)" />
  </defs>
  <sodipodi:namedview
     id="base"
     pagecolor="#ffffff"
     bordercolor="#666666"
     borderopacity="1.0"
     inkscape:pageopacity="0.0"
     inkscape:pageshadow="2"
     inkscape:zoom="1.979899"
     inkscape:cx="388.15112"
     inkscape:cy="358.09908"
     inkscape:document-units="mm"
     inkscape:current-layer="layer1"
     showgrid="false"
     inkscape:snap-global="true"
     inkscape:snap-object-midpoints="true"
     inkscape:snap-center="true"
     inkscape:object-nodes="false"
     inkscape:snap-nodes="false"
     fit-margin-top="0"
     fit-margin-left="0"
     fit-margin-right="0"
     fit-margin-bottom="0"
     inkscape:window-width="1920"
     inkscape:window-height="1009"
     inkscape:window-x="1072"
     inkscape:window-y="-8"
     inkscape:window-maximized="1"
     inkscape:showpageshadow="2"
     inkscape:pagecheckerboard="0"
     inkscape:deskcolor="#d1d1d1">
    <inkscape:grid
       type="xygrid"
       id="grid1023" />
  </sodipodi:namedview>
  <metadata
     id="metadata2723">
    <rdf:RDF>
      <cc:Work
         rdf:about="">
        <dc:format>image/svg+xml</dc:format>
        <dc:type
           rdf:resource="http://purl.org/dc/dcmitype/StillImage" />
        <dc:title>Department of Energy (DOE) Philippines</dc:title>
      </cc:Work>
    </rdf:RDF>
  </metadata>
  <g
     inkscape:label="Layer 1"
     inkscape:groupmode="layer"
     id="layer1"
     transform="translate(-33.261909,-53.381287)">
    <rect
       style="color:#000000;display:inline;overflow:visible;visibility:visible;opacity:0.98999999;fill:#0038a8;fill-opacity:1;fill-rule:nonzero;stroke:none;stroke-width:0.26458332;marker:none;enable-background:accumulate"
       id="rect28403"
       width="137.58333"
       height="137.58333"
       x="33.261909"
       y="53.381287" />
    <g
       transform="matrix(0.21206852,0,0,0.21206852,-146.01652,19.93643)"
       id="g8815"
       style="fill:#fcd116;fill-opacity:1">
      <path
         sodipodi:type="star"
         style="color:#000000;display:inline;overflow:visible;visibility:visible;fill:#fcd116;fill-opacity:1;fill-rule:evenodd;stroke:#000000;stroke-width:1;stroke-linecap:butt;stroke-linejoin:miter;stroke-miterlimit:4;stroke-dasharray:none;stroke-dashoffset:0;stroke-opacity:1;enable-background:accumulate"
         id="path8429"
         sodipodi:sides="5"
         sodipodi:cx="1145.9399"
         sodipodi:cy="316.90332"
         sodipodi:r1="59.766537"
         sodipodi:r2="48.352139"
         sodipodi:arg1="0.92729522"
         sodipodi:arg2="1.5556137"
         inkscape:flatsided="true"
         inkscape:rounded="0"
         inkscape:randomized="0"
         d="m 1181.7999,364.71655 -70.2517,1.06668 -22.7235,-66.48369 56.2079,-42.15587 57.4618,40.42994 z"
         inkscape:transform-center-x="-155.17445"
         inkscape:transform-center-y="-154.4322"
         transform="matrix(0.94547962,0.94547962,-0.95064786,0.95064786,546.30773,-1061.3776)" />
      <path
         sodipodi:type="star"
         style="color:#000000;display:inline;overflow:visible;visibility:visible;fill:#fcd116;fill-opacity:1;fill-rule:evenodd;stroke:#000000;stroke-width:1;stroke-linecap:butt;stroke-linejoin:miter;stroke-miterlimit:4;stroke-dasharray:none;stroke-dashoffset:0;stroke-opacity:1;enable-background:accumulate"
         id="path8429-9"
         sodipodi:sides="5"
         sodipodi:cx="1145.9399"
         sodipodi:cy="316.90332"
         sodipodi:r1="59.766537"
         sodipodi:r2="48.352139"
         sodipodi:arg1="0.92729522"
         sodipodi:arg2="1.5556137"
         inkscape:flatsided="true"
         inkscape:rounded="0"
         inkscape:randomized="0"
         d="m 1181.7999,364.71655 -70.2517,1.06668 -22.7235,-66.48369 56.2079,-42.15587 57.4618,40.42994 z"
         inkscape:transform-center-x="154.43225"
         inkscape:transform-center-y="-155.17453"
         transform="matrix(0.94547962,-0.94547962,0.95064786,0.95064786,-373.70571,1105.5481)" />
      <path
         sodipodi:type="star"
         style="color:#000000;display:inline;overflow:visible;visibility:visible;fill:#fcd116;fill-opacity:1;fill-rule:evenodd;stroke:#000000;stroke-width:1;stroke-linecap:butt;stroke-linejoin:miter;stroke-miterlimit:4;stroke-dasharray:none;stroke-dashoffset:0;stroke-opacity:1;enable-background:accumulate"
         id="path8429-6"
         sodipodi:sides="5"
         sodipodi:cx="1145.9399"
         sodipodi:cy="316.90332"
         sodipodi:r1="59.766537"
         sodipodi:r2="48.352139"
         sodipodi:arg1="0.92729522"
         sodipodi:arg2="1.5556137"
         inkscape:flatsided="true"
         inkscape:rounded="0"
         inkscape:randomized="0"
         d="m 1181.7999,364.71655 -70.2517,1.06668 -22.7235,-66.48369 56.2079,-42.15587 57.4618,40.42994 z"
         inkscape:transform-center-x="-231.81026"
         inkscape:transform-center-y="-0.37493511"
         transform="matrix(0,1.3371101,-1.3444191,0,1820.3116,-1050.1559)" />
      <path
         sodipodi:type="star"
         style="color:#000000;display:inline;overflow:visible;visibility:visible;fill:#fcd116;fill-opacity:1;fill-rule:evenodd;stroke:#000000;stroke-width:1;stroke-linecap:butt;stroke-linejoin:miter;stroke-miterlimit:4;stroke-dasharray:none;stroke-dashoffset:0;stroke-opacity:1;enable-background:accumulate"
         id="path8429-97"
         sodipodi:sides="5"
         sodipodi:cx="1145.9399"
         sodipodi:cy="316.90332"
         sodipodi:r1="59.766537"
         sodipodi:r2="48.352139"
         sodipodi:arg1="0.92729522"
         sodipodi:arg2="1.5556137"
         inkscape:flatsided="true"
         inkscape:rounded="0"
         inkscape:randomized="0"
         d="m 1181.7999,364.71655 -70.2517,1.06668 -22.7235,-66.48369 56.2079,-42.15587 57.4618,40.42994 z"
         inkscape:transform-center-x="-154.43219"
         inkscape:transform-center-y="155.17448"
         transform="matrix(-0.94547962,0.94547962,-0.95064786,-0.95064786,2713.2335,-141.36418)" />
      <path
         sodipodi:type="star"
         style="color:#000000;display:inline;overflow:visible;visibility:visible;fill:#fcd116;fill-opacity:1;fill-rule:evenodd;stroke:#000000;stroke-width:1;stroke-linecap:butt;stroke-linejoin:miter;stroke-miterlimit:4;stroke-dasharray:none;stroke-dashoffset:0;stroke-opacity:1;enable-background:accumulate"
         id="path8429-3"
         sodipodi:sides="5"
         sodipodi:cx="1145.9399"
         sodipodi:cy="316.90332"
         sodipodi:r1="59.766537"
         sodipodi:r2="48.352139"
         sodipodi:arg1="0.92729522"
         sodipodi:arg2="1.5556137"
         inkscape:flatsided="true"
         inkscape:rounded="0"
         inkscape:randomized="0"
         d="m 1181.7999,364.71655 -70.2517,1.06668 -22.7235,-66.48369 56.2079,-42.15587 57.4618,40.42994 z"
         inkscape:transform-center-x="-0.37492511"
         inkscape:transform-center-y="231.8103"
         transform="matrix(-1.3371101,0,0,-1.3444191,2702.0118,1132.6397)" />
      <path
         sodipodi:type="star"
         style="color:#000000;display:inline;overflow:visible;visibility:visible;fill:#fcd116;fill-opacity:1;fill-rule:evenodd;stroke:#000000;stroke-width:1;stroke-linecap:butt;stroke-linejoin:miter;stroke-miterlimit:4;stroke-dasharray:none;stroke-dashoffset:0;stroke-opacity:1;enable-background:accumulate"
         id="path8429-39"
         sodipodi:sides="5"
         sodipodi:cx="1145.9399"
         sodipodi:cy="316.90332"
         sodipodi:r1="59.766537"
         sodipodi:r2="48.352139"
         sodipodi:arg1="0.92729522"
         sodipodi:arg2="1.5556137"
         inkscape:flatsided="true"
         inkscape:rounded="0"
         inkscape:randomized="0"
         d="m 1181.7999,364.71655 -70.2517,1.06668 -22.7235,-66.48369 56.2079,-42.15587 57.4618,40.42994 z"
         inkscape:transform-center-x="155.17447"
         inkscape:transform-center-y="154.43223"
         transform="matrix(-0.94547962,-0.94547962,0.95064786,-0.95064786,1793.2201,2025.5616)" />
      <path
         sodipodi:type="star"
         style="color:#000000;display:inline;overflow:visible;visibility:visible;fill:#fcd116;fill-opacity:1;fill-rule:evenodd;stroke:#000000;stroke-width:1;stroke-linecap:butt;stroke-linejoin:miter;stroke-miterlimit:4;stroke-dasharray:none;stroke-dashoffset:0;stroke-opacity:1;enable-background:accumulate"
         id="path8429-64"
         sodipodi:sides="5"
         sodipodi:cx="1145.9399"
         sodipodi:cy="316.90332"
         sodipodi:r1="59.766537"
         sodipodi:r2="48.352139"
         sodipodi:arg1="0.92729522"
         sodipodi:arg2="1.5556137"
         inkscape:flatsided="true"
         inkscape:rounded="0"
         inkscape:randomized="0"
         d="m 1181.7999,364.71655 -70.2517,1.06668 -22.7235,-66.48369 56.2079,-42.15587 57.4618,40.42994 z"
         inkscape:transform-center-x="231.81038"
         inkscape:transform-center-y="0.37496511"
         transform="matrix(0,-1.3371101,1.3444191,0,519.21613,2014.3399)" />
      <path
         sodipodi:type="star"
         style="color:#000000;display:inline;overflow:visible;visibility:visible;fill:#fcd116;fill-opacity:1;fill-rule:evenodd;stroke:#000000;stroke-width:1;stroke-linecap:butt;stroke-linejoin:miter;stroke-miterlimit:4;stroke-dasharray:none;stroke-dashoffset:0;stroke-opacity:1;enable-background:accumulate"
         id="path8429-99"
         sodipodi:sides="5"
         sodipodi:cx="1145.9399"
         sodipodi:cy="316.90332"
         sodipodi:r1="59.766537"
         sodipodi:r2="48.352139"
         sodipodi:arg1="0.92729522"
         sodipodi:arg2="1.5556137"
         inkscape:flatsided="true"
         inkscape:rounded="0"
         inkscape:randomized="0"
         d="m 1181.7999,364.71655 -70.2517,1.06668 -22.7235,-66.48369 56.2079,-42.15587 57.4618,40.42994 z"
         inkscape:transform-center-x="0.3749181"
         inkscape:transform-center-y="-231.8104"
         transform="matrix(1.3371101,0,0,1.3444191,-362.48395,-168.45583)" />
    </g>
    <circle
       r="38.954731"
       cy="122.17295"
       cx="102.05357"
       id="path8707"
       style="color:#000000;display:inline;overflow:visible;visibility:visible;fill:#ffffff;fill-opacity:1;fill-rule:evenodd;stroke:#000000;stroke-width:1.06034255;stroke-linecap:butt;stroke-linejoin:miter;stroke-miterlimit:4;stroke-dasharray:none;stroke-dashoffset:0;stroke-opacity:1;enable-background:accumulate" />
    <g
       aria-label="PHILIPPINES"
       id="text1108"
       style="font-weight:600;font-size:8.29028px;font-family:'Bembo Std';-inkscape-font-specification:'Bembo Std Semi-Bold';letter-spacing:1.19062px;stroke-width:0.264583">
      <path
         d="m 74.567144,144.89393 0.163112,-0.15153 q 0.215535,0.21416 0.356661,0.27091 0.144092,0.054 0.313155,-0.0257 0.171817,-0.0767 0.447626,-0.33297 l 2.161981,-2.00852 q 0.228357,-0.21215 0.330664,-0.34587 0.105273,-0.13648 0.104604,-0.27399 0.0051,-0.1373 -0.07104,-0.24894 -0.07313,-0.1144 -0.257722,-0.3131 l 0.163112,-0.15153 q 0.176331,0.1898 0.599134,0.60922 0.704673,0.69904 0.779063,0.77912 0.837571,0.90156 0.993674,1.56323 0.159068,0.65891 -0.442965,1.21821 -0.533823,0.49593 -1.240892,0.4069 -0.70707,-0.089 -1.304941,-0.73259 -0.242455,-0.26097 -0.421349,-0.5368 l -0.83039,0.77145 q -0.352916,0.32786 -0.344385,0.56305 0.01425,0.23539 0.402521,0.65927 l -0.163113,0.15154 z m 4.740957,-2.19431 -1.883207,1.74953 q 0.157694,0.22922 0.212798,0.28853 0.388478,0.41816 0.918393,0.41761 0.532881,-0.003 0.980699,-0.41934 0.169044,-0.15704 0.278756,-0.33632 0.109711,-0.17928 0.158178,-0.40664 0.05122,-0.22439 -0.03932,-0.48837 -0.09054,-0.26399 -0.332991,-0.52497 -0.146024,-0.15718 -0.293311,-0.28003 z"
         id="path2323" />
      <path
         d="m 81.322296,148.09314 -0.884109,1.21399 q -0.119152,0.16361 -0.171899,0.27042 -0.04709,0.10592 -0.04777,0.23062 0.005,0.12381 0.09656,0.24559 0.09724,0.1209 0.294462,0.26954 l -0.131067,0.17997 -1.937145,-1.41076 0.131067,-0.17997 q 0.215681,0.13704 0.354039,0.18772 0.144012,0.0498 0.26576,0.0133 0.121748,-0.0365 0.209601,-0.12278 0.09024,-0.0895 0.226068,-0.27604 l 1.820644,-2.49996 q 0.150132,-0.20615 0.213905,-0.33497 0.06377,-0.12883 0.06356,-0.25918 0.0022,-0.13363 -0.0918,-0.25214 -0.0907,-0.11613 -0.287919,-0.26477 l 0.131068,-0.17997 1.937145,1.41076 -0.131067,0.17997 q -0.385836,-0.26096 -0.592413,-0.2111 -0.203304,0.0523 -0.522632,0.49073 l -0.726827,0.99802 2.418159,1.76107 0.733977,-1.00784 q 0.128684,-0.1767 0.191852,-0.29094 0.06644,-0.11186 0.09479,-0.22643 0.03162,-0.11218 -0.0094,-0.20714 -0.03774,-0.0926 -0.129038,-0.19413 -0.08565,-0.10243 -0.251035,-0.2329 l 0.131067,-0.17997 1.969868,1.43459 -0.131068,0.17997 q -0.213298,-0.14031 -0.349272,-0.19427 -0.135975,-0.0539 -0.261884,-0.0255 -0.125909,0.0285 -0.228949,0.12872 -0.100657,0.097 -0.250788,0.30311 l -1.839708,2.52614 q -0.138217,0.18979 -0.194841,0.3088 -0.05662,0.11901 -0.04837,0.2452 0.01391,0.1253 0.106986,0.23816 0.09635,0.11524 0.292969,0.27846 l -0.131067,0.17997 -1.969868,-1.43459 0.131068,-0.17997 q 0.39238,0.26573 0.599846,0.22152 0.213121,-0.0451 0.480021,-0.41159 l 0.843597,-1.15836 z"
         id="path2320" />
      <path
         d="m 87.354548,149.11279 0.09921,-0.19931 2.069238,1.02996 -0.09921,0.19931 q -0.376884,-0.18759 -0.570477,-0.12569 -0.193592,0.0619 -0.386598,0.44965 l -1.435818,2.88462 q -0.212848,0.42762 -0.15818,0.62665 0.05467,0.19904 0.451459,0.38298 l -0.09921,0.19931 -2.069239,-1.02996 0.09921,-0.19932 q 0.172142,0.0902 0.297109,0.12076 0.130395,0.0287 0.211843,0.0195 0.08688,-0.011 0.162765,-0.0908 0.07951,-0.078 0.126445,-0.1541 0.04874,-0.0797 0.124494,-0.23195 l 1.504362,-3.02232 q 0.158734,-0.3189 0.09867,-0.49801 -0.05826,-0.18274 -0.426076,-0.3613 z"
         id="path2317" />
      <path
         d="m 92.503491,156.51669 -3.806099,-1.26736 0.07034,-0.21123 q 0.261165,0.087 0.393022,0.1138 0.136977,0.0243 0.256013,-0.0129 0.120316,-0.041 0.189403,-0.15879 0.07037,-0.12163 0.150935,-0.3636 l 1.037161,-3.11478 q 0.04988,-0.14978 0.07161,-0.24067 0.02173,-0.0909 0.02426,-0.18818 0.0025,-0.0973 -0.03333,-0.15616 -0.03074,-0.0614 -0.107567,-0.12542 -0.07171,-0.0665 -0.192049,-0.11515 -0.119065,-0.0524 -0.300855,-0.10871 l 0.07034,-0.21123 2.580927,0.85939 -0.07034,0.21124 q -0.241962,-0.0806 -0.369983,-0.11893 -0.128021,-0.0384 -0.262436,-0.0575 -0.130574,-0.0179 -0.192013,6e-5 -0.0576,0.0192 -0.129263,0.0807 -0.06782,0.0627 -0.107477,0.1562 -0.03838,0.0896 -0.09081,0.24709 l -1.104941,3.31833 q -0.08057,0.24196 -0.02805,0.34051 0.05635,0.0998 0.325202,0.18935 l 0.80654,0.26857 q 0.192033,0.0639 0.289328,0.0921 0.0973,0.0281 0.227866,0.0332 0.130571,0.005 0.19969,-0.0103 0.07424,-0.0179 0.222706,-0.0922 0.149746,-0.0781 0.271327,-0.16138 0.126702,-0.0858 0.372423,-0.25997 l 0.238121,0.0793 z"
         id="path2314" />
      <path
         d="m 95.401707,152.13272 0.04006,-0.219 2.273683,0.41586 -0.04006,0.21901 q -0.414121,-0.0757 -0.582962,0.0374 -0.16884,0.11315 -0.246769,0.53922 l -0.579734,3.16961 q -0.08594,0.46987 0.02177,0.64595 0.10771,0.17607 0.539943,0.24279 l -0.04006,0.219 -2.273683,-0.41586 0.04006,-0.21901 q 0.190405,0.0389 0.318943,0.0337 0.133248,-0.009 0.208952,-0.04 0.08042,-0.0347 0.131206,-0.13238 0.05477,-0.097 0.07876,-0.18312 0.02472,-0.0901 0.0553,-0.25737 l 0.60741,-3.32093 q 0.06409,-0.35041 -0.04328,-0.50585 -0.106641,-0.15942 -0.509544,-0.229 z"
         id="path2311" />
      <path
         d="m 98.47438,157.6548 0.0095,-0.22244 q 0.303841,7.8e-4 0.444102,-0.0581 0.140434,-0.0629 0.204628,-0.23844 0.06824,-0.17537 0.08425,-0.55149 l 0.125481,-2.94831 q 0.01325,-0.31142 -0.008,-0.47844 -0.02108,-0.17107 -0.118231,-0.26839 -0.09293,-0.10119 -0.225535,-0.1271 -0.13243,-0.0299 -0.4034,-0.0415 l 0.0095,-0.22244 q 0.258837,0.011 0.854386,0.0121 0.992578,0.002 1.101778,0.006 1.22948,0.0523 1.80566,0.41313 0.57636,0.35677 0.54142,1.17777 -0.031,0.72798 -0.59642,1.16175 -0.56544,0.43377 -1.44305,0.39642 -0.3559,-0.0151 -0.67704,-0.0855 l -0.0482,1.13241 q -0.0205,0.48128 0.15093,0.64253 0.17563,0.15739 0.74975,0.18588 l -0.009,0.22243 z m 1.82893,-4.89354 -0.1093,2.56815 q 0.27329,0.0522 0.35418,0.0556 0.57025,0.0243 0.94672,-0.34866 0.37664,-0.37698 0.40263,-0.98768 0.01,-0.23052 -0.0382,-0.43515 -0.048,-0.20463 -0.17339,-0.40039 -0.12133,-0.19559 -0.3713,-0.31968 -0.24997,-0.12408 -0.60587,-0.13923 -0.21435,-0.009 -0.40547,0.007 z"
         id="path2308" />
      <path
         d="m 104.2903,157.76436 -0.0268,-0.22102 q 0.29993,-0.0486 0.42877,-0.12945 0.12836,-0.0849 0.16319,-0.26851 0.0388,-0.18412 -0.006,-0.55785 l -0.35505,-2.92954 q -0.0375,-0.30943 -0.0856,-0.47079 -0.0486,-0.16537 -0.16025,-0.24562 -0.10813,-0.0848 -0.24318,-0.0888 -0.13554,-0.008 -0.40478,0.0246 l -0.0268,-0.22103 q 0.25719,-0.0312 0.845,-0.12687 0.97968,-0.15952 1.08818,-0.17267 1.22165,-0.14806 1.84879,0.11438 0.62665,0.25841 0.72552,1.07418 0.0877,0.72335 -0.39981,1.2432 -0.48747,0.51985 -1.3595,0.62554 -0.35364,0.0429 -0.68194,0.0256 l 0.13637,1.12521 q 0.058,0.47821 0.25328,0.60948 0.19886,0.12677 0.76999,0.0616 l 0.0268,0.22102 z m 1.00983,-5.12562 0.30927,2.5518 q 0.27814,0.007 0.35851,-0.003 0.56662,-0.0687 0.87752,-0.49781 0.31041,-0.43315 0.23686,-1.03995 -0.0278,-0.22906 -0.10837,-0.42317 -0.0806,-0.19411 -0.23612,-0.36691 -0.15148,-0.17329 -0.41829,-0.25513 -0.26681,-0.0818 -0.62044,-0.039 -0.21299,0.0258 -0.39894,0.0728 z"
         id="path2305" />
      <path
         d="m 108.79149,152.11354 -0.057,-0.21521 2.23432,-0.59194 0.057,0.21522 q -0.40695,0.10781 -0.51153,0.28208 -0.10459,0.17428 0.006,0.59297 l 0.82519,3.11474 q 0.12232,0.46174 0.29476,0.57518 0.17243,0.11345 0.59193,-0.0102 l 0.057,0.21522 -2.23432,0.59193 -0.057,-0.21521 q 0.18886,-0.0459 0.3029,-0.10538 0.11693,-0.0645 0.17204,-0.12514 0.058,-0.0656 0.0624,-0.17565 0.008,-0.11106 -0.007,-0.19922 -0.016,-0.0921 -0.0596,-0.25642 l -0.86458,-3.26344 q -0.0912,-0.34434 -0.25456,-0.43926 -0.16438,-0.0988 -0.55856,0.01 z"
         id="path2302" />
      <path
         d="m 118.67508,153.7756 -5.45695,-2.20099 1.32001,2.89498 q 0.11084,0.24309 0.19339,0.36561 0.0809,0.11883 0.20357,0.18301 0.1247,0.0588 0.28546,0.0211 0.15908,-0.0414 0.41019,-0.17368 l 0.0924,0.20257 -1.80476,0.82291 -0.0924,-0.20257 q 0.20593,-0.085 0.31404,-0.16989 0.11012,-0.0902 0.14315,-0.20319 0.0314,-0.11662 0.001,-0.24087 -0.0316,-0.12794 -0.12065,-0.32315 l -1.54841,-3.39589 q -0.19001,-0.0557 -0.35349,-0.0435 -0.16515,0.009 -0.39085,0.0892 l -0.0924,-0.20257 1.36646,-0.62306 4.98337,2.02098 -1.23101,-2.69977 q -0.0688,-0.15102 -0.12357,-0.24174 -0.051,-0.0924 -0.11576,-0.15632 -0.0664,-0.0676 -0.13277,-0.0863 -0.0663,-0.0187 -0.16818,-0.008 -0.10183,0.0108 -0.21569,0.0539 -0.11385,0.043 -0.28528,0.12563 l -0.0924,-0.20257 1.82317,-0.83131 0.0924,0.20258 q -0.20257,0.0924 -0.31036,0.1682 -0.1041,0.0742 -0.15523,0.18645 -0.0474,0.11062 -0.0218,0.25464 0.0293,0.14235 0.1284,0.35966 l 1.76337,3.86734 z"
         id="path2299" />
      <path
         d="m 124.62235,149.7944 -3.64747,2.624 -0.13002,-0.18073 q 0.41075,-0.29549 0.47929,-0.48442 0.0685,-0.18893 -0.13477,-0.47153 l -2.08501,-2.89827 q -0.0946,-0.13144 -0.1856,-0.1956 -0.0934,-0.0674 -0.1725,-0.0804 -0.0782,-0.0186 -0.19331,0.0294 -0.11749,0.0446 -0.20529,0.1028 -0.0902,0.0549 -0.25446,0.17309 l -0.13002,-0.18073 3.44045,-2.47507 0.78489,0.96626 -0.18073,0.13002 -0.13451,-0.11766 q -0.1378,-0.1153 -0.23356,-0.18603 -0.0958,-0.0707 -0.18905,-0.10336 -0.0933,-0.0326 -0.15636,-0.0371 -0.0598,-0.007 -0.15047,0.0334 -0.0898,0.0347 -0.15784,0.0787 -0.0648,0.0416 -0.19296,0.13382 l -1.18296,0.85103 1.12761,1.56743 1.04167,-0.74938 q 0.16101,-0.11583 0.23042,-0.18571 0.0727,-0.0722 0.0917,-0.17066 0.0222,-0.10077 -0.0233,-0.21262 -0.0456,-0.11184 -0.15914,-0.30439 l 0.18073,-0.13002 0.97159,1.35055 -0.18073,0.13002 q -0.14882,-0.17219 -0.25167,-0.25279 -0.0996,-0.083 -0.2022,-0.0939 -0.1017,-0.0166 -0.19567,0.0261 -0.0907,0.0403 -0.24184,0.14904 l -1.04166,0.74938 0.87939,1.2224 q 0.22694,0.31545 0.35741,0.35125 0.13047,0.0358 0.38678,-0.1486 l 0.74921,-0.53898 q 0.21688,-0.15602 0.3365,-0.26701 0.12291,-0.11336 0.19969,-0.22843 0.0777,-0.12073 0.0772,-0.26002 0.003,-0.14165 -0.0321,-0.30106 -0.034,-0.16505 -0.1294,-0.41555 l 0.18073,-0.13002 z"
         id="path2296" />
      <path
         d="m 126.17263,148.50528 -1.16183,-0.86482 0.17752,-0.17741 q 0.51227,0.29499 0.99602,0.25222 0.48375,-0.0428 0.86171,-0.42048 0.32069,-0.32048 0.35516,-0.69257 0.0345,-0.3721 -0.23163,-0.63839 -0.16597,-0.16607 -0.42642,-0.22054 -0.25759,-0.0573 -0.54957,-0.0231 -0.29483,0.0314 -0.62402,0.0971 -0.3292,0.0657 -0.66697,0.12286 -0.33492,0.0543 -0.64406,0.0713 -0.312,0.0142 -0.60393,-0.0718 -0.28907,-0.0888 -0.49509,-0.29499 -0.37771,-0.37795 -0.31456,-0.91606 0.0603,-0.54096 0.53274,-1.01309 0.20043,-0.2003 0.49818,-0.40057 0.28058,-0.18882 0.35789,-0.26608 0.10308,-0.10301 0.0945,-0.23182 l 0.14603,-0.14593 1.03878,0.77605 -0.17753,0.1774 q -0.47794,-0.21483 -0.93307,-0.15487 -0.45514,0.0542 -0.76724,0.36612 -0.26915,0.26897 -0.2807,0.56093 -0.0144,0.28909 0.18875,0.49239 0.12591,0.12599 0.30622,0.18043 0.18031,0.0545 0.38354,0.0459 0.20609,-0.0114 0.44082,-0.0514 0.23759,-0.0429 0.4895,-0.10002 0.2519,-0.0572 0.50667,-0.10574 0.25477,-0.0543 0.50952,-0.0743 0.25762,-0.0228 0.49233,1.7e-4 0.23757,0.0201 0.46652,0.12323 0.2261,0.10026 0.40636,0.28065 0.45211,0.4524 0.38606,1.08496 -0.0689,0.6297 -0.63298,1.1934 -0.25483,0.25466 -0.55258,0.44348 -0.29203,0.18882 -0.33784,0.2346 -0.10308,0.10301 -0.0945,0.22037 z"
         id="path2293" />
    </g>
    <ellipse
       ry="26.148981"
       rx="26.148985"
       cy="122.17295"
       cx="102.05357"
       id="path8497-8"
       style="color:#000000;display:inline;overflow:visible;visibility:visible;fill:#fcd116;fill-opacity:1;fill-rule:evenodd;stroke:#000000;stroke-width:0.63620555;stroke-linecap:butt;stroke-linejoin:miter;stroke-miterlimit:4;stroke-dasharray:none;stroke-dashoffset:0;stroke-opacity:1;enable-background:accumulate" />
    <path
       inkscape:transform-center-y="-74.919735"
       inkscape:transform-center-x="29.81105"
       sodipodi:nodetypes="cccc"
       inkscape:connector-curvature="0"
       id="path8516-5"
       d="m 91.898609,101.42298 0.361959,9.72371 7.303979,-3.91576 z"
       style="display:inline;fill:#0038a8;fill-opacity:1;fill-rule:evenodd;stroke:none;stroke-width:0.21206851" />
    <path
       inkscape:transform-center-y="26.624615"
       inkscape:transform-center-x="-78.11795"
       sodipodi:nodetypes="cccc"
       inkscape:connector-curvature="0"
       id="path8516-9"
       d="m 123.41462,130.97011 -6.71909,-7.03817 -2.87031,7.77452 z"
       style="display:inline;fill:#0038a8;fill-opacity:1;fill-rule:evenodd;stroke:none;stroke-width:0.21206851" />
    <path
       inkscape:transform-center-y="-5.36588"
       inkscape:transform-center-x="-86.7286"
       sodipodi:nodetypes="cccc"
       inkscape:connector-curvature="0"
       id="path8516-74"
       d="m 125.0561,120.03559 -9.22026,-3.10952 1.07144,8.2179 z"
       style="display:inline;fill:#0038a8;fill-opacity:1;fill-rule:evenodd;stroke:none;stroke-width:0.21206851" />
    <path
       inkscape:transform-center-y="-39.73793"
       inkscape:transform-center-x="-68.7038"
       sodipodi:nodetypes="cccc"
       inkscape:connector-curvature="0"
       id="path8516-75"
       d="m 121.42807,109.59071 -9.60919,1.53147 4.76771,6.77869 z"
       style="display:inline;fill:#0038a8;fill-opacity:1;fill-rule:evenodd;stroke:none;stroke-width:0.21206851" />
    <path
       inkscape:transform-center-y="-72.33808"
       inkscape:transform-center-x="-34.94015"
       sodipodi:nodetypes="cccc"
       inkscape:connector-curvature="0"
       id="path8516-8"
       d="m 113.36168,102.02821 -7.79682,5.82161 7.37177,3.78662 z"
       style="display:inline;fill:#0038a8;fill-opacity:1;fill-rule:evenodd;stroke:none;stroke-width:0.21206851" />
    <path
       inkscape:transform-center-y="61.48735"
       inkscape:transform-center-x="-49.0836"
       sodipodi:nodetypes="cccc"
       inkscape:connector-curvature="0"
       id="path8516-40"
       d="m 116.8792,139.88976 -2.67847,-9.35455 -6.15463,5.54991 z"
       style="display:inline;fill:#0038a8;fill-opacity:1;fill-rule:evenodd;stroke:none;stroke-width:0.21206851" />
    <path
       inkscape:transform-center-y="83.998205"
       inkscape:transform-center-x="-13.46375"
       sodipodi:nodetypes="cccc"
       inkscape:connector-curvature="0"
       id="path8516-81"
       d="m 106.94761,144.75022 1.97561,-9.52778 -8.02883,2.054 z"
       style="display:inline;fill:#0038a8;fill-opacity:1;fill-rule:evenodd;stroke:none;stroke-width:0.21206851" />
    <path
       inkscape:transform-center-y="82.757045"
       inkscape:transform-center-x="18.9254"
       sodipodi:nodetypes="cccc"
       inkscape:connector-curvature="0"
       id="path8516-31"
       d="m 95.89485,144.43851 6.17709,-7.51833 -8.063715,-1.91245 z"
       style="display:inline;fill:#0038a8;fill-opacity:1;fill-rule:evenodd;stroke:none;stroke-width:0.21206851" />
    <path
       inkscape:transform-center-y="57.714485"
       inkscape:transform-center-x="53.3735"
       sodipodi:nodetypes="cccc"
       inkscape:connector-curvature="0"
       id="path8516-0"
       d="m 86.252985,139.02603 8.963479,-3.78651 -6.251314,-5.44079 z"
       style="display:inline;fill:#0038a8;fill-opacity:1;fill-rule:evenodd;stroke:none;stroke-width:0.21206851" />
    <path
       inkscape:transform-center-y="21.366475"
       inkscape:transform-center-x="80.04255"
       sodipodi:nodetypes="cccc"
       inkscape:connector-curvature="0"
       id="path8516-1"
       d="m 80.230833,129.75272 9.696451,0.81275 -3.006813,-7.72272 z"
       style="display:inline;fill:#0038a8;fill-opacity:1;fill-rule:evenodd;stroke:none;stroke-width:0.21206851" />
    <path
       inkscape:transform-center-y="-10.948775"
       inkscape:transform-center-x="86.19035"
       sodipodi:nodetypes="cccc"
       inkscape:connector-curvature="0"
       id="path8516-745"
       d="m 79.208005,118.74298 8.20807,5.22581 0.926527,-8.23546 z"
       style="display:inline;fill:#0038a8;fill-opacity:1;fill-rule:evenodd;stroke:none;stroke-width:0.21206851" />
    <path
       inkscape:transform-center-y="-44.48135"
       inkscape:transform-center-x="65.50375"
       sodipodi:nodetypes="cccc"
       inkscape:connector-curvature="0"
       id="path8516-6"
       d="m 83.418816,108.51901 4.839319,8.4417 4.647609,-6.86156 z"
       style="display:inline;fill:#0038a8;fill-opacity:1;fill-rule:evenodd;stroke:none;stroke-width:0.21206851" />
    <path
       inkscape:transform-center-y="-88.194915"
       inkscape:transform-center-x="-2.8125"
       sodipodi:nodetypes="cccc"
       inkscape:connector-curvature="0"
       id="path8516"
       d="m 102.70479,99.080531 -4.198338,8.778119 8.287108,-0.0729 z"
       style="display:inline;fill:#0038a8;fill-opacity:1;fill-rule:evenodd;stroke:none;stroke-width:0.21206851" />
    <ellipse
       ry="15.689389"
       rx="15.689391"
       cy="122.17295"
       cx="102.05357"
       id="path8497"
       style="color:#000000;display:inline;overflow:visible;visibility:visible;fill:#0038a8;fill-opacity:1;fill-rule:evenodd;stroke:none;stroke-width:0.21206851;enable-background:accumulate" />
    <path
       sodipodi:open="true"
       d="m 74.207433,131.39267 a 29.33276,29.332756 0 0 1 11.570508,-33.622883 29.33276,29.332756 0 0 1 35.487579,2.237613 29.33276,29.332756 0 0 1 7.25559,34.80993"
       sodipodi:end="0.44567489"
       sodipodi:start="2.8218578"
       sodipodi:ry="29.332756"
       sodipodi:rx="29.33276"
       sodipodi:cy="122.17295"
       sodipodi:cx="102.05357"
       sodipodi:type="arc"
       id="path8497-8-3"
       style="color:#000000;display:inline;overflow:visible;visibility:visible;fill:none;stroke:none;stroke-width:0.21206851;enable-background:accumulate" />
    <path
       sodipodi:open="true"
       d="m 73.032184,-142.82303 a 35.618351,35.618347 0 0 1 30.973346,-14.91474 35.618351,35.618347 0 0 1 29.15505,18.21486"
       sodipodi:end="5.7744108"
       sodipodi:start="3.7600263"
       sodipodi:ry="35.618347"
       sodipodi:rx="35.618351"
       sodipodi:cy="-122.17295"
       sodipodi:cx="102.05357"
       sodipodi:type="arc"
       transform="scale(1,-1)"
       id="path8497-8-3-7"
       style="color:#000000;display:inline;overflow:visible;visibility:visible;fill:none;stroke:none;stroke-width:0.21206851;enable-background:accumulate" />
    <circle
       style="opacity:1;fill:none;fill-opacity:1;fill-rule:nonzero;stroke:none;stroke-width:0.03599026;stroke-linecap:square;stroke-linejoin:bevel;stroke-miterlimit:4;stroke-dasharray:none;stroke-dashoffset:0;stroke-opacity:1"
       id="path3910"
       cx="122.17295"
       cy="-102.05357"
       r="29.732004"
       transform="rotate(90)" />
    <circle
       style="opacity:1;fill:none;fill-opacity:1;fill-rule:nonzero;stroke:none;stroke-width:0.04294636;stroke-linecap:square;stroke-linejoin:bevel;stroke-miterlimit:4;stroke-dasharray:none;stroke-dashoffset:0;stroke-opacity:1"
       id="path3910-3"
       cx="-122.17295"
       cy="-102.05357"
       r="35.478527"
       transform="matrix(0,-1,-1,0,0,0)" />
    <circle
       style="opacity:1;fill:#000000;fill-opacity:1;fill-rule:nonzero;stroke:none;stroke-width:0.0370417;stroke-linecap:square;stroke-linejoin:bevel;stroke-miterlimit:4;stroke-dasharray:none;stroke-dashoffset:0;stroke-opacity:1"
       id="path3937"
       cx="73.89518"
       cy="137.83427"
       r="0.92604166" />
    <circle
       style="opacity:1;fill:#000000;fill-opacity:1;fill-rule:nonzero;stroke:none;stroke-width:0.0370417;stroke-linecap:square;stroke-linejoin:bevel;stroke-miterlimit:4;stroke-dasharray:none;stroke-dashoffset:0;stroke-opacity:1"
       id="path3937-9"
       cx="129.8725"
       cy="137.83417"
       r="0.92604166" />
    <path
       style="fill:none;stroke:none;stroke-width:0.264583;stroke-dasharray:none;stroke-opacity:1"
       id="path236"
       transform="scale(-1,1)"
       sodipodi:type="arc"
       sodipodi:cx="-102.05357"
       sodipodi:cy="122.17295"
       sodipodi:rx="35.601768"
       sodipodi:ry="35.601772"
       sodipodi:start="0.68376272"
       sodipodi:end="2.5329255"
       sodipodi:open="true"
       sodipodi:arc-type="arc"
       d="m -74.455038,144.6631 a 35.601768,35.601772 0 0 1 -28.934992,13.08653 35.601768,35.601772 0 0 1 -27.87162,-15.22049" />
    <path
       style="fill:none;stroke:none;stroke-width:0.220391;stroke-dasharray:none;stroke-opacity:1"
       id="path236-7"
       sodipodi:type="arc"
       sodipodi:cx="102.05357"
       sodipodi:cy="122.17295"
       sodipodi:rx="29.655426"
       sodipodi:ry="29.65543"
       sodipodi:start="2.794369"
       sodipodi:end="0.6944158"
       sodipodi:open="true"
       sodipodi:arc-type="arc"
       d="m 74.167951,132.26435 a 29.655426,29.65543 0 0 1 13.05764,-35.773599 29.655426,29.65543 0 0 1 37.509799,6.577759 29.655426,29.65543 0 0 1 0.10623,38.08204" />
    <g
       aria-label="DEPARTMENT OF ENERGY"
       id="text1049"
       style="font-size:8.29028px;line-height:0px;letter-spacing:0.330729px;word-spacing:-0.79375px;fill:none;stroke:#000000;stroke-width:0.264583">
      <path
         d="m 72.896403,131.57148 -3.213814,0.78039 q -0.440572,0.10698 -0.540998,0.29383 -0.105315,0.18387 0.01526,0.64613 l -0.216353,0.0525 q -0.06113,-0.25175 -0.354776,-1.25518 -0.121761,-0.43281 -0.295606,-1.14874 -0.455626,-1.87637 0.0805,-2.75636 0.524213,-0.86045 1.546969,-1.1088 0.3737,-0.0907 0.756499,-0.0754 0.3828,0.0154 0.796053,0.17328 0.408364,0.15494 0.762777,0.44795 0.349523,0.29003 0.64942,0.80456 0.295963,0.51549 0.461211,1.19602 l 0.608457,2.50575 -0.216352,0.0525 q -0.08501,-0.35009 -0.178291,-0.49407 -0.09328,-0.14397 -0.231574,-0.16454 -0.142229,-0.0196 -0.429388,0.0501 z m -4.181975,0.0699 4.028085,-0.97812 q 0.381567,-0.0926 0.459008,-0.21976 0.07351,-0.12616 -0.02201,-0.51953 -0.168113,-0.69232 -0.411931,-1.07884 -0.248707,-0.38949 -0.615372,-0.61288 -0.78222,-0.47656 -1.883649,-0.2091 -1.105364,0.2684 -1.572986,1.03596 -0.232322,0.38133 -0.269818,0.84449 -0.0375,0.46315 0.130617,1.15548 0.09361,0.3855 0.158059,0.5823 z"
         style="font-weight:600;font-family:'Bembo Std';-inkscape-font-specification:'Bembo Std Semi-Bold';fill:#000000;stroke:none"
         id="path2245" />
      <path
         d="m 72.334173,121.06989 0.163941,4.49028 -0.222491,0.008 q -0.01846,-0.50566 -0.137786,-0.66738 -0.119323,-0.16172 -0.467218,-0.14902 l -3.567949,0.13027 q -0.161812,0.006 -0.26566,0.0461 -0.107894,0.0404 -0.16246,0.0991 -0.05876,0.0548 -0.08265,0.1772 -0.02793,0.12254 -0.02814,0.22786 -0.0043,0.10548 0.0031,0.30774 l -0.222491,0.008 -0.154637,-4.23542 1.239246,-0.11816 0.0081,0.22249 -0.172471,0.0468 q -0.172323,0.0508 -0.284262,0.0914 -0.111939,0.0405 -0.190777,0.10013 -0.07884,0.0596 -0.117519,0.10961 -0.03883,0.046 -0.05551,0.1438 -0.02088,0.0939 -0.02197,0.17498 -0.0012,0.077 0.0045,0.23478 l 0.05317,1.4563 1.929605,-0.0705 -0.04682,-1.28236 q -0.0072,-0.19822 -0.02696,-0.29471 -0.01987,-0.10054 -0.0913,-0.17085 -0.07158,-0.0744 -0.189924,-0.0984 -0.118347,-0.024 -0.341577,-0.0361 l -0.0081,-0.22249 1.662615,-0.0607 0.0081,0.22249 q -0.225798,0.0285 -0.349873,0.0695 -0.124223,0.0369 -0.190186,0.11631 -0.07016,0.0755 -0.08669,0.17735 -0.01668,0.0978 -0.0099,0.28391 l 0.04682,1.28236 1.504849,-0.055 q 0.388349,-0.0142 0.490425,-0.10297 0.102076,-0.0888 0.09055,-0.40432 l -0.03367,-0.92233 q -0.0097,-0.26699 -0.03588,-0.42806 -0.02628,-0.16512 -0.07955,-0.2928 -0.05746,-0.13157 -0.173685,-0.20834 -0.11637,-0.0808 -0.268409,-0.14008 -0.156232,-0.0632 -0.417641,-0.12247 l -0.0081,-0.22249 z"
         style="font-weight:600;font-family:'Bembo Std';-inkscape-font-specification:'Bembo Std Semi-Bold';fill:#000000;stroke:none"
         id="path2242" />
      <path
         d="m 72.408912,120.28919 -0.221051,-0.0266 q 0.02414,-0.30288 -0.02376,-0.44725 -0.05192,-0.14485 -0.221999,-0.22236 -0.169601,-0.0815 -0.543379,-0.12641 l -2.929933,-0.35184 q -0.309472,-0.0372 -0.477634,-0.0288 -0.172181,0.008 -0.276687,0.0972 -0.108042,0.0849 -0.144065,0.2151 -0.04004,0.12973 -0.07238,0.39901 l -0.221052,-0.0265 q 0.03089,-0.25723 0.07772,-0.85093 0.07805,-0.98951 0.09109,-1.09803 0.146723,-1.22181 0.550774,-1.76854 0.400033,-0.54721 1.215913,-0.44924 0.72344,0.0869 1.112444,0.684 0.389003,0.59711 0.284271,1.46926 -0.04247,0.35368 -0.137351,0.66846 l 1.125351,0.13513 q 0.478275,0.0574 0.652237,-0.10106 0.170426,-0.163 0.24298,-0.73324 l 0.221051,0.0266 z m -4.738396,-2.19984 2.552137,0.30647 q 0.07301,-0.26847 0.08266,-0.34885 0.06805,-0.5667 -0.274828,-0.97073 -0.346899,-0.40452 -0.953785,-0.4774 -0.229089,-0.0275 -0.436802,0.005 -0.207713,0.0321 -0.412538,0.14208 -0.204343,0.10593 -0.347284,0.34562 -0.142942,0.23969 -0.185414,0.59337 -0.02558,0.21301 -0.02415,0.40481 z"
         style="font-weight:600;font-family:'Bembo Std';-inkscape-font-specification:'Bembo Std Semi-Bold';fill:#000000;stroke:none"
         id="path2239" />
      <path
         d="m 72.836402,116.33697 -0.213107,-0.0644 q 0.06058,-0.21427 0.07636,-0.33637 0.01191,-0.12328 -0.04017,-0.24475 -0.05478,-0.12652 -0.163891,-0.22719 -0.107943,-0.10454 -0.32897,-0.26865 l -3.499217,-2.62302 -0.220232,0.001 0.268346,-0.8873 4.602997,-0.29954 q 0.37072,-0.0232 0.530942,-0.0636 0.161393,-0.0442 0.258183,-0.15451 0.09409,-0.11534 0.172599,-0.37494 l 0.213106,0.0644 -0.713635,2.35967 -0.213107,-0.0644 q 0.14179,-0.46884 0.130183,-0.6542 -0.01161,-0.18536 -0.182092,-0.23692 -0.135613,-0.041 -0.45515,-0.0192 l -1.100175,0.0859 -0.549582,1.81722 0.940603,0.70738 q 0.203998,0.1505 0.308614,0.18214 0.182109,0.0551 0.306116,-0.0893 0.121304,-0.14939 0.24408,-0.61129 l 0.213106,0.0645 z m -1.776127,-2.46137 0.45818,-1.515 -2.236755,0.15244 z"
         style="font-weight:600;font-family:'Bembo Std';-inkscape-font-specification:'Bembo Std Semi-Bold';fill:#000000;stroke:none"
         id="path2236" />
      <path
         d="m 73.678291,107.78823 0.957102,0.52774 q 0.251683,0.13877 0.394569,0.18982 0.139341,0.0491 0.272918,0.0164 0.133576,-0.0327 0.231074,-0.15918 0.09395,-0.12848 0.229548,-0.39116 l 0.194966,0.1075 -1.225528,2.22261 -0.194966,-0.1075 q 0.134138,-0.22651 0.181644,-0.37135 0.04946,-0.14838 0.0015,-0.26265 -0.04598,-0.1178 -0.142555,-0.19416 -0.09462,-0.0799 -0.293128,-0.18937 l -2.913846,-1.60667 q -0.191421,-0.10555 -0.305948,-0.14096 -0.114528,-0.0354 -0.226471,-7e-5 -0.113533,0.0298 -0.205167,0.14574 -0.09518,0.11393 -0.222228,0.34434 l -0.194965,-0.1075 q 0.03909,-0.0709 0.11214,-0.22014 0.07305,-0.14925 0.189827,-0.39457 0.116778,-0.24532 0.2211,-0.45129 0.198871,-0.3942 0.474469,-0.89402 0.234551,-0.42538 0.496633,-0.72464 0.258537,-0.30121 0.500245,-0.45453 0.243664,-0.15687 0.493953,-0.20839 0.252245,-0.0551 0.469804,-0.0137 0.215969,0.0359 0.421568,0.14924 0.801131,0.44174 0.679688,1.5674 0.177439,-0.0871 0.798873,-0.26676 l 0.734967,-0.20955 q 0.75342,-0.21786 1.210201,-0.49297 0.456782,-0.27511 0.751098,-0.69989 l 0.2056,0.11337 q -0.225871,0.43478 -0.428188,0.73464 -0.202318,0.29985 -0.380584,0.4974 -0.179856,0.19205 -0.413746,0.33119 -0.231936,0.1356 -0.438098,0.21608 -0.209706,0.0785 -0.556169,0.1787 l -0.599437,0.17333 q -0.445452,0.12881 -0.642206,0.2006 -0.200297,0.0698 -0.484544,0.19971 -0.194465,0.41975 -0.355735,0.64516 z m -2.477833,-1.36626 2.272233,1.25289 q 0.103361,-0.13715 0.148317,-0.21868 0.359015,-0.72656 0.248294,-1.17128 -0.112311,-0.45023 -0.683028,-0.76492 -0.560082,-0.30882 -1.031077,-0.17561 -0.469041,0.12967 -0.791548,0.71457 -0.121185,0.21978 -0.163191,0.36303 z"
         style="font-weight:600;font-family:'Bembo Std';-inkscape-font-specification:'Bembo Std Semi-Bold';fill:#000000;stroke:none"
         id="path2233" />
      <path
         d="m 74.914382,102.3043 -0.984752,-1.04621 0.145329,-0.16866 q 0.113659,0.0231 0.17613,-0.0246 0.08974,-0.0669 0.282635,-0.2908 l 2.290918,-2.658768 q 0.206103,-0.239197 0.248477,-0.325584 0.04237,-0.08639 -0.0044,-0.17476 l 0.145329,-0.168664 1.180286,0.819284 -0.158541,0.183998 q -0.223112,-0.144153 -0.374843,-0.216114 -0.154798,-0.0746 -0.265814,-0.100797 -0.111016,-0.02619 -0.211232,0.0157 -0.09757,0.03882 -0.167547,0.101429 -0.06997,0.06261 -0.180953,0.191404 l -0.774209,0.898521 2.959294,2.549872 q 0.116532,0.10041 0.192349,0.15505 0.07539,0.0489 0.163573,0.0768 0.08776,0.0222 0.155415,0.006 0.06724,-0.0222 0.165754,-0.087 0.09545,-0.0674 0.19671,-0.17248 0.101258,-0.10511 0.251872,-0.27991 l 0.168664,0.14533 -1.857572,2.15584 -0.168665,-0.14533 q 0.280089,-0.32506 0.367056,-0.50661 0.08961,-0.18462 0.0364,-0.32131 -0.05364,-0.14239 -0.271367,-0.33 l -2.959293,-2.54987 -0.774209,0.89852 q -0.108337,0.12574 -0.159911,0.20419 -0.05157,0.0785 -0.07819,0.18377 -0.02397,0.10224 0.01834,0.20817 0.04232,0.10592 0.136338,0.25106 0.09096,0.14249 0.266506,0.34184 z"
         style="font-weight:600;font-family:'Bembo Std';-inkscape-font-specification:'Bembo Std Semi-Bold';fill:#000000;stroke:none"
         id="path2230" />
      <path
         d="m 81.745266,100.24456 -0.129837,-0.18086 q 0.22361,-0.160522 0.301437,-0.281174 0.07547,-0.123939 0.03551,-0.304543 -0.03996,-0.180604 -0.232689,-0.490722 l -1.618819,-2.595109 q -0.107746,-0.191737 -0.208244,-0.303964 -0.09957,-0.117876 -0.170309,-0.181705 -0.07074,-0.06383 -0.158256,-0.0608 -0.08988,-2.57e-4 -0.171666,0.03852 -0.08415,0.03549 -0.209106,0.125198 l -0.129838,-0.18086 1.246295,-0.894697 3.691383,2.073963 -0.863379,-4.104144 1.246295,-0.894696 0.129837,0.180861 q -0.2828,0.203018 -0.311642,0.343317 -0.02555,0.137938 0.161785,0.357248 l 2.44349,2.890077 q 0.19442,0.229176 0.346861,0.219402 0.15337,-0.01542 0.472342,-0.244409 l 0.129837,0.180861 -1.913835,1.373913 -0.129837,-0.18086 q 0.144689,-0.10387 0.230609,-0.185483 0.08592,-0.08161 0.137946,-0.168793 0.04966,-0.09047 0.04334,-0.175626 -0.0087,-0.08845 -0.04847,-0.199406 -0.04215,-0.114248 -0.143157,-0.241062 -0.103364,-0.130102 -0.237417,-0.302953 l -1.965532,-2.356176 -0.01315,0.0094 0.96816,4.631874 -0.230187,0.165247 -4.041533,-2.291003 -0.01315,0.0094 1.625901,2.604974 q 0.07133,0.113238 0.131775,0.204385 0.06138,0.0855 0.123178,0.15076 0.05944,0.06197 0.100498,0.112227 0.04199,0.0446 0.09898,0.06847 0.05792,0.01821 0.08996,0.03508 0.03533,0.0145 0.101178,0.0021 0.06349,-0.01568 0.09359,-0.02234 0.0301,-0.0067 0.106239,-0.04637 0.07943,-0.04207 0.114671,-0.06239 0.03853,-0.02268 0.135328,-0.0822 l 0.129837,0.180861 z"
         style="font-weight:600;font-family:'Bembo Std';-inkscape-font-specification:'Bembo Std Semi-Bold';fill:#000000;stroke:none"
         id="path2227" />
      <path
         d="m 92.469308,94.020523 -4.13437,1.759669 -0.08719,-0.204857 q 0.465582,-0.198161 0.573905,-0.367448 0.108323,-0.169287 -0.02801,-0.489607 l -1.398223,-3.285149 q -0.06341,-0.148986 -0.138151,-0.231559 -0.07632,-0.0863 -0.150664,-0.11625 -0.0722,-0.03526 -0.195036,-0.01378 -0.124422,0.01776 -0.222849,0.05525 -0.100012,0.03377 -0.286244,0.113033 l -0.08719,-0.204856 3.899716,-1.659796 0.553727,1.114935 -0.204856,0.08719 L 90.458455,90.433 q -0.109138,-0.142722 -0.187048,-0.232745 -0.07791,-0.09002 -0.161761,-0.142322 -0.08385,-0.0523 -0.1444,-0.07052 -0.05682,-0.01981 -0.154142,-3.85e-4 -0.09518,0.01411 -0.171258,0.0421 -0.07235,0.0264 -0.217615,0.08822 l -1.340877,0.570703 0.756182,1.776662 1.180717,-0.502536 q 0.182508,-0.07768 0.265559,-0.130625 0.08678,-0.05453 0.126869,-0.146385 0.04382,-0.09344 0.02392,-0.212552 -0.0199,-0.119112 -0.08847,-0.331894 l 0.204856,-0.08719 0.651553,1.530834 -0.204856,0.08719 q -0.1074,-0.200654 -0.190066,-0.301851 -0.07894,-0.102782 -0.176659,-0.135981 -0.09558,-0.03851 -0.196622,-0.0175 -0.09732,0.01942 -0.268652,0.09235 l -1.180717,0.502536 0.589727,1.385573 q 0.152188,0.357567 0.271623,0.421117 0.119435,0.06355 0.409958,-0.0601 l 0.849222,-0.361446 q 0.245828,-0.104629 0.386888,-0.186664 0.144784,-0.08362 0.24495,-0.179045 0.102305,-0.100735 0.13241,-0.236731 0.03383,-0.137581 0.03477,-0.300758 0.0031,-0.168487 -0.03506,-0.433815 l 0.204857,-0.08719 z"
         style="font-weight:600;font-family:'Bembo Std';-inkscape-font-specification:'Bembo Std Semi-Bold';fill:#000000;stroke:none"
         id="path2224" />
      <path
         d="m 98.274521,92.735577 -4.803615,-3.398233 0.618029,3.121118 q 0.0519,0.262078 0.104028,0.400312 0.05135,0.134264 0.155964,0.224965 0.107803,0.08595 0.272929,0.08626 0.16434,-0.0037 0.439157,-0.07458 l 0.04325,0.218399 -1.945735,0.385285 -0.04325,-0.218399 q 0.219971,-0.0353 0.34472,-0.09302 0.127934,-0.06247 0.186082,-0.164771 0.05736,-0.10627 0.05681,-0.234085 -0.0013,-0.131787 -0.04301,-0.342244 l -0.724965,-3.661158 q -0.172084,-0.09798 -0.333986,-0.123689 -0.162688,-0.02968 -0.400902,-0.0031 l -0.04325,-0.218399 1.473199,-0.291715 4.384196,3.114018 -0.576355,-2.910661 q -0.03224,-0.162806 -0.06459,-0.263691 -0.02839,-0.10167 -0.07666,-0.178768 -0.04907,-0.08107 -0.109337,-0.114527 -0.06027,-0.03346 -0.161862,-0.04635 -0.101592,-0.0129 -0.222291,0.0028 -0.120699,0.01565 -0.306545,0.05657 l -0.04325,-0.218399 1.96559,-0.389217 0.04325,0.218399 q -0.218399,0.04325 -0.34075,0.09223 -0.118379,0.0482 -0.193984,0.145703 -0.07163,0.09672 -0.07985,0.242774 -0.0042,0.145272 0.04215,0.379554 l 0.825611,4.169432 z"
         style="font-weight:600;font-family:'Bembo Std';-inkscape-font-specification:'Bembo Std Semi-Bold';fill:#000000;stroke:none"
         id="path2221" />
      <path
         d="m 100.24978,88.587949 0.18705,-1.424541 0.22256,0.0058 q 0.054,0.102645 0.13047,0.12084 0.10863,0.02713 0.40403,0.03485 l 3.50841,0.09166 q 0.31563,0.0082 0.40934,-0.0136 0.0937,-0.02185 0.13256,-0.113969 l 0.22256,0.0058 0.1124,1.432364 -0.24279,-0.0063 q -0.0296,-0.263981 -0.0698,-0.427008 -0.0402,-0.167074 -0.0901,-0.269614 -0.05,-0.102539 -0.14582,-0.153636 -0.0918,-0.05099 -0.18456,-0.06556 -0.0927,-0.01457 -0.26271,-0.01901 l -1.18565,-0.03098 -0.10202,3.904977 q -0.004,0.153771 0.002,0.247054 0.01,0.08934 0.044,0.175273 0.0384,0.08199 0.0939,0.123935 0.0598,0.03801 0.17221,0.07334 0.11256,0.03129 0.25803,0.04319 0.14547,0.0119 0.37612,0.01793 l -0.006,0.222564 -2.84477,-0.07432 0.006,-0.222564 q 0.42894,0.01121 0.62455,-0.03632 0.19966,-0.04743 0.27183,-0.175119 0.0763,-0.131636 0.0838,-0.418945 l 0.10202,-3.904976 -1.18566,-0.03098 q -0.16591,-0.0043 -0.2593,0.0054 -0.0934,0.0097 -0.19178,0.05573 -0.0943,0.04613 -0.14959,0.145919 -0.0552,0.09979 -0.10814,0.264433 -0.0528,0.160595 -0.0961,0.422673 z"
         style="font-weight:600;font-family:'Bembo Std';-inkscape-font-specification:'Bembo Std Semi-Bold';fill:#000000;stroke:none"
         id="path2218" />
      <path
         d="m 109.49264,90.808584 q 0.19731,-0.5828 0.58207,-1.01239 0.38477,-0.429589 0.87994,-0.655125 0.50031,-0.228072 1.09823,-0.25215 0.60176,-0.02278 1.21907,0.186211 0.83969,0.284279 1.38506,0.819358 0.54667,0.531245 0.71497,1.220729 0.17214,0.690781 -0.0732,1.415448 -0.17913,0.529121 -0.54974,0.942136 -0.36931,0.40918 -0.86454,0.647517 -0.49141,0.239634 -1.11752,0.271261 -0.62099,0.02909 -1.26514,-0.188987 -0.80902,-0.273895 -1.35185,-0.803842 -0.54154,-0.533781 -0.71757,-1.21306 -0.17473,-0.683113 0.0602,-1.377106 z m 1.01845,0.109745 q -0.15577,0.460105 -0.17828,0.892674 -0.0174,0.430032 0.0834,0.776132 0.10079,0.346099 0.29018,0.63245 0.19069,0.282516 0.44581,0.475728 0.25894,0.194509 0.56185,0.297057 0.82052,0.27779 1.52406,-0.159266 0.70868,-0.439591 1.04358,-1.428819 0.36087,-1.065911 0.0347,-1.932789 -0.3249,-0.870711 -1.19144,-1.164078 -0.85119,-0.288173 -1.55857,0.147584 -0.70738,0.435757 -1.05526,1.463327 z"
         style="font-weight:600;font-family:'Bembo Std';-inkscape-font-specification:'Bembo Std Semi-Bold';fill:#000000;stroke:none"
         id="path2215" />
      <path
         d="m 118.05607,94.184415 -0.79027,1.343245 q -0.25248,0.429141 -0.21678,0.623917 0.0357,0.194777 0.43343,0.428781 l -0.11289,0.191892 -1.96428,-1.155652 0.1129,-0.191892 q 0.32796,0.19295 0.5135,0.133034 0.18759,-0.06341 0.36618,-0.366945 l 1.75298,-2.979562 q 0.17242,-0.293071 0.11804,-0.48005 -0.0544,-0.186979 -0.3614,-0.367613 l 0.1129,-0.191893 3.40172,2.001352 -0.52548,0.893171 -0.19538,-0.114949 q 0.18495,-0.370242 0.10553,-0.562558 -0.0759,-0.190265 -0.51204,-0.446848 l -1.11995,-0.658907 -0.92986,1.580494 1.11995,0.658906 q 0.33145,0.195004 0.48887,0.174902 0.15742,-0.0201 0.3592,-0.291211 l 0.19538,0.11495 -0.77386,1.315333 -0.19538,-0.114949 q 0.16011,-0.351977 0.10102,-0.522947 -0.057,-0.174459 -0.39896,-0.375621 z"
         style="font-weight:600;font-family:'Bembo Std';-inkscape-font-specification:'Bembo Std Semi-Bold';fill:#000000;stroke:none"
         id="path2212" />
      <path
         d="m 124.42099,102.57892 -3.19962,-3.154655 0.15631,-0.15854 q 0.36032,0.355254 0.55808,0.391067 0.19776,0.03581 0.44218,-0.212086 l 2.50667,-2.542402 q 0.11368,-0.115301 0.16163,-0.215826 0.0508,-0.103407 0.0502,-0.183551 0.005,-0.08018 -0.0614,-0.185623 -0.0637,-0.108322 -0.13584,-0.185097 -0.0693,-0.07966 -0.21339,-0.22176 l 0.15631,-0.15854 3.01802,2.975612 -0.82062,0.936096 -0.15853,-0.156311 0.0934,-0.15237 q 0.0905,-0.155212 0.14413,-0.261501 0.0536,-0.10629 0.0701,-0.203729 0.0165,-0.09744 0.0103,-0.160369 -0.003,-0.06009 -0.0583,-0.14271 -0.0493,-0.08266 -0.10406,-0.142385 -0.0519,-0.05688 -0.16434,-0.16772 l -1.03772,-1.023133 -1.35565,1.374972 0.91377,0.900925 q 0.14124,0.13926 0.22179,0.195939 0.0834,0.05952 0.18363,0.06167 0.10308,0.005 0.20568,-0.0587 0.1026,-0.0637 0.27332,-0.208029 l 0.15854,0.156312 -1.16807,1.184724 -0.15854,-0.15631 q 0.14474,-0.17563 0.2069,-0.29057 0.065,-0.1121 0.0586,-0.2151 -7.3e-4,-0.10304 -0.0586,-0.1885 -0.055,-0.08263 -0.18756,-0.21336 l -0.91377,-0.900925 -1.05724,1.072305 q -0.27283,0.27672 -0.28619,0.41135 -0.0134,0.13463 0.21148,0.35631 l 0.65722,0.64798 q 0.19024,0.18758 0.31976,0.28685 0.13239,0.10211 0.25874,0.15846 0.13207,0.0563 0.26929,0.0324 0.14012,-0.021 0.29139,-0.0822 0.157,-0.0612 0.3879,-0.19739 l 0.15853,0.15631 z"
         style="font-weight:600;font-family:'Bembo Std';-inkscape-font-specification:'Bembo Std Semi-Bold';fill:#000000;stroke:none"
         id="path2209" />
      <path
         d="m 127.82459,107.4545 1.30608,-5.73733 -2.6485,1.76318 q -0.22239,0.14806 -0.33024,0.24903 -0.10448,0.0987 -0.14835,0.23006 -0.0383,0.13246 0.0245,0.28518 0.0661,0.15049 0.23664,0.37739 l -0.18532,0.12338 -1.09919,-1.6511 0.18533,-0.12338 q 0.11664,0.18981 0.21762,0.28307 0.1066,0.0944 0.22335,0.10904 0.12012,0.0124 0.23804,-0.0369 0.12129,-0.0516 0.29987,-0.17046 l 3.10677,-2.06826 q 0.0248,-0.19646 -0.0132,-0.35591 -0.0347,-0.16169 -0.1502,-0.37171 l 0.18533,-0.12338 0.83224,1.25012 -1.20358,5.24115 2.4699,-1.64429 q 0.13816,-0.092 0.21904,-0.1604 0.0831,-0.0651 0.13593,-0.13913 0.0562,-0.0763 0.0641,-0.14479 0.008,-0.0685 -0.019,-0.16729 -0.0269,-0.0988 -0.0874,-0.20439 -0.0606,-0.10558 -0.16936,-0.26171 l 0.18533,-0.12337 1.11039,1.66794 -0.18532,0.12338 q -0.12338,-0.18533 -0.21538,-0.27969 -0.0898,-0.091 -0.20874,-0.12364 -0.11675,-0.0293 -0.25487,0.0189 -0.13588,0.0516 -0.33469,0.18391 l -3.53807,2.35539 z"
         style="font-weight:600;font-family:'Bembo Std';-inkscape-font-specification:'Bembo Std Semi-Bold';fill:#000000;stroke:none"
         id="path2206" />
      <path
         d="m 130.40291,113.18576 -1.66895,-4.17181 0.20671,-0.0827 q 0.18795,0.4698 0.35483,0.5818 0.16688,0.11199 0.4901,-0.0173 l 3.3149,-1.32615 q 0.15034,-0.0601 0.23452,-0.13306 0.088,-0.0744 0.11952,-0.14809 0.0368,-0.0714 0.018,-0.19469 -0.015,-0.12478 -0.0504,-0.224 -0.0316,-0.10072 -0.10675,-0.28864 l 0.20671,-0.0827 1.57423,3.93504 -1.12676,0.52924 -0.0827,-0.20671 0.14658,-0.10224 q 0.14507,-0.10599 0.23677,-0.18192 0.0917,-0.0759 0.14582,-0.15861 0.0541,-0.0827 0.0737,-0.14283 0.0211,-0.0564 0.004,-0.15409 -0.012,-0.0955 -0.0383,-0.17214 -0.0248,-0.0729 -0.0834,-0.21949 l -0.54128,-1.35302 -1.79275,0.7172 0.47662,1.19141 q 0.0737,0.18416 0.1248,0.26835 0.0526,0.0879 0.14358,0.13003 0.0925,0.0459 0.21198,0.0286 0.11951,-0.0173 0.33374,-0.0812 l 0.0827,0.20671 -1.5447,0.61797 -0.0827,-0.20672 q 0.20296,-0.10299 0.30593,-0.18342 0.10449,-0.0767 0.13981,-0.17365 0.0406,-0.0947 0.0218,-0.19619 -0.0173,-0.0977 -0.0865,-0.27061 l -0.47663,-1.19141 -1.39812,0.55933 q -0.3608,0.14434 -0.42695,0.26236 -0.0661,0.11801 0.0511,0.41117 l 0.34281,0.85691 q 0.0992,0.24806 0.17817,0.39087 0.0804,0.14658 0.17365,0.24881 0.0985,0.10448 0.23379,0.13755 0.13681,0.0368 0.29992,0.0413 0.16838,0.007 0.43448,-0.0256 l 0.0827,0.20671 z"
         style="font-weight:600;font-family:'Bembo Std';-inkscape-font-specification:'Bembo Std Semi-Bold';fill:#000000;stroke:none"
         id="path2203" />
      <path
         d="m 133.09196,115.13194 -1.07574,0.19324 q -0.28288,0.0508 -0.426,0.1012 -0.13914,0.0497 -0.22228,0.15921 -0.0832,0.10953 -0.0791,0.2692 0.008,0.15897 0.0682,0.44838 l -0.21913,0.0394 -0.44876,-2.4981 0.21913,-0.0394 q 0.0385,0.26041 0.0929,0.40281 0.0551,0.14639 0.1643,0.20492 0.10994,0.0625 0.23304,0.0609 0.12382,0.002 0.34694,-0.0376 l 3.27502,-0.58832 q 0.21515,-0.0387 0.3264,-0.0833 0.11125,-0.0447 0.1759,-0.14264 0.0693,-0.0947 0.0675,-0.24244 0.002,-0.14845 -0.0444,-0.40742 l 0.21914,-0.0394 q 0.0143,0.0797 0.0516,0.2416 0.0373,0.16192 0.10121,0.426 0.0639,0.26408 0.11265,0.48975 0.094,0.43142 0.19487,0.99319 0.0859,0.47811 0.0709,0.87562 -0.011,0.3968 -0.10207,0.66816 -0.0904,0.27534 -0.25227,0.47304 -0.16118,0.20169 -0.35619,0.30664 -0.19031,0.10822 -0.4214,0.14973 -0.90043,0.16176 -1.51538,-0.78887 -0.0829,0.17941 -0.45227,0.7105 l -0.43869,0.62581 q -0.44778,0.64389 -0.62915,1.14533 -0.18137,0.50143 -0.14226,1.01673 l -0.23109,0.0415 q -0.0985,-0.47994 -0.13038,-0.84026 -0.0318,-0.36032 -0.0179,-0.62605 0.0187,-0.26245 0.11261,-0.51787 0.0947,-0.25144 0.20405,-0.44382 0.11338,-0.19311 0.31929,-0.4892 l 0.35627,-0.51229 q 0.26474,-0.3807 0.37229,-0.56042 0.11154,-0.18043 0.25044,-0.46038 -0.11347,-0.44847 -0.13026,-0.72512 z m 2.78496,-0.50029 -2.55388,0.45877 q 0.006,0.17164 0.0226,0.26327 0.179,0.7904 0.54519,1.06598 0.37089,0.27885 1.01235,0.16362 0.6295,-0.11309 0.91131,-0.5133 0.28252,-0.39622 0.16443,-1.05362 -0.0444,-0.24702 -0.10202,-0.38472 z"
         style="font-weight:600;font-family:'Bembo Std';-inkscape-font-specification:'Bembo Std Semi-Bold';fill:#000000;stroke:none"
         id="path2200" />
      <path
         d="m 132.98835,126.0064 -1.05132,-0.0493 q -0.24618,-0.71263 -0.33587,-1.21934 -0.0899,-0.50267 -0.0656,-1.02024 0.0592,-1.26158 0.8071,-2.0005 0.74772,-0.73488 1.9163,-0.68004 0.24666,0.0116 0.4995,0.064 0.25689,0.0526 0.53134,0.16272 0.27831,0.11437 0.52199,0.27574 0.24772,0.16157 0.46719,0.40691 0.22352,0.24553 0.37565,0.54444 0.15597,0.30315 0.23404,0.71206 0.0821,0.4091 0.0599,0.88219 -0.0165,0.35179 -0.0889,0.68475 -0.0724,0.33295 -0.13959,0.55674 -0.0674,0.22782 -0.0722,0.32891 -0.007,0.14961 0.0828,0.22272 l -0.0112,0.23856 -1.52442,-0.0715 0.0116,-0.24666 q 0.67787,-0.11002 1.05786,-0.52175 0.37979,-0.40768 0.41015,-1.05465 0.0438,-0.93406 -0.60487,-1.53184 -0.6489,-0.59374 -1.76491,-0.64611 -0.48118,-0.0226 -0.88681,0.0718 -0.40581,0.0985 -0.68988,0.27967 -0.28021,0.18542 -0.48259,0.43933 -0.19853,0.25815 -0.30096,0.54106 -0.0986,0.28715 -0.113,0.59446 -0.025,0.53375 0.22525,1.07231 l 0.98258,0.0461 q 0.42053,0.0197 0.54229,-0.15691 0.12156,-0.17261 0.15097,-0.79935 l 0.2224,0.0104 -0.11632,2.47869 -0.22239,-0.0104 q 0.008,-0.16175 -0.0275,-0.27686 -0.0351,-0.11512 -0.0891,-0.17439 -0.0499,-0.0591 -0.14948,-0.0962 -0.0998,-0.0331 -0.17216,-0.0446 -0.0686,-0.007 -0.18986,-0.013 z"
         style="font-weight:600;font-family:'Bembo Std';-inkscape-font-specification:'Bembo Std Semi-Bold';fill:#000000;stroke:none"
         id="path2197" />
      <path
         d="m 132.72811,130.1082 2.56795,-0.91954 q 0.26893,-0.095 0.40869,-0.16197 0.1426,-0.0621 0.24466,-0.16024 0.10596,-0.0971 0.15511,-0.20125 0.0481,-0.10021 0.1109,-0.30128 l 0.21491,0.0582 -0.65144,2.40696 -0.21491,-0.0582 q 0.0835,-0.30869 0.0588,-0.44959 -0.0248,-0.1409 -0.14199,-0.17262 -0.14848,-0.0402 -0.60828,0.12473 l -1.78102,0.64605 1.20325,1.30278 q 0.3579,0.38203 0.49466,0.41904 0.13285,0.036 0.22424,-0.0693 0.0914,-0.10527 0.16437,-0.37488 l 0.21491,0.0582 -0.50868,1.87946 -0.21491,-0.0582 q 0.0323,-0.19675 0.0328,-0.32244 4.7e-4,-0.12568 -0.0236,-0.2538 -0.024,-0.12812 -0.1127,-0.26535 -0.0858,-0.13226 -0.2125,-0.28397 -0.12278,-0.15065 -0.34016,-0.38561 l -1.45473,-1.55117 -1.11361,-0.30139 q -0.16021,-0.0434 -0.26392,-0.063 -0.10085,-0.0147 -0.19528,-0.007 -0.0905,0.009 -0.14618,0.0443 -0.0557,0.0353 -0.11126,0.11667 -0.0556,0.0814 -0.098,0.19155 -0.0385,0.1112 -0.0861,0.28703 l -0.21491,-0.0582 0.65356,-2.41478 0.2149,0.0582 q -0.055,0.20319 -0.0739,0.31968 -0.0189,0.11648 -0.007,0.22865 0.0116,0.11217 0.082,0.17736 0.0694,0.0691 0.18805,0.12638 0.1226,0.0584 0.32579,0.11334 z"
         style="font-weight:600;font-family:'Bembo Std';-inkscape-font-specification:'Bembo Std Semi-Bold';fill:#000000;stroke:none"
         id="path2194" />
    </g>
  </g>
</svg>
