<?xml version="1.0" encoding="UTF-8" standalone="no"?>
<!-- Created with Inkscape (http://www.inkscape.org/) -->

<svg
   xmlns:dc="http://purl.org/dc/elements/1.1/"
   xmlns:cc="http://creativecommons.org/ns#"
   xmlns:rdf="http://www.w3.org/1999/02/22-rdf-syntax-ns#"
   xmlns:svg="http://www.w3.org/2000/svg"
   xmlns="http://www.w3.org/2000/svg"
   xmlns:sodipodi="http://sodipodi.sourceforge.net/DTD/sodipodi-0.dtd"
   xmlns:inkscape="http://www.inkscape.org/namespaces/inkscape"
   width="490"
   height="489.99997"
   id="svg2"
   version="1.1"
   inkscape:version="0.48.5 r10040"
   sodipodi:docname="New document 1">
  <title
     id="title3892">National Irrigation Administration (NIA)</title>
  <defs
     id="defs4" />
  <sodipodi:namedview
     id="base"
     pagecolor="#ffffff"
     bordercolor="#666666"
     borderopacity="1.0"
     inkscape:pageopacity="0.0"
     inkscape:pageshadow="2"
     inkscape:zoom="0.49497475"
     inkscape:cx="561.82476"
     inkscape:cy="345.86126"
     inkscape:document-units="px"
     inkscape:current-layer="layer1"
     showgrid="false"
     inkscape:snap-object-midpoints="true"
     inkscape:snap-center="true"
     fit-margin-top="0"
     fit-margin-left="0"
     fit-margin-right="0"
     fit-margin-bottom="0"
     inkscape:window-width="1366"
     inkscape:window-height="705"
     inkscape:window-x="-8"
     inkscape:window-y="-8"
     inkscape:window-maximized="1" />
  <metadata
     id="metadata7">
    <rdf:RDF>
      <cc:Work
         rdf:about="">
        <dc:format>image/svg+xml</dc:format>
        <dc:type
           rdf:resource="http://purl.org/dc/dcmitype/StillImage" />
        <dc:title>National Irrigation Administration (NIA)</dc:title>
      </cc:Work>
    </rdf:RDF>
  </metadata>
  <g
     inkscape:label="Layer 1"
     inkscape:groupmode="layer"
     id="layer1"
     transform="translate(-0.25643154,-276.18958)">
    <g
       id="g3887"
       transform="matrix(0.65595714,0,0,0.65595714,0.08822344,263.60205)">
      <path
         transform="matrix(1.2533768,0,0,1.2122824,772.57851,-36.878802)"
         d="m -20.203064,354.34677 c 0,170.15701 -133.416906,308.09653 -297.994996,308.09653 -164.57809,0 -297.99499,-137.93952 -297.99499,-308.09653 0,-170.15701 133.4169,-308.096526 297.99499,-308.096526 164.57809,0 297.994996,137.939516 297.994996,308.096526 z"
         sodipodi:ry="308.09653"
         sodipodi:rx="297.995"
         sodipodi:cy="354.34677"
         sodipodi:cx="-318.19806"
         id="path3052"
         style="fill:#006c35;fill-opacity:1;stroke:none"
         sodipodi:type="arc" />
      <path
         sodipodi:nodetypes="ccccassccasaccccaaccaaaascccc"
         inkscape:connector-curvature="0"
         id="path3048"
         d="m 456.58895,133.12337 c 27.4478,5.69964 53.58162,35.07515 58.22469,59.70648 8.963,51.13623 3.07259,126.41107 9.45553,167.07276 5.79336,28.31885 22.0922,30.96375 38.3858,41.92133 0,0 -81.44289,2.87314 -120.20816,-7.57614 -15.26649,-4.11512 -34.32601,-7.63441 -42.4264,-21.21321 -20.44391,-34.27038 -10.95968,-130.87164 -16.66751,-171.72593 -3.35866,-24.03987 -27.27413,-31.8198 -27.27413,-31.8198 27.27413,31.8198 -1.13782,147.12154 23.73859,210.11173 8.17574,17.6237 33.79451,20.10634 52.52793,25.25381 29.49844,8.10543 68.19884,4.13654 91.41881,8.08122 21.4682,3.64709 45.08157,8.73282 60.86169,23.73859 12.50534,11.8917 18.95266,30.11656 21.2132,47.22463 2.7374,35.33146 -1.35716,93.51271 0,123.74369 3.31032,8.11418 15.77902,9.12457 23.48605,10.35406 l -12.12183,9.09137 c 0,0 -31.6105,22.2412 -50.00255,26.26396 -21.74063,4.75518 -46.95842,6.79487 -66.67008,-3.53553 -12.06523,-6.32309 -22.26468,-18.98088 -25.00127,-32.32488 -11.37186,-42.47241 7.52665,-139.45567 -4.79822,-176.27162 -6.53833,-12.84367 -21.45204,-19.82374 -34.34519,-26.26396 -17.83366,-8.90803 -38.01406,-12.33921 -57.5787,-16.16244 -22.11537,-4.32168 -45.33971,-2.01015 -67.17514,-7.57615 -16.64727,-4.2435 -34.61948,-8.34315 -47.7297,-19.44544 -11.99837,-10.16072 -21.77614,-24.71449 -24.74874,-40.15355 -6.10843,-31.72589 7.72372,-89.47617 -1.26269,-132.83507 -7.53279,-31.79862 -15.63933,-39.10724 -45.96195,-46.46702 -26.06832,-6.31337 -80.30712,-5.05076 -80.30712,-5.05076 104.72901,-49.295287 250.74089,-23.30251 344.96709,-14.14213 z"
         style="fill:#ffffff;stroke:none" />
      <path
         sodipodi:nodetypes="cassaaaasccaccaasaaacsscc"
         inkscape:connector-curvature="0"
         id="path3050"
         d="m 480,654.50504 c 0,0 -11.93565,-11.63426 -16.42857,-18.57143 -3.76517,-5.81351 -8.10695,-12.01788 -8.57143,-18.92857 -2.56755,-38.20046 6.0798,-130.08246 1.42858,-160.71429 -1.94539,-12.81185 -13.48388,-23.19835 -24.28572,-30.35714 -17.93816,-11.8883 -40.85997,-14.31442 -62.14286,-17.5 -36.38978,-5.44675 -73.93487,-7.72509 -110.35714,-2.5 -23.73995,3.4057 -48.64643,8.43736 -68.57143,21.78571 -16.00663,10.72332 -31.63277,25.82385 -37.14286,44.28572 -11.11348,37.23638 -2.35631,44.01144 0,125.71428 -2.07127,14.13976 -15.81991,19.91862 -28.21428,23.21429 0,0 7.22264,2.92279 10.71428,4.64286 18.93003,9.32539 34.8125,25.89489 55.35715,30.71428 29.20899,4.72093 66.83737,-0.35702 87.14285,-19.64286 3.31812,-3.23875 5.75985,-7.62101 6.78572,-12.14285 1.66269,-7.32886 -1.35814,-14.98523 -1.42857,-22.5 -0.39982,-42.65972 -0.012,-94.42315 5.71428,-127.85714 2.42666,-14.16842 8.92008,-28.61219 19.28571,-38.57143 9.57591,-9.20049 23.26693,-13.91719 36.31654,-16.37781 11.16485,-2.10522 23.24271,-1.79934 34.04061,1.73495 12.91647,4.22772 34.06599,22.40283 34.06599,22.40283 -40.43789,-10.6247 -68.72812,-13.94076 -90.63879,6.99188 -21.46481,20.50668 -26.03416,74.69245 -20.9272,162.74815 1.48637,25.62847 37.12981,39.75542 62.5,45 40.17648,8.03683 74.78687,4.48819 115.35714,-3.57143 z"
         style="fill:#ffffff;stroke:none" />
    </g>
  </g>
</svg>
