<?xml version="1.0" encoding="UTF-8" standalone="no"?>
<!-- Created with Inkscape (http://www.inkscape.org/) -->

<svg
   xmlns:dc="http://purl.org/dc/elements/1.1/"
   xmlns:cc="http://creativecommons.org/ns#"
   xmlns:rdf="http://www.w3.org/1999/02/22-rdf-syntax-ns#"
   xmlns:svg="http://www.w3.org/2000/svg"
   xmlns="http://www.w3.org/2000/svg"
   xmlns:sodipodi="http://sodipodi.sourceforge.net/DTD/sodipodi-0.dtd"
   xmlns:inkscape="http://www.inkscape.org/namespaces/inkscape"
   width="490"
   height="490"
   id="svg4321"
   version="1.1"
   inkscape:version="0.48.5 r10040"
   sodipodi:docname="New document 7">
  <title
     id="title9149">Philippine Coconut Authority (PhilCOA)</title>
  <defs
     id="defs4323" />
  <sodipodi:namedview
     id="base"
     pagecolor="#ffffff"
     bordercolor="#666666"
     borderopacity="1.0"
     inkscape:pageopacity="0.0"
     inkscape:pageshadow="2"
     inkscape:zoom="0.49497475"
     inkscape:cx="505.75567"
     inkscape:cy="327.13893"
     inkscape:document-units="px"
     inkscape:current-layer="layer1"
     showgrid="false"
     inkscape:snap-object-midpoints="true"
     inkscape:snap-center="true"
     inkscape:snap-nodes="true"
     inkscape:snap-global="true"
     fit-margin-top="0"
     fit-margin-left="0"
     fit-margin-right="0"
     fit-margin-bottom="0"
     inkscape:window-width="1366"
     inkscape:window-height="705"
     inkscape:window-x="-8"
     inkscape:window-y="-8"
     inkscape:window-maximized="1" />
  <metadata
     id="metadata4326">
    <rdf:RDF>
      <cc:Work
         rdf:about="">
        <dc:format>image/svg+xml</dc:format>
        <dc:type
           rdf:resource="http://purl.org/dc/dcmitype/StillImage" />
        <cc:license
           rdf:resource="" />
        <dc:title>Philippine Coconut Authority (PhilCOA)</dc:title>
      </cc:Work>
    </rdf:RDF>
  </metadata>
  <g
     inkscape:label="Layer 1"
     inkscape:groupmode="layer"
     id="layer1"
     transform="translate(-9.0971272,-333.26502)">
    <g
       id="g9143"
       transform="matrix(0.68155091,0,0,0.68155091,2.8969719,262.168)">
      <path
         transform="matrix(1.1134158,0,0,1.0662372,1237.0357,-18.534615)"
         d="m -457.14285,452.36218 c 0,186.19886 -144.54807,337.14286 -322.85715,337.14286 -178.30908,0 -322.8571,-150.944 -322.8571,-337.14286 0,-186.19885 144.54802,-337.14285 322.8571,-337.14285 178.30908,0 322.85715,150.944 322.85715,337.14285 z"
         sodipodi:ry="337.14285"
         sodipodi:rx="322.85715"
         sodipodi:cy="452.36218"
         sodipodi:cx="-780"
         id="path8184"
         style="fill:#009246;fill-opacity:1;stroke:none"
         sodipodi:type="arc" />
      <path
         id="path8184-7"
         d="M 351.34375,129.71875 C 174.59834,138.67799 34.0625,284.80935 34.0625,463.78125 c 0,179.03499 140.63552,325.22811 317.46875,334.09375 l 0,-668.15625 c -0.0623,0.003 -0.12519,-0.003 -0.1875,0 z"
         style="fill:#fcd116;fill-opacity:1;stroke:none"
         inkscape:connector-curvature="0" />
      <path
         id="path8184-7-1-2"
         d="m 351.53125,248.78125 c -111.15622,8.68489 -198.65625,101.61399 -198.65625,215 0,113.38601 87.50003,206.34636 198.65625,215.03125 l 0,-430.03125 z"
         style="fill:#009246;fill-opacity:1;stroke:none"
         inkscape:connector-curvature="0" />
      <path
         id="path8184-7-1"
         d="m 351.53125,277.34375 c -95.41446,8.61042 -170.1875,88.78088 -170.1875,186.4375 0,97.65662 74.77304,177.85833 170.1875,186.46875 l 0,-372.90625 z"
         style="fill:#ffffff;stroke:none"
         inkscape:connector-curvature="0" />
    </g>
  </g>
</svg>
