<?xml version="1.0" encoding="UTF-8" standalone="no"?>
<svg
   xmlns:dc="http://purl.org/dc/elements/1.1/"
   xmlns:cc="http://creativecommons.org/ns#"
   xmlns:rdf="http://www.w3.org/1999/02/22-rdf-syntax-ns#"
   xmlns:svg="http://www.w3.org/2000/svg"
   xmlns="http://www.w3.org/2000/svg"
   xmlns:sodipodi="http://sodipodi.sourceforge.net/DTD/sodipodi-0.dtd"
   xmlns:inkscape="http://www.inkscape.org/namespaces/inkscape"
   width="150"
   height="150"
   viewBox="0 0 120 120"
   version="1.1"
   id="svg2"
   inkscape:version="0.48.2 r9819"
   sodipodi:docname="bsp-logonew.svg">
  <metadata
     id="metadata107">
    <rdf:RDF>
      <cc:Work
         rdf:about="">
        <dc:format>image/svg+xml</dc:format>
        <dc:type
           rdf:resource="http://purl.org/dc/dcmitype/StillImage" />
      </cc:Work>
    </rdf:RDF>
  </metadata>
  <defs
     id="defs105" />
  <sodipodi:namedview
     pagecolor="#ffffff"
     bordercolor="#666666"
     borderopacity="1"
     objecttolerance="10"
     gridtolerance="10"
     guidetolerance="10"
     inkscape:pageopacity="0"
     inkscape:pageshadow="2"
     inkscape:window-width="1280"
     inkscape:window-height="744"
     id="namedview103"
     showgrid="false"
     fit-margin-top="0"
     fit-margin-left="0"
     fit-margin-right="0"
     fit-margin-bottom="0"
     inkscape:zoom="1.7566667"
     inkscape:cx="75"
     inkscape:cy="75"
     inkscape:window-x="-4"
     inkscape:window-y="-4"
     inkscape:window-maximized="1"
     inkscape:current-layer="svg2" />
  <g
     id="g4041"
     transform="scale(0.1875,0.1875)">
    <path
       transform="scale(0.8,0.8)"
       id="path74"
       d="m 384.59375,0 c -26.3,2.1625 -52.675,4.80625 -78.3125,11.28125 -68.95,16.2875 -133.125,51.7625 -184.125,100.875 C 67.91875,164.34375 28.675,232.075 11.0625,305.3125 5.05,329.4375 1.875,354.1875 0,378.9375 l 0,41.53125 c 2.6125,41.375 10.7,82.5625 25.625,121.3125 20.8,55.0625 54.125,105.26875 96.4375,146.15625 31.7125,30.3625 68.30625,55.68125 108.09375,74.28125 46.925,22.0375 98.20625,34.60625 149.96875,37.15625 L 375.40625,800 416.75,800 c 7.725,-0.825 15.5,-1.49375 23.25,-2.15625 29.1875,-2.9375 58.0875,-9.025 85.9375,-18.25 84.5875,-27.85 159.00625,-85.025 207.96875,-159.375 30.2125,-45.6375 51.00625,-97.575 60.15625,-151.5625 3.175,-17.75 4.7375,-35.7375 5.9375,-53.6875 l 0,-34.8125 C 799.1,372.41875 798.39375,364.675 797.65625,356.9375 794.69375,330.0875 789.3,303.46875 780.875,277.78125 753.2375,190.76875 694.4,114.225 617.75,64.6875 558.1625,25.825 487.975,3.4125 416.875,0.6875 L 422.40625,0 384.59375,0 z"
       style="fill:#0082c8;fill-opacity:1"
       inkscape:connector-curvature="0" />
    <g
       id="g3171">
      <path
         style="fill:#ffffff"
         inkscape:connector-curvature="0"
         id="path27"
         d="m 221.77,118.57 c 1.76,-0.01 4.08,-0.32 4.6,1.93 3.32,11.41 7.36,22.89 14.57,32.49 7.37,10.04 17.84,17.14 28.33,23.56 7.38,4.41 14.75,8.85 22.36,12.86 6.22,3.09 12.56,6.29 19.5,7.34 -10.25,-10.51 -15.88,-24.32 -22.34,-37.25 -5.36,-10.96 0.17,-23.64 7.73,-32.04 1.2,-1.85 4.27,-1.72 5.16,0.4 0,3.12 -2.37,5.62 -2.92,8.64 -1.96,9.22 2.06,18.31 6.87,25.97 8.24,12.78 19.38,23.36 30.88,33.17 14.55,1.14 28.93,3.69 43.37,5.79 6.43,0.96 13.35,1.03 19.01,4.66 3.29,1.88 5.61,4.94 8.49,7.32 16.32,1.99 32.77,3.95 48.61,8.57 7.56,2.16 14.84,5.37 21.39,9.74 8.2,6.05 12.86,16.33 12.78,26.43 -1.56,9.3 -6.74,17.92 -14.19,23.71 1.16,-3.14 2.35,-6.27 3.1,-9.53 0.61,-2.19 -1.03,-4.11 -1.9,-5.97 -19.84,7.93 -40.72,13.33 -59.76,23.2 -2.72,1.32 -5.29,3.17 -8.4,3.37 0.28,-2.38 2.68,-3.28 4.43,-4.43 11.15,-6.44 23.14,-11.25 35.12,-15.89 6.72,-2.44 13.29,-5.29 19.55,-8.75 -13.83,-1.27 -27.82,1.06 -40.9,5.56 -9.16,3.01 -18.45,5.82 -27.08,10.18 3.89,-6.48 10.74,-10.22 17.51,-13.04 8.79,-3.58 18.03,-5.93 27.32,-7.81 11.18,-2.16 22.92,-3.41 34.03,-0.19 -1.07,-3.71 -2.74,-7.27 -5.38,-10.12 -7.7,-9.02 -17.77,-15.97 -28.98,-19.85 -15.66,-5.44 -32.06,-8.69 -48.59,-9.91 -11.02,-0.44 -22.21,-0.87 -32.9,-3.81 -4.06,-0.96 -7.26,-4.32 -11.57,-4.3 -12.51,-0.52 -25.04,0.02 -37.53,0.73 -6.68,-0.07 -13.5,0.7 -20.02,-1.14 -12.04,-3.08 -21.96,-11.05 -31.34,-18.82 -8.2,-7.13 -16.44,-14.21 -24.36,-21.64 -12.16,-11.7 -18.98,-28.78 -17.78,-45.65 0.11,-1.88 0.71,-3.68 1.23,-5.48 z" />
      <path
         style="fill:#ffffff"
         inkscape:connector-curvature="0"
         id="path33"
         d="m 165.54,182.58 c 14.11,-0.37 29.26,-0.42 41.85,6.89 9.75,5.61 18.08,13.29 26.55,20.61 13.97,13.39 33.44,18.89 52.17,21.34 10.24,1.28 20.57,1.48 30.87,1.12 3.47,-0.11 6.97,-0.7 10.4,0.09 0.07,0.91 0.19,2.75 0.25,3.66 -21.22,11.73 -43.11,22.44 -63.01,36.42 -9.96,6.9 -19.4,14.53 -28.59,22.42 -8.3,7.17 -15.52,15.84 -19.74,26.06 -3.94,9.06 -5.08,18.96 -5.43,28.75 0.19,11.72 2.1,23.34 2.37,35.05 -0.55,5.76 -0.35,12.27 -4.22,17.01 -1.85,2.4 -5.38,1.85 -7.91,1.07 -5.56,-2.16 -8.23,-8.09 -9.67,-13.48 -2.85,-11.62 -2.19,-23.74 -1.15,-35.55 1.56,-25.2 12.82,-49.29 30.01,-67.63 19.4,-21.12 45.1,-35.3 71.64,-45.44 -30.55,-2.18 -61.26,-11.35 -86.1,-29.68 -12.02,-10.18 -25.48,-18.94 -40.44,-24.12 -0.13,-1.53 -0.08,-3.07 0.15,-4.59 z" />
      <path
         style="fill:#ffffff"
         inkscape:connector-curvature="0"
         id="path35"
         d="m 157.55,204.6 c 0.91,-0.05 2.74,-0.15 3.65,-0.2 8.71,13.08 19.51,25.35 33.51,32.87 6.39,3.19 13.53,5.72 20.78,4.93 3.83,-0.4 7.67,-0.74 11.53,-0.84 8.17,-0.45 16.53,-1.7 24.58,0.32 0.1,1.46 0.14,2.93 0.13,4.4 -23.65,8.78 -44.97,24.43 -59.46,45.19 -7.05,9.45 -14.2,19.04 -23.37,26.58 -9.74,7.75 -21.67,11.8 -33.02,16.52 -0.63,-0.27 -1.89,-0.81 -2.52,-1.08 0.04,-1.56 -0.67,-3.82 1.36,-4.41 14.42,-5.7 26.33,-16.8 34.09,-30.12 10.09,-17.36 23.18,-33.47 40.28,-44.33 -3.94,-1.03 -8.09,-0.72 -11.99,-1.89 -11.43,-2.6 -22.21,-8.94 -29.07,-18.58 -5.29,-7.06 -8.62,-15.45 -10.55,-24.01 -0.48,-1.76 -0.22,-3.58 0.07,-5.35 z" />
      <path
         style="fill:#ffffff"
         inkscape:connector-curvature="0"
         id="path41"
         d="m 286.3,290.21 c 2.56,-2.31 6.03,1.29 3.98,3.88 -7.96,10.61 -16.26,21.15 -22,33.19 -7.32,14.4 -9.49,30.79 -9.44,46.77 0.65,12.84 0.63,26.46 7.14,37.98 6.17,11 19.04,15.55 26.31,25.59 1.53,2.25 2.52,5.26 1.37,7.89 -1.21,3.17 -4.67,4.51 -7.72,5.17 -2.49,0.5 -5.27,1.21 -7.62,-0.12 -11.62,-5.64 -21.61,-14.72 -27.93,-26.01 -7.17,-12.65 -10.25,-27.19 -11.25,-41.57 -2.52,-21.06 4.43,-42.27 16.09,-59.66 8.53,-12.56 19.02,-23.86 31.07,-33.11 z" />
      <path
         style="fill:#ffffff"
         inkscape:connector-curvature="0"
         id="path43"
         d="m 304.7,320.58 c 1.58,-0.28 3.19,-0.33 4.79,-0.17 0.9,9.88 0.51,19.86 1.86,29.71 2.56,23.79 9.72,47.83 24.82,66.78 11.82,14.93 28.52,25.2 46.29,31.55 6.32,2.05 11.83,6.15 18.45,7.37 8.44,2.28 17.88,2.82 25.07,8.3 5.31,4.8 2.91,13.71 -2.37,17.56 -6.61,5.09 -15.57,3.61 -23.01,1.51 -14.56,-4.7 -27.57,-13.06 -39.95,-21.88 -8.38,-6.2 -16.61,-12.65 -24.29,-19.7 -16.82,-16.2 -25.37,-38.96 -29.55,-61.5 -3.38,-19.61 -4.38,-39.73 -2.11,-59.53 z" />
      <path
         style="fill:#ffffff"
         inkscape:connector-curvature="0"
         id="path49"
         d="m 329.24,336.19 c 2.79,-0.7 4.26,2.16 5.95,3.78 26.41,27.92 55.64,54.14 90.35,71.28 17.01,8.27 35.49,14.01 54.49,14.74 8.83,0.34 18.14,0.52 26.13,4.77 3.98,2.11 7.5,6.56 6.07,11.3 -3.67,6.8 -12.09,8.76 -19.24,8.52 -14.2,-0.38 -27.77,-5.42 -40.77,-10.75 -9.84,-4.55 -20.13,-8.11 -29.64,-13.37 -17.61,-9.3 -33.68,-21.28 -48.53,-34.5 -16.95,-15.48 -32.56,-32.5 -45.91,-51.19 -1.21,-1.4 -0.97,-4.2 1.1,-4.58 z" />
    </g>
    <g
       id="g3145">
      <path
         style="fill:#ffffff"
         inkscape:connector-curvature="0"
         id="path9"
         d="m 285.35,28.88 c 7.58,-0.36 15.15,-0.65 22.71,-1.25 3.93,-0.15 8.27,-0.75 11.77,1.48 6.92,4.18 6.76,16.58 -1.11,19.63 -7.71,2.79 -16.15,1.04 -24.08,2.65 0.37,3.97 0.7,7.96 0.82,11.96 -2.7,0.15 -5.4,0.3 -8.09,0.44 -0.82,-11.63 -1.54,-23.26 -2.02,-34.91 m 8.42,7.38 c 0.22,2.41 0.44,4.82 0.66,7.23 5.55,-0.13 11.06,-0.86 16.62,-0.97 1.82,-0.01 3.53,-0.7 5.24,-1.28 0.25,-1.96 0.06,-3.91 -0.88,-5.68 -7.2,-0.62 -14.45,0.1 -21.64,0.7 z" />
      <path
         style="fill:#ffffff"
         inkscape:connector-curvature="0"
         id="path11"
         d="m 337.86,28.27 c 2.82,0.02 5.63,0.14 8.45,0.28 -1.05,11.64 -1.79,23.3 -2.73,34.94 -2.74,-0.14 -5.45,-0.42 -8.14,-0.87 0.65,-11.46 1.98,-22.87 2.42,-34.35 z" />
      <path
         style="fill:#ffffff"
         inkscape:connector-curvature="0"
         id="path13"
         d="m 364.94,30.39 c 2.87,0.66 5.94,0.8 8.63,2.03 5.71,9.16 10.85,18.7 16.47,27.93 2.08,-7.66 3.42,-15.49 5.4,-23.18 2.66,0.6 5.32,1.18 8,1.71 -2.68,11.32 -5.04,22.71 -7.77,34.02 -2.8,-0.55 -5.57,-1.18 -8.36,-1.73 -5.52,-9.42 -11.08,-18.82 -16.52,-28.29 -1.88,7.67 -3.53,15.4 -5.33,23.09 -2.72,-0.35 -5.39,-0.92 -8.03,-1.62 2.42,-11.34 5.31,-22.58 7.51,-33.96 z" />
      <path
         style="fill:#ffffff"
         inkscape:connector-curvature="0"
         id="path15"
         d="m 259.08,33.69 c 2.67,-0.47 5.34,-0.99 8.02,-1.42 1.89,11.42 4.45,22.72 6.53,34.1 -2.66,0.58 -5.34,1.12 -8.03,1.51 -2.13,-11.4 -4.75,-22.72 -6.52,-34.19 z" />
      <path
         style="fill:#ffffff"
         inkscape:connector-curvature="0"
         id="path17"
         d="m 214.09,46.74 c 2.65,-0.91 5.28,-1.92 8.04,-2.41 2.44,8.6 5.61,16.98 8.25,25.51 7.99,-2.16 15.67,-5.33 23.63,-7.57 0.83,2.42 1.59,4.87 2.02,7.4 -10.4,3.26 -20.66,6.94 -31.09,10.11 -3.48,-11.06 -7.25,-22.02 -10.85,-33.04 z" />
      <path
         style="fill:#ffffff"
         inkscape:connector-curvature="0"
         id="path19"
         d="m 407.87,71.87 c 8.78,-6.7 17.29,-13.78 26.18,-20.32 2.85,-0.65 5.67,1.95 8.39,2.9 0.47,13.11 2.17,26.15 2.36,39.28 -2.66,-1.29 -5.34,-2.53 -8.08,-3.63 -0.16,-2.69 -0.32,-5.39 -0.48,-8.09 -6.08,-2.5 -11.89,-5.77 -18.15,-7.77 -2.19,1.35 -4.09,3.1 -6.12,4.67 -2.71,-1.1 -5.4,-2.24 -8.08,-3.4 1.08,-1.46 2.51,-2.59 3.98,-3.64 m 17.33,-3.13 c 3.46,1.47 6.91,2.99 10.36,4.48 -0.09,-4.07 -0.27,-8.15 -0.99,-12.17 -3.06,2.64 -6.32,5.03 -9.37,7.69 z" />
      <path
         style="fill:#ffffff"
         inkscape:connector-curvature="0"
         id="path21"
         d="m 190.12,57.42 c 2.46,-1.04 4.88,-2.16 7.28,-3.34 3.71,7.5 7.2,15.11 10.88,22.63 1.39,3.03 3.22,5.92 3.75,9.26 -2.35,1.02 -4.69,2.07 -7.05,3.06 -4.85,-10.58 -10.27,-20.91 -14.86,-31.61 z" />
      <path
         style="fill:#ffffff"
         inkscape:connector-curvature="0"
         id="path23"
         d="m 167.03,70.17 c 3.44,-2.37 8.17,-3.51 11.99,-1.36 6.34,3.04 9.16,12.61 3.55,17.7 -5.54,4.99 -12.29,8.43 -18.39,12.69 2.09,3.47 4.31,6.86 6.65,10.17 -2.24,1.65 -4.57,3.17 -7,4.52 -6.3,-9.72 -12.93,-19.24 -18.97,-29.13 7.37,-4.9 14.75,-9.78 22.17,-14.59 m -10.98,16.35 c 0.97,2.27 2.4,4.29 3.85,6.27 5.04,-3.28 10.1,-6.53 15.07,-9.9 1.51,-0.87 2.13,-2.53 2.75,-4.06 -1.16,-1.17 -2.35,-2.31 -3.6,-3.38 -6.51,2.83 -11.96,7.53 -18.07,11.07 z" />
      <path
         style="fill:#ffffff"
         inkscape:connector-curvature="0"
         id="path25"
         d="m 462.76,84.09 c -2.06,-6.43 4.73,-12.74 11.05,-11.35 10.67,2.29 19.98,10.46 23.8,20.67 -2.51,0.83 -5.1,1.37 -7.73,1.52 -2.88,-6.02 -7.98,-10.92 -13.99,-13.78 -1.4,-0.77 -3.05,-0.61 -4.58,-0.73 0.24,1.09 -0.05,2.44 0.85,3.29 5.28,5.76 13.04,9.28 16.78,16.42 2.76,5.43 -1.18,12.5 -7.03,13.53 -6.71,1.15 -12.99,-2.49 -18.14,-6.37 -5.32,-4.1 -10.48,-9.44 -11.56,-16.34 2.35,-0.59 4.67,-1.28 7.01,-1.95 3.07,7.23 8.82,13.43 16.18,16.37 1.67,0.71 3.5,0.31 5.25,0.24 -0.1,-1.28 0.64,-2.83 -0.22,-3.94 -5.35,-6.37 -14.05,-9.77 -17.67,-17.58 z" />
      <path
         style="fill:#ffffff"
         inkscape:connector-curvature="0"
         id="path29"
         d="m 92.18,144.94 c -1.49,-14.36 12.16,-28.09 26.59,-26.57 -0.66,2.71 -1.36,5.41 -2.2,8.08 -8.07,-0.15 -15.48,6.57 -16.54,14.48 -0.91,5.64 4.22,11.34 9.92,10.9 5.38,-0.08 9.62,-4.22 12.4,-8.45 1.89,-2.71 2.1,-6.11 1.7,-9.29 -3.48,3.25 -6.34,7.06 -9.58,10.53 -1.85,-1.6 -3.71,-3.19 -5.59,-4.76 4.85,-6.62 10.69,-12.46 15.99,-18.73 6.32,4.61 9.42,13.08 6.82,20.59 -3.33,9.88 -12.77,18.84 -23.74,18.22 -7.94,-0.11 -15.41,-6.99 -15.77,-15 z" />
      <path
         style="fill:#ffffff"
         inkscape:connector-curvature="0"
         id="path31"
         d="m 69.96,167.88 c 1.04,-2.38 1.97,-7.86 5.57,-6.4 9.54,5.09 18.86,10.61 28.42,15.67 -1.29,2.74 -2.3,5.99 -4.73,7.9 -10.28,2.84 -20.75,4.93 -31.01,7.81 6.92,3.74 13.71,7.73 20.65,11.45 -1.43,2.43 -2.32,8.23 -6.22,6 -9.27,-5.08 -18.43,-10.36 -27.75,-15.36 0.86,-2.9 2.44,-5.48 4.01,-8.04 10.64,-2.41 21.25,-5.01 31.82,-7.77 -7.07,-3.48 -13.71,-7.75 -20.76,-11.26 z" />
      <path
         style="fill:#ffffff"
         inkscape:connector-curvature="0"
         id="path37"
         d="m 66.93,236.52 c 2.58,0.56 5.14,1.19 7.66,1.97 -2.92,10.45 -5.3,21.04 -8.11,31.51 -5.44,-0.78 -10.65,-2.55 -15.98,-3.79 -6,-1.57 -12.1,-2.81 -18,-4.72 0.81,-2.48 1.49,-5 2.07,-7.54 8.98,1.59 17.6,4.78 26.62,6.15 1.7,-7.91 4.09,-15.66 5.74,-23.58 z" />
      <path
         style="fill:#ffffff"
         inkscape:connector-curvature="0"
         id="path39"
         d="m 28.45,293.93 c 12.06,-5.03 23.9,-10.59 35.94,-15.66 -0.11,3.03 -0.35,6.06 -0.67,9.08 -2.46,1.02 -4.92,2.08 -7.37,3.14 -0.28,6.63 -1.23,13.22 -1.14,19.87 2.12,1.32 4.26,2.61 6.46,3.79 -0.01,3.02 -0.22,6.04 -0.49,9.04 -11.4,-6.58 -22.45,-13.77 -33.59,-20.79 0.26,-2.83 0.56,-5.65 0.86,-8.47 m 8.58,5.01 c 3.56,2.08 7.01,4.35 10.5,6.54 0.25,-3.78 0.65,-7.55 0.84,-11.34 -3.86,1.4 -7.55,3.23 -11.34,4.8 z" />
      <path
         style="fill:#ffffff"
         inkscape:connector-curvature="0"
         id="path45"
         d="m 49.63,338.04 c 3.9,-3.37 7.79,-6.76 11.66,-10.15 0.36,3.19 0.8,6.36 1.23,9.55 -3.67,3.43 -7.53,6.65 -11.17,10.12 0.49,4.62 1.13,9.22 1.48,13.86 4.1,-0.53 8.2,-1.09 12.33,-1.27 0.27,2.66 0.51,5.34 0.7,8.02 -11.52,1.02 -22.95,3.04 -34.49,3.73 -1.17,-7.98 -1.84,-16.02 -2.91,-24 -0.37,-3.89 -0.8,-8.36 1.9,-11.56 3.07,-4.04 8.84,-5.15 13.49,-3.58 2.6,0.85 4.15,3.24 5.78,5.28 m -13.74,5.86 c 0.22,6.33 1.64,12.56 1.92,18.9 2.54,-0.08 5.07,-0.26 7.6,-0.49 -1,-6.09 -1.36,-12.27 -2.3,-18.37 -0.28,-1.32 -1.1,-2.42 -1.72,-3.58 -2.45,-0.11 -5.46,0.5 -5.5,3.54 z" />
      <path
         style="fill:#ffffff"
         inkscape:connector-curvature="0"
         id="path53"
         d="m 34.46,387.64 c 2.37,-0.81 4.71,-1.76 7.18,-2.21 1.97,4.62 3.07,9.58 4.61,14.37 8.77,-2.39 17.36,-5.37 26.1,-7.86 0.89,2.6 1.72,5.22 2.4,7.89 -8.63,2.49 -17.22,5.14 -25.76,7.92 1.03,4.97 3.06,9.66 4.07,14.64 -2.37,0.8 -4.75,1.55 -7.17,2.18 -3.75,-12.33 -7.58,-24.64 -11.43,-36.93 z" />
      <path
         style="fill:#ffffff"
         inkscape:connector-curvature="0"
         id="path55"
         d="m 52.14,439.26 c 10.27,-5.24 20.28,-11.03 30.64,-16.09 1.62,2.4 3.29,4.94 3.97,7.78 -3.23,10.26 -6.94,20.39 -10.52,30.54 7.12,-3.59 14.15,-7.36 21.14,-11.19 1.45,2.38 2.85,4.82 3.64,7.52 -10.2,5.33 -20.29,10.86 -30.53,16.11 -1.32,-3.35 -5.17,-6.64 -3.16,-10.42 3.28,-9.34 6.6,-18.66 9.65,-28.08 -6.27,3.23 -12.42,6.69 -18.69,9.92 -3.87,2.19 -4.62,-3.75 -6.14,-6.09 z" />
      <path
         style="fill:#ffffff"
         inkscape:connector-curvature="0"
         id="path57"
         d="m 101.96,471.17 c 1.86,-1.42 3.71,-2.86 5.64,-4.19 7.16,8.67 14.21,17.42 21.34,26.11 0.82,0.72 1.41,2.27 0.29,3.01 -8.24,6.83 -16.6,13.52 -24.9,20.28 -1.05,1.01 -1.82,-0.57 -2.51,-1.18 -6.9,-8.44 -13.72,-16.95 -20.66,-25.36 1.95,-1.66 3.97,-3.24 6.02,-4.78 5.68,6.89 11.35,13.8 16.94,20.76 1.34,-1.01 2.68,-2.02 4.02,-3.01 -3.16,-5.03 -7.57,-9.11 -10.9,-14.01 -0.02,-2.76 3.47,-3.79 5.05,-5.64 3.97,4.25 7.25,9.09 11.17,13.39 2.16,1.18 3.98,-1.79 5.7,-2.77 -5,-7.23 -11.08,-13.66 -16.42,-20.63 -0.2,-0.49 -0.59,-1.48 -0.78,-1.98 z" />
      <path
         style="fill:#ffffff"
         inkscape:connector-curvature="0"
         id="path59"
         d="m 129.19,520.94 c -2.39,-5.77 2.87,-12.36 8.77,-12.62 4.26,-0.3 8.31,1.56 11.71,3.96 7.17,5.15 14.06,12.21 15.29,21.34 -2.4,0.58 -4.81,1.12 -7.21,1.75 -2.43,-7.64 -7.55,-14.59 -14.81,-18.22 -1.62,-0.89 -3.51,-0.53 -5.27,-0.53 -0.1,1.46 -0.78,3.19 0.45,4.38 4.78,6.16 11.97,10.47 15.22,17.78 2.5,7.05 -5.87,13.62 -12.41,10.94 -10.05,-3.58 -18.65,-12.42 -20.9,-22.99 2.54,-0.29 5.08,-0.5 7.64,-0.6 2.94,7.41 8.72,14.82 16.88,16.51 0.01,-1.23 0.52,-2.66 -0.41,-3.69 -4.74,-6.19 -12.17,-10.43 -14.95,-18.01 z" />
      <path
         style="fill:#ffffff"
         inkscape:connector-curvature="0"
         id="path61"
         d="m 450.98,541.15 c 7.74,-4.99 15.52,-9.92 23.27,-14.87 6.31,9.81 12.73,19.57 18.76,29.56 -8.05,4.96 -15.93,10.19 -23.99,15.14 -4.28,2.77 -10.94,2.47 -13.96,-2.01 -1.84,-2.03 -1.92,-4.81 -1.92,-7.38 -4.69,-0.9 -8.73,-4.68 -9.33,-9.51 -0.39,-4.82 3.43,-8.54 7.17,-10.93 m 20.4,-3.94 c -6.25,4.36 -13.09,7.85 -19.03,12.66 0.22,1.36 0.62,2.68 1.14,3.97 1.53,-0.13 3.22,0.13 4.53,-0.85 5.62,-3.55 11.27,-7.04 16.79,-10.75 -1.13,-1.69 -2.26,-3.37 -3.43,-5.03 m -5.36,19.87 c -2.14,1.23 -4.15,2.73 -5.62,4.75 0.36,0.7 1.07,2.11 1.43,2.81 1.36,-0.05 2.85,0.18 4.02,-0.72 5.42,-3.29 10.6,-6.95 16.07,-10.14 -0.89,-1.61 -1.83,-3.19 -2.77,-4.76 -4.62,2.26 -8.72,5.42 -13.13,8.06 z" />
      <path
         style="fill:#ffffff"
         inkscape:connector-curvature="0"
         id="path63"
         d="m 194.24,551.28 c 11.74,-3.9 26.12,2.48 30.91,13.94 3.58,8.19 -0.87,18.88 -9.35,21.89 -11.94,4.62 -27.25,-2.16 -31.7,-14.21 -3.05,-8.38 1.54,-18.8 10.14,-21.62 m 3.28,7.41 c -5.28,1.95 -7.73,9.06 -4.71,13.85 3.56,5.88 11.01,9.21 17.76,7.86 5.56,-1.08 8.99,-7.78 6.82,-12.95 -1.29,-3.38 -4.32,-5.71 -7.41,-7.37 -3.78,-1.92 -8.39,-3.19 -12.46,-1.39 z" />
      <path
         style="fill:#ffffff"
         inkscape:connector-curvature="0"
         id="path65"
         d="m 425.74,554.6 c 2.7,-1.14 5.42,-2.22 8.14,-3.3 -0.58,13.13 -2.75,26.15 -4.21,39.21 -2.76,0.92 -5.57,2.82 -8.58,2.16 -9.78,-8.16 -19.28,-16.66 -29,-24.88 2.78,-1.19 5.56,-2.36 8.39,-3.44 2.04,1.8 4.12,3.58 6.21,5.33 6.13,-2.57 12.43,-4.7 18.49,-7.42 0.16,-2.56 0.37,-5.12 0.56,-7.66 m -12.52,20.66 c 2.97,2.81 6.14,5.38 9.22,8.08 0.64,-4.03 1.16,-8.08 1.35,-12.15 -3.49,1.45 -7,2.85 -10.57,4.07 z" />
      <path
         style="fill:#ffffff"
         inkscape:connector-curvature="0"
         id="path67"
         d="m 236.98,565.14 c 3.41,0.14 6.73,0.99 10.05,1.73 3.74,6.15 6.94,12.63 10.62,18.82 3.32,0.11 6.4,-2.33 9.53,-3.43 0.7,-3.37 1.5,-6.72 2.36,-10.04 2.69,0.59 5.36,1.29 7.98,2.17 -2.85,11.16 -5.28,22.42 -8.03,33.6 -2.66,-0.53 -5.3,-1.14 -7.94,-1.75 1.02,-4.88 2.4,-9.67 3.26,-14.58 -7.7,2.92 -15.07,6.65 -22.76,9.59 -4.16,-0.11 -8.2,-1.66 -12.26,-2.57 6.78,-3.46 14.01,-5.93 20.82,-9.33 -4.7,-7.98 -9.02,-16.17 -13.63,-24.21 z" />
      <path
         style="fill:#ffffff"
         inkscape:connector-curvature="0"
         id="path69"
         d="m 376.1,570.84 c 2.67,-0.36 5.35,-0.75 8.01,-1.21 1.73,11.51 4.39,22.89 5.78,34.44 -2.76,0.37 -5.51,0.83 -8.23,1.43 -8.83,-6.45 -17.49,-13.13 -26.21,-19.73 1.26,7.87 2.68,15.72 4.13,23.57 -2.68,0.49 -5.36,0.98 -8.05,1.38 -2.17,-11.41 -4.14,-22.86 -6.14,-34.3 3.59,-0.36 7.91,-2.68 10.97,0.23 7.78,6.03 15.77,11.79 23.51,17.87 -0.75,-7.97 -2.92,-15.72 -3.77,-23.68 z" />
      <path
         style="fill:#ffffff"
         inkscape:connector-curvature="0"
         id="path71"
         d="m 293.88,581.91 c 5.35,-5.55 13.75,-6.79 21.08,-5.73 6.81,0.95 13.6,4.94 16.45,11.4 3.25,7.5 0.46,16.91 -6.51,21.26 -9.75,6.18 -24.2,5.13 -32.16,-3.57 -0.94,-0.86 -1.39,-2.04 -1.82,-3.18 2.42,-1.09 4.85,-2.21 7.4,-2.98 4.88,6.36 14.65,7.48 21.37,3.58 5.49,-3.14 6.28,-11.79 1.27,-15.73 -6.18,-4.77 -16.53,-4.89 -21.64,1.56 4.73,0.25 9.5,0.03 14.2,0.86 -0.08,2.43 -0.16,4.86 -0.22,7.31 -8.24,-0.48 -16.58,0.16 -24.76,-1.05 0.46,-4.94 1.55,-10.2 5.34,-13.73 z" />
    </g>
    <path
       d="m 294.44,78.59 c 6.88,0.14 13.68,-1.19 20.56,-1.02 9.4,0.02 18.84,-0.41 28.19,0.77 7.19,0.02 14.18,2.2 21.38,2.23 l -0.15,0.81 c 3.4,0.07 6.7,0.98 10.09,1.25 l 0,0.69 c 3.01,0.33 5.96,1.02 8.96,1.37 l 0.03,0.68 c 2.37,0.34 4.7,0.85 7.06,1.27 l -0.09,0.71 c 3.63,0.26 6.93,1.9 10.41,2.86 2.49,0.94 4.97,1.95 7.6,2.44 l 0.06,0.7 c 1.64,0.41 3.28,0.86 4.94,1.28 l 0.08,0.69 c 1.64,0.41 3.28,0.87 4.93,1.3 l 0.08,0.74 c 4.56,1.07 8.33,4.14 12.84,5.37 l 0.18,1.05 c 0.36,-0.06 1.08,-0.2 1.44,-0.27 2.74,2.18 6.02,3.51 9.06,5.23 1.07,0.78 2.21,1.48 3.47,1.93 l 0.08,0.55 c 3.38,1 5.86,3.6 8.87,5.27 1.24,0.73 2.61,1.35 3.53,2.51 0.5,0.37 1.51,1.12 2.01,1.49 l 1.29,-0.23 c 0.05,0.36 0.14,1.08 0.18,1.44 0.38,-0.01 1.15,-0.04 1.53,-0.05 1.42,2.33 4.11,3.35 6.15,5.05 3.25,2.74 6.68,5.27 9.86,8.1 5.5,4.31 10.13,9.57 15.48,14.04 -0.01,0.8 -0.03,1.6 -0.03,2.4 -2.01,0.97 -3.75,2.39 -5.54,3.69 -1.25,-1.39 -2.5,-2.77 -3.77,-4.13 -6.71,-6.38 -13.6,-12.57 -21.06,-18.06 -1.87,-1.89 -4.67,-2.75 -6.1,-5.03 -0.29,-0.04 -0.87,-0.12 -1.15,-0.15 -9.7,-7.37 -20.41,-13.34 -31.25,-18.82 -2.64,-1.29 -5.24,-2.72 -8.08,-3.49 l -0.11,-1.03 c -0.44,0.1 -1.32,0.31 -1.76,0.41 l -0.38,-1.24 c -0.45,0.1 -1.33,0.29 -1.78,0.39 l -0.07,-1.04 c -1.56,-0.39 -3.09,-0.85 -4.6,-1.37 -1.17,-0.69 -2.44,-1.17 -3.72,-1.59 -1.45,-0.49 -2.85,-1.08 -4.24,-1.68 -1.14,-0.28 -2.27,-0.53 -3.41,-0.76 l -0.02,-0.61 c -1.16,-0.28 -2.32,-0.59 -3.46,-0.91 -0.53,-0.13 -1.6,-0.38 -2.13,-0.51 -2.29,-1.22 -4.87,-1.61 -7.41,-1.93 l -0.02,-0.72 c -1.47,-0.21 -2.95,-0.44 -4.4,-0.72 -4.08,-1.3 -8.26,-2.41 -12.56,-2.54 l 0.04,-0.82 c -4.23,-0.05 -8.38,-0.95 -12.55,-1.6 -3.24,-0.92 -6.69,-0.2 -9.91,-1.15 -4.55,-0.42 -9.13,-0.5 -13.69,-0.39 l 0.24,-0.89 c -6.17,0.34 -12.42,-0.53 -18.52,0.72 -4.37,0.38 -8.78,0.13 -13.14,0.56 -2.77,0.72 -5.64,0.72 -8.48,0.75 l 0.07,0.85 c -7.52,-0.22 -14.68,2.63 -22.12,3.19 l 0.15,0.72 c -2.72,0.27 -5.39,0.84 -8.08,1.32 l -0.03,0.66 c -1.5,0.18 -2.99,0.43 -4.43,0.91 -0.64,0.08 -1.93,0.23 -2.58,0.31 l 0,0.75 c -1.91,0.29 -3.79,0.74 -5.63,1.34 -2.89,1.29 -6.05,1.89 -8.91,3.25 -1.13,0.29 -2.26,0.56 -3.39,0.81 l -0.08,0.66 c -1.64,0.42 -3.26,0.89 -4.89,1.32 l -0.04,0.72 c -3.23,0.41 -5.8,2.67 -9,3.21 l -0.04,0.67 c -5.1,1.69 -9.98,4.26 -14.45,7.22 -0.37,-0.05 -1.1,-0.15 -1.47,-0.2 l -0.15,1.35 c -0.36,-0.04 -1.1,-0.12 -1.46,-0.15 -1.5,1.36 -3.25,2.38 -5.07,3.23 -10.28,6.13 -20.2,12.89 -29.46,20.5 -2.55,2.14 -5.33,4.08 -7.43,6.7 -5.46,3.75 -9.72,9 -14.5,13.55 -4.3,4.1 -7.84,8.89 -11.79,13.31 -1.14,1.47 -2.29,2.94 -3.42,4.42 -1.99,2.06 -3.24,4.71 -5.26,6.74 -0.98,1.68 -2.03,3.32 -3.28,4.82 -1.2,2.11 -2.64,4.06 -4.01,6.06 -1.98,3.36 -4.01,6.7 -5.97,10.07 -1.8,3.47 -3.74,6.87 -5.44,10.39 -1.45,2.99 -3.16,5.89 -3.88,9.17 l -0.75,0.09 c -0.46,1.65 -0.96,3.28 -1.41,4.94 l -1.06,0.08 c 0.07,0.35 0.19,1.06 0.26,1.41 -0.65,1.06 -1.04,2.21 -1.19,3.45 l -0.72,0.04 c -0.35,1.69 -0.75,3.37 -1.11,5.07 l -0.79,0.05 c -0.38,2 -0.84,3.98 -1.27,5.97 l -0.74,-0.1 c -0.46,4.83 -3.1,9.15 -3.32,14.03 l -0.69,0.01 c -0.38,2.7 -1,5.37 -1.26,8.09 l -0.76,-0.14 c -0.18,3.4 -1.11,6.7 -1.25,10.11 l -0.79,-0.05 c 0.1,4.73 -1.49,9.3 -1.17,14.04 l -0.84,-0.08 c 0.03,4.52 -0.3,9.02 -0.86,13.5 -0.3,9.67 -0.3,19.35 -0.01,29.03 0.43,4.18 0.92,8.38 0.83,12.6 l 0.86,-0.15 c -0.05,11.24 3.55,22.05 5.22,33.06 l 0.74,0 c 0.26,3.95 1.64,7.69 2.95,11.4 0.06,0.64 0.19,1.94 0.25,2.59 l 0.75,0.02 c 0.22,1.16 0.53,2.32 0.91,3.45 0.11,0.54 0.33,1.62 0.44,2.15 1.15,1.57 1.46,3.51 1.85,5.37 l 0.73,0.09 c 0.27,1.11 0.54,2.23 0.82,3.35 1.03,2.11 1.97,4.26 2.53,6.55 l 0.73,-0.01 c 0.44,1.67 0.92,3.34 1.36,5.02 l 1.06,0.06 c -0.03,0.36 -0.1,1.09 -0.14,1.45 0.27,0.6 0.8,1.82 1.06,2.42 l 0.79,0.15 c 0.37,1.29 0.77,2.57 1.15,3.87 l 0.75,0.14 c 0.29,0.61 0.87,1.81 1.16,2.41 -0.04,0.27 -0.14,0.8 -0.18,1.07 3.6,4.35 5.56,9.85 8.89,14.43 1.91,3.05 3.86,6.09 5.99,9.01 1.74,2.59 3.65,5.08 5.48,7.62 1.41,1.73 2.81,3.48 4.08,5.33 l 0.48,0.21 c 7.68,9.88 16.69,18.73 25.99,27.08 2.06,1.77 4.05,3.63 6.27,5.2 0.08,0.29 0.23,0.86 0.3,1.15 1.35,0.38 2.95,0.64 3.12,2.38 l 1.09,0.04 c 3.11,2.79 6.51,5.26 10.03,7.51 1.43,1.56 3.43,2.43 5.15,3.63 1.22,0.89 2.46,1.76 3.72,2.61 3.46,1.89 6.95,3.85 10.04,6.32 0.26,-0.02 0.78,-0.05 1.04,-0.06 4.19,2.83 8.81,5.12 13.46,7.07 l 0.11,0.71 c 1.6,0.45 3.18,0.94 4.78,1.4 l 0.18,0.83 c 1.31,0.32 2.61,0.68 3.93,1.01 l 0.05,0.81 c 1.66,0.44 3.3,0.93 4.97,1.38 l 0.06,0.72 c 3.45,0.7 6.47,2.71 9.99,3.2 l -0.05,0.66 c 2.01,0.36 4,0.86 6,1.33 l 0.09,0.8 c 0.84,0.07 1.68,0.14 2.53,0.22 6.01,2.12 12.17,3.99 18.48,4.96 l -0.07,0.73 c 3.37,0.13 6.61,1.18 9.99,1.27 l 0.03,0.78 c 4.39,0 8.64,1.4 13.05,1.19 l -0.13,0.85 c 3.16,0.07 6.37,0 9.48,0.74 4.55,0.38 9.13,0.43 13.71,0.37 l -0.25,0.91 c 4.79,-0.28 9.63,0.32 14.37,-0.55 5.7,-0.79 11.55,0.2 17.19,-1.08 6.95,-0.05 13.67,-2.16 20.61,-2.41 l -0.09,-0.77 c 7.06,-0.38 13.75,-2.95 20.61,-4.47 5.24,-1.33 10.18,-3.66 15.46,-4.79 l -0.03,-0.66 c 1.14,-0.26 2.28,-0.53 3.42,-0.8 2.1,-1.02 4.24,-1.98 6.53,-2.5 l 0.04,-0.72 c 1.67,-0.43 3.34,-0.91 5.01,-1.34 l 0.06,-0.75 c 1.19,-0.39 2.38,-0.79 3.58,-1.2 6.69,-3.35 13.46,-6.61 19.79,-10.64 2.12,-1.04 4.03,-2.47 6.15,-3.51 3.86,-2.9 8.2,-5.12 11.87,-8.27 2.15,-1.21 4.1,-2.74 5.84,-4.49 l 0.39,-0.09 c 1.14,-0.79 2.39,-1.34 3.75,-1.65 -0.76,-0.14 -2.29,-0.43 -3.05,-0.57 1.15,-0.23 2.31,-0.46 3.47,-0.68 1.73,-1.68 3.5,-3.32 5.41,-4.8 3.77,-2.83 6.86,-6.43 10.42,-9.51 1.94,-3.69 5.66,-0.19 8.23,0.85 0.09,0.72 0.19,1.45 0.29,2.19 -1.59,1.55 -3.17,3.12 -4.81,4.62 -7.61,6.74 -15.25,13.56 -23.7,19.27 -0.93,0.53 -1.64,1.27 -2.13,2.22 -0.39,-0.01 -1.17,-0.03 -1.56,-0.04 -0.03,0.35 -0.11,1.06 -0.15,1.42 l -1.3,-0.19 c -0.51,0.35 -1.55,1.06 -2.06,1.41 -5.93,4.58 -12.73,8.05 -19.25,11.76 -1.29,0.88 -2.7,1.52 -4.19,1.96 l -0.12,1.01 c -0.36,-0.04 -1.1,-0.11 -1.47,-0.15 -0.61,0.27 -1.82,0.81 -2.43,1.08 l -0.12,0.74 c -1.2,0.39 -2.39,0.82 -3.56,1.26 -1.76,1.2 -3.86,1.7 -5.75,2.65 -0.52,0.31 -1.57,0.93 -2.09,1.24 -0.37,-0.06 -1.12,-0.19 -1.49,-0.26 l 0.02,1.1 c -1.69,0.4 -3.36,0.85 -5.03,1.26 l -0.1,0.68 c -2.58,0.64 -5.08,1.53 -7.49,2.65 -1.13,0.29 -2.27,0.54 -3.41,0.77 l 0,0.6 c -1.2,0.25 -2.37,0.56 -3.52,0.94 -0.61,0.08 -1.84,0.25 -2.46,0.33 l -0.06,0.89 c -0.64,0.06 -1.93,0.17 -2.57,0.22 -2.29,0.84 -4.62,1.58 -6.97,2.25 -1.48,0.31 -2.97,0.52 -4.47,0.71 l 0.03,0.7 c -6.41,0.67 -12.5,3.26 -19,3.28 l 0.03,0.82 c -2.18,0.05 -4.41,0.02 -6.49,0.73 -2.53,0.31 -5.07,0.41 -7.61,0.4 l 0.17,0.88 c -5.88,-0.27 -11.67,1.07 -17.54,0.98 -8.68,0.07 -17.37,0.17 -26.04,-0.15 -4.18,-0.55 -8.38,-0.87 -12.59,-0.84 l 0.15,-0.88 c -4.77,0.35 -9.42,-0.98 -14.16,-1.17 l 0.14,-0.77 c -3.4,-0.1 -6.69,-0.97 -10.07,-1.25 l -0.01,-0.71 c -3.97,-0.26 -7.75,-1.58 -11.58,-2.5 -2.64,-0.71 -5.26,-1.49 -7.81,-2.46 -0.64,-0.06 -1.93,-0.2 -2.57,-0.26 l -0.06,-0.73 c -1.16,-0.28 -2.3,-0.6 -3.42,-0.96 -0.63,-0.07 -1.9,-0.21 -2.53,-0.28 l -0.06,-0.81 c -1.12,-0.28 -2.23,-0.56 -3.34,-0.84 -1.68,-0.67 -3.34,-1.38 -5.01,-2.04 -1.78,-0.58 -3.49,-1.33 -5.1,-2.26 -0.37,0.06 -1.11,0.19 -1.48,0.26 l 0,-1.07 c -1.66,-0.46 -3.31,-0.96 -4.97,-1.41 l -0.06,-0.8 c -1.31,-0.37 -2.62,-0.74 -3.93,-1.09 l -0.15,-0.82 c -1.3,-0.39 -2.58,-0.8 -3.87,-1.18 l -0.11,-1.1 c -0.45,0.08 -1.35,0.23 -1.8,0.31 l -0.26,-1.27 c -0.45,0.1 -1.35,0.28 -1.8,0.37 l -0.17,-1.38 c -0.36,0.03 -1.09,0.08 -1.46,0.11 -1.81,-1.44 -3.92,-2.41 -5.88,-3.61 -2.4,-1.24 -4.71,-2.63 -6.97,-4.12 -6.17,-3.81 -12.39,-7.68 -18.02,-12.28 -0.37,-0.01 -1.09,-0.04 -1.45,-0.05 -0.09,-0.48 -0.25,-1.44 -0.33,-1.92 l -1.31,0.07 c -0.37,-0.33 -1.12,-0.99 -1.5,-1.33 l -0.07,-0.88 c -0.37,0.03 -1.11,0.1 -1.48,0.13 -2.14,-2.94 -5.56,-4.83 -8.31,-7.24 l -0.15,-0.46 c -3.95,-2.72 -7,-6.48 -10.65,-9.56 -1.34,-1.33 -2.7,-2.65 -4.07,-3.95 -9.12,-9.66 -18.21,-19.51 -25.47,-30.68 l -0.58,-0.18 c -5.27,-8.48 -11.2,-16.67 -15.41,-25.76 l -0.62,-0.25 c -0.83,-2.77 -2.92,-4.97 -3.4,-7.86 l -1.06,-0.08 c 0.11,-0.45 0.33,-1.34 0.44,-1.79 l -1.26,-0.28 c 0.07,-0.45 0.21,-1.35 0.27,-1.8 l -1.02,-0.15 c -0.73,-2.6 -1.81,-5.07 -3.14,-7.41 0.06,-0.36 0.18,-1.08 0.24,-1.45 l -1.03,-0.04 c -0.36,-1.58 -0.81,-3.14 -1.32,-4.68 -0.68,-1.17 -1.21,-2.41 -1.67,-3.68 -0.56,-2.12 -1.34,-4.17 -2.2,-6.17 0.06,-0.36 0.19,-1.06 0.25,-1.41 l -1.06,-0.09 c -0.44,-2.33 -0.98,-4.64 -1.4,-6.97 l -0.79,0.02 c -0.06,-0.64 -0.2,-1.93 -0.27,-2.57 -0.54,-1.46 -0.75,-3 -0.88,-4.54 l -0.72,0.13 c -0.47,-4.6 -1.85,-9.03 -2.9,-13.51 -0.15,-1.87 -0.27,-3.73 -0.36,-5.6 l -0.83,0.15 c -0.05,-1.89 -0.15,-3.8 -0.7,-5.62 -0.14,-5.22 -1.59,-10.28 -1.54,-15.5 -1.23,-9.44 -0.65,-19 -0.72,-28.49 -0.22,-6.53 1.19,-12.97 1,-19.5 l 0.89,0.1 c -0.41,-4.77 1.28,-9.37 1.09,-14.13 l 0.82,0.11 c 0.13,-3.41 0.97,-6.72 1.22,-10.11 l 0.74,0.05 c 0.15,-5.52 2.73,-10.57 3.27,-16.03 l 0.7,0 c 0.32,-4.54 2.97,-8.47 3.35,-12.99 l 0.71,0.01 c 0.36,-1.57 0.8,-3.12 1.29,-4.66 0.59,-1.21 1.1,-2.45 1.57,-3.71 0.49,-1.82 1.28,-3.53 2.25,-5.14 -0.08,-0.36 -0.23,-1.09 -0.3,-1.45 l 1.1,-0.02 c 0.43,-1.68 0.92,-3.34 1.36,-5.01 l 0.77,-0.07 c 0.35,-1.32 0.72,-2.62 1.07,-3.92 l 0.76,-0.11 c 1.47,-4.33 3.61,-8.48 6.06,-12.34 0.48,-1.05 0.95,-2.1 1.41,-3.14 3.55,-5.59 6.82,-11.35 10.34,-16.96 0.32,-0.22 0.96,-0.68 1.28,-0.91 -0.01,-0.38 -0.03,-1.14 -0.03,-1.52 l 0.96,-0.03 c 0.4,-1.37 1.28,-2.48 2.33,-3.41 0.02,-0.29 0.05,-0.87 0.07,-1.16 1.16,-0.71 2.06,-1.74 2.91,-2.78 -0.02,-0.38 -0.05,-1.14 -0.07,-1.52 0.46,-0.07 1.4,-0.19 1.87,-0.25 0.01,-0.39 0.04,-1.15 0.05,-1.54 2.75,-2.68 4.87,-5.89 7.45,-8.72 8.83,-10.48 18.68,-20.14 29.27,-28.84 1.76,-1.32 3.27,-2.99 5.23,-4.03 l 0.17,-0.88 c 0.47,0 1.4,0.02 1.87,0.03 0.05,-0.49 0.14,-1.46 0.18,-1.95 0.45,0.05 1.35,0.16 1.8,0.21 l 0.19,-0.9 c 1.86,-1.25 4.15,-2.12 5.34,-4.12 0.29,-0.03 0.88,-0.08 1.17,-0.11 3.06,-3.26 7.67,-4.47 10.8,-7.56 1.51,-0.59 2.93,-1.35 4.09,-2.51 0.35,0.06 1.05,0.18 1.4,0.25 l 0.08,-1.01 c 2.42,-0.9 4.45,-2.59 6.91,-3.41 l 0.19,-0.7 c 1.27,-0.42 2.53,-0.85 3.81,-1.26 l 0.15,-1.09 c 0.45,0.08 1.35,0.25 1.8,0.33 l 0.28,-1.23 c 0.45,0.08 1.33,0.23 1.77,0.3 l 0.14,-1.07 c 1.28,-0.4 2.56,-0.82 3.85,-1.21 l 0.18,-0.75 c 3.19,-0.58 5.76,-2.85 8.99,-3.28 l -0.04,-0.71 c 1.66,-0.42 3.31,-0.89 4.98,-1.3 l 0.01,-0.68 c 2.62,-0.49 5.09,-1.52 7.56,-2.48 2.27,-0.88 4.55,-1.71 6.86,-2.49 0.63,-0.05 1.9,-0.17 2.53,-0.23 l 0.09,-0.9 c 0.64,-0.06 1.9,-0.17 2.54,-0.23 2.29,-0.85 4.62,-1.58 6.98,-2.25 1.46,-0.32 2.95,-0.54 4.45,-0.71 l 0,-0.72 c 6.41,-0.65 12.52,-3.2 19.01,-3.23 l 0,-0.79 c 4.73,0.03 9.31,-1.56 14.07,-1.15 l -0.15,-0.88 z"
       id="path95"
       inkscape:connector-curvature="0"
       style="fill:#ffc02d;fill-opacity:1" />
    <path
       inkscape:transform-center-y="-1.3368805"
       inkscape:transform-center-x="0.95670989"
       transform="matrix(0.79989573,0.01291594,-0.01291594,0.79989573,7.8195181,-4.503517)"
       d="m 408.05086,642.3729 -19.06843,-9.7422 -15.42775,14.84925 3.37291,-21.14567 -18.88991,-10.08399 21.15301,-3.32654 3.75315,-21.08149 9.70036,19.08974 21.20948,-2.94508 -15.15785,15.12465 z"
       inkscape:randomized="0"
       inkscape:rounded="0"
       inkscape:flatsided="false"
       sodipodi:arg2="1.4238174"
       sodipodi:arg1="0.79549883"
       sodipodi:r2="11.568977"
       sodipodi:r1="29.664043"
       sodipodi:cy="621.18646"
       sodipodi:cx="387.28815"
       sodipodi:sides="5"
       id="path3181"
       style="fill:#ffc02d;fill-opacity:1;stroke:none"
       sodipodi:type="star" />
    <path
       inkscape:transform-center-y="1.1416809"
       inkscape:transform-center-x="-1.7933848"
       transform="matrix(0.68756193,0.40897261,-0.40897261,0.68756193,197.1541,-133.20252)"
       d="m 408.05086,642.3729 -19.06843,-9.7422 -15.42775,14.84925 3.37291,-21.14567 -18.88991,-10.08399 21.15301,-3.32654 3.75315,-21.08149 9.70036,19.08974 21.20948,-2.94508 -15.15785,15.12465 z"
       inkscape:randomized="0"
       inkscape:rounded="0"
       inkscape:flatsided="false"
       sodipodi:arg2="1.4238174"
       sodipodi:arg1="0.79549883"
       sodipodi:r2="11.568977"
       sodipodi:r1="29.664043"
       sodipodi:cy="621.18646"
       sodipodi:cx="387.28815"
       sodipodi:sides="5"
       id="path3181-1"
       style="fill:#ffc02d;fill-opacity:1;stroke:none"
       sodipodi:type="star" />
    <path
       inkscape:transform-center-y="-0.17150282"
       inkscape:transform-center-x="2.4259709"
       transform="matrix(0.34078332,0.7237864,-0.7237864,0.34078332,466.7498,-125.32171)"
       d="m 408.05086,642.3729 -19.06843,-9.7422 -15.42775,14.84925 3.37291,-21.14567 -18.88991,-10.08399 21.15301,-3.32654 3.75315,-21.08149 9.70036,19.08974 21.20948,-2.94508 -15.15785,15.12465 z"
       inkscape:randomized="0"
       inkscape:rounded="0"
       inkscape:flatsided="false"
       sodipodi:arg2="1.4238174"
       sodipodi:arg1="0.79549883"
       sodipodi:r2="11.568977"
       sodipodi:r1="29.664043"
       sodipodi:cy="621.18646"
       sodipodi:cx="387.28815"
       sodipodi:sides="5"
       id="path3181-1-7"
       style="fill:#ffc02d;fill-opacity:1;stroke:none"
       sodipodi:type="star" />
  </g>
</svg>
